<?xml version="1.0" encoding="UTF-8"?><svg id="Camada_2" xmlns="http://www.w3.org/2000/svg" viewBox="0 0 1315.09 319.66"><defs><style>.cls-1{fill:#fff;}.cls-2{fill:#127979;}</style></defs><g><rect class="cls-1" x="1.21" y="1.09" width="1312.67" height="317.48"/><path class="cls-2" d="m1313.88,1.09h-24v12h24V1.09h0Zm-48,0h-24v12h24V1.09h0Zm-48,0h-24v12h24V1.09h0Zm-48,0h-24v12h24V1.09h0Zm-48,0h-24v12h24V1.09h0Zm-48,0h-24v12h24V1.09h0Zm-48,0h-24v12h24V1.09h0Zm-48,0h-24v12h24V1.09h0Zm-48,0h-24v12h24V1.09h0Zm-48,0h-24v12h24V1.09h0Zm-48,0h-24v12h24V1.09h0Zm-48,0h-24v12h24V1.09h0Zm-48,0h-24v12h24V1.09h0Zm-48,0h-24v12h24V1.09h0Zm-48,0h-24v12h24V1.09h0Zm-48,0h-24v12h24V1.09h0Zm-48,0h-24v12h24V1.09h0Zm-48,0h-24v12h24V1.09h0Zm-48,0h-24v12h24V1.09h0Zm-48,0h-24v12h24V1.09h0Zm-48,0h-24v12h24V1.09h0Zm-48,0h-24v12h24V1.09h0Zm-48,0h-24v12h24V1.09h0Zm-48,0h-24v12h24V1.09h0Zm-48,0h-24v12h24V1.09h0Zm-48,0h-24v12h24V1.09h0Zm-48,0h-24v12h24V1.09h0Zm-48,0H1.21v12h16.67V1.09h0Zm-4.67,31.33H1.21v24h12v-24h0Zm0,48H1.21v24h12v-24h0Zm0,48H1.21v24h12v-24h0Zm0,48H1.21v24h12v-24h0Zm0,48H1.21v24h12v-24h0Zm0,48H1.21v24h12v-24h0Zm13.85,34.15H3.07v12h24v-12h0Zm48,0h-24v12h24v-12h0Zm48,0h-24v12h24v-12h0Zm48,0h-24v12h24v-12h0Zm48,0h-24v12h24v-12h0Zm48,0h-24v12h24v-12h0Zm48,0h-24v12h24v-12h0Zm48,0h-24v12h24v-12h0Zm48,0h-24v12h24v-12h0Zm48,0h-24v12h24v-12h0Zm48,0h-24v12h24v-12h0Zm48,0h-24v12h24v-12h0Zm48,0h-24v12h24v-12h0Zm48,0h-24v12h24v-12h0Zm48,0h-24v12h24v-12h0Zm48,0h-24v12h24v-12h0Zm48,0h-24v12h24v-12h0Zm48,0h-24v12h24v-12h0Zm48,0h-24v12h24v-12h0Zm48,0h-24v12h24v-12h0Zm48,0h-24v12h24v-12h0Zm48,0h-24v12h24v-12h0Zm48,0h-24v12h24v-12h0Zm48,0h-24v12h24v-12h0Zm48,0h-24v12h24v-12h0Zm48,0h-24v12h24v-12h0Zm48,0h-24v12h24v-12h0Zm38.82,0h-14.82v12h14.82v-12h0Zm0-45.18h-12v24h12v-24h0Zm0-48h-12v24h12v-24h0Zm0-48h-12v24h12v-24h0Zm0-48h-12v24h12v-24h0Zm0-48h-12v24h12v-24h0Zm0-48h-12v24h12v-24h0Z"/></g><g><rect class="cls-2" x="99.26" y="104.78" width="109.91" height="109.91"/><g><path class="cls-2" d="m268.44,113.35h66.18v12.85h-51.42v31.41h48.21v12.71h-48.21v44.56h-14.75v-101.53Z"/><path class="cls-2" d="m413.93,175.73c0,21.77-12.42,39.15-35.35,39.15-21.62,0-34.62-16.51-34.62-38.86s12.86-39,35.5-39c20.89,0,34.48,15.49,34.48,38.71Zm-55.22.15c0,15.92,7.74,27.17,20.45,27.17s20.16-10.66,20.16-27.03-7.3-27.17-20.45-27.17-20.16,10.37-20.16,27.03Z"/><path class="cls-2" d="m490.76,190.19c-3.07,12.71-11.69,24.69-31.26,24.69-20.89,0-33.45-15.05-33.45-38.57,0-21.18,12.12-39.3,34.48-39.3s29.36,15.78,30.24,25.13h-14.17c-1.61-7.3-6.14-13.29-16.36-13.29-12.42,0-19.43,10.66-19.43,27.03s6.86,27.32,18.99,27.32c8.91,0,14.02-4.82,16.8-13h14.17Z"/><path class="cls-2" d="m571.39,175.73c0,21.77-12.42,39.15-35.35,39.15-21.62,0-34.62-16.51-34.62-38.86s12.86-39,35.5-39c20.89,0,34.48,15.49,34.48,38.71Zm-55.22.15c0,15.92,7.74,27.17,20.45,27.17s20.16-10.66,20.16-27.03-7.3-27.17-20.45-27.17-20.16,10.37-20.16,27.03Z"/><path class="cls-2" d="m641.5,185.81l-10.23,29.07h-15.05l35.79-101.53h18.7l37.4,101.53h-16.07l-10.66-29.07h-39.88Zm36.23-12.86c-9.2-25.56-14.46-39.74-16.65-47.62h-.15c-2.48,8.76-8.33,25.71-15.63,47.62h32.43Z"/><path class="cls-2" d="m781.14,190.19c-3.07,12.71-11.69,24.69-31.26,24.69-20.89,0-33.45-15.05-33.45-38.57,0-21.18,12.12-39.3,34.48-39.3s29.36,15.78,30.24,25.13h-14.17c-1.61-7.3-6.14-13.29-16.36-13.29-12.42,0-19.43,10.66-19.43,27.03s6.86,27.32,18.99,27.32c8.91,0,14.02-4.82,16.8-13h14.17Z"/><path class="cls-2" d="m806.26,178.65c.14,14.02,7.16,24.39,19.28,24.39,11.1,0,14.75-5.55,16.95-10.81h14.46c-2.92,9.5-10.81,22.64-31.85,22.64-23.52,0-33.31-18.85-33.31-38.13,0-22.35,11.25-39.74,34.18-39.74,24.25,0,32.28,19.14,32.28,35.5,0,2.34,0,4.09-.29,6.14h-51.71Zm37.54-9.79c-.14-11.54-5.84-20.74-17.97-20.74s-17.97,8.62-19.14,20.74h37.1Z"/><path class="cls-2" d="m883.24,191.65c1.9,7.74,7.74,12.12,17.38,12.12,10.23,0,14.17-4.24,14.17-10.52s-3.36-9.5-16.8-12.86c-21.91-5.26-26.15-11.98-26.15-22.2s7.74-21.18,27.46-21.18,27.61,11.4,28.49,21.62h-13.73c-1.02-4.38-4.24-10.81-15.34-10.81-9.79,0-12.71,4.67-12.71,9.2,0,5.26,2.92,7.74,16.21,10.96,23.08,5.4,27.32,13.15,27.32,24.1,0,13-10.08,22.79-29.51,22.79s-29.21-9.93-31.11-23.23h14.32Z"/><path class="cls-2" d="m954.37,191.65c1.9,7.74,7.74,12.12,17.38,12.12,10.23,0,14.17-4.24,14.17-10.52s-3.36-9.5-16.8-12.86c-21.91-5.26-26.15-11.98-26.15-22.2s7.74-21.18,27.46-21.18,27.61,11.4,28.49,21.62h-13.73c-1.02-4.38-4.24-10.81-15.34-10.81-9.79,0-12.71,4.67-12.71,9.2,0,5.26,2.92,7.74,16.21,10.96,23.08,5.4,27.32,13.15,27.32,24.1,0,13-10.08,22.79-29.51,22.79s-29.21-9.93-31.11-23.23h14.32Z"/><path class="cls-2" d="m1052.53,106.34l-22.64,22.21h-13.29l18.41-22.21h17.53Zm-35.94,34.18h14.32v74.36h-14.32v-74.36Z"/><path class="cls-2" d="m1059.1,140.52c9.5,29.36,16.51,52.01,18.7,61.21h.15c1.75-9.06,9.64-31.41,19.87-61.21h14.46l-27.17,74.36h-15.49l-25.86-74.36h15.34Z"/><path class="cls-2" d="m1133.16,178.65c.14,14.02,7.16,24.39,19.28,24.39,11.1,0,14.75-5.55,16.95-10.81h14.46c-2.92,9.5-10.81,22.64-31.85,22.64-23.52,0-33.31-18.85-33.31-38.13,0-22.35,11.25-39.74,34.18-39.74,24.25,0,32.28,19.14,32.28,35.5,0,2.34,0,4.09-.29,6.14h-51.71Zm37.54-9.79c-.14-11.54-5.84-20.74-17.97-20.74s-17.97,8.62-19.14,20.74h37.1Z"/><path class="cls-2" d="m1201.52,214.88v-108.54h14.32v108.54h-14.32Z"/></g></g></svg>