<?xml version="1.0" encoding="UTF-8"?><svg id="icones" xmlns="http://www.w3.org/2000/svg" viewBox="0 0 308.51 308.51"><defs><style>.cls-1{fill:#d9335b;}</style></defs><rect class="cls-1" x="111.1" y="110.38" width="87.74" height="87.74" transform="translate(-63.69 154.76) rotate(-45)"/><polygon class="cls-1" points="296.13 163.09 288.1 154.25 288.1 154.25 288.1 154.25 296.13 145.42 304.97 154.25 296.13 163.09"/><path class="cls-1" d="m173.98,285.24l-8.03-8.03,10.18-10.18,8.03,8.03-10.18,10.18Zm20.36-20.36l-8.03-8.03,10.18-10.18,8.03,8.03-10.18,10.18Zm20.36-20.36l-8.03-8.03,10.18-10.18,8.03,8.03-10.18,10.18Zm20.36-20.36l-8.03-8.03,10.18-10.18,8.03,8.03-10.18,10.18Zm20.36-20.36l-8.03-8.03,10.18-10.18,8.03,8.03-10.18,10.18Zm20.36-20.36l-8.03-8.03,10.18-10.18,8.03,8.03-10.18,10.18Z"/><polygon class="cls-1" points="154.97 304.25 146.13 295.42 154.97 287.39 154.97 287.39 154.97 287.39 163.8 295.42 154.97 304.25"/><path class="cls-1" d="m135.95,285.24l-10.18-10.18,8.03-8.03,10.18,10.18-8.03,8.03Zm-20.36-20.36l-10.18-10.18,8.03-8.03,10.18,10.18-8.03,8.03Zm-20.36-20.36l-10.18-10.18,8.03-8.03,10.18,10.18-8.03,8.03Zm-20.36-20.36l-10.18-10.18,8.03-8.03,10.18,10.18-8.03,8.03Zm-20.36-20.36l-10.18-10.18,8.03-8.03,10.18,10.18-8.03,8.03Zm-20.36-20.36l-10.18-10.18,8.03-8.03,10.18,10.18-8.03,8.03Z"/><polygon class="cls-1" points="13.8 163.09 4.97 154.25 13.8 145.42 21.83 154.25 21.83 154.25 21.83 154.25 13.8 163.09"/><path class="cls-1" d="m32.01,143.27l-8.03-8.03,10.18-10.18,8.03,8.03-10.18,10.18Zm20.36-20.36l-8.03-8.03,10.18-10.18,8.03,8.03-10.18,10.18Zm20.36-20.36l-8.03-8.03,10.18-10.18,8.03,8.03-10.18,10.18Zm20.36-20.36l-8.03-8.03,10.18-10.18,8.03,8.03-10.18,10.18Zm20.36-20.36l-8.03-8.03,10.18-10.18,8.03,8.03-10.18,10.18Zm20.36-20.36l-8.03-8.03,10.18-10.18,8.03,8.03-10.18,10.18Z"/><polygon class="cls-1" points="154.97 21.12 154.97 21.12 154.97 21.12 146.13 13.09 154.97 4.25 163.8 13.09 154.97 21.12"/><path class="cls-1" d="m277.92,143.27l-10.18-10.18,8.03-8.03,10.18,10.18-8.03,8.03Zm-20.36-20.36l-10.18-10.18,8.03-8.03,10.18,10.18-8.03,8.03Zm-20.36-20.36l-10.18-10.18,8.03-8.03,10.18,10.18-8.03,8.03Zm-20.36-20.36l-10.18-10.18,8.03-8.03,10.18,10.18-8.03,8.03Zm-20.36-20.36l-10.18-10.18,8.03-8.03,10.18,10.18-8.03,8.03Zm-20.36-20.36l-10.18-10.18,8.03-8.03,10.18,10.18-8.03,8.03Z"/></svg>