<?xml version="1.0" encoding="UTF-8"?><svg id="icones" xmlns="http://www.w3.org/2000/svg" viewBox="0 0 308.51 308.51"><defs><style>.cls-1{fill:#42739c;}</style></defs><polygon class="cls-1" points="21.2 301.17 5.32 301.17 12.42 286.96 21.2 301.17"/><path class="cls-1" d="m28.37,280.28l-10.08-5.04,5.86-11.72,10.08,5.04-5.86,11.72Zm11.73-23.45l-10.08-5.04,5.86-11.72,10.08,5.04-5.86,11.72Zm11.72-23.45l-10.08-5.04,5.86-11.72,10.08,5.04-5.86,11.72Zm11.73-23.45l-10.08-5.04,5.86-11.72,10.08,5.04-5.86,11.72Zm11.72-23.45l-10.08-5.04,5.86-11.72,10.08,5.04-5.86,11.72Zm11.73-23.45l-10.08-5.04,5.86-11.72,10.08,5.04-5.86,11.72Zm11.72-23.45l-10.08-5.04,5.86-11.72,10.08,5.04-5.86,11.72Zm11.73-23.45l-10.08-5.04,5.86-11.72,10.08,5.04-5.86,11.72Zm11.72-23.45l-10.08-5.04,5.86-11.72,10.08,5.04-5.86,11.72Zm11.73-23.45l-10.08-5.04,5.86-11.72,10.08,5.04-5.86,11.72Zm11.73-23.45l-10.08-5.04,5.86-11.72,10.08,5.04-5.86,11.72Z"/><polygon class="cls-1" points="153.31 17.29 151.96 17.29 147.26 17.29 155.32 1.17 163.39 17.29 158.68 17.29 157.34 17.29 155.32 17.29 153.31 17.29"/><path class="cls-1" d="m282.28,280.28l-5.86-11.72,10.08-5.04,5.86,11.72-10.08,5.04Zm-11.73-23.45l-5.86-11.72,10.08-5.04,5.86,11.72-10.08,5.04Zm-11.72-23.45l-5.86-11.72,10.08-5.04,5.86,11.72-10.08,5.04Zm-11.73-23.45l-5.86-11.72,10.08-5.04,5.86,11.72-10.08,5.04Zm-11.72-23.45l-5.86-11.72,10.08-5.04,5.86,11.72-10.08,5.04Zm-11.73-23.45l-5.86-11.72,10.08-5.04,5.86,11.72-10.08,5.04Zm-11.72-23.45l-5.86-11.72,10.08-5.04,5.86,11.72-10.08,5.04Zm-11.73-23.45l-5.86-11.72,10.08-5.04,5.86,11.72-10.08,5.04Zm-11.73-23.45l-5.86-11.72,10.08-5.04,5.86,11.72-10.08,5.04Zm-11.72-23.45l-5.86-11.72,10.08-5.04,5.86,11.72-10.08,5.04Zm-11.73-23.45l-5.86-11.72,10.08-5.04,5.86,11.72-10.08,5.04Z"/><polygon class="cls-1" points="305.32 301.17 289.44 301.17 298.22 286.96 305.32 301.17"/><path class="cls-1" d="m275.32,301.17h-14.12v-11.27h14.12v11.27Zm-28.24,0h-14.12v-11.27h14.12v11.27Zm-28.24,0h-14.12v-11.27h14.12v11.27Zm-28.24,0h-14.12v-11.27h14.12v11.27Zm-28.24,0h-14.12v-11.27h14.12v11.27Zm-28.23,0h-14.12v-11.27h14.12v11.27Zm-28.24,0h-14.12v-11.27h14.12v11.27Zm-28.24,0h-14.12v-11.27h14.12v11.27Zm-28.24,0h-14.12v-11.27h14.12v11.27Z"/><polygon class="cls-1" points="93.76 249.6 155.32 126.47 216.89 249.6 93.76 249.6"/></svg>