<?xml version="1.0" encoding="UTF-8"?><svg id="icones" xmlns="http://www.w3.org/2000/svg" viewBox="0 0 308.51 308.51"><defs><style>.cls-1{fill:#fdc518;}.cls-2{fill:#fdc60a;}</style></defs><rect class="cls-2" x="92.57" y="92.22" width="124.08" height="124.08"/><polygon class="cls-1" points="304.61 304.26 288.55 304.26 288.55 288.19 288.55 288.19 288.55 288.19 304.61 288.19 304.61 304.26"/><path class="cls-1" d="m266.58,304.26h-20.36v-16.06h20.36v16.06Zm-40.72,0h-20.36v-16.06h20.36v16.06Zm-40.72,0h-20.36v-16.06h20.36v16.06Zm-40.72,0h-20.36v-16.06h20.36v16.06Zm-40.72,0h-20.36v-16.06h20.36v16.06Zm-40.72,0h-20.36v-16.06h20.36v16.06Z"/><polygon class="cls-1" points="20.67 304.26 4.61 304.26 4.61 288.19 20.67 288.19 20.67 288.19 20.67 288.19 20.67 304.26"/><path class="cls-1" d="m20.67,266.23H4.61v-20.36h16.06v20.36Zm0-40.72H4.61v-20.36h16.06v20.36Zm0-40.72H4.61v-20.36h16.06v20.36Zm0-40.72H4.61v-20.36h16.06v20.36Zm0-40.72H4.61v-20.36h16.06v20.36Zm0-40.72H4.61v-20.36h16.06v20.36Z"/><polygon class="cls-1" points="20.67 20.32 4.61 20.32 4.61 4.26 20.67 4.26 20.67 20.32 20.67 20.32 20.67 20.32"/><path class="cls-1" d="m266.58,20.32h-20.36V4.26h20.36v16.06Zm-40.72,0h-20.36V4.26h20.36v16.06Zm-40.72,0h-20.36V4.26h20.36v16.06Zm-40.72,0h-20.36V4.26h20.36v16.06Zm-40.72,0h-20.36V4.26h20.36v16.06Zm-40.72,0h-20.36V4.26h20.36v16.06Z"/><polygon class="cls-1" points="304.61 20.32 288.55 20.32 288.55 20.32 288.55 20.32 288.55 4.26 304.61 4.26 304.61 20.32"/><path class="cls-1" d="m304.61,266.23h-16.06v-20.36h16.06v20.36Zm0-40.72h-16.06v-20.36h16.06v20.36Zm0-40.72h-16.06v-20.36h16.06v20.36Zm0-40.72h-16.06v-20.36h16.06v20.36Zm0-40.72h-16.06v-20.36h16.06v20.36Zm0-40.72h-16.06v-20.36h16.06v20.36Z"/></svg>