<?xml version="1.0" encoding="UTF-8"?><svg id="loog" xmlns="http://www.w3.org/2000/svg" viewBox="0 0 1315.09 319.66"><defs><style>.cls-1{fill:#42739c;}</style></defs><path class="cls-1" d="m386.01,211.04h-20.35v-97.51h55.86v16.94h-35.51v25.13h33.05v16.93h-33.05v38.51Z"/><path class="cls-1" d="m506.74,173.62c0,12.38-3.26,21.94-9.76,28.68-6.51,6.74-15.36,10.11-26.56,10.11-6.92,0-13.09-1.5-18.51-4.51-5.42-3.01-9.67-7.4-12.77-13.18-3.1-5.78-4.64-12.81-4.64-21.1,0-12.38,3.23-21.9,9.7-28.54,6.46-6.65,15.34-9.97,26.63-9.97,7.01,0,13.2,1.5,18.57,4.51,5.37,3,9.6,7.37,12.7,13.11,3.09,5.74,4.64,12.7,4.64,20.9Zm-51.49,0c0,7.37,1.21,12.95,3.62,16.73,2.41,3.78,6.35,5.67,11.81,5.67s9.26-1.89,11.68-5.67c2.41-3.78,3.62-9.35,3.62-16.73s-1.21-12.91-3.62-16.59c-2.41-3.69-6.35-5.53-11.81-5.53s-9.27,1.84-11.68,5.53c-2.41,3.69-3.62,9.22-3.62,16.59Z"/><path class="cls-1" d="m553.85,212.41c-11.11,0-19.69-3.05-25.74-9.15-6.06-6.1-9.08-15.8-9.08-29.09,0-9.1,1.55-16.53,4.64-22.26,3.09-5.74,7.4-9.97,12.91-12.7,5.51-2.73,11.86-4.1,19.05-4.1,5.1,0,9.54.5,13.32,1.5,3.78,1,7.08,2.19,9.9,3.55l-6.01,15.71c-3.19-1.27-6.17-2.32-8.95-3.14-2.78-.82-5.53-1.23-8.26-1.23-10.56,0-15.84,7.51-15.84,22.53,0,7.47,1.39,12.97,4.17,16.53,2.78,3.55,6.67,5.33,11.68,5.33,4.28,0,8.06-.57,11.34-1.71,3.28-1.14,6.46-2.71,9.56-4.71v17.35c-3.1,2-6.35,3.44-9.76,4.3-3.41.87-7.72,1.3-12.91,1.3Z"/><path class="cls-1" d="m661.47,173.62c0,12.38-3.26,21.94-9.76,28.68-6.51,6.74-15.36,10.11-26.56,10.11-6.92,0-13.09-1.5-18.51-4.51-5.42-3.01-9.67-7.4-12.77-13.18-3.1-5.78-4.64-12.81-4.64-21.1,0-12.38,3.23-21.9,9.7-28.54,6.46-6.65,15.34-9.97,26.63-9.97,7.01,0,13.2,1.5,18.57,4.51,5.37,3,9.6,7.37,12.7,13.11,3.09,5.74,4.64,12.7,4.64,20.9Zm-51.49,0c0,7.37,1.21,12.95,3.62,16.73,2.41,3.78,6.35,5.67,11.81,5.67s9.26-1.89,11.68-5.67c2.41-3.78,3.62-9.35,3.62-16.73s-1.21-12.91-3.62-16.59c-2.41-3.69-6.35-5.53-11.81-5.53s-9.27,1.84-11.68,5.53c-2.41,3.69-3.62,9.22-3.62,16.59Z"/><path class="cls-1" d="m775.1,211.04l-7.1-23.22h-35.51l-7.1,23.22h-22.26l34.42-97.92h25.27l34.55,97.92h-22.26Zm-12.02-40.56l-7.1-22.67c-.46-1.55-1.05-3.5-1.77-5.87-.73-2.37-1.46-4.78-2.19-7.24-.73-2.46-1.32-4.6-1.78-6.42-.46,1.82-1.07,4.08-1.84,6.76-.78,2.69-1.5,5.24-2.19,7.65-.68,2.41-1.21,4.12-1.57,5.12l-6.97,22.67h25.4Z"/><path class="cls-1" d="m838.33,212.41c-11.11,0-19.69-3.05-25.74-9.15-6.06-6.1-9.08-15.8-9.08-29.09,0-9.1,1.55-16.53,4.64-22.26,3.09-5.74,7.4-9.97,12.91-12.7,5.51-2.73,11.86-4.1,19.05-4.1,5.1,0,9.54.5,13.32,1.5,3.78,1,7.08,2.19,9.9,3.55l-6.01,15.71c-3.19-1.27-6.17-2.32-8.95-3.14-2.78-.82-5.53-1.23-8.26-1.23-10.56,0-15.84,7.51-15.84,22.53,0,7.47,1.39,12.97,4.17,16.53,2.78,3.55,6.67,5.33,11.68,5.33,4.28,0,8.06-.57,11.34-1.71,3.28-1.14,6.46-2.71,9.56-4.71v17.35c-3.1,2-6.35,3.44-9.76,4.3-3.41.87-7.72,1.3-12.91,1.3Z"/><path class="cls-1" d="m908.94,135.11c10.29,0,18.44,2.94,24.45,8.81,6.01,5.87,9.01,14.23,9.01,25.06v9.83h-48.07c.18,5.74,1.89,10.24,5.12,13.52,3.23,3.28,7.72,4.92,13.45,4.92,4.73,0,9.08-.48,13.04-1.43,3.96-.96,8.03-2.44,12.22-4.44v15.71c-3.73,1.82-7.6,3.17-11.61,4.03-4.01.87-8.88,1.3-14.61,1.3-7.47,0-14.07-1.39-19.8-4.17-5.74-2.78-10.24-6.96-13.52-12.56-3.28-5.6-4.92-12.72-4.92-21.37s1.48-15.89,4.44-21.71c2.96-5.83,7.08-10.2,12.36-13.11,5.28-2.91,11.42-4.37,18.44-4.37Zm.14,14.48c-4.01,0-7.29,1.28-9.83,3.82-2.55,2.55-4.05,6.51-4.51,11.88h28.54c-.09-4.46-1.3-8.19-3.62-11.2-2.32-3-5.85-4.51-10.58-4.51Z"/><path class="cls-1" d="m1010.95,188.92c0,7.56-2.66,13.36-7.99,17.41-5.33,4.05-13.27,6.08-23.83,6.08-5.19,0-9.65-.34-13.38-1.02-3.73-.68-7.47-1.8-11.2-3.35v-16.8c4.01,1.82,8.33,3.33,12.97,4.51,4.64,1.18,8.74,1.77,12.29,1.77,3.91,0,6.74-.59,8.47-1.77,1.73-1.18,2.59-2.73,2.59-4.64,0-1.27-.34-2.41-1.02-3.41-.68-1-2.16-2.14-4.44-3.41-2.28-1.27-5.83-2.91-10.65-4.92-4.73-2-8.58-3.98-11.54-5.94-2.96-1.96-5.17-4.32-6.62-7.1-1.46-2.77-2.18-6.26-2.18-10.45,0-6.92,2.68-12.11,8.06-15.57,5.37-3.46,12.52-5.19,21.44-5.19,4.64,0,9.06.46,13.25,1.37,4.19.91,8.51,2.41,12.97,4.51l-6.15,14.61c-3.64-1.55-7.1-2.85-10.38-3.89-3.28-1.04-6.6-1.57-9.97-1.57-6.01,0-9.01,1.64-9.01,4.92,0,1.18.39,2.25,1.16,3.21.77.96,2.27,1.98,4.51,3.07,2.23,1.09,5.53,2.55,9.9,4.37,4.28,1.73,7.97,3.53,11.06,5.39,3.09,1.87,5.48,4.21,7.17,7.03,1.68,2.82,2.53,6.42,2.53,10.79Z"/><path class="cls-1" d="m1078.83,188.92c0,7.56-2.66,13.36-7.99,17.41-5.33,4.05-13.27,6.08-23.83,6.08-5.19,0-9.65-.34-13.38-1.02-3.73-.68-7.47-1.8-11.2-3.35v-16.8c4.01,1.82,8.33,3.33,12.97,4.51,4.64,1.18,8.74,1.77,12.29,1.77,3.91,0,6.74-.59,8.47-1.77,1.73-1.18,2.59-2.73,2.59-4.64,0-1.27-.34-2.41-1.02-3.41-.68-1-2.16-2.14-4.44-3.41-2.28-1.27-5.83-2.91-10.65-4.92-4.73-2-8.58-3.98-11.54-5.94-2.96-1.96-5.17-4.32-6.62-7.1-1.46-2.77-2.18-6.26-2.18-10.45,0-6.92,2.68-12.11,8.06-15.57,5.37-3.46,12.52-5.19,21.44-5.19,4.64,0,9.06.46,13.25,1.37,4.19.91,8.51,2.41,12.97,4.51l-6.15,14.61c-3.64-1.55-7.1-2.85-10.38-3.89-3.28-1.04-6.6-1.57-9.97-1.57-6.01,0-9.01,1.64-9.01,4.92,0,1.18.39,2.25,1.16,3.21.77.96,2.27,1.98,4.51,3.07,2.23,1.09,5.53,2.55,9.9,4.37,4.28,1.73,7.97,3.53,11.06,5.39,3.09,1.87,5.48,4.21,7.17,7.03,1.68,2.82,2.53,6.42,2.53,10.79Z"/><path class="cls-1" d="m1130.65,107.56v1.36c-1.27,1.27-2.94,2.8-5.01,4.61-2.08,1.81-4.31,3.71-6.71,5.69-2.39,1.99-4.74,3.86-7.05,5.62-2.3,1.76-4.32,3.23-6.03,4.4h-13.41v-1.76c1.44-1.71,3.14-3.73,5.08-6.03,1.94-2.3,3.84-4.7,5.69-7.18,1.85-2.48,3.46-4.72,4.81-6.71h22.63Zm-15.99,103.79h-20.19v-73.98h20.19v73.98Z"/><path class="cls-1" d="m1154.08,211.04l-28.41-74.57h21.31l14.34,42.47c.82,2.55,1.46,5.19,1.91,7.92.45,2.73.77,5.19.96,7.38h.55c.27-4.92,1.27-10.02,3-15.3l14.34-42.47h21.31l-28.41,74.57h-20.9Z"/><path class="cls-1" d="m1244.76,135.11c10.29,0,18.44,2.94,24.45,8.81,6.01,5.87,9.01,14.23,9.01,25.06v9.83h-48.07c.18,5.74,1.89,10.24,5.12,13.52,3.23,3.28,7.72,4.92,13.45,4.92,4.73,0,9.08-.48,13.04-1.43,3.96-.96,8.03-2.44,12.22-4.44v15.71c-3.73,1.82-7.6,3.17-11.61,4.03-4.01.87-8.88,1.3-14.61,1.3-7.47,0-14.07-1.39-19.8-4.17-5.73-2.78-10.24-6.96-13.52-12.56-3.28-5.6-4.92-12.72-4.92-21.37s1.48-15.89,4.44-21.71c2.96-5.83,7.08-10.2,12.36-13.11,5.28-2.91,11.42-4.37,18.44-4.37Zm.14,14.48c-4.01,0-7.29,1.28-9.83,3.82-2.55,2.55-4.05,6.51-4.51,11.88h28.54c-.09-4.46-1.3-8.19-3.62-11.2-2.32-3-5.85-4.51-10.58-4.51Z"/><path class="cls-1" d="m1315.09,211.04h-20.35v-103.79h20.35v103.79Z"/><polygon class="cls-1" points="15.88 309.83 0 309.83 7.1 295.62 15.88 309.83"/><path class="cls-1" d="m23.05,288.94l-10.08-5.04,5.86-11.72,10.08,5.04-5.86,11.72Zm11.73-23.45l-10.08-5.04,5.86-11.72,10.08,5.04-5.86,11.72Zm11.72-23.45l-10.08-5.04,5.86-11.72,10.08,5.04-5.86,11.72Zm11.73-23.45l-10.08-5.04,5.86-11.72,10.08,5.04-5.86,11.72Zm11.72-23.45l-10.08-5.04,5.86-11.72,10.08,5.04-5.86,11.72Zm11.73-23.45l-10.08-5.04,5.86-11.72,10.08,5.04-5.86,11.72Zm11.72-23.45l-10.08-5.04,5.86-11.72,10.08,5.04-5.86,11.72Zm11.73-23.45l-10.08-5.04,5.86-11.72,10.08,5.04-5.86,11.72Zm11.72-23.45l-10.08-5.04,5.86-11.72,10.08,5.04-5.86,11.72Zm11.73-23.45l-10.08-5.04,5.86-11.72,10.08,5.04-5.86,11.72Zm11.73-23.45l-10.08-5.04,5.86-11.72,10.08,5.04-5.86,11.72Z"/><polygon class="cls-1" points="147.99 25.96 146.64 25.96 141.94 25.96 150 9.83 158.07 25.96 153.36 25.96 152.02 25.96 150 25.96 147.99 25.96"/><path class="cls-1" d="m276.96,288.94l-5.86-11.72,10.08-5.04,5.86,11.72-10.08,5.04Zm-11.73-23.45l-5.86-11.72,10.08-5.04,5.86,11.72-10.08,5.04Zm-11.72-23.45l-5.86-11.72,10.08-5.04,5.86,11.72-10.08,5.04Zm-11.73-23.45l-5.86-11.72,10.08-5.04,5.86,11.72-10.08,5.04Zm-11.72-23.45l-5.86-11.72,10.08-5.04,5.86,11.72-10.08,5.04Zm-11.73-23.45l-5.86-11.72,10.08-5.04,5.86,11.72-10.08,5.04Zm-11.72-23.45l-5.86-11.72,10.08-5.04,5.86,11.72-10.08,5.04Zm-11.73-23.45l-5.86-11.72,10.08-5.04,5.86,11.72-10.08,5.04Zm-11.73-23.45l-5.86-11.72,10.08-5.04,5.86,11.72-10.08,5.04Zm-11.72-23.45l-5.86-11.72,10.08-5.04,5.86,11.72-10.08,5.04Zm-11.73-23.45l-5.86-11.72,10.08-5.04,5.86,11.72-10.08,5.04Z"/><polygon class="cls-1" points="300 309.83 284.12 309.83 292.9 295.63 300 309.83"/><path class="cls-1" d="m270,309.83h-14.12v-11.27h14.12v11.27Zm-28.24,0h-14.12v-11.27h14.12v11.27Zm-28.24,0h-14.12v-11.27h14.12v11.27Zm-28.24,0h-14.12v-11.27h14.12v11.27Zm-28.24,0h-14.12v-11.27h14.12v11.27Zm-28.23,0h-14.12v-11.27h14.12v11.27Zm-28.24,0h-14.12v-11.27h14.12v11.27Zm-28.24,0h-14.12v-11.27h14.12v11.27Zm-28.24,0h-14.12v-11.27h14.12v11.27Z"/><polygon class="cls-1" points="88.43 258.26 150 135.13 211.57 258.26 88.43 258.26"/></svg>