<?xml version="1.0" encoding="UTF-8"?><svg id="icones" xmlns="http://www.w3.org/2000/svg" viewBox="0 0 308.51 308.51"><defs><style>.cls-1{fill:#fff;}</style></defs><circle class="cls-1" cx="154.25" cy="154.3" r="62.05"/><path class="cls-1" d="m145.59,304.07c-6.77-.39-13.56-1.24-20.18-2.53l3.07-15.77c5.91,1.15,11.98,1.91,18.03,2.26l-.91,16.04Zm20.33-.2l-1.23-16.02c6.04-.47,12.09-1.35,17.98-2.62l3.39,15.7c-6.6,1.42-13.37,2.41-20.13,2.93Zm-60.19-7.58c-6.4-2.19-12.72-4.84-18.78-7.88l7.21-14.35c5.4,2.72,11.04,5.08,16.75,7.04l-5.19,15.2Zm99.88-1l-5.5-15.09c5.67-2.07,11.26-4.55,16.6-7.37l7.5,14.2c-5.99,3.16-12.25,5.94-18.6,8.26Zm-136.18-17.24c-5.57-3.83-10.94-8.07-15.95-12.62l10.79-11.9c4.48,4.07,9.28,7.86,14.25,11.28l-9.09,13.24Zm172.08-1.71l-9.35-13.06c4.91-3.52,9.63-7.4,14.02-11.55l11.03,11.68c-4.92,4.64-10.2,8.99-15.7,12.93Zm-202.14-25.57c-4.36-5.18-8.39-10.71-12-16.42l13.58-8.58c3.22,5.1,6.83,10.03,10.72,14.66l-12.3,10.34Zm231.65-2.29l-12.5-10.09c3.8-4.71,7.31-9.71,10.44-14.88l13.74,8.31c-3.5,5.79-7.43,11.39-11.68,16.66ZM17.69,216.48c-2.81-6.16-5.22-12.57-7.16-19.05l15.39-4.61c1.73,5.78,3.88,11.5,6.39,17l-14.62,6.66Zm274.35-2.74l-14.75-6.37c2.4-5.55,4.43-11.32,6.05-17.14l15.48,4.3c-1.81,6.52-4.09,12.98-6.78,19.21ZM6.03,177.57c-1.04-6.66-1.63-13.48-1.77-20.26l16.06-.32c.12,6.06.65,12.16,1.58,18.1l-15.87,2.47Zm296.87-2.98l-15.92-2.15c.81-5.97,1.22-12.07,1.22-18.14,0-1.79-.04-3.61-.11-5.41l16.05-.64c.08,2.02.12,4.05.12,6.05,0,6.78-.46,13.6-1.36,20.28ZM21.18,138.84l-15.96-1.83c.77-6.73,2.02-13.47,3.69-20.01l15.56,3.98c-1.5,5.84-2.6,11.85-3.29,17.86Zm264.97-8.01c-1.05-5.95-2.52-11.88-4.37-17.62l15.29-4.92c2.07,6.44,3.72,13.08,4.9,19.75l-15.82,2.8ZM30.17,103.72l-14.87-6.07c2.56-6.26,5.57-12.41,8.96-18.28l13.91,8.03c-3.03,5.24-5.72,10.73-8,16.32Zm244.87-7.39c-2.61-5.43-5.63-10.75-8.96-15.79l13.4-8.86c3.73,5.65,7.11,11.6,10.04,17.69l-14.48,6.96Zm-226.74-24.02l-12.7-9.84c4.14-5.34,8.69-10.46,13.52-15.2l11.26,11.46c-4.31,4.24-8.38,8.81-12.08,13.58Zm206.76-6.22c-3.98-4.55-8.31-8.86-12.87-12.83l10.55-12.11c5.1,4.44,9.94,9.28,14.4,14.37l-12.09,10.58Zm-180.89-19.19l-9.61-12.87c5.43-4.05,11.17-7.77,17.08-11.04l7.78,14.05c-5.27,2.92-10.41,6.24-15.25,9.86Zm153.54-4.63c-5.05-3.32-10.38-6.33-15.83-8.93l6.92-14.5c6.1,2.91,12.07,6.28,17.73,10l-8.82,13.42Zm-121.86-12.93l-5.8-14.98c6.31-2.45,12.85-4.48,19.44-6.04l3.71,15.63c-5.88,1.39-11.71,3.21-17.34,5.39Zm89.14-2.69c-5.75-1.83-11.68-3.29-17.64-4.32l2.75-15.83c6.68,1.16,13.33,2.79,19.77,4.85l-4.88,15.3Zm-53.88-5.67l-1.55-15.99c6.71-.65,13.6-.85,20.32-.61l-.59,16.05c-6.01-.22-12.17-.04-18.17.54Z"/></svg>