<?xml version="1.0" encoding="utf-8"?>
<!-- Generator: Adobe Illustrator 27.2.0, SVG Export Plug-In . SVG Version: 6.00 Build 0)  -->
<svg version="1.1" id="Camada_1" xmlns="http://www.w3.org/2000/svg" xmlns:xlink="http://www.w3.org/1999/xlink" x="0px" y="0px"
	 viewBox="0 0 512 512" style="enable-background:new 0 0 512 512;" xml:space="preserve">
<style type="text/css">
	.st0{fill-rule:evenodd;clip-rule:evenodd;fill:#F43E37;}
	.st1{fill-rule:evenodd;clip-rule:evenodd;fill:#FFFFFF;}
</style>
<g>
	<path class="st0" d="M504,256c0,137-111,248-248,248S8,393,8,256S119,8,256,8S504,119,504,256z"/>
	<path class="st1" d="M63.1,256c0-106.5,86.4-192.9,192.9-192.9S448.9,149.5,448.9,256h-48.2c0-79.9-64.8-144.7-144.7-144.7
		S111.3,176.1,111.3,256S176.1,400.7,256,400.7v48.2C149.5,448.9,63.1,362.5,63.1,256z M256,371.7c-63.9,0-115.7-51.8-115.7-115.7
		S192.1,140.3,256,140.3S371.7,192.1,371.7,256h-42.1c0-40.7-33-73.6-73.6-73.6s-73.6,33-73.6,73.6s33,73.6,73.6,73.6V371.7z"/>
</g>
</svg>
