<?xml version="1.0" encoding="utf-8"?>
<!-- Generator: Adobe Illustrator 27.2.0, SVG Export Plug-In . SVG Version: 6.00 Build 0)  -->
<svg version="1.1" id="Layer_1" xmlns="http://www.w3.org/2000/svg" xmlns:xlink="http://www.w3.org/1999/xlink" x="0px" y="0px"
	 viewBox="0 0 512 512" style="enable-background:new 0 0 512 512;" xml:space="preserve">
<style type="text/css">
	.st0{fill:#F26522;}
</style>
<path id="rss-circle-icon_1_" class="st0" d="M110.5,456c-29.9,0-54.1-24.2-54.1-54.1c0-29.9,24.2-54.1,54.1-54.1
	s54.1,24.2,54.1,54.1C164.6,431.7,140.4,456,110.5,456z M239.8,456C238.7,355.2,157,273.5,56.2,272.4v-80.2
	C201.5,193.4,318.9,310.9,320,456L239.8,456L239.8,456z M375.6,456c-0.3-85.3-33.6-165.6-94-225.9s-140.3-93.6-225.4-94V56
	c220.5,0.8,399.1,179.5,399.5,400L375.6,456L375.6,456z"/>
</svg>
