<?xml version="1.0" encoding="utf-8"?>
<!-- Generator: Adobe Illustrator 27.4.1, SVG Export Plug-In . SVG Version: 6.00 Build 0)  -->
<svg version="1.1" id="Camada_1" xmlns="http://www.w3.org/2000/svg" xmlns:xlink="http://www.w3.org/1999/xlink" x="0px" y="0px"
	 viewBox="0 0 133.7 120" style="enable-background:new 0 0 133.7 120;" xml:space="preserve">
<style type="text/css">
	.st0{fill-rule:evenodd;clip-rule:evenodd;fill:#ED6A06;}
	.st1{fill:#ED6A06;}
</style>
<g>
	<path class="st0" d="M66.8,53.5c36.8,0,66.8-12.1,66.8-27c0-13-22.8-23.9-52.9-26.4v1.2c15.6,1.9,26.8,8.9,26.8,14.7
		c0,7.4-18.3,13.4-40.7,13.4c-22.5,0-40.7-6-40.7-13.4c0-5.8,11.2-12.5,26.8-14.4V0C22.8,2.6,0,13.5,0,26.4
		C0,41.4,30.1,53.5,66.8,53.5"/>
	<path class="st0" d="M61.1,4.5V3.2c-12.6,0.9-22,5-22,9.7c0,5.5,12.5,10,27.7,10c15.3,0,27.7-4.5,27.7-10c0-4.8-9.4-8.8-22-9.7v1.2
		C79,5.1,83.7,6.9,83.7,9.1c0,2.7-7.6,5-16.8,5c-9.3,0-16.8-2.2-16.8-5C50,6.9,54.6,5.1,61.1,4.5"/>
	<path class="st0" d="M35.5,67.1c-1.3,0-2.4,0.5-3.1,1.3c-0.8,0.8-1.2,1.9-1.2,3.1v4.3c0,1.2,0.4,2.2,1.2,3.1
		c0.8,0.8,1.9,1.3,3.1,1.3c1.2,0,2-0.2,2.7-0.7c0.3-0.2,0.7-0.5,0.9-0.7c0.2-0.2,0.4-0.6,0.6-0.8c0.1-0.2,0.2-0.2,0.2-0.4
		c0-0.2-0.1-0.3-0.2-0.4l-0.6-0.4c-0.2-0.1-0.2-0.2-0.4-0.2s-0.3,0.1-0.4,0.2c-0.2,0.3-0.6,0.7-1,1c-0.4,0.3-1,0.6-1.7,0.6
		c-0.7,0-1.3-0.2-1.7-0.8c-0.4-0.5-0.6-1.1-0.6-1.7V75c0-0.4,0.2-0.6,0.6-0.6h5c0.7,0,1.2-0.4,1.2-1.2v-1.8c0-1.2-0.4-2.2-1.2-3.1
		C37.9,67.6,36.8,67.1,35.5,67.1 M37.8,72.1c0,0.4-0.2,0.6-0.6,0.6h-3.6c-0.4,0-0.6-0.2-0.6-0.6v-0.7c0-0.7,0.2-1.2,0.6-1.7
		c0.4-0.5,1-0.7,1.7-0.7c0.7,0,1.3,0.2,1.7,0.7c0.4,0.5,0.6,1.1,0.6,1.7L37.8,72.1L37.8,72.1z"/>
	<path class="st0" d="M8.1,76.6l-0.6-0.4c-0.2-0.2-0.6-0.2-0.8,0.2c-0.1,0.1-0.2,0.2-0.2,0.3C6.4,77,6.2,77.1,6,77.3
		c-0.3,0.4-0.9,0.6-1.7,0.7c-0.7,0-1.3-0.2-1.7-0.7c-0.4-0.5-0.6-1.1-0.6-1.7v-4.3c0-0.7,0.2-1.2,0.6-1.7c0.4-0.5,1-0.7,1.7-0.7
		c0.3,0,0.7,0.1,1,0.2C5.6,69,5.9,69.2,6,69.4c0.2,0.2,0.3,0.3,0.4,0.5c0.1,0.2,0.2,0.3,0.2,0.4c0.2,0.3,0.5,0.3,0.8,0.2L8.2,70
		c0.2-0.2,0.2-0.2,0.2-0.4c0-0.2,0-0.2-0.1-0.3c-0.1-0.3-0.4-0.7-1-1.4c-0.2-0.2-0.7-0.5-1.2-0.7s-1.1-0.2-1.7-0.2
		c-1.3,0-2.4,0.5-3.1,1.3c-0.8,0.8-1.2,1.9-1.2,3.1v4.3c0,1.2,0.4,2.2,1.2,3.1s1.8,1.3,3.1,1.3c0.7,0,1.2-0.2,1.7-0.3S7,79.2,7.4,79
		c0.3-0.2,0.6-0.6,0.7-0.8c0.2-0.2,0.2-0.4,0.3-0.6C8.5,77.1,8.4,76.9,8.1,76.6"/>
	<path class="st0" d="M69.7,73c-0.8-0.6-1.9-0.9-3.1-0.9c-0.1,0-0.4-0.1-1.1-0.2c-0.3-0.1-0.5-0.2-0.7-0.5c-0.2-0.3-0.3-0.6-0.3-1
		c0-0.3,0.2-0.7,0.5-1.1c0.3-0.4,0.8-0.6,1.7-0.6c0.7,0,1.2,0.2,1.8,0.7c0.2,0.2,0.6,0.2,0.8,0.1l0.7-0.5c0.3-0.2,0.3-0.5,0.1-0.8
		c-0.3-0.4-0.8-0.7-1.3-1.1c-0.6-0.2-1.2-0.4-2-0.4c-1.3,0-2.4,0.4-3.1,1.2c-0.7,0.7-1.1,1.6-1.1,2.5c0,2.1,1.4,3.3,4.1,3.6
		c0.1,0,0.4,0.1,1.2,0.2c0.3,0.1,0.6,0.2,0.8,0.6c0.2,0.2,0.3,0.7,0.3,1.1c0,0.5-0.2,1-0.5,1.4s-1,0.7-1.8,0.7
		c-0.6,0-1.2-0.2-1.6-0.6c-0.4-0.3-0.8-0.7-1.2-1.1c-0.2-0.2-0.4-0.3-0.7-0.2l-0.6,0.4c-0.3,0.2-0.3,0.5-0.2,0.8
		c0.3,0.6,0.8,1.1,1.5,1.6c0.7,0.5,1.7,0.8,2.7,0.8c1.4,0,2.5-0.4,3.2-1.2c0.7-0.7,1.2-1.7,1.2-2.9C70.9,74.6,70.5,73.6,69.7,73"/>
	<path class="st0" d="M133.7,79.1v-2.5l0,0c0-0.7-0.2-1.4-0.3-1.8c-0.2-0.5-0.6-0.8-0.9-1.1c-0.2-0.2-0.2-0.4,0-0.6
		c0.2-0.2,0.5-0.4,0.7-0.7c0.3-0.4,0.4-0.9,0.5-1.7v-0.1c0-1.2-0.4-2.1-1.2-2.8c-0.8-0.7-1.9-1-3.1-1c-1.3,0-2.4,0.5-3.1,1.3
		c-0.8,0.8-1.2,1.9-1.2,3.1v7.8c0,0.4,0.2,0.6,0.6,0.6h0.9c0.4,0,0.6-0.2,0.6-0.6v-4.2c0-0.4,0.2-0.6,0.6-0.6h1.7
		c0.7,0,1.3,0.2,1.7,0.7c0.4,0.5,0.6,1.1,0.6,1.7v2.3c0,0.4,0.2,0.6,0.6,0.6h0.9C133.5,79.6,133.7,79.4,133.7,79.1 M130.7,72.1
		c-0.6,0.2-1.1,0.3-1.5,0.3h-1.7c-0.4,0-0.6-0.2-0.6-0.6v-0.7c0-0.7,0.2-1.2,0.6-1.7c0.4-0.5,1-0.7,1.7-0.7c0.7,0,1.2,0.2,1.7,0.5
		c0.4,0.3,0.7,0.8,0.7,1.5C131.6,71.4,131.3,71.9,130.7,72.1z"/>
	<path class="st0" d="M97.9,66.8c-1.3,0-2.4,0.5-3.1,1.3C94,69,93.6,70,93.6,71.2V79c0,0.4,0.2,0.6,0.6,0.6h0.9
		c0.4,0,0.6-0.2,0.6-0.6v-4.2c0-0.4,0.2-0.6,0.6-0.6h3.6c0.4,0,0.6,0.2,0.6,0.6V79c0,0.4,0.2,0.6,0.6,0.6h0.9c0.4,0,0.6-0.2,0.6-0.6
		v-7.8c0-1.2-0.4-2.2-1.2-3.1C100.3,67.2,99.3,66.8,97.9,66.8 M100.3,71.9c0,0.4-0.2,0.6-0.6,0.6h-3.6c-0.4,0-0.6-0.2-0.6-0.6v-0.7
		c0-0.7,0.2-1.2,0.6-1.7c0.4-0.5,1-0.7,1.7-0.7c0.7,0,1.3,0.2,1.7,0.7c0.4,0.5,0.6,1.1,0.6,1.7L100.3,71.9L100.3,71.9z"/>
	<path class="st0" d="M20.2,78.7h-0.6c-0.2,0-0.3,0.2-0.3,0.4v0.4c0,0.2,0.2,0.4,0.3,0.4h0.6c0.2,0,0.3-0.2,0.3-0.4v-0.4
		C20.6,78.9,20.5,78.7,20.2,78.7"/>
	<path class="st0" d="M51.5,78.7H51c-0.2,0-0.3,0.2-0.3,0.4v0.4c0,0.2,0.2,0.4,0.3,0.4h0.6c0.2,0,0.3-0.2,0.3-0.4v-0.4
		C51.9,78.8,51.8,78.7,51.5,78.7"/>
	<path class="st0" d="M82.6,78.7H82c-0.2,0-0.3,0.2-0.3,0.4v0.4c0,0.2,0.2,0.4,0.3,0.4h0.6c0.2,0,0.3-0.2,0.3-0.4v-0.4
		C83,78.9,82.8,78.7,82.6,78.7"/>
	<path class="st0" d="M113.7,78.7h-0.6c-0.2,0-0.4,0.2-0.4,0.4v0.4c0,0.2,0.2,0.4,0.4,0.4h0.6c0.2,0,0.3-0.2,0.3-0.4v-0.4
		C114.1,78.8,114,78.7,113.7,78.7"/>
	<path class="st1" d="M7.5,104.1c1.5,0,3.8,0.7,5.2,2c0.2,0.2,0.3,0.2,0.5,0.2c0.2,0,0.4-0.1,0.5-0.2l1.3-1.5c0.2-0.3,0.2-0.7-0.1-1
		c-2.3-2.1-5.5-2.8-7.5-2.8c-3.6,0-7.4,1.7-7.4,5.7c0,3.6,3.7,4.7,7,5.6c1.7,0.5,4.5,1.2,4.5,2.3c0,1.7-2.6,2.2-3.9,2.2
		c-1.4,0-3.6-0.5-5.1-2c-0.2-0.2-0.7-0.2-1,0L0.2,116c-0.1,0.2-0.2,0.3-0.2,0.5s0.1,0.4,0.2,0.5c2.1,2.1,5.3,2.9,7.5,2.9
		c3.6,0,7.4-1.9,7.4-5.6s-3.7-4.8-7.1-5.7H7.9c-2.1-0.6-4.4-1.2-4.4-2.2C3.6,104.6,6,104.1,7.5,104.1"/>
	<path class="st1" d="M38.9,114.1c-0.2-0.2-0.3-0.2-0.5-0.2c-0.2,0-0.4,0.1-0.5,0.2c-1.3,1.5-3.1,2.4-4.7,2.4c-3,0-5.5-2.4-5.5-5.3
		v-1.7c0-2.9,2.5-5.3,5.5-5.3c1.7,0,3.4,0.9,4.7,2.4c0.2,0.2,0.3,0.2,0.5,0.2c0.2,0,0.4-0.1,0.5-0.2l1.5-1.4c0.2-0.2,0.3-0.7,0.1-1
		c-2-2.2-4.6-3.6-7.3-3.6c-5,0-8.9,4-8.9,8.8v1.7c0,4.8,3.9,8.7,8.8,8.8h0.4c2.6-0.1,5.2-1.3,7.1-3.5c0.2-0.3,0.2-0.7,0-1
		L38.9,114.1z"/>
	<path class="st1" d="M57.1,100.9c-1.4,0-2.9,0.4-4.1,1.2v-8c0-0.4-0.3-0.7-0.7-0.7h-2.1c-0.4,0-0.7,0.3-0.7,0.7v25
		c0,0.4,0.3,0.7,0.7,0.7h2.1c0.4,0,0.7-0.3,0.7-0.7v-10.8c0-2.1,1.8-4,4.1-4c2.3,0,4.2,1.8,4.2,4v10.8c0,0.4,0.3,0.7,0.7,0.7h2
		c0.4,0,0.7-0.3,0.7-0.7v-10.8C64.7,104.4,61.2,100.9,57.1,100.9"/>
	<path class="st1" d="M133.2,118.3l-0.7-1.8c-0.1-0.2-0.2-0.3-0.4-0.4c-0.2-0.1-0.4-0.1-0.6,0c-0.8,0.3-1.5,0.4-2.1,0.4
		c-1.6,0-2.2-0.7-2.2-2.3v-20c0-0.4-0.3-0.7-0.7-0.7h-2.1c-0.4,0-0.7,0.3-0.7,0.7v20c0,3.6,2,5.7,5.5,5.8h0.3c0.8,0,1.8-0.3,2.9-0.7
		h0.1c0.2-0.1,0.3-0.2,0.4-0.3C133.2,118.7,133.3,118.5,133.2,118.3"/>
	<path class="st1" d="M83.2,100.7c2.6,0,5,1,6.8,2.8l4.3,4.4l4.4-4.3c1.8-1.8,4.2-2.8,6.8-2.8c0.4,0,0.7,0.3,0.7,0.7v1.9
		c0,0.4-0.3,0.7-0.7,0.7c-1.7,0-3.1,0.7-4.4,1.8l-4.3,4.3l4.3,4.3c1.2,1.2,2.7,1.8,4.4,1.8c3.4,0,6.1-2.7,6.1-6.1
		c0-0.4,0.3-0.7,0.7-0.7h1.9c0.4,0,0.7,0.3,0.7,0.7c0,5.3-4.3,9.6-9.6,9.6c-2.6,0-5-1-6.8-2.8l-4.4-4.3l-4.3,4.3
		c-1.8,1.8-4.2,2.8-6.8,2.8c-5.3,0-9.6-4.3-9.6-9.6C73.6,105,77.9,100.7,83.2,100.7 M83.2,116.4c1.7,0,3.1-0.7,4.3-1.8l4.3-4.3
		l-4.3-4.4c-1.2-1.2-2.7-1.8-4.3-1.8c-3.4,0-6.1,2.7-6.1,6.1C77.1,113.6,79.8,116.4,83.2,116.4z"/>
</g>
</svg>
