<?xml version="1.0" encoding="utf-8"?>
<!-- Generator: Adobe Illustrator 27.4.0, SVG Export Plug-In . SVG Version: 6.00 Build 0)  -->
<svg version="1.1" id="Camada_1" xmlns="http://www.w3.org/2000/svg" xmlns:xlink="http://www.w3.org/1999/xlink" x="0px" y="0px"
	 viewBox="0 0 161.9 145.2" style="enable-background:new 0 0 161.9 145.2;" xml:space="preserve">
<style type="text/css">
	.st0{fill-rule:evenodd;clip-rule:evenodd;fill:#ED6A06;}
	.st1{fill:#ED6A06;}
</style>
<g>
	<path class="st0" d="M80.9,64.8c44.6,0,80.9-14.7,80.9-32.7c0-15.7-27.6-28.9-64.1-32v1.5c18.9,2.3,32.5,10.8,32.5,17.8
		c0,8.9-22.2,16.2-49.3,16.2c-27.2,0-49.3-7.3-49.3-16.2c0-7,13.6-15.1,32.5-17.4V0C27.6,3.2,0,16.3,0,32
		C0,50.1,36.4,64.8,80.9,64.8"/>
	<path class="st0" d="M74,5.4V3.9C58.8,5,47.4,9.9,47.4,15.7c0,6.6,15.1,12.1,33.5,12.1c18.5,0,33.5-5.4,33.5-12.1
		c0-5.8-11.4-10.6-26.6-11.8v1.5c7.8,0.8,13.5,3,13.5,5.6c0,3.3-9.2,6-20.4,6c-11.3,0-20.4-2.7-20.4-6C60.5,8.4,66.1,6.2,74,5.4"/>
	<path class="st0" d="M43,81.2c-1.6,0-2.9,0.6-3.8,1.6c-1,1-1.5,2.3-1.5,3.7v5.2c0,1.4,0.5,2.7,1.5,3.7c1,1,2.3,1.6,3.8,1.6
		c1.4,0,2.4-0.3,3.3-0.9c0.4-0.3,0.8-0.6,1.1-0.9c0.3-0.3,0.5-0.7,0.7-1c0.1-0.2,0.2-0.3,0.2-0.5c0-0.2-0.1-0.4-0.3-0.5l-0.7-0.5
		c-0.2-0.1-0.3-0.2-0.5-0.2c-0.2,0-0.4,0.1-0.5,0.3c-0.3,0.4-0.7,0.8-1.2,1.2c-0.5,0.4-1.2,0.7-2.1,0.7c-0.9,0-1.6-0.3-2.1-1
		c-0.5-0.6-0.7-1.3-0.7-2.1v-0.8c0-0.5,0.2-0.7,0.7-0.7h6c0.9,0,1.4-0.5,1.4-1.4v-2.2c0-1.5-0.5-2.7-1.5-3.7
		C45.9,81.8,44.6,81.2,43,81.2 M45.8,87.3c0,0.5-0.2,0.7-0.7,0.7h-4.3c-0.5,0-0.7-0.2-0.7-0.7v-0.8c0-0.8,0.2-1.5,0.7-2.1
		c0.5-0.6,1.2-0.9,2.1-0.9c0.9,0,1.6,0.3,2.1,0.9c0.5,0.6,0.7,1.3,0.7,2.1V87.3z"/>
	<path class="st0" d="M9.8,92.8l-0.7-0.5c-0.3-0.2-0.7-0.2-1,0.3C8,92.7,7.9,92.8,7.8,93c-0.1,0.2-0.3,0.4-0.5,0.6
		c-0.4,0.5-1.1,0.7-2,0.8c-0.9,0-1.6-0.3-2.1-0.9c-0.5-0.6-0.7-1.3-0.7-2.1v-5.2c0-0.8,0.2-1.5,0.7-2.1c0.5-0.6,1.2-0.9,2.1-0.9
		c0.4,0,0.8,0.1,1.2,0.2c0.3,0.2,0.6,0.4,0.8,0.6c0.2,0.2,0.4,0.4,0.5,0.6c0.1,0.2,0.2,0.4,0.3,0.5c0.3,0.4,0.6,0.4,1,0.2l0.8-0.6
		c0.2-0.2,0.3-0.3,0.3-0.5c0-0.2,0-0.3-0.1-0.4c-0.1-0.4-0.5-0.9-1.2-1.7c-0.3-0.3-0.8-0.6-1.4-0.8c-0.6-0.2-1.3-0.3-2.1-0.3
		c-1.6,0-2.9,0.6-3.8,1.6c-1,1-1.5,2.3-1.5,3.7v5.2c0,1.4,0.5,2.7,1.5,3.7c1,1,2.2,1.6,3.8,1.6c0.8,0,1.5-0.2,2.1-0.4
		c0.6-0.2,1-0.5,1.4-0.8c0.4-0.3,0.7-0.7,0.9-1c0.2-0.3,0.3-0.5,0.4-0.7C10.3,93.4,10.2,93.1,9.8,92.8"/>
	<path class="st0" d="M84.4,88.4c-1-0.7-2.3-1.1-3.8-1.1c-0.1,0-0.5-0.1-1.3-0.3c-0.4-0.1-0.6-0.3-0.9-0.6C78.2,86,78,85.7,78,85.2
		c0-0.4,0.2-0.9,0.6-1.3c0.4-0.5,1-0.7,2-0.7c0.8,0,1.5,0.3,2.2,0.9c0.3,0.3,0.7,0.3,1,0.1l0.8-0.6c0.4-0.3,0.4-0.6,0.1-1
		c-0.4-0.5-1-0.9-1.6-1.3c-0.7-0.3-1.5-0.5-2.4-0.5c-1.6,0-2.9,0.5-3.7,1.4c-0.8,0.9-1.3,1.9-1.3,3c0,2.6,1.7,4,5,4.3
		c0.1,0,0.5,0.1,1.4,0.3c0.4,0.1,0.7,0.3,1,0.7c0.3,0.3,0.4,0.8,0.4,1.3c0,0.6-0.2,1.2-0.6,1.7c-0.4,0.5-1.2,0.8-2.2,0.9
		c-0.7,0-1.4-0.2-1.9-0.7c-0.5-0.4-1-0.9-1.4-1.3c-0.2-0.3-0.5-0.4-0.9-0.2l-0.7,0.5c-0.4,0.3-0.4,0.6-0.2,1c0.4,0.7,1,1.3,1.8,1.9
		c0.8,0.6,2,1,3.3,1c1.7,0,3-0.5,3.9-1.4c0.9-0.9,1.4-2.1,1.4-3.5C85.9,90.3,85.4,89.1,84.4,88.4"/>
	<path class="st0" d="M161.9,95.8v-3v0c0-0.9-0.2-1.7-0.4-2.2c-0.3-0.6-0.7-1-1.1-1.3c-0.3-0.2-0.3-0.5,0-0.7
		c0.3-0.2,0.6-0.5,0.9-0.9c0.4-0.5,0.5-1.1,0.6-2v-0.1c0-1.4-0.5-2.6-1.5-3.4c-1-0.8-2.3-1.2-3.8-1.2c-1.6,0-2.9,0.6-3.8,1.6
		c-1,1-1.5,2.3-1.5,3.7v9.5c0,0.5,0.2,0.7,0.7,0.7h1.1c0.5,0,0.7-0.2,0.7-0.7v-5.1c0-0.5,0.2-0.7,0.7-0.7h2.1c0.9,0,1.6,0.3,2.1,0.9
		c0.5,0.6,0.7,1.3,0.7,2.1v2.8c0,0.5,0.2,0.7,0.7,0.7h1.1C161.6,96.4,161.9,96.2,161.9,95.8 M158.3,87.3c-0.7,0.3-1.3,0.4-1.8,0.4
		h-2.1c-0.5,0-0.7-0.2-0.7-0.7v-0.8c0-0.8,0.3-1.5,0.7-2.1c0.5-0.6,1.2-0.9,2.1-0.9c0.8,0,1.5,0.2,2,0.6c0.5,0.4,0.8,1,0.8,1.8
		C159.4,86.4,159,87,158.3,87.3z"/>
	<path class="st0" d="M118.6,80.9c-1.6,0-2.9,0.6-3.8,1.6c-1,1-1.5,2.3-1.5,3.7v9.5c0,0.5,0.2,0.7,0.7,0.7h1.1
		c0.5,0,0.7-0.2,0.7-0.7v-5.1c0-0.5,0.2-0.7,0.7-0.7h4.3c0.5,0,0.7,0.2,0.7,0.7v5.1c0,0.5,0.2,0.7,0.7,0.7h1.1
		c0.5,0,0.7-0.2,0.7-0.7v-9.5c0-1.5-0.5-2.7-1.5-3.7C121.5,81.4,120.2,80.9,118.6,80.9 M121.4,87c0,0.5-0.2,0.7-0.7,0.7h-4.3
		c-0.5,0-0.7-0.2-0.7-0.7v-0.8c0-0.8,0.3-1.5,0.7-2.1c0.5-0.6,1.2-0.9,2.1-0.9c0.9,0,1.6,0.3,2.1,0.9c0.5,0.6,0.7,1.3,0.7,2.1V87z"
		/>
	<path class="st0" d="M24.5,95.3h-0.7c-0.3,0-0.4,0.2-0.4,0.5v0.5c0,0.3,0.2,0.5,0.4,0.5h0.7c0.3,0,0.4-0.2,0.4-0.5v-0.5
		C25,95.5,24.8,95.3,24.5,95.3"/>
	<path class="st0" d="M62.4,95.3h-0.7c-0.3,0-0.4,0.2-0.4,0.5v0.5c0,0.3,0.2,0.5,0.4,0.5h0.7c0.3,0,0.4-0.2,0.4-0.5v-0.5
		C62.9,95.4,62.7,95.3,62.4,95.3"/>
	<path class="st0" d="M100,95.3h-0.7c-0.3,0-0.4,0.2-0.4,0.5v0.5c0,0.3,0.2,0.5,0.4,0.5h0.7c0.3,0,0.4-0.2,0.4-0.5v-0.5
		C100.5,95.5,100.3,95.3,100,95.3"/>
	<path class="st0" d="M137.7,95.3H137c-0.3,0-0.5,0.2-0.5,0.5v0.5c0,0.3,0.2,0.5,0.5,0.5h0.7c0.3,0,0.4-0.2,0.4-0.5v-0.5
		C138.1,95.4,138,95.3,137.7,95.3"/>
	<path class="st1" d="M9.1,126.1c1.8,0,4.6,0.8,6.3,2.4c0.2,0.2,0.4,0.3,0.6,0.2c0.2,0,0.5-0.1,0.6-0.3l1.6-1.8
		c0.3-0.4,0.3-0.9-0.1-1.2c-2.8-2.5-6.7-3.4-9.1-3.4c-4.3,0-8.9,2.1-8.9,6.9c0,4.4,4.5,5.7,8.5,6.8c2.1,0.6,5.4,1.5,5.4,2.8
		c0,2.1-3.1,2.7-4.7,2.7c-1.7,0-4.3-0.6-6.2-2.4c-0.3-0.3-0.9-0.3-1.2,0l-1.7,1.6C0.1,140.6,0,140.8,0,141c0,0.2,0.1,0.5,0.3,0.6
		c2.5,2.5,6.4,3.5,9.1,3.5c4.4,0,8.9-2.3,8.9-6.8c0-4.5-4.5-5.8-8.6-6.9l-0.1,0c-2.5-0.7-5.3-1.5-5.3-2.7
		C4.4,126.7,7.3,126.1,9.1,126.1"/>
	<path class="st1" d="M47.1,138.1c-0.2-0.2-0.4-0.3-0.6-0.2c-0.2,0-0.5,0.1-0.6,0.3c-1.6,1.8-3.7,2.9-5.7,2.9
		c-3.6,0-6.6-2.9-6.6-6.4v-2.1c0-3.5,3-6.4,6.6-6.4c2,0,4.1,1.1,5.7,2.9c0.2,0.2,0.4,0.3,0.6,0.3c0.2,0,0.5-0.1,0.6-0.2l1.8-1.7
		c0.3-0.3,0.4-0.9,0.1-1.2c-2.4-2.7-5.6-4.3-8.8-4.3c-6,0-10.8,4.8-10.8,10.6v2.1c0,5.8,4.7,10.5,10.6,10.6h0.5
		c3.1-0.1,6.3-1.6,8.6-4.2c0.3-0.4,0.3-0.9,0-1.2L47.1,138.1z"/>
	<path class="st1" d="M69.1,122.2c-1.7,0-3.5,0.5-5,1.5v-9.7c0-0.5-0.4-0.9-0.9-0.9h-2.5c-0.5,0-0.9,0.4-0.9,0.9v30.3
		c0,0.5,0.4,0.9,0.9,0.9h2.5c0.5,0,0.9-0.4,0.9-0.9l0-13.1c0-2.6,2.2-4.8,5-4.8c2.8,0,5.1,2.2,5.1,4.8v13.1c0,0.5,0.4,0.9,0.9,0.9
		h2.4c0.5,0,0.9-0.4,0.9-0.9v-13.1C78.4,126.4,74.1,122.2,69.1,122.2"/>
	<path class="st1" d="M161.3,143.3l-0.8-2.2c-0.1-0.2-0.2-0.4-0.5-0.5c-0.2-0.1-0.5-0.1-0.7,0c-1,0.4-1.8,0.5-2.5,0.5
		c-1.9,0-2.7-0.8-2.7-2.8v-24.2c0-0.5-0.4-0.9-0.9-0.9h-2.5c-0.5,0-0.9,0.4-0.9,0.9v24.2c0,4.4,2.4,6.9,6.6,7h0.4
		c1,0,2.2-0.4,3.5-0.8l0.1,0c0.2-0.1,0.4-0.2,0.5-0.4C161.3,143.7,161.4,143.5,161.3,143.3"/>
	<path class="st1" d="M100.7,121.9c3.1,0,6,1.2,8.2,3.4l5.2,5.3l5.3-5.2c2.2-2.2,5.1-3.4,8.2-3.4c0.5,0,0.9,0.4,0.9,0.9v2.3
		c0,0.5-0.4,0.9-0.9,0.9c-2,0-3.8,0.8-5.3,2.2l-5.2,5.2l5.2,5.2c1.4,1.4,3.3,2.2,5.3,2.2c4.1,0,7.4-3.3,7.4-7.4
		c0-0.5,0.4-0.9,0.9-0.9h2.3c0.5,0,0.9,0.4,0.9,0.9c0,6.4-5.2,11.6-11.6,11.6c-3.1,0-6-1.2-8.2-3.4l-5.3-5.2l-5.2,5.2
		c-2.2,2.2-5.1,3.4-8.2,3.4c-6.4,0-11.6-5.2-11.6-11.6C89.1,127.1,94.3,121.9,100.7,121.9 M100.7,141c2,0,3.8-0.8,5.2-2.2l5.2-5.2
		l-5.2-5.3c-1.4-1.4-3.3-2.2-5.2-2.2c-4.1,0-7.4,3.3-7.4,7.4C93.3,137.6,96.6,141,100.7,141z"/>
</g>
</svg>
