<?xml version="1.0" encoding="utf-8"?>
<!-- Generator: Adobe Illustrator 27.4.1, SVG Export Plug-In . SVG Version: 6.00 Build 0)  -->
<svg version="1.1" id="Layer_1" xmlns="http://www.w3.org/2000/svg" xmlns:xlink="http://www.w3.org/1999/xlink" x="0px" y="0px"
	 viewBox="0 0 166.9 100" style="enable-background:new 0 0 166.9 100;" xml:space="preserve">
<style type="text/css">
	.st0{fill-rule:evenodd;clip-rule:evenodd;fill:#F47C20;}
</style>
<g>
	<path class="st0" d="M10.4,96.7c0.2-0.4,0.1-0.7-0.3-1l-0.8-0.5c-0.3-0.2-0.7-0.1-1,0.2c0,0.1-0.1,0.3-0.3,0.5
		C8,96,7.8,96.3,7.6,96.5c-0.4,0.5-1.1,0.8-2,0.8s-1.6-0.3-2.2-1S2.6,95,2.6,94.1v-5.4c0-0.8,0.2-1.5,0.8-2.1
		c0.5-0.6,1.3-0.9,2.2-0.9c0.5,0,0.9,0,1.2,0.2c0.3,0.2,0.6,0.4,0.8,0.6c0.2,0.2,0.4,0.4,0.5,0.6c0.1,0.2,0.2,0.4,0.3,0.5
		c0.3,0.4,0.6,0.4,1,0.1l0.8-0.6c0.2-0.1,0.3-0.3,0.3-0.5c0-0.2,0-0.3-0.1-0.5c-0.1-0.4-0.5-1-1.3-1.7c-0.3-0.3-0.8-0.6-1.4-0.9
		c-0.6-0.2-1.3-0.3-2.2-0.3c-1.6,0-3,0.6-4,1.6C0.5,86,0,87.2,0,88.8v5.4c0,1.5,0.5,2.8,1.5,3.8c1,1.1,2.3,1.6,4,1.6
		c0.8,0,1.5-0.1,2.1-0.4C8.2,99,8.7,98.7,9,98.4s0.7-0.7,0.9-1C10.3,97.1,10.4,96.8,10.4,96.7L10.4,96.7z M49.8,89.2
		c0-1.5-0.5-2.8-1.5-3.9c-1-1.1-2.3-1.6-4-1.6c-1.6,0-3,0.6-4,1.6c-1,1.1-1.5,2.3-1.5,3.9v5.4c0,1.5,0.5,2.8,1.5,3.8
		c1,1.1,2.3,1.6,4,1.6c1.4,0,2.5-0.3,3.4-1c0.4-0.3,0.8-0.6,1.1-1c0.3-0.3,0.5-0.7,0.7-1c0.1-0.1,0.1-0.3,0.1-0.5
		c0-0.2-0.1-0.3-0.3-0.5l-0.7-0.5c-0.1-0.1-0.3-0.2-0.5-0.1c-0.2,0-0.4,0.1-0.5,0.3C47.4,96,47,96.5,46.4,97
		c-0.5,0.4-1.3,0.7-2.1,0.7c-0.9,0-1.6-0.3-2.2-1c-0.5-0.6-0.8-1.3-0.8-2.1v-0.8c0-0.5,0.2-0.8,0.7-0.8h6.2c1,0,1.5-0.5,1.5-1.5
		L49.8,89.2L49.8,89.2z M47.3,90c0,0.5-0.2,0.7-0.7,0.7h-4.4c-0.5,0-0.7-0.2-0.7-0.7v-0.8c0-0.8,0.2-1.5,0.8-2.2
		c0.5-0.6,1.3-0.9,2.2-1c0.9,0,1.6,0.3,2.2,1c0.5,0.6,0.8,1.3,0.8,2.2L47.3,90L47.3,90z M88.6,94.6c0-1.6-0.6-2.8-1.6-3.5
		c-1.1-0.7-2.3-1.1-3.9-1.2c0,0-0.5-0.1-1.3-0.3c-0.3-0.1-0.7-0.3-0.9-0.6c-0.3-0.2-0.4-0.6-0.4-1.1c0-0.4,0.2-0.9,0.6-1.4
		c0.4-0.5,1.1-0.7,2.1-0.7c0.8,0,1.5,0.3,2.2,0.9c0.3,0.3,0.7,0.3,1.1,0.1l0.8-0.6c0.4-0.3,0.4-0.6,0.1-1c-0.4-0.5-1-1-1.6-1.3
		c-0.7-0.3-1.5-0.5-2.5-0.5c-1.7,0-3,0.5-3.8,1.4c-0.9,0.9-1.3,1.9-1.3,3c0,2.7,1.7,4.2,5.1,4.5c0,0,0.5,0,1.5,0.2
		c0.4,0.1,0.7,0.3,1.1,0.7c0.3,0.3,0.4,0.8,0.4,1.4c0,0.7-0.2,1.3-0.7,1.8c-0.4,0.6-1.2,0.9-2.3,0.9c-0.8,0-1.4-0.2-2-0.7
		c-0.5-0.4-1-0.9-1.4-1.4c-0.2-0.3-0.5-0.4-1-0.2L78,95.5c-0.4,0.3-0.4,0.7-0.2,1c0.4,0.7,1,1.4,1.9,2c0.9,0.7,2,1,3.4,1.1
		c1.7,0,3.1-0.5,4.1-1.5C88.1,97.2,88.6,96,88.6,94.6L88.6,94.6z M127.7,88.8c0-1.5-0.5-2.8-1.5-3.9c-1-1.1-2.3-1.6-4-1.6
		c-1.6,0-3,0.6-4,1.6c-1,1.1-1.5,2.4-1.5,3.9v9.8c0,0.5,0.2,0.7,0.7,0.7h1.1c0.5,0,0.7-0.2,0.7-0.7v-5.2c0-0.5,0.2-0.8,0.7-0.8h4.4
		c0.5,0,0.7,0.2,0.7,0.8v5.2c0,0.5,0.2,0.7,0.7,0.7h1.1c0.5,0,0.7-0.2,0.7-0.7L127.7,88.8L127.7,88.8z M125.2,89.6
		c0,0.5-0.2,0.7-0.7,0.7H120c-0.5,0-0.7-0.2-0.7-0.7v-0.8c0-0.8,0.2-1.5,0.8-2.2c0.5-0.6,1.3-0.9,2.2-1c0.9,0,1.6,0.3,2.2,1
		c0.5,0.6,0.8,1.3,0.8,2.2L125.2,89.6L125.2,89.6z M166.9,95.7c0-1-0.1-1.8-0.4-2.5c-0.3-0.6-0.7-1-1.1-1.3c-0.3-0.2-0.3-0.5,0-0.7
		c0.3-0.1,0.6-0.5,1-1c0.4-0.5,0.6-1.2,0.6-2.1c0-1.5-0.5-2.7-1.5-3.5c-1.1-0.8-2.4-1.3-4-1.3c-1.6,0-3,0.6-4,1.6
		c-1,1.1-1.5,2.4-1.5,3.9v9.8c0,0.5,0.2,0.7,0.7,0.7h1.1c0.5,0,0.7-0.2,0.7-0.7v-5.2c0-0.5,0.2-0.8,0.7-0.8h2.2c0.9,0,1.6,0.3,2.2,1
		c0.5,0.6,0.8,1.3,0.8,2.1v2.9c0,0.5,0.2,0.7,0.7,0.7h1.1c0.5,0,0.7-0.2,0.7-0.7L166.9,95.7L166.9,95.7z M164.3,88.1
		c0,0.9-0.4,1.5-1.1,1.8c-0.7,0.3-1.3,0.4-1.8,0.4h-2.2c-0.5,0-0.7-0.2-0.7-0.7v-0.8c0-0.8,0.2-1.5,0.8-2.2c0.5-0.6,1.3-0.9,2.2-1
		c0.8,0,1.5,0.2,2.1,0.6C164,86.7,164.3,87.3,164.3,88.1z"/>
	<path class="st0" d="M66,0C28.4,3.2,0,16.8,0,33c0,18.6,37.4,33.7,83.4,33.7s83.4-15.1,83.4-33.7c0-16.2-28.4-29.8-66.1-33v1.5
		c19.5,2.3,33.5,11.1,33.5,18.3c0,9.2-22.8,16.7-50.8,16.7c-28,0-50.8-7.5-50.8-16.7c0-7.2,14-15.6,33.5-17.9L66,0L66,0z"/>
	<path class="st0" d="M76.1,4c-15.6,1.2-27.4,6.2-27.4,12.1c0,6.9,15.5,12.4,34.5,12.4s34.5-5.6,34.5-12.4c0-6-11.8-11-27.4-12.1
		v1.5c8.1,0.9,13.9,3.1,13.9,5.8c0,3.4-9.5,6.1-21,6.1c-11.6,0-21-2.8-21-6.1c0-2.7,5.8-4.9,13.9-5.8L76.1,4L76.1,4z"/>
	<path class="st0" d="M25.8,98.6c0-0.3-0.1-0.5-0.5-0.5h-0.7c-0.3,0-0.5,0.2-0.5,0.5v0.5c0,0.3,0.1,0.5,0.5,0.5h0.7
		c0.3,0,0.5-0.2,0.5-0.5V98.6z"/>
	<path class="st0" d="M64.8,98.6c0-0.3-0.1-0.5-0.5-0.5h-0.7c-0.3,0-0.5,0.2-0.5,0.5v0.5c0,0.3,0.1,0.5,0.5,0.5h0.7
		c0.3,0,0.5-0.2,0.5-0.5V98.6z"/>
	<path class="st0" d="M103.6,98.7c0-0.3-0.1-0.5-0.5-0.5h-0.7c-0.3,0-0.5,0.2-0.5,0.5v0.5c0,0.3,0.1,0.5,0.5,0.5h0.7
		c0.3,0,0.5-0.2,0.5-0.5V98.7z"/>
	<path class="st0" d="M142.3,98.6c0-0.3-0.1-0.5-0.5-0.5h-0.7c-0.3,0-0.5,0.2-0.5,0.5v0.5c0,0.3,0.1,0.5,0.5,0.5h0.7
		c0.3,0,0.5-0.2,0.5-0.5V98.6z"/>
</g>
</svg>
