<?xml version="1.0" encoding="utf-8"?>
<!-- Generator: Adobe Illustrator 27.4.1, SVG Export Plug-In . SVG Version: 6.00 Build 0)  -->
<svg version="1.1" id="Camada_1" xmlns="http://www.w3.org/2000/svg" xmlns:xlink="http://www.w3.org/1999/xlink" x="0px" y="0px"
	 viewBox="0 0 350.1 71.6" style="enable-background:new 0 0 350.1 71.6;" xml:space="preserve">
<style type="text/css">
	.st0{fill-rule:evenodd;clip-rule:evenodd;}
</style>
<path class="st0" d="M47,0c-3.4,0-6.8,0.7-9.2,1.7c-2.4-1-5.7-1.7-9.2-1.7C13.6,0,0,14.2,0,33.8c0,21.3,17.4,37.8,37.8,37.8
	s37.8-16.5,37.8-37.8C75.7,14.3,62.1,0,47,0z M37.9,11.6c2.9,1.7,6.7,6.7,6.7,12.4c0,4.1-2.7,7.4-6.7,7.4c-4,0-6.7-3.3-6.7-7.4
	C31.1,18.3,35,13.4,37.9,11.6z M37.9,62.3c-15.6,0-28.5-12.6-28.5-28.6C9.4,19,20,9,28.3,9.4c-3.9,3.9-6.4,9.6-6.4,15.2
	c0,9.5,7.6,16.2,15.9,16.2c8.4,0,15.9-6.7,15.9-16.2c0-5.6-2.4-11.3-6.4-15.2c8.3-0.4,18.9,9.7,18.9,24.3
	C66.3,49.4,53.6,62.3,37.9,62.3C38,62.3,37.9,62.3,37.9,62.3z M162.2,16.3v7.8h-11.8v29.2H142V24.1h-11.9v-7.8
	C130.1,16.3,162.2,16.3,162.2,16.3z M268.3,16.3h-21.1v7.8h20.6c3,0,4.2,1.4,4.2,4.9v1.3h-17.1c-6.5,0-9.7,3.2-9.7,10.6v1.7
	c0,7.6,3.3,10.6,10.1,10.6h25V28.9C280.3,19.7,277.2,16.3,268.3,16.3z M256.1,45.4c-1.3,0-2.7-0.7-2.7-3.8s1.4-3.7,2.7-3.7h15.8v7.6
	h-15.8V45.4z M338.1,16.3H317v7.8h20.6c3,0,4.2,1.4,4.2,4.9v1.3h-17.1c-6.5,0-9.7,3.2-9.7,10.6v1.7c0,7.6,3.3,10.6,10.1,10.6h25
	V28.9C350,19.7,347,16.3,338.1,16.3z M325.9,45.4c-1.3,0-2.7-0.7-2.7-3.8s1.4-3.7,2.7-3.7h15.8v7.6h-15.8V45.4z M197,16.3v7.8h-11.9
	v29.2h-8.4V24.1h-11.9v-7.8H197z M314.1,16.3v7.8h-11.9v29.2h-8.4V24.1h-11.9v-7.8C282,16.3,314.1,16.3,314.1,16.3z M242,40.3V29.2
	c0-9.7-3.7-13-12.2-13h-22.5v37h22.9C239.1,53.3,242,48.8,242,40.3z M233.4,40.5c0,3.5-1.2,4.9-4.2,4.9h-13.5V24.2h13.5
	c3,0,4.2,1.4,4.2,4.9C233.4,29.1,233.4,40.5,233.4,40.5z M118.9,44.9c0.2-0.1,0.2-0.5,0.2-0.9c0-0.5-0.1-2.9-0.1-4.6V16.3h8.3v27.6
	c0,8.2-4.1,9.8-7.5,9.8c-3.7,0-5.6-1.7-7.2-4.2C110.4,46,100,25.4,99.8,25.1c-0.2-0.3-0.4-0.5-0.6-0.4S99,25.2,99,25.6
	c0,0.5,0.1,2.9,0.1,4.6v23.1h-8.3V25.7c0-8.2,4.1-9.8,7.5-9.8c3.7,0,5.6,1.7,7.2,4.2c1.4,2.1,12.6,24,12.8,24.4
	C118.4,44.8,118.7,45,118.9,44.9z"/>
</svg>
