<?xml version="1.0" encoding="utf-8"?>
<!-- Generator: Adobe Illustrator 27.4.1, SVG Export Plug-In . SVG Version: 6.00 Build 0)  -->
<svg version="1.1" id="Camada_1" xmlns="http://www.w3.org/2000/svg" xmlns:xlink="http://www.w3.org/1999/xlink" x="0px" y="0px"
	 viewBox="0 0 319.8 70" style="enable-background:new 0 0 319.8 70;" xml:space="preserve">
<style type="text/css">
	.st0{fill-rule:evenodd;clip-rule:evenodd;fill:#0057A2;}
	.st1{fill-rule:evenodd;clip-rule:evenodd;fill:url(#SVGID_1_);}
</style>
<g>
	<path class="st0" d="M15.9,25.2h15.8c1.6,0,3.2-0.3,4.6-0.9c1.5-0.7,2.7-1.6,3.7-2.7c1.1-1.2,1.9-2.5,2.5-4c0.7-1.6,0.9-3.2,0.9-5
		s-0.3-3.3-0.9-5s-1.5-2.9-2.5-4c-1.1-1.2-2.3-2-3.7-2.7C34.8,0.3,33.3,0,31.7,0H8v5.6C8.2,6.3,8.6,7,9.1,7.4
		c0.8,0.7,1.6,1.1,2.7,1.1h19.8c1.1,0,2,0.4,2.8,1.2c0.8,0.8,1.2,1.7,1.2,2.9c0,1.2-0.4,2.1-1.2,2.9c-0.8,0.8-1.7,1.2-2.8,1.2H11.9
		c-1.1,0-1.9,0.4-2.7,1.1C7.9,19,8,20.3,8,22v15.8c0,1.2,0.4,2.1,1.2,2.9c0.8,0.8,1.7,1.2,2.8,1.2h3.9V25.2L15.9,25.2z"/>
	<path class="st0" d="M201.3,37.7c0,1.2,0.4,2.1,1.2,2.9c0.8,0.8,1.7,1.2,2.8,1.2h4V12.4c0-1.2,0.4-2.1,1.2-2.9
		c0.8-0.8,1.7-1.2,2.8-1.2h11.8c1.1,0,2,0.4,2.8,1.2c0.8,0.8,1.2,1.9,1.2,2.9v29.3h4c1.1,0,2-0.4,2.8-1.2c0.8-0.8,1.2-1.9,1.2-2.9
		v-25c0-1.7-0.3-3.3-0.9-5c-0.7-1.6-1.5-2.9-2.5-4c-1.1-1.2-2.3-2-3.7-2.7C228.5,0.3,227,0,225.4,0h-0.1h-11.8h-0.1
		c-1.6,0-3.2,0.3-4.6,0.9c-1.5,0.7-2.7,1.6-3.7,2.7c-1.1,1.2-1.9,2.5-2.5,4c-0.7,1.6-0.9,3.2-0.9,5v25.2H201.3z"/>
	<path class="st0" d="M280.5,10.7c0.3-2.5,1.5-5.1,3.3-7.1c1.1-1.2,2.3-2,3.7-2.7c1.5-0.7,2.9-0.9,4.6-0.9h7.9h15.8v4.1
		c0,1.2-0.4,2.1-1.2,2.9c-0.8,0.8-1.7,1.2-2.8,1.2h-15.8h-4c-1.1,0-2,0.4-2.8,1.2l0,0l0,0l0,0l0,0l0,0l0,0l0,0l0,0l0,0l0,0l0,0l0,0
		l0,0l0,0l0,0l0,0l0,0l0,0l0,0l0,0l0,0c-0.3,0.3-0.4,0.5-0.5,0.8l0,0c-0.3,0.5-0.4,1.2-0.4,1.9v7.9c0.1-1.1,0.5-1.9,1.3-2.7
		c0.8-0.7,1.6-1.1,2.7-1.1h15.8h7.9v4.1c0,1.2-0.4,2.1-1.2,2.9c-0.8,0.8-1.7,1.2-2.8,1.2h-23.7v4.8c0,1.2,0.4,2.1,1.2,2.9
		c0.8,0.8,1.7,1.2,2.8,1.2H312c1.1,0,2,0.4,2.8,1.2s1.2,1.7,1.2,2.9v4.1h-23.7c-1.6,0-3.2-0.3-4.6-0.9c-1.5-0.7-2.7-1.6-3.7-2.7
		c-1.1-1.2-1.9-2.5-2.5-4c-0.7-1.6-0.9-3.2-0.9-5V12.6C280.4,11.9,280.4,11.4,280.5,10.7L280.5,10.7z"/>
	<path class="st0" d="M159.9,37.7c0-1.2-0.4-2.1-1.2-2.9s-1.7-1.2-2.8-1.2h-19.7c-1.1,0-2-0.4-2.8-1.2c-0.8-0.8-1.2-1.7-1.2-2.9
		v-8.8v-8l0,0l0,0l0,0l0,0l0,0l0,0l0,0l0,0l0,0l0,0l0,0l0,0l0,0l0,0l0,0l0,0l0,0l0,0l0,0l0,0l0,0l0,0l0,0l0,0l0,0l0,0l0,0l0,0l0,0
		l0,0l0,0l0,0l0,0l0,0l0,0l0,0l0,0l0,0l0,0l0,0l0,0l0,0c0,0,0,0,0-0.1l0,0l0,0l0,0l0,0l0,0l0,0l0,0c0.5-1.7,2-2.8,3.7-2.8h3.9h0.1
		h15.7c1.1,0,2-0.4,2.8-1.2c0.8-0.8,1.2-1.7,1.2-2.9V0h-15.8H136c0,0,0,0-0.1,0c0,0,0,0-0.1,0c0,0,0,0-0.1,0c-1.7,0-3.5,0.4-5,1.2
		l0,0l0,0l0,0c-1.2,0.7-2.1,1.3-3.1,2.3c-1.1,1.2-1.9,2.5-2.5,4c-0.1,1.2-0.4,2.3-0.5,3.2l0,0c0,0,0,0,0,0.1l0,0c0,0,0,0,0,0.1l0,0
		c0,0,0,0,0,0.1l0,0c0,0,0,0,0,0.1l0,0c0,0,0,0,0,0.1l0,0c0,0,0,0,0,0.1l0,0c0,0,0,0,0,0.1l0,0c0,0,0,0,0,0.1l0,0c0,0,0,0,0,0.1l0,0
		c0,0,0,0,0,0.1l0,0c0,0,0,0,0,0.1l0,0c0,0,0,0,0,0.1l0,0c0,0,0,0,0,0.1l0,0c0,0,0,0,0,0.1l0,0c0,0,0,0,0,0.1l0,0c0,0,0,0,0,0.1l0,0
		c0,0,0,0,0,0.1l0,0c0,0,0,0,0,0.1l0,0c0,0,0,0,0,0.1l0,0c0,0,0,0,0,0.1l0,0c0,0,0,0,0,0.1l0,0c0,0,0,0,0,0.1l0,0c0,0,0,0,0,0.1l0,0
		v7.9v7.8c0,1.7,0.3,3.3,0.9,5c0.7,1.5,1.5,2.9,2.5,4c1.1,1.2,2.3,2,3.7,2.7s2.9,0.9,4.6,0.9h23.7V37.7L159.9,37.7z"/>
	<path class="st0" d="M193.5,25.2c1.1,0,2-0.4,2.8-1.2c0.8-0.8,1.2-1.9,1.2-2.9v-4.1h-7.9h-15.8c-1.1,0-1.9,0.4-2.7,1.1
		c-0.8,0.7-1.2,1.6-1.3,2.7v-8c0-0.7,0.1-1.3,0.4-1.9l0,0c0.7-1.5,2-2.4,3.6-2.4h3.9h0.1h15.7c1.1,0,2-0.4,2.8-1.2s1.2-1.7,1.2-2.9
		V0h-15.8h-7.9c-3.1,0-6.2,1.3-8.4,3.6c-2.1,2.3-3.5,5.6-3.5,9v16.9c0,1.7,0.3,3.3,0.9,5c0.7,1.6,1.5,2.9,2.5,4
		c1.1,1.2,2.3,2,3.7,2.7c1.5,0.7,2.9,0.9,4.6,0.9h23.7v-4.1c0-1.2-0.4-2.1-1.2-2.9c-0.8-0.8-1.7-1.2-2.8-1.2h-19.7
		c-1.1,0-2-0.4-2.8-1.2c-0.8-0.8-1.2-1.9-1.2-2.9v-4.1h23.8V25.2z"/>
	<path class="st0" d="M272.5,16.7c-1.1,0-2,0.4-2.8,1.2c-0.8,0.8-1.2,1.9-1.2,2.9V25v8.4h-15.8c-1.1,0-2-0.4-2.8-1.2
		c-0.8-0.8-1.2-1.7-1.2-2.9V12.6c0-1.2,0.4-2.1,1.2-2.9c0.8-0.8,1.7-1.2,2.8-1.2h4h15.7c1.1,0,2-0.4,2.8-1.2
		c0.8-0.8,1.2-1.7,1.2-2.9V0h-15.7h-7.9h-0.1c-1.6,0-3.2,0.3-4.6,0.9c-1.5,0.7-2.7,1.6-3.7,2.7c-1.1,1.2-1.9,2.5-2.5,4
		c-0.8,1.7-0.9,3.2-0.9,5v16.9c0,1.7,0.3,3.3,0.9,5c0.7,1.6,1.5,2.9,2.5,4c1.1,1.2,2.3,2,3.7,2.7s2.9,0.9,4.6,0.9h15.8v-3.6
		c0.1,1.1,0.5,2,1.3,2.7s1.6,1.1,2.7,1.1h4L276.4,17h-3.9V16.7z"/>
	<path class="st0" d="M49.4,16.7c-1.1,0-1.9,0.4-2.7,1.1c-0.8,0.7-1.2,1.6-1.3,2.7v4.7h23.7c1.1,0,2,0.4,2.8,1.2
		c0.8,0.8,1.2,1.9,1.2,2.9v8.4c0,1.2,0.4,2.1,1.2,2.9c0.8,0.8,1.7,1.2,2.8,1.2H81V29.4c-0.3-1.7-0.8-3.3-1.7-4.8
		c-0.9-1.5-2-2.7-3.3-3.6c1.3-0.9,2.4-2.1,3.3-3.6c0.9-1.5,1.5-3.1,1.7-4.8c0-1.7-0.3-3.3-0.9-5c-0.7-1.6-1.5-2.9-2.5-4
		c-1.1-1.2-2.3-2-3.7-2.7S70.8,0,69.1,0H45.4v4.8c0.1,1.1,0.5,2,1.3,2.7c0.8,0.7,1.6,1.1,2.7,1.1h19.8c1.1,0,2,0.4,2.8,1.2
		c0.8,0.8,1.2,1.7,1.2,2.9s-0.4,2.1-1.2,2.9c-0.8,0.8-1.7,1.2-2.8,1.2H49.4V16.7z"/>
	<path class="st0" d="M119.5,7.6c-0.7-1.6-1.5-2.9-2.5-4c-1.1-1.2-2.3-2-3.7-2.7c-1.5-0.7-2.9-0.9-4.7-0.9H96.6
		c-1.6,0-3.2,0.3-4.6,0.9c-1.5,0.7-2.7,1.6-3.7,2.7c-1.1,1.2-1.9,2.5-2.5,4c-0.7,1.6-0.9,3.2-0.9,5v16.9c0,1.7,0.3,3.3,0.9,5
		c0.7,1.6,1.5,2.9,2.5,4c1.1,1.2,2.3,2,3.7,2.7c1.5,0.7,2.9,0.9,4.6,0.9h11.9c1.6,0,3.2-0.3,4.6-0.9c1.5-0.7,2.7-1.6,3.7-2.7
		c1.1-1.2,1.9-2.5,2.5-4c0.7-1.5,0.9-3.2,0.9-5V12.6C120.5,10.8,120.2,9.2,119.5,7.6z M112.6,29.4c0,1.2-0.4,2.1-1.2,2.9
		c-0.8,0.8-1.7,1.2-2.8,1.2H96.6c-1.1,0-2-0.4-2.8-1.2c-0.8-0.8-1.2-1.7-1.2-2.9V12.6c0-1.2,0.4-2.1,1.2-2.9
		c0.8-0.8,1.7-1.2,2.8-1.2h11.9c1.1,0,2,0.4,2.8,1.2c0.8,0.8,1.2,1.7,1.2,2.9V29.4z"/>
	
		<linearGradient id="SVGID_1_" gradientUnits="userSpaceOnUse" x1="0" y1="9.7619" x2="319.7515" y2="9.7619" gradientTransform="matrix(1 0 0 -1 0 69.5898)">
		<stop  offset="0" style="stop-color:#FFFFFF"/>
		<stop  offset="7.099897e-02" style="stop-color:#FAEDD4"/>
		<stop  offset="0.1633" style="stop-color:#F5DEAC"/>
		<stop  offset="0.2607" style="stop-color:#F2D189"/>
		<stop  offset="0.3612" style="stop-color:#EFC66D"/>
		<stop  offset="0.4657" style="stop-color:#EDBE52"/>
		<stop  offset="0.5756" style="stop-color:#EBB83C"/>
		<stop  offset="0.6932" style="stop-color:#E9B42C"/>
		<stop  offset="0.824" style="stop-color:#E9B123"/>
		<stop  offset="0.9944" style="stop-color:#E8B121"/>
	</linearGradient>
	<path class="st1" d="M0,65.7c0,0,70.4,4.3,92.8,4.3s72.4-1.7,88.2-3.2c15.7-1.3,32.7-2,67.6-2.4c34.9-0.4,71.2,1.7,71.2,1.7V57
		c0,0-1.1-7.4-11.4-7.2c-6.7,0.1-42.8,0-67.3-0.1c-15,0-29.8,0.4-44.7,1.3c-11.4,0.8-24.2,1.6-30.7,1.9c-17.3,0.8-69.1,1.7-69.1,1.7
		c-2.5,0-5.1,0-7.6-0.1L0,49.8V65.7z"/>
</g>
</svg>
