<?xml version="1.0" encoding="utf-8"?>
<!-- Generator: Adobe Illustrator 27.4.0, SVG Export Plug-In . SVG Version: 6.00 Build 0)  -->
<svg version="1.1" id="Camada_1" xmlns="http://www.w3.org/2000/svg" xmlns:xlink="http://www.w3.org/1999/xlink" x="0px" y="0px"
	 viewBox="0 0 238.9 52.3" style="enable-background:new 0 0 238.9 52.3;" xml:space="preserve">
<style type="text/css">
	.st0{fill-rule:evenodd;clip-rule:evenodd;fill:#0057A2;}
	.st1{fill-rule:evenodd;clip-rule:evenodd;fill:url(#SVGID_1_);}
</style>
<g>
	<path class="st0" d="M11.9,18.8h11.8c1.2,0,2.4-0.2,3.4-0.7c1.1-0.5,2-1.2,2.8-2c0.8-0.9,1.4-1.9,1.9-3c0.5-1.2,0.7-2.4,0.7-3.7
		c0-1.3-0.2-2.5-0.7-3.7c-0.5-1.2-1.1-2.2-1.9-3c-0.8-0.9-1.7-1.5-2.8-2C26,0.2,24.9,0,23.7,0H6v4.2c0.1,0.5,0.4,1,0.8,1.3
		c0.6,0.5,1.2,0.8,2,0.8h14.8c0.8,0,1.5,0.3,2.1,0.9c0.6,0.6,0.9,1.3,0.9,2.2c0,0.9-0.3,1.6-0.9,2.2c-0.6,0.6-1.3,0.9-2.1,0.9H8.9
		c-0.8,0-1.4,0.3-2,0.8c-1,0.9-0.9,1.9-0.9,3.1v11.8c0,0.9,0.3,1.6,0.9,2.2c0.6,0.6,1.3,0.9,2.1,0.9h2.9V18.8L11.9,18.8z"/>
	<path class="st0" d="M150.4,28.2c0,0.9,0.3,1.6,0.9,2.2c0.6,0.6,1.3,0.9,2.1,0.9h3v-22c0-0.9,0.3-1.6,0.9-2.2
		c0.6-0.6,1.3-0.9,2.1-0.9h8.8c0.8,0,1.5,0.3,2.1,0.9c0.6,0.6,0.9,1.4,0.9,2.2l0,21.9h3c0.8,0,1.5-0.3,2.1-0.9
		c0.6-0.6,0.9-1.4,0.9-2.2V9.4c0-1.3-0.2-2.5-0.7-3.7c-0.5-1.2-1.1-2.2-1.9-3c-0.8-0.9-1.7-1.5-2.8-2c-1.1-0.5-2.2-0.7-3.4-0.7h-0.1
		h-8.8h-0.1c-1.2,0-2.4,0.2-3.4,0.7c-1.1,0.5-2,1.2-2.8,2c-0.8,0.9-1.4,1.9-1.9,3c-0.5,1.2-0.7,2.4-0.7,3.7V28.2L150.4,28.2z"/>
	<path class="st0" d="M209.6,8c0.2-1.9,1.1-3.8,2.5-5.3c0.8-0.9,1.7-1.5,2.8-2c1.1-0.5,2.2-0.7,3.4-0.7h5.9H236v3.1
		c0,0.9-0.3,1.6-0.9,2.2c-0.6,0.6-1.3,0.9-2.1,0.9h-11.8h-3c-0.8,0-1.5,0.3-2.1,0.9c0,0,0,0,0,0c0,0,0,0,0,0c0,0,0,0,0,0
		c0,0,0,0,0,0c0,0,0,0,0,0c0,0,0,0,0,0c0,0,0,0,0,0c0,0,0,0,0,0c0,0,0,0,0,0c0,0,0,0,0,0c0,0,0,0,0,0c0,0,0,0,0,0c0,0,0,0,0,0
		c0,0,0,0,0,0c0,0,0,0,0,0c0,0,0,0,0,0l0,0c0,0,0,0,0,0c0,0,0,0,0,0c0,0,0,0,0,0c0,0,0,0,0,0c-0.2,0.2-0.3,0.4-0.4,0.6h0
		c-0.2,0.4-0.3,0.9-0.3,1.4v5.9c0.1-0.8,0.4-1.4,1-2c0.6-0.5,1.2-0.8,2-0.8h11.8h5.9v3.1c0,0.9-0.3,1.6-0.9,2.2
		c-0.6,0.6-1.3,0.9-2.1,0.9h-17.7V22c0,0.9,0.3,1.6,0.9,2.2c0.6,0.6,1.3,0.9,2.1,0.9h14.7c0.8,0,1.5,0.3,2.1,0.9
		c0.6,0.6,0.9,1.3,0.9,2.2v3.1h-17.7c-1.2,0-2.4-0.2-3.4-0.7c-1.1-0.5-2-1.2-2.8-2c-0.8-0.9-1.4-1.9-1.9-3c-0.5-1.2-0.7-2.4-0.7-3.7
		V9.4C209.5,8.9,209.5,8.5,209.6,8L209.6,8z"/>
	<path class="st0" d="M119.5,28.2c0-0.9-0.3-1.6-0.9-2.2c-0.6-0.6-1.3-0.9-2.1-0.9h-14.7c-0.8,0-1.5-0.3-2.1-0.9
		c-0.6-0.6-0.9-1.3-0.9-2.2v-6.6V9.4v0c0,0,0,0,0,0c0,0,0,0,0,0c0,0,0,0,0,0v0c0,0,0,0,0,0v0c0,0,0,0,0,0v0c0,0,0,0,0,0c0,0,0,0,0,0
		c0,0,0,0,0,0v0c0,0,0,0,0,0v0c0,0,0,0,0,0c0,0,0,0,0,0c0,0,0,0,0,0c0,0,0,0,0,0c0,0,0,0,0,0c0,0,0,0,0,0c0,0,0,0,0,0c0,0,0,0,0,0
		c0,0,0,0,0,0v0c0,0,0,0,0,0l0,0c0,0,0,0,0,0l0,0c0,0,0,0,0,0v0c0,0,0,0,0,0l0,0c0,0,0,0,0,0c0,0,0,0,0,0c0,0,0,0,0,0c0,0,0,0,0,0
		c0,0,0,0,0,0l0,0c0,0,0,0,0,0v0c0,0,0,0,0,0c0,0,0,0,0-0.1v0c0,0,0,0,0,0l0,0c0,0,0,0,0,0l0,0c0,0,0,0,0,0l0,0
		c0.4-1.3,1.5-2.1,2.8-2.1h2.9c0,0,0.1,0,0.1,0h11.7c0.8,0,1.5-0.3,2.1-0.9c0.6-0.6,0.9-1.3,0.9-2.2V0h-11.8h-5.9c0,0,0,0-0.1,0
		c0,0,0,0-0.1,0c0,0,0,0-0.1,0c-1.3,0-2.6,0.3-3.7,0.9c0,0,0,0,0,0c0,0,0,0,0,0l0,0c-0.9,0.5-1.6,1-2.3,1.7c-0.8,0.9-1.4,1.9-1.9,3
		C93.3,6.5,93.1,7.3,93,8c0,0,0,0,0,0c0,0,0,0,0,0.1l0,0c0,0,0,0,0,0.1c0,0,0,0,0,0c0,0,0,0,0,0.1l0,0c0,0,0,0,0,0.1l0,0
		c0,0,0,0,0,0.1c0,0,0,0,0,0c0,0,0,0,0,0.1l0,0c0,0,0,0,0,0.1c0,0,0,0,0,0c0,0,0,0,0,0.1l0,0c0,0,0,0,0,0.1v0c0,0,0,0,0,0.1l0,0
		c0,0,0,0,0,0.1v0c0,0,0,0,0,0.1c0,0,0,0,0,0c0,0,0,0,0,0.1c0,0,0,0,0,0c0,0,0,0,0,0.1l0,0c0,0,0,0,0,0.1c0,0,0,0,0,0c0,0,0,0,0,0.1
		c0,0,0,0,0,0c0,0,0,0,0,0.1c0,0,0,0,0,0c0,0,0,0,0,0.1c0,0,0,0,0,0c0,0,0,0,0,0.1c0,0,0,0,0,0c0,0,0,0,0,0.1c0,0,0,0,0,0
		c0,0,0,0,0,0.1v0c0,0,0,0,0,0.1v0c0,0,0,0,0,0.1v0v5.9V22c0,1.3,0.2,2.5,0.7,3.7c0.5,1.1,1.1,2.2,1.9,3c0.8,0.9,1.7,1.5,2.8,2
		c1.1,0.5,2.2,0.7,3.4,0.7h17.7V28.2L119.5,28.2z"/>
	<path class="st0" d="M144.6,18.8c0.8,0,1.5-0.3,2.1-0.9c0.6-0.6,0.9-1.4,0.9-2.2v-3.1h-5.9h-11.8c-0.8,0-1.4,0.3-2,0.8
		c-0.6,0.5-0.9,1.2-1,2V9.4c0-0.5,0.1-1,0.3-1.4l0,0c0.5-1.1,1.5-1.8,2.7-1.8h2.9c0,0,0.1,0,0.1,0h11.7c0.8,0,1.5-0.3,2.1-0.9
		c0.6-0.6,0.9-1.3,0.9-2.2V0h-11.8h-5.9c-2.3,0-4.6,1-6.3,2.7c-1.6,1.7-2.6,4.2-2.6,6.7V22c0,1.3,0.2,2.5,0.7,3.7
		c0.5,1.2,1.1,2.2,1.9,3c0.8,0.9,1.7,1.5,2.8,2c1.1,0.5,2.2,0.7,3.4,0.7h17.7v-3.1c0-0.9-0.3-1.6-0.9-2.2c-0.6-0.6-1.3-0.9-2.1-0.9
		h-14.7c-0.8,0-1.5-0.3-2.1-0.9c-0.6-0.6-0.9-1.4-0.9-2.2v-3.1H144.6L144.6,18.8z"/>
	<path class="st0" d="M203.6,12.5c-0.8,0-1.5,0.3-2.1,0.9c-0.6,0.6-0.9,1.4-0.9,2.2v3.1v6.3h-11.8c-0.8,0-1.5-0.3-2.1-0.9
		c-0.6-0.6-0.9-1.3-0.9-2.2V9.4c0-0.9,0.3-1.6,0.9-2.2c0.6-0.6,1.3-0.9,2.1-0.9h3h11.7c0.8,0,1.5-0.3,2.1-0.9
		c0.6-0.6,0.9-1.3,0.9-2.2V0h-11.7h-5.9h-0.1c-1.2,0-2.4,0.2-3.4,0.7c-1.1,0.5-2,1.2-2.8,2c-0.8,0.9-1.4,1.9-1.9,3
		C180.1,7,180,8.1,180,9.4V22c0,1.3,0.2,2.5,0.7,3.7c0.5,1.2,1.1,2.2,1.9,3c0.8,0.9,1.7,1.5,2.8,2c1.1,0.5,2.2,0.7,3.4,0.7h11.8
		v-2.7c0.1,0.8,0.4,1.5,1,2c0.6,0.5,1.2,0.8,2,0.8h3l-0.1-18.8H203.6L203.6,12.5z"/>
	<path class="st0" d="M36.9,12.5c-0.8,0-1.4,0.3-2,0.8c-0.6,0.5-0.9,1.2-1,2v3.5h17.7c0.8,0,1.5,0.3,2.1,0.9
		c0.6,0.6,0.9,1.4,0.9,2.2v6.3c0,0.9,0.3,1.6,0.9,2.2c0.6,0.6,1.3,0.9,2.1,0.9h2.9V22c-0.2-1.3-0.6-2.5-1.3-3.6
		c-0.7-1.1-1.5-2-2.5-2.7c1-0.7,1.8-1.6,2.5-2.7c0.7-1.1,1.1-2.3,1.3-3.6c0-1.3-0.2-2.5-0.7-3.7c-0.5-1.2-1.1-2.2-1.9-3
		c-0.8-0.9-1.7-1.5-2.8-2C54,0.2,52.9,0,51.6,0H33.9v3.6c0.1,0.8,0.4,1.5,1,2c0.6,0.5,1.2,0.8,2,0.8h14.8c0.8,0,1.5,0.3,2.1,0.9
		c0.6,0.6,0.9,1.3,0.9,2.2c0,0.9-0.3,1.6-0.9,2.2c-0.6,0.6-1.3,0.9-2.1,0.9H36.9L36.9,12.5z"/>
	<path class="st0" d="M89.3,5.7c-0.5-1.2-1.1-2.2-1.9-3c-0.8-0.9-1.7-1.5-2.8-2C83.5,0.2,82.4,0,81.1,0h-8.9c-1.2,0-2.4,0.2-3.4,0.7
		c-1.1,0.5-2,1.2-2.8,2c-0.8,0.9-1.4,1.9-1.9,3c-0.5,1.2-0.7,2.4-0.7,3.7V22c0,1.3,0.2,2.5,0.7,3.7c0.5,1.2,1.1,2.2,1.9,3
		c0.8,0.9,1.7,1.5,2.8,2c1.1,0.5,2.2,0.7,3.4,0.7h8.9c1.2,0,2.4-0.2,3.4-0.7c1.1-0.5,2-1.2,2.8-2c0.8-0.9,1.4-1.9,1.9-3
		c0.5-1.1,0.7-2.4,0.7-3.7V9.4C90,8.1,89.8,6.9,89.3,5.7z M84.1,22c0,0.9-0.3,1.6-0.9,2.2c-0.6,0.6-1.3,0.9-2.1,0.9h-8.9
		c-0.8,0-1.5-0.3-2.1-0.9c-0.6-0.6-0.9-1.3-0.9-2.2V9.4c0-0.9,0.3-1.6,0.9-2.2c0.6-0.6,1.3-0.9,2.1-0.9h8.9c0.8,0,1.5,0.3,2.1,0.9
		c0.6,0.6,0.9,1.3,0.9,2.2V22z"/>
	<linearGradient id="SVGID_1_" gradientUnits="userSpaceOnUse" x1="0" y1="44.7353" x2="238.8793" y2="44.7353">
		<stop  offset="0" style="stop-color:#FFFFFF"/>
		<stop  offset="7.099897e-02" style="stop-color:#FAEDD4"/>
		<stop  offset="0.1633" style="stop-color:#F5DEAC"/>
		<stop  offset="0.2607" style="stop-color:#F2D189"/>
		<stop  offset="0.3612" style="stop-color:#EFC66D"/>
		<stop  offset="0.4657" style="stop-color:#EDBE52"/>
		<stop  offset="0.5756" style="stop-color:#EBB83C"/>
		<stop  offset="0.6932" style="stop-color:#E9B42C"/>
		<stop  offset="0.824" style="stop-color:#E9B123"/>
		<stop  offset="0.9944" style="stop-color:#E8B121"/>
	</linearGradient>
	<path class="st1" d="M0,49.1c0,0,52.6,3.2,69.3,3.2s54.1-1.3,65.9-2.4c11.7-1,24.4-1.5,50.5-1.8c26.1-0.3,53.2,1.3,53.2,1.3v-6.8
		c0,0-0.8-5.5-8.5-5.4c-5,0.1-32,0-50.3-0.1c-11.2,0-22.3,0.3-33.4,1c-8.5,0.6-18.1,1.2-22.9,1.4c-12.9,0.6-51.6,1.3-51.6,1.3
		c-1.9,0-3.8,0-5.7-0.1L0,37.2V49.1z"/>
</g>
</svg>
