<svg xmlns="http://www.w3.org/2000/svg" xmlns:xlink="http://www.w3.org/1999/xlink" width="496" height="289.75" viewBox="0 0 496 289.75"><defs><style>.a{clip-path:url(#j);}.b{fill:url(#a);}.c{fill:url(#b);}.d{fill:url(#c);}.e{fill:url(#d);}.f{fill:url(#e);}.g{fill:url(#f);}.h{fill:url(#g);}.i{fill:url(#h);}.j{fill:#fff;}</style><linearGradient id="a" x1="-24.821" y1="1.684" x2="-24.773" y2="1.684" gradientUnits="objectBoundingBox"><stop offset="0" stop-color="#005ba6"/><stop offset="0.291" stop-color="#0073ba"/><stop offset="0.887" stop-color="#32b5ed"/><stop offset="1" stop-color="#32b5ed"/></linearGradient><linearGradient id="b" x1="-20.036" y1="1.706" x2="-19.995" y2="1.706" xlink:href="#a"/><linearGradient id="c" x1="-10.398" y1="1.717" x2="-10.374" y2="1.717" xlink:href="#a"/><linearGradient id="d" x1="-3.387" y1="0.295" x2="-3.379" y2="0.295" xlink:href="#a"/><linearGradient id="e" x1="-26.199" y1="1.713" x2="-26.152" y2="1.713" xlink:href="#a"/><linearGradient id="f" x1="-20.741" y1="0.446" x2="-20.703" y2="0.446" xlink:href="#a"/><linearGradient id="g" x1="-97.495" y1="1.763" x2="-97.317" y2="1.763" xlink:href="#a"/><linearGradient id="h" x1="-77.442" y1="9.297" x2="-77.3" y2="9.297" xlink:href="#a"/><clipPath id="j"><rect width="496" height="289.75"/></clipPath></defs><g id="i" class="a"><rect class="j" width="496" height="289.75"/><g transform="translate(-2307 -700.127)"><path class="b" d="M2636.674,825.5a26.347,26.347,0,0,1-14.488,3.9,89.916,89.916,0,0,1-27.3-3.9,28.285,28.285,0,0,0-5.014-1.115c-1.672,0-2.229,1.115-2.229,3.344V833.3a8.056,8.056,0,0,0,1.114,3.9,8.572,8.572,0,0,0,3.343,2.229c8.916,3.9,18.945,5.572,30.089,5.572,11.7,0,20.617-2.786,27.86-8.358s10.587-12.816,10.587-22.288c0-6.687-1.671-11.7-5.015-16.159-3.343-3.9-8.915-7.8-16.716-10.587l-15.6-6.129c-6.13-2.229-10.587-4.458-12.259-6.687a10.509,10.509,0,0,1-3.343-8.358c0-8.358,6.129-12.815,18.945-12.815a67.355,67.355,0,0,1,21.174,3.343c2.228.557,3.9,1.114,4.457,1.114,1.672,0,2.786-1.114,2.786-3.343v-5.572a8.053,8.053,0,0,0-1.114-3.9c-.557-1.115-1.672-1.672-3.343-2.229a79.315,79.315,0,0,0-25.074-4.458c-10.587,0-19.5,2.786-26.189,7.8s-10.03,12.258-10.03,20.617c0,12.815,7.244,22.288,21.731,27.86l16.716,6.129c5.572,2.229,8.916,3.9,11.144,6.129s2.786,4.458,2.786,7.8C2641.688,819.369,2640.017,823.269,2636.674,825.5Z"/><path class="c" d="M2549.193,745.261v74.108c-9.473,6.129-18.945,9.472-28.418,9.472q-9.193,0-13.373-5.015c-2.786-3.343-3.9-8.358-3.9-15.6V745.261c0-2.786-1.114-3.9-3.9-3.9h-11.7c-2.786,0-3.9,1.115-3.9,3.9v69.093c0,9.472,2.229,17.273,7.244,22.288s12.258,7.8,21.73,7.8c12.816,0,25.632-4.458,37.89-13.373l1.115,6.686a2.574,2.574,0,0,0,1.671,2.786c.557.558,1.672.558,3.344.558h8.358c2.786,0,3.9-1.115,3.9-3.9V745.261c0-2.786-1.114-3.9-3.9-3.9h-11.7C2550.307,741.36,2549.193,743.032,2549.193,745.261Z"/><path class="d" d="M2443.324,841.657h11.7c2.786,0,3.9-1.115,3.9-3.9v-69.65c0-9.473-2.229-16.716-7.244-21.731s-11.7-7.8-21.174-7.8c-12.815,0-26.188,4.458-39,13.93-4.457-9.472-12.816-13.93-25.074-13.93s-24.517,4.458-36.775,12.816l-1.115-6.129a2.574,2.574,0,0,0-1.671-2.786c-.558-.558-1.672-.558-2.786-.558h-8.916c-2.786,0-3.9,1.115-3.9,3.9v92.5c0,2.786,1.114,3.9,3.9,3.9h11.7c2.786,0,3.9-1.114,3.9-3.9V763.091c9.472-5.572,18.945-8.915,28.975-8.915q8.358,0,11.7,5.015c2.229,3.343,3.9,7.8,3.9,14.487v64.078c0,2.786,1.115,3.9,3.9,3.9h11.7c2.786,0,3.9-1.115,3.9-3.9V763.091c10.03-6.129,19.5-8.915,28.975-8.915q8.358,0,11.7,5.015c2.229,3.343,3.9,7.8,3.9,14.487v64.078C2439.424,840.542,2440.538,841.657,2443.324,841.657Z"/><path class="e" d="M2747,915.765c-60.735,25.631-127.043,38.447-187.22,38.447-89.153,0-175.519-24.517-245.17-65.193a7.921,7.921,0,0,0-3.343-1.114c-3.9,0-6.129,4.457-2.229,8.358,64.636,58.506,150.445,93.61,245.17,93.61,67.978,0,146.544-21.174,200.593-61.293C2764.273,921.894,2756.472,911.864,2747,915.765Z"/><path class="f" d="M2745.328,763.648c5.015-5.572,12.816-8.358,23.96-8.358a51.51,51.51,0,0,1,16.159,2.229,8.282,8.282,0,0,0,3.343.557c1.672,0,2.786-1.114,2.786-3.9V748.6a6.5,6.5,0,0,0-1.114-3.9,12.176,12.176,0,0,0-2.786-2.228c-7.244-1.672-14.488-3.344-21.174-3.344-15.6,0-27.3,4.458-36.218,13.93-8.358,8.916-12.816,22.289-12.816,39.005s3.9,29.531,12.258,38.447,20.06,13.373,35.662,13.373c8.358,0,16.158-1.115,22.288-3.9,1.671-.557,2.786-1.114,3.343-2.229.557-.557.557-2.228.557-3.9v-5.572c0-2.786-1.114-3.9-2.786-3.9a6.051,6.051,0,0,0-2.786.558,69.579,69.579,0,0,1-17.83,2.786q-15.881,0-23.4-8.358c-5.015-5.572-7.244-14.488-7.244-26.189v-2.786C2738.085,778.136,2740.313,769.22,2745.328,763.648Z"/><path class="g" d="M2770.4,968.142c28.975-24.517,36.776-75.223,30.647-83.023-2.786-3.344-16.159-6.687-32.875-6.687-17.831,0-39.005,3.9-55.164,15.045-5.014,3.343-3.9,7.8,1.115,7.243,17.273-2.228,56.277-6.686,63.521,2.229,6.686,8.915-7.8,45.691-14.487,61.85C2761.487,969.814,2765.388,971.485,2770.4,968.142Z"/><path class="h" d="M2692.951,741.36h-11.7c-2.786,0-3.9,1.115-3.9,3.9v92.495c0,2.786,1.115,3.9,3.9,3.9h11.7c2.786,0,3.9-1.115,3.9-3.9V745.261C2696.852,743.032,2695.737,741.36,2692.951,741.36Z"/><path class="i" d="M2696.294,703.47c-2.228-2.228-5.572-3.343-9.472-3.343s-6.687,1.115-8.915,3.343a11.34,11.34,0,0,0-3.344,8.358c0,3.344,1.115,6.687,3.344,8.358,2.228,2.229,5.014,3.344,8.915,3.344s6.686-1.115,8.915-3.344a11.336,11.336,0,0,0,3.343-8.358C2699.08,708.485,2698.523,705.142,2696.294,703.47Z"/></g></g></svg>