<?xml version="1.0" encoding="utf-8"?>
<!-- Generator: Adobe Illustrator 27.4.1, SVG Export Plug-In . SVG Version: 6.00 Build 0)  -->
<svg version="1.1" id="Camada_1" xmlns="http://www.w3.org/2000/svg" xmlns:xlink="http://www.w3.org/1999/xlink" x="0px" y="0px"
	 viewBox="0 0 500 500" style="enable-background:new 0 0 500 500;" xml:space="preserve">
<style type="text/css">
	.st0{fill:url(#SVGID_1_);}
	.st1{fill:url(#SVGID_00000059289547283697620780000014723390462510857088_);}
	.st2{fill:url(#SVGID_00000041276913057487815770000001617728314373944221_);}
	.st3{fill:url(#SVGID_00000000189695506728116300000015936426995146625974_);}
	.st4{fill:url(#SVGID_00000013908507332585615740000008275857000414941107_);}
	.st5{fill:url(#SVGID_00000047738391046048263420000003867279075518797204_);}
	.st6{fill:url(#SVGID_00000039840122761962579280000012930565924131383713_);}
	.st7{fill:url(#SVGID_00000010290456447913201390000015751352296952776120_);}
</style>
<g>
	<g id="i">
		<g transform="translate(-2307 -700.127)">
			
				<linearGradient id="SVGID_1_" gradientUnits="userSpaceOnUse" x1="4494.3218" y1="110.7815" x2="4494.3701" y2="110.7815" gradientTransform="matrix(72.9932 0 0 106.426 -327291.5625 -10893.667)">
				<stop  offset="0" style="stop-color:#005BA6"/>
				<stop  offset="0.291" style="stop-color:#0073BA"/>
				<stop  offset="0.887" style="stop-color:#32B5ED"/>
				<stop  offset="1" style="stop-color:#32B5ED"/>
			</linearGradient>
			<path class="st0" d="M2639.4,930.4c-4.3,2.7-9.5,4-14.6,3.9c-9.3,0.1-18.7-1.2-27.5-3.9c-1.6-0.5-3.3-0.9-5-1.1
				c-1.7,0-2.2,1.1-2.2,3.3v5.6c0,1.4,0.4,2.7,1.1,3.9c0.9,1,2.1,1.8,3.3,2.2c9,3.9,19.1,5.6,30.3,5.6c11.8,0,20.8-2.8,28.1-8.5
				c7.4-5.6,10.7-12.9,10.7-22.5c0-6.8-1.7-11.8-5-16.3c-3.3-3.9-9-7.9-16.8-10.7L2626,886c-6.2-2.2-10.7-4.5-12.4-6.8
				c-2.3-2.1-3.5-5.2-3.3-8.5c0-8.5,6.1-12.9,19.1-12.9c7.3,0,14.4,1.1,21.4,3.3c2.2,0.6,3.9,1.1,4.5,1.1c1.7,0,2.8-1.1,2.8-3.3
				v-5.6c0-1.4-0.4-2.7-1.1-3.9c-0.6-1.1-1.7-1.7-3.3-2.2c-8.2-2.8-16.6-4.3-25.3-4.5c-10.7,0-19.7,2.8-26.4,7.9
				s-10.1,12.4-10.1,20.8c0,12.9,7.3,22.5,21.9,28.1l16.8,6.1c5.6,2.2,9,3.9,11.2,6.1c2.2,2.2,2.8,4.5,2.8,7.9
				C2644.4,924.3,2642.7,928.2,2639.4,930.4z"/>
			
				<linearGradient id="SVGID_00000016074189270632166040000011576207855411585951_" gradientUnits="userSpaceOnUse" x1="4498.9424" y1="110.9512" x2="4498.9839" y2="110.9512" gradientTransform="matrix(85.2515 0 0 103.0811 -382778.2188 -10539.3447)">
				<stop  offset="0" style="stop-color:#005BA6"/>
				<stop  offset="0.291" style="stop-color:#0073BA"/>
				<stop  offset="0.887" style="stop-color:#32B5ED"/>
				<stop  offset="1" style="stop-color:#32B5ED"/>
			</linearGradient>
			<path style="fill:url(#SVGID_00000016074189270632166040000011576207855411585951_);" d="M2551.2,849.6v74.7
				c-9.6,6.1-19.1,9.6-28.6,9.6c-6.2,0-10.7-1.7-13.5-5c-2.8-3.3-3.9-8.5-3.9-15.7v-63.5c0-2.8-1.1-3.9-3.9-3.9h-11.8
				c-2.8,0-3.9,1.1-3.9,3.9v69.7c0,9.6,2.2,17.4,7.3,22.5c5,5,12.4,7.9,21.9,7.9c12.9,0,25.8-4.5,38.2-13.5l1.1,6.8
				c-0.2,1.2,0.5,2.4,1.7,2.8c0.6,0.6,1.7,0.6,3.3,0.6h8.5c2.8,0,3.9-1.1,3.9-3.9v-92.7c0-2.8-1.1-3.9-3.9-3.9h-11.8
				C2552.3,845.7,2551.2,847.3,2551.2,849.6z"/>
			
				<linearGradient id="SVGID_00000174591908405012184300000014871333353284712068_" gradientUnits="userSpaceOnUse" x1="4508.167" y1="110.9217" x2="4508.1909" y2="110.9217" gradientTransform="matrix(147.6545 0 0 103.643 -664887.875 -10601.2012)">
				<stop  offset="0" style="stop-color:#005BA6"/>
				<stop  offset="0.291" style="stop-color:#0073BA"/>
				<stop  offset="0.887" style="stop-color:#32B5ED"/>
				<stop  offset="1" style="stop-color:#32B5ED"/>
			</linearGradient>
			<path style="fill:url(#SVGID_00000174591908405012184300000014871333353284712068_);" d="M2444.4,946.8h11.8
				c2.8,0,3.9-1.1,3.9-3.9v-70.3c0-9.6-2.2-16.8-7.3-21.9s-11.8-7.9-21.4-7.9c-12.9,0-26.4,4.5-39.3,14c-4.5-9.6-12.9-14-25.3-14
				s-24.7,4.5-37.1,12.9l-1.1-6.2c0.2-1.2-0.5-2.4-1.7-2.8c-0.6-0.6-1.7-0.6-2.8-0.6h-9c-2.8,0-3.9,1.1-3.9,3.9v93.3
				c0,2.8,1.1,3.9,3.9,3.9h11.8c2.8,0,3.9-1.1,3.9-3.9v-75.8c9.6-5.6,19.1-9,29.2-9c5.6,0,9.6,1.7,11.8,5c2.2,3.3,3.9,7.9,3.9,14.6
				v64.6c0,2.8,1.1,3.9,3.9,3.9h11.8c2.8,0,3.9-1.1,3.9-3.9v-75.3c10.1-6.1,19.7-9,29.2-9c5.6,0,9.6,1.7,11.8,5
				c2.2,3.3,3.9,7.9,3.9,14.6v64.6C2440.5,945.6,2441.6,946.8,2444.4,946.8z"/>
			
				<linearGradient id="SVGID_00000057868758367070038210000009256626541770745756_" gradientUnits="userSpaceOnUse" x1="4514.7974" y1="111.0217" x2="4514.8057" y2="111.0217" gradientTransform="matrix(452.0986 0 0 101.968 -2040370.5 -10275.8916)">
				<stop  offset="0" style="stop-color:#005BA6"/>
				<stop  offset="0.291" style="stop-color:#0073BA"/>
				<stop  offset="0.887" style="stop-color:#32B5ED"/>
				<stop  offset="1" style="stop-color:#32B5ED"/>
			</linearGradient>
			<path style="fill:url(#SVGID_00000057868758367070038210000009256626541770745756_);" d="M2750.6,1021.5
				c-61.2,25.8-128,38.7-188.7,38.7c-89.9,0-176.9-24.7-247.2-65.7c-1-0.6-2.2-1-3.3-1.1c-3.9,0-6.2,4.5-2.2,8.5
				c65.1,59,151.6,94.4,247.2,94.4c68.6,0,147.7-21.4,202.2-61.8C2768,1027.6,2760.2,1017.5,2750.6,1021.5z"/>
			
				<linearGradient id="SVGID_00000085955575640861414030000015656892360886790315_" gradientUnits="userSpaceOnUse" x1="4492.9263" y1="110.8646" x2="4492.9736" y2="110.8646" gradientTransform="matrix(74.1128 0 0 104.755 -332220.1562 -10717.5078)">
				<stop  offset="0" style="stop-color:#005BA6"/>
				<stop  offset="0.291" style="stop-color:#0073BA"/>
				<stop  offset="0.887" style="stop-color:#32B5ED"/>
				<stop  offset="1" style="stop-color:#32B5ED"/>
			</linearGradient>
			<path style="fill:url(#SVGID_00000085955575640861414030000015656892360886790315_);" d="M2748.9,868c5-5.6,12.9-8.5,24.2-8.5
				c5.5-0.1,11,0.6,16.3,2.2c1.1,0.4,2.2,0.6,3.3,0.6c1.7,0,2.8-1.1,2.8-3.9v-5.6c0.1-1.4-0.3-2.8-1.1-3.9c-0.8-0.9-1.8-1.6-2.8-2.2
				c-7.3-1.7-14.6-3.3-21.4-3.3c-15.7,0-27.5,4.5-36.5,14c-8.5,9-12.9,22.5-12.9,39.3c0,16.8,3.9,29.7,12.4,38.7
				c8.5,9,20.3,13.5,36,13.5c8.5,0,16.3-1.1,22.5-3.9c1.7-0.6,2.8-1.1,3.3-2.2c0.6-0.6,0.6-2.2,0.6-3.9v-5.6c0-2.8-1.1-3.9-2.8-3.9
				c-1,0-1.9,0.2-2.8,0.6c-5.8,1.7-11.9,2.6-17.9,2.8c-10.7,0-18.6-2.8-23.6-8.5c-5-5.6-7.3-14.6-7.3-26.4V895
				C2741.6,882.7,2743.8,873.7,2748.9,868z"/>
			
				<linearGradient id="SVGID_00000136403542074533392010000006291820509941891227_" gradientUnits="userSpaceOnUse" x1="4498.1533" y1="111.6425" x2="4498.1919" y2="111.6425" gradientTransform="matrix(93.2397 0 0 91.4493 -418643.3125 -9179.7441)">
				<stop  offset="0" style="stop-color:#005BA6"/>
				<stop  offset="0.291" style="stop-color:#0073BA"/>
				<stop  offset="0.887" style="stop-color:#32B5ED"/>
				<stop  offset="1" style="stop-color:#32B5ED"/>
			</linearGradient>
			<path style="fill:url(#SVGID_00000136403542074533392010000006291820509941891227_);" d="M2774.2,1074.2
				c29.2-24.7,37.1-75.8,30.9-83.7c-2.8-3.3-16.3-6.8-33.2-6.8c-17.9,0-39.3,3.9-55.7,15.1c-5,3.3-3.9,7.9,1.1,7.3
				c17.4-2.2,56.8-6.8,64,2.2c6.8,9-7.9,46.1-14.6,62.3C2765.2,1075.9,2769.1,1077.6,2774.2,1074.2z"/>
			
				<linearGradient id="SVGID_00000087408856513860025190000011234135775086690978_" gradientUnits="userSpaceOnUse" x1="4424.7827" y1="111.0997" x2="4424.9624" y2="111.0997" gradientTransform="matrix(19.4998 0 0 100.2951 -85518.6484 -10246.542)">
				<stop  offset="0" style="stop-color:#005BA6"/>
				<stop  offset="0.291" style="stop-color:#0073BA"/>
				<stop  offset="0.887" style="stop-color:#32B5ED"/>
				<stop  offset="1" style="stop-color:#32B5ED"/>
			</linearGradient>
			<path style="fill:url(#SVGID_00000087408856513860025190000011234135775086690978_);" d="M2696.1,845.7h-11.8
				c-2.8,0-3.9,1.1-3.9,3.9v93.3c0,2.8,1.1,3.9,3.9,3.9h11.8c2.8,0,3.9-1.1,3.9-3.9v-93.3C2700.1,847.3,2698.9,845.7,2696.1,845.7z"
				/>
			
				<linearGradient id="SVGID_00000064353914395533060820000014415323522513984139_" gradientUnits="userSpaceOnUse" x1="4443.959" y1="129.1456" x2="4444.1021" y2="129.1456" gradientTransform="matrix(24.5256 0 0 23.403 -108228.1797 -2206.4873)">
				<stop  offset="0" style="stop-color:#005BA6"/>
				<stop  offset="0.291" style="stop-color:#0073BA"/>
				<stop  offset="0.887" style="stop-color:#32B5ED"/>
				<stop  offset="1" style="stop-color:#32B5ED"/>
			</linearGradient>
			<path style="fill:url(#SVGID_00000064353914395533060820000014415323522513984139_);" d="M2699.5,807.4c-2.2-2.2-5.6-3.3-9.6-3.3
				s-6.8,1.1-9,3.3s-3.4,5.2-3.3,8.5c0,3.3,1.1,6.8,3.3,8.5c2.2,2.2,5,3.3,9,3.3s6.8-1.1,9-3.3c2.2-2.2,3.4-5.2,3.3-8.5
				C2702.3,812.5,2701.7,809.1,2699.5,807.4z"/>
		</g>
	</g>
</g>
</svg>
