<?xml version="1.0" encoding="UTF-8"?>
<svg id="Camada_1" data-name="Camada 1" xmlns="http://www.w3.org/2000/svg" version="1.1" viewBox="0 0 329.9 329.9">
  <defs>
    <style>
      .cls-1 {
        fill: #77c159;
        stroke-width: 0px;
      }
    </style>
  </defs>
  <path class="cls-1" d="M273.9,232.9c11.2,0,20.4-9.2,20.4-20.4v-85c0-11.2-9.2-20.4-20.4-20.4s-20.4,9.2-20.4,20.4v85c0,11.2,9.2,20.4,20.4,20.4Z"/>
  <path class="cls-1" d="M76.3,127.5v85c0,11.2-9.2,20.4-20.4,20.4s-20.4-9.2-20.4-20.4v-85c0-11.2,9.2-20.4,20.4-20.4s20.4,9.1,20.4,20.4Z"/>
  <path class="cls-1" d="M248.7,110.6v131.9c0,8.2-6.6,14.8-14.8,14.8h-14.6v52.2c0,11.2-9.2,20.4-20.4,20.4s-20.4-9.2-20.4-20.4v-52.2h-27.2v52.2c0,11.2-9.2,20.4-20.4,20.4s-20.4-9.2-20.4-20.4v-52.2h-14.6c-8.2,0-14.8-6.6-14.8-14.8V110.6h167.6Z"/>
  <path class="cls-1" d="M246.7,86.5c-.8-3.3-1.8-6.5-3.1-9.6-6.1-15-17.1-27.8-31.3-36.8-1-.6-2-1.2-3.1-1.8-1-.6-2.1-1.2-3.2-1.7l3.5-6.3,3.5-6.3,10.9-19.7c.8-1.4.3-3.2-1.1-3.9-.5-.2-.9-.4-1.4-.4-1,0-2,.5-2.5,1.5l-11.1,20-3.5,6.3-3.5,6.4c-1.1-.5-2.2-.9-3.3-1.4-1.1-.4-2.3-.9-3.4-1.2-9.1-3.1-18.9-4.8-29.1-4.8s-20,1.7-29.1,4.8c-1.1.4-2.3.8-3.4,1.2-1.1.4-2.2.9-3.3,1.4l-3.5-6.4-3.5-6.3L111,1.5c-.8-1.4-2.5-1.9-3.9-1.1-1.4.8-1.9,2.5-1.1,3.9l10.9,19.7,3.5,6.3,3.5,6.3c-1.1.6-2.1,1.1-3.2,1.7-1,.6-2.1,1.2-3.1,1.8-14.2,8.9-25.2,21.8-31.3,36.8-1.2,3.1-2.3,6.3-3.1,9.6-1.3,5.4-2.1,11.1-2.1,16.9h167.6c0-5.8-.7-11.4-2.1-16.9ZM130.5,63.4c-.5,3.8-3.7,6.7-7.5,6.7s-7.6-3.4-7.6-7.6,3.4-7.6,7.6-7.6,2.2.3,3.2.7c2.6,1.2,4.4,3.8,4.4,6.9s0,.6,0,.9ZM206.9,70.1c-3.9,0-7.1-2.9-7.5-6.7,0-.3,0-.6,0-.9,0-3,1.8-5.7,4.4-6.9,1-.5,2.1-.7,3.2-.7,4.2,0,7.6,3.4,7.6,7.6s-3.4,7.6-7.6,7.6Z"/>
</svg>