<?xml version="1.0" encoding="utf-8"?>
<!-- Generator: Adobe Illustrator 27.8.1, SVG Export Plug-In . SVG Version: 6.00 Build 0)  -->
<svg version="1.1" id="Camada_1" xmlns="http://www.w3.org/2000/svg" xmlns:xlink="http://www.w3.org/1999/xlink" x="0px" y="0px"
	 viewBox="0 0 496 496" style="enable-background:new 0 0 496 496;" xml:space="preserve">
<g>
	<path d="M419.6,176.4c-29.9,18.3-48.3,50.7-48.7,85.7c0.1,39.6,23.9,75.5,60.3,91c-7.1,22.7-17.4,44.3-30.9,63.9
		c-19.2,27.7-39.4,55.4-70,55.4s-38.5-17.8-73.7-17.8c-34.4,0-46.6,18.4-74.7,18.4s-47.5-25.7-70-57.1c-29.7-44.1-46-95.9-47-149
		c0-87.4,56.9-133.9,112.8-133.9c29.8,0,54.5,19.5,73.2,19.5c17.8,0,45.4-20.7,79.3-20.7C365.7,130.9,399.2,147.5,419.6,176.4z"/>
	<path d="M314.4,94.7c14.9-17.5,23.3-39.6,23.9-62.7c0-3-0.3-6.1-0.9-9.1c-25.6,2.5-49.3,14.7-66.2,34.1
		c-15.1,16.9-23.9,38.4-24.8,61c0,2.7,0.3,5.4,0.9,8.2c2,0.4,4.1,0.5,6.2,0.5C277.3,125,299.3,113.3,314.4,94.7z"/>
</g>
</svg>
