<svg xmlns="http://www.w3.org/2000/svg" xmlns:xlink="http://www.w3.org/1999/xlink" width="434" height="496" viewBox="0 0 434 496"><defs><style>.a{clip-path:url(#c);}.b{fill:url(#a);}.c{fill:#fff;}</style><linearGradient id="a" y1="4.496" x2="1" y2="4.496" gradientUnits="objectBoundingBox"><stop offset="0" stop-color="#97569a"/><stop offset="1" stop-color="#4c3182"/></linearGradient><clipPath id="c"><rect width="434" height="496"/></clipPath></defs><g id="b" class="a"><rect class="c" width="434" height="496"/><g transform="translate(-628 -27)"><path class="b" d="M937.4,387.3a170.5,170.5,0,1,0-184.8,0c1.2,16.8,3.9,36.8,7,55.3l.2,1C682.3,410.4,628,333.5,628,244c0-119.9,97.2-217,217-217s217,97.1,217,217A216.9,216.9,0,0,1,930.3,443.6l.2-1.1c2.9-18.6,5.7-38.5,6.9-55.2Zm-2.2-36.9a60.725,60.725,0,0,0-6.8-15.7A65.775,65.775,0,0,0,907.2,313a93,93,0,1,0-124.4,0,65.775,65.775,0,0,0-21.2,21.7,64.349,64.349,0,0,0-6.8,15.7,139.5,139.5,0,1,1,180.4,0ZM845,329.2c31.9,0,62,8.3,62,42.4,0,32-12.5,100.8-20,128.7-4.9,18.4-23.7,22.7-42,22.7s-37-4.3-42-22.7c-7.6-27.6-20-96.6-20-128.6,0-34,30.1-42.4,62-42.5Zm0-31A54.2,54.2,0,1,1,899.2,244,54.243,54.243,0,0,1,845,298.2Z"/></g></g></svg>