<?xml version="1.0" encoding="utf-8"?>
<!-- Generator: Adobe Illustrator 27.4.1, SVG Export Plug-In . SVG Version: 6.00 Build 0)  -->
<svg version="1.1" id="Camada_1" xmlns="http://www.w3.org/2000/svg" xmlns:xlink="http://www.w3.org/1999/xlink" x="0px" y="0px"
	 viewBox="0 0 500 500" style="enable-background:new 0 0 500 500;" xml:space="preserve">
<style type="text/css">
	.st0{fill:url(#SVGID_1_);}
</style>
<g>
	<g id="b">
		<g transform="translate(-628 -27)">
			
				<linearGradient id="SVGID_1_" gradientUnits="userSpaceOnUse" x1="1129.3646" y1="3.1976" x2="1130.3727" y2="3.1976" gradientTransform="matrix(434 0 0 496 -489485 -1309.0127)">
				<stop  offset="0" style="stop-color:#4C3182"/>
				<stop  offset="1" style="stop-color:#4C3182"/>
			</linearGradient>
			<path class="st0" d="M971.1,390.2c79.7-51.4,102.7-157.9,51.3-237.6S864.6,49.9,784.9,101.3s-102.7,157.9-51.3,237.6
				c13.2,20.6,30.7,38,51.3,51.3c1.2,16.9,3.9,37.1,7.1,55.7l0.2,1C714,413.5,659.2,336,659.2,245.8C659.2,124.9,757.2,27,878,27
				s218.8,97.9,218.8,218.8c0.1,87.6-52.2,166.8-132.8,201.2l0.2-1.1C967.1,427.1,969.9,407,971.1,390.2z M968.9,353
				c-1.5-5.5-3.8-10.9-6.9-15.8c-5.3-8.9-12.6-16.3-21.4-21.9c38.5-34.7,41.6-94,7-132.4s-94-41.6-132.4-7
				c-38.4,34.7-41.6,94-7,132.4c2.2,2.4,4.5,4.7,7,7c-8.8,5.5-16,13-21.4,21.9c-3,4.9-5.2,10.3-6.9,15.8
				c-59.3-50.2-66.5-138.9-16.3-198.2s138.9-66.5,198.2-16.3c59.3,50.2,66.5,138.9,16.3,198.2C980.3,342.5,974.8,348,968.9,353
				L968.9,353z M878,331.6c32.2,0,62.5,8.4,62.5,42.7c0,32.3-12.6,101.6-20.2,129.7c-4.9,18.5-23.9,22.9-42.3,22.9
				s-37.3-4.3-42.3-22.9c-7.7-27.8-20.2-97.4-20.2-129.6C815.5,340.2,845.8,331.7,878,331.6L878,331.6z M878,300.4
				c-30.1,0-54.6-24.5-54.6-54.6s24.5-54.6,54.6-54.6s54.6,24.5,54.6,54.6C932.6,275.9,908.1,300.4,878,300.4z"/>
		</g>
	</g>
</g>
</svg>
