<?xml version="1.0" encoding="utf-8"?>
<!-- Generator: Adobe Illustrator 27.2.0, SVG Export Plug-In . SVG Version: 6.00 Build 0)  -->
<svg version="1.1" id="Camada_1" xmlns="http://www.w3.org/2000/svg" xmlns:xlink="http://www.w3.org/1999/xlink" x="0px" y="0px"
	 viewBox="0 0 512 512" style="enable-background:new 0 0 512 512;" xml:space="preserve">
<style type="text/css">
	.st0{fill:url(#SVGID_1_);}
</style>
<linearGradient id="SVGID_1_" gradientUnits="userSpaceOnUse" x1="39.0424" y1="256" x2="472.9576" y2="256">
	<stop  offset="0" style="stop-color:#F452FF"/>
	<stop  offset="1" style="stop-color:#832BC1"/>
</linearGradient>
<path class="st0" d="M348.4,368.3c47-30.3,78.1-83.2,78.1-143.3c0-94.1-76.3-170.5-170.5-170.5S85.5,130.8,85.5,225
	c0,60.1,31.1,112.9,78.1,143.3c1.2,16.8,3.9,36.8,7,55.3l0.2,1C93.3,391.4,39,314.5,39,225C39,105.1,136.2,8,256,8s217,97.1,217,217
	c0,89.6-54.2,166.5-131.7,199.6l0.2-1.1C344.4,404.9,347.2,385,348.4,368.3L348.4,368.3z M346.2,331.4c-1.5-5.5-3.8-10.8-6.8-15.7
	c-5.6-9.4-13.1-16.5-21.2-21.7c18.9-17,30.8-41.6,30.8-69.1c0-51.3-41.6-93-93-93s-93,41.6-93,93c0,27.4,11.9,52.1,30.8,69.1
	c-8.1,5.2-15.6,12.3-21.2,21.7c-3,4.9-5.2,10.2-6.8,15.7c-30.1-25.6-49.3-63.8-49.3-106.4c0-77,62.5-139.5,139.5-139.5
	S395.5,148,395.5,225C395.5,267.6,376.3,305.8,346.2,331.4z M256,310.2c31.9,0,62,8.3,62,42.4c0,32-12.5,100.8-20,128.7
	c-4.9,18.4-23.7,22.7-42,22.7s-37-4.3-42-22.7c-7.6-27.6-20-96.6-20-128.6C194,318.7,224.1,310.3,256,310.2L256,310.2z M256,279.2
	c-29.9,0-54.2-24.3-54.2-54.2s24.3-54.2,54.2-54.2s54.2,24.3,54.2,54.2S285.9,279.2,256,279.2z"/>
</svg>
