
<svg xmlns="http://www.w3.org/2000/svg" xmlns:xlink="http://www.w3.org/1999/xlink" width="500" height="500" viewBox="0 0 500 500"><defs><clipPath id="b"><rect width="500" height="500"/></clipPath></defs><g id="a" clip-path="url(#b)"><rect width="500" height="500" fill="#fff"/><path d="M419.441,76.794c4.626-26.813,11.415-43.673,18.934-43.705h.014c14.022.048,25.388,58.521,25.388,130.713S452.4,294.515,438.359,294.515c-5.755,0-11.065-9.936-15.34-26.588-6.756,60.954-20.777,102.855-37.008,102.855-12.558,0-23.829-25.17-31.4-64.865-5.166,75.493-18.169,129.055-33.367,129.055-9.538,0-18.234-21.225-24.672-55.784-7.741,71.339-25.626,121.325-46.482,121.325s-38.773-49.97-46.482-121.325c-6.391,34.559-15.086,55.784-24.672,55.784-15.2,0-28.169-53.562-33.367-129.055-7.567,39.695-18.806,64.865-31.4,64.865-16.215,0-30.251-41.886-37.007-102.855-4.244,16.7-9.586,26.588-15.34,26.588-14.037,0-25.419-58.52-25.419-130.713S47.793,33.089,61.83,33.089c7.535,0,14.275,16.909,18.949,43.705C88.266,30.56,100.427.511,114.178.511c16.326,0,30.474,42.5,37.167,104.207,6.549-44.913,16.485-73.546,27.612-73.546,15.595,0,28.852,56.315,33.764,134.868,9.236-40.275,22.606-65.542,37.406-65.542s28.169,25.283,37.388,65.542c4.929-78.554,18.169-134.868,33.765-134.868,11.11,0,21.031,28.632,27.612,73.546C355.569,43.009,369.718.511,386.043.511,399.746.511,411.953,30.577,419.441,76.794ZM.089,150.946c0-32.272,6.454-58.44,14.418-58.44s14.418,26.168,14.418,58.44-6.454,58.441-14.418,58.441S.089,183.217.089,150.946Zm471.163,0c0-32.272,6.454-58.44,14.418-58.44s14.418,26.168,14.418,58.44-6.456,58.441-14.418,58.441S471.253,183.217,471.253,150.946Z" transform="translate(-0.089 -0.511)" fill="#a238ff" fill-rule="evenodd"/></g></svg>