<svg xmlns="http://www.w3.org/2000/svg" xmlns:xlink="http://www.w3.org/1999/xlink" width="496" height="320" viewBox="0 0 496 320"><defs><style>.a{clip-path:url(#k);}.b{fill:#369e5d;}.c{fill:url(#a);}.d{fill:url(#b);}.e{fill:url(#c);}.f{fill:url(#d);}.g{fill:url(#e);}.h{fill:url(#f);}.i{fill:url(#g);}.j{fill:url(#h);}.k{fill:url(#i);}.l{fill:#fff;}</style><linearGradient id="a" x1="0.563" y1="-7.097" x2="0.437" y2="-8.349" gradientUnits="objectBoundingBox"><stop offset="0" stop-color="#227b8c"/><stop offset="0.039" stop-color="#217e89"/><stop offset="0.388" stop-color="#228c6f"/><stop offset="0.716" stop-color="#279561"/><stop offset="1" stop-color="#28995c"/></linearGradient><linearGradient id="b" x1="-0.005" y1="-7.28" x2="1.023" y2="-8.197" gradientUnits="objectBoundingBox"><stop offset="0" stop-color="#113787"/><stop offset="1" stop-color="#007ba6"/></linearGradient><linearGradient id="c" y1="-7.73" x2="1.005" y2="-7.73" gradientUnits="objectBoundingBox"><stop offset="0" stop-color="#f89300"/><stop offset="1" stop-color="#f17b00"/></linearGradient><linearGradient id="d" x1="0.005" y1="-7.73" x2="1.011" y2="-7.73" gradientUnits="objectBoundingBox"><stop offset="0" stop-color="#f17b00"/><stop offset="1" stop-color="#c31a4e"/></linearGradient><linearGradient id="e" y1="-7.73" x2="1.005" y2="-7.73" gradientUnits="objectBoundingBox"><stop offset="0.003" stop-color="#a0096b"/><stop offset="1" stop-color="#272f80"/></linearGradient><linearGradient id="f" x1="0.005" y1="-7.73" x2="1.011" y2="-7.73" gradientUnits="objectBoundingBox"><stop offset="0" stop-color="#113787"/><stop offset="1" stop-color="#0761ab"/></linearGradient><linearGradient id="g" x1="-0.038" y1="-7.456" x2="1.044" y2="-8.009" gradientUnits="objectBoundingBox"><stop offset="0.001" stop-color="#a0096b"/><stop offset="1" stop-color="#1a3585"/></linearGradient><linearGradient id="h" x1="-0.031" y1="-8.069" x2="1.041" y2="-7.386" gradientUnits="objectBoundingBox"><stop offset="0.003" stop-color="#ffbd00"/><stop offset="1" stop-color="#c31a4e"/></linearGradient><linearGradient id="i" x1="0.095" y1="-8.384" x2="0.916" y2="-7.058" gradientUnits="objectBoundingBox"><stop offset="0.003" stop-color="#ffc300"/><stop offset="1" stop-color="#e95d2c"/></linearGradient><clipPath id="k"><rect width="496" height="320"/></clipPath></defs><g id="j" class="a"><rect class="l" width="496" height="320"/><g transform="translate(-1167 -115)"><path class="b" d="M1663,115H1556.1v62.2H1663Z"/><path class="c" d="M1663,200.5H1556.1v62.2H1663Z"/><path class="d" d="M1663,287.3H1556.1v62.2H1663Z"/><path class="e" d="M1273.9,372.8H1167V435h106.9Z"/><path class="f" d="M1403.1,372.8H1296.3V435h106.9V372.8Z"/><path class="g" d="M1533.7,372.8H1426.9V435h106.9V372.8Z"/><path class="h" d="M1663,372.8H1556.1V435H1663Z"/><path class="i" d="M1533.7,287.3H1426.9v62.2h106.9V287.3Z"/><path class="j" d="M1403.1,287.3H1296.3v62.2h106.9V287.3Z"/><path class="k" d="M1403.1,200.5H1296.3v62.2h106.9V200.5Z"/></g></g></svg>