<?xml version="1.0" encoding="UTF-8"?>
<svg id="Camada_1" data-name="Camada 1" xmlns="http://www.w3.org/2000/svg" version="1.1" viewBox="0 0 500 500">
  <defs>
    <style>
      .cls-1 {
        fill: #a238ff;
        fill-rule: evenodd;
        stroke-width: 0px;
      }
    </style>
  </defs>
  <path class="cls-1" d="M419.4,76.3c4.6-26.8,11.4-43.7,18.9-43.7h0c14,0,25.4,58.5,25.4,130.7s-11.4,130.7-25.4,130.7-11.1-9.9-15.3-26.6c-6.8,61-20.8,102.9-37,102.9s-23.8-25.2-31.4-64.9c-5.2,75.5-18.2,129.1-33.4,129.1s-18.2-21.2-24.7-55.8c-7.7,71.3-25.6,121.3-46.5,121.3s-38.8-50-46.5-121.3c-6.4,34.6-15.1,55.8-24.7,55.8-15.2,0-28.2-53.6-33.4-129.1-7.6,39.7-18.8,64.9-31.4,64.9s-30.3-41.9-37-102.9c-4.2,16.7-9.6,26.6-15.3,26.6-14,0-25.4-58.5-25.4-130.7S47.7,32.6,61.7,32.6s14.3,16.9,18.9,43.7C88.2,30,100.3,0,114.1,0s30.5,42.5,37.2,104.2c6.5-44.9,16.5-73.5,27.6-73.5s28.9,56.3,33.8,134.9c9.2-40.3,22.6-65.5,37.4-65.5s28.2,25.3,37.4,65.5c4.9-78.6,18.2-134.9,33.8-134.9s21,28.6,27.6,73.5C355.5,42.5,369.6,0,386,0s25.9,30.1,33.4,76.3Z"/>
  <path class="cls-1" d="M0,150.4c0-32.3,6.5-58.4,14.4-58.4s14.4,26.2,14.4,58.4-6.5,58.4-14.4,58.4S0,182.7,0,150.4Z"/>
  <path class="cls-1" d="M471.2,150.4c0-32.3,6.5-58.4,14.4-58.4s14.4,26.2,14.4,58.4-6.5,58.4-14.4,58.4-14.4-26.2-14.4-58.4h0Z"/>
</svg>