<?xml version="1.0" encoding="utf-8"?>
<!-- Generator: Adobe Illustrator 27.2.0, SVG Export Plug-In . SVG Version: 6.00 Build 0)  -->
<svg version="1.1" id="overcastCanvas" xmlns="http://www.w3.org/2000/svg" xmlns:xlink="http://www.w3.org/1999/xlink" x="0px"
	 y="0px" viewBox="0 0 512 512" style="enable-background:new 0 0 512 512;" xml:space="preserve">
<style type="text/css">
	.st0{fill-rule:evenodd;clip-rule:evenodd;fill:#FC7E0F;}
</style>
<g id="overcastCanvas-group">
	<path id="overcastCanvas-bezier" class="st0" d="M256,504C118.6,504,8,393.4,8,256S118.6,8,256,8s248,110.6,248,248
		S393.4,504,256,504z M256,405.8l18.6-18.6L256,315.9l-18.6,71.3L256,405.8z M232.2,404.8l-9.3,35.1l21.7-21.7L232.2,404.8z
		 M279.8,404.8l-12.4,12.4l21.7,21.7L279.8,404.8z M297.3,468.9L256,427.5l-41.3,41.3c13.4,2.1,26.9,4.1,41.3,4.1
		C270.5,473,283.9,472,297.3,468.9z M256,39C136.1,39,39,136.1,39,256c0,95.1,61,175.7,145.7,204.6L231.2,288
		c-10.3-7.2-16.5-19.6-16.5-33.1c0-22.7,18.6-41.3,41.3-41.3c22.7,0,41.3,18.6,41.3,41.3c0,13.4-6.2,24.8-16.5,33.1l46.5,172.6
		C412,431.7,473,351.1,473,256C473,136.1,375.9,39,256,39z M397.6,363.5c-5.2,6.2-14.5,8.3-21.7,3.1c-7.2-5.2-8.3-14.5-3.1-20.7
		c0,0,27.9-37.2,27.9-89.9s-27.9-89.9-27.9-89.9c-5.2-6.2-4.1-15.5,3.1-20.7c7.2-5.2,16.5-3.1,21.7,3.1
		c2.1,2.1,34.1,44.4,34.1,107.5S399.6,361.4,397.6,363.5z M322.1,323.2c-6.2-6.2-5.2-17.6,1-23.8c0,0,15.5-16.5,15.5-43.4
		c0-26.9-15.5-42.4-15.5-43.4c-6.2-6.2-6.2-16.5-1-23.8c6.2-7.2,15.5-7.2,21.7-1c1,1,25.8,26.9,25.8,68.2s-24.8,67.2-25.8,68.2
		C337.6,330.4,328.3,329.4,322.1,323.2z M189.9,323.2c-6.2,6.2-15.5,7.2-21.7,1c-1-2.1-25.8-26.9-25.8-68.2s24.8-66.1,25.8-68.2
		c6.2-6.2,16.5-6.2,21.7,1c6.2,6.2,5.2,17.6-1,23.8c0,1-15.5,16.5-15.5,43.4c0,26.9,15.5,43.4,15.5,43.4
		C195,305.6,196.1,315.9,189.9,323.2z M136.1,366.6c-7.2,5.2-16.5,3.1-21.7-3.1c-2.1-2.1-34.1-44.4-34.1-107.5s32-105.4,34.1-107.5
		c5.2-6.2,14.5-8.3,21.7-3.1c7.2,5.2,8.3,14.5,3.1,20.7c0,0-27.9,37.2-27.9,89.9s27.9,89.9,27.9,89.9
		C144.4,352.1,142.3,361.4,136.1,366.6z"/>
</g>
</svg>
