<?xml version="1.0" encoding="utf-8"?>
<!-- Generator: Adobe Illustrator 27.4.1, SVG Export Plug-In . SVG Version: 6.00 Build 0)  -->
<svg version="1.1" id="Camada_1" xmlns="http://www.w3.org/2000/svg" xmlns:xlink="http://www.w3.org/1999/xlink" x="0px" y="0px"
	 viewBox="0 0 500 500" style="enable-background:new 0 0 500 500;" xml:space="preserve">
<style type="text/css">
	.st0{fill-rule:evenodd;clip-rule:evenodd;fill:#EC6610;}
</style>
<g>
	<g id="a">
		<g transform="translate(-1737 -597)">
			<path class="st0" d="M1987,1097c-138.1,0-250-111.9-250-250s111.9-250,250-250s250,111.9,250,250
				c0.3,137.8-111.1,249.7-248.9,250C1987.7,1097,1987.4,1097,1987,1097z M1987,998l18.8-18.7l-18.8-71.9l-18.8,71.9L1987,998z
				 M1963,997l-9.4,35.4l21.9-21.9L1963,997z M2011,997l-12.5,12.5l21.9,21.9L2011,997z M2028.6,1061.6l-41.6-41.7l-41.6,41.6
				c13.5,2.1,27.1,4.1,41.6,4.1C2001.6,1065.7,2015.1,1064.7,2028.6,1061.6L2028.6,1061.6z M1987,628.3
				c-120.9,0-218.7,97.9-218.7,218.7c-0.2,93,58.9,176,146.9,206.2l46.9-174c-10.4-7.3-16.6-19.8-16.6-33.4
				c0-23,18.6-41.6,41.6-41.6s41.6,18.6,41.6,41.6c0,13.5-6.2,25-16.6,33.4l46.9,174c88-30.2,147.1-113.2,146.9-206.2
				C2205.7,726.1,2107.9,628.3,1987,628.3z M2129.7,955.4c-5.2,6.2-14.6,8.4-21.9,3.1s-8.4-14.6-3.1-20.9c0,0,28.1-37.5,28.1-90.6
				s-28.1-90.6-28.1-90.6c-5.2-6.2-4.1-15.6,3.1-20.9s16.6-3.1,21.9,3.1c2.1,2.1,34.4,44.8,34.4,108.4S2131.8,953.2,2129.7,955.4z
				 M2053.6,914.7c-6.2-6.2-5.2-17.7,1-24c0,0,15.6-16.6,15.6-43.8s-15.6-42.7-15.6-43.8c-6.2-6.2-6.2-16.6-1-24
				c6.2-7.3,15.6-7.3,21.9-1c1,1,26,27.1,26,68.7s-25,67.7-26,68.7C2069.3,922,2059.9,921,2053.6,914.7z M1920.4,914.7
				c-6.2,6.2-15.6,7.3-21.9,1c-1-2.1-26-27.1-26-68.7s25-66.6,26-68.7c6.2-6.2,16.6-6.2,21.9,1c6.2,6.2,5.2,17.7-1,24
				c0,1-15.6,16.6-15.6,43.8s15.6,43.8,15.6,43.8C1925.8,897.3,1926.3,907.7,1920.4,914.7L1920.4,914.7z M1866.1,958.5
				c-7.3,5.2-16.6,3.1-21.9-3.1c-2.1-2.1-34.4-44.8-34.4-108.4s32.3-106.2,34.4-108.4c5.2-6.2,14.6-8.4,21.9-3.1s8.4,14.6,3.1,20.9
				c0,0-28.1,37.5-28.1,90.6s28.1,90.6,28.1,90.6C1874.5,943.9,1872.4,953.2,1866.1,958.5L1866.1,958.5z"/>
		</g>
	</g>
</g>
</svg>
