<svg xmlns="http://www.w3.org/2000/svg" xmlns:xlink="http://www.w3.org/1999/xlink" width="496" height="496" viewBox="0 0 496 496"><defs><style>.a{clip-path:url(#b);}.b{fill:#e0282c;}.b,.c{fill-rule:evenodd;}.c,.d{fill:#fff;}</style><clipPath id="b"><rect width="496" height="496"/></clipPath></defs><g id="a" class="a"><rect class="d" width="496" height="496"/><g transform="translate(-27 -597)"><path class="b" d="M523,845c0,137-111,248-248,248S27,982,27,845,138,597,275,597,523,708,523,845Z"/><path class="c" d="M82.1,845c0-106.5,86.4-192.9,192.9-192.9S467.9,738.5,467.9,845H419.7A144.7,144.7,0,1,0,275,989.7v48.2C168.5,1037.9,82.1,951.5,82.1,845ZM275,960.7A115.7,115.7,0,1,1,390.7,845H348.6A73.6,73.6,0,1,0,275,918.6Z"/></g></g></svg>