<svg xmlns="http://www.w3.org/2000/svg" xmlns:xlink="http://www.w3.org/1999/xlink" width="496" height="496" viewBox="0 0 496 496"><defs><style>.a{clip-path:url(#b);}.b{fill:#c11222;}.c,.e{fill:#fff;}.c,.d{fill-rule:evenodd;}.d{fill:#e2e2e1;}</style><clipPath id="b"><rect width="496" height="496"/></clipPath></defs><g id="a" class="a"><rect class="e" width="496" height="496"/><g transform="translate(-597 -597)"><circle class="b" cx="248" cy="248" r="248" transform="translate(597 597)"/><path class="c" d="M909.1,803.5c-2,.5-3.9.9-5.9,1.4v50.4c2-.5,3.9-.9,5.9-1.4,7.3-1.8,8-6.5,8-12V812.1C917.1,805.7,916.5,801.7,909.1,803.5Z"/><path class="c" d="M824.9,728.3v273.9c56.8,27.4,113.7-27.4,170.5,0V728.3C938.6,700.9,881.8,755.7,824.9,728.3Zm123.9,111c0,22.2-8.7,36.3-30.7,41.5-5,1.2-9.9,2.4-14.9,3.6v71.5a230.289,230.289,0,0,1-31.4,5.7V783c14.9-1.4,29.8-5.3,44.6-8.9,26.7-6.3,32.4,7.6,32.4,29.4Z"/><path class="d" d="M872,961.8s-2.6,15.2-47.1,40.4v-148Z"/><path class="c" d="M785.1,762.6c-2.4.6-4.7,1.1-7.1,1.7v45.1c2-.5,4.1-1,6.1-1.4,6.4-1.5,8.7-4.5,8.7-12.9V770.9C792.9,763.1,791.5,761.1,785.1,762.6Z"/><path class="c" d="M699.1,687.6V961.5c57.6,27.4,115.1-27.4,172.7,0V687.6C814.3,660.2,756.7,715,699.1,687.6ZM827.2,905.9c-10.5.7-20.9,2.8-31.4,5.2-1.6-1.6-2.8-5.1-2.8-13V846c0-8.4-1.9-10.1-8.3-8.6-2.2.5-4.4,1-6.6,1.6v76.3c-10.5,2.4-20.9,4.6-31.4,5.6V742.3c16.5-1.6,33.1-6.1,49.6-9.9,19.1-4.4,28.8,5.7,28.8,24.8v28.6c0,14.8-8,22.1-13.9,25.9,5,1,13.5,6,13.5,19.3v60.7c0,7.7,1.4,10.9,2.6,13v1.2Z"/></g></g></svg>