<?xml version="1.0" encoding="utf-8"?>
<!-- Generator: Adobe Illustrator 27.2.0, SVG Export Plug-In . SVG Version: 6.00 Build 0)  -->
<svg version="1.1" id="Camada_1" xmlns="http://www.w3.org/2000/svg" xmlns:xlink="http://www.w3.org/1999/xlink" x="0px" y="0px"
	 viewBox="0 0 512 512" style="enable-background:new 0 0 512 512;" xml:space="preserve">
<style type="text/css">
	.st0{fill-rule:evenodd;clip-rule:evenodd;fill:#CE262F;}
	.st1{fill-rule:evenodd;clip-rule:evenodd;fill:#FFFFFF;}
	.st2{fill-rule:evenodd;clip-rule:evenodd;fill:#E7E7E7;}
</style>
<circle class="st0" cx="256" cy="256" r="248"/>
<g>
	<path class="st1" d="M320.1,214.5c-2,0.5-3.9,0.9-5.9,1.4v50.4c2-0.5,3.9-0.9,5.9-1.4c7.3-1.8,8-6.5,8-12c0-9.9,0-19.8,0-29.8
		C328.1,216.7,327.5,212.7,320.1,214.5z"/>
	<path class="st1" d="M235.9,139.3c0,91.3,0,182.6,0,273.9c56.8,27.4,113.7-27.4,170.5,0V139.3C349.6,111.9,292.8,166.7,235.9,139.3
		z M359.8,250.3c0,22.2-8.7,36.3-30.7,41.5c-5,1.2-9.9,2.4-14.9,3.6v71.5c-10.5,2.5-20.9,4.7-31.4,5.7V194
		c14.9-1.4,29.8-5.3,44.6-8.9c26.7-6.3,32.4,7.6,32.4,29.4V250.3z"/>
</g>
<path class="st2" d="M283,372.8c0,0-2.6,15.2-47.1,40.4v-148L283,372.8z"/>
<g>
	<path class="st1" d="M196.1,173.6c-2.4,0.6-4.7,1.1-7.1,1.7v45.1c2-0.5,4.1-1,6.1-1.4c6.4-1.5,8.7-4.5,8.7-12.9v-24.2
		C203.9,174.1,202.5,172.1,196.1,173.6z"/>
	<path class="st1" d="M110.1,98.6v273.9c57.6,27.4,115.1-27.4,172.7,0V98.6C225.3,71.2,167.7,126,110.1,98.6z M238.2,316.9
		c-10.5,0.7-20.9,2.8-31.4,5.2c-1.6-1.6-2.8-5.1-2.8-13v-52.1c0-8.4-1.9-10.1-8.3-8.6c-2.2,0.5-4.4,1-6.6,1.6v76.3
		c-10.5,2.4-20.9,4.6-31.4,5.6V153.3c16.5-1.6,33.1-6.1,49.6-9.9c19.1-4.4,28.8,5.7,28.8,24.8v28.6c0,14.8-8,22.1-13.9,25.9
		c5,1,13.5,6,13.5,19.3v60.7c0,7.7,1.4,10.9,2.6,13V316.9z"/>
</g>
</svg>
