<?xml version="1.0" encoding="utf-8"?>
<!-- Generator: Adobe Illustrator 27.4.1, SVG Export Plug-In . SVG Version: 6.00 Build 0)  -->
<svg version="1.1" id="Camada_1" xmlns="http://www.w3.org/2000/svg" xmlns:xlink="http://www.w3.org/1999/xlink" x="0px" y="0px"
	 viewBox="0 0 500 500" style="enable-background:new 0 0 500 500;" xml:space="preserve">
<style type="text/css">
	.st0{fill:#C11222;}
	.st1{fill-rule:evenodd;clip-rule:evenodd;fill:#FFFFFF;}
	.st2{fill-rule:evenodd;clip-rule:evenodd;fill:#E2E2E1;}
</style>
<g>
	<g id="a">
		<g transform="translate(-597 -597)">
			<circle class="st0" cx="847" cy="847" r="250"/>
			<path class="st1" d="M911.6,805.2c-2,0.5-3.9,0.9-5.9,1.4v50.8c2-0.5,3.9-0.9,5.9-1.4c7.4-1.8,8.1-6.6,8.1-12.1v-30
				C919.7,807.4,919.1,803.4,911.6,805.2z"/>
			<path class="st1" d="M826.7,729.4v276.1c57.3,27.6,114.6-27.6,171.9,0V729.4C941.4,701.7,884.1,757,826.7,729.4z M951.6,841.3
				c0,22.4-8.8,36.6-30.9,41.8c-5,1.2-10,2.4-15,3.6v72.1c-10.4,2.6-21,4.5-31.7,5.7v-180c15-1.4,30-5.3,45-9
				c26.9-6.4,32.7,7.7,32.7,29.6L951.6,841.3z"/>
			<path class="st2" d="M874.2,964.7c0,0-2.6,15.3-47.5,40.7V856.3L874.2,964.7z"/>
			<path class="st1" d="M786.6,763.9c-2.4,0.6-4.7,1.1-7.2,1.7v45.5c2-0.5,4.1-1,6.1-1.4c6.5-1.5,8.8-4.5,8.8-13v-24.4
				C794.5,764.4,793.1,762.4,786.6,763.9z"/>
			<path class="st1" d="M699.9,688.3v276.1c58.1,27.6,116-27.6,174.1,0V688.3C816.1,660.7,758,716,699.9,688.3z M829.1,908.4
				c-10.6,0.7-21.1,2.8-31.7,5.2c-1.6-1.6-2.8-5.1-2.8-13.1V848c0-8.5-1.9-10.2-8.4-8.7c-2.2,0.5-4.4,1-6.7,1.6v76.9
				c-10.6,2.4-21.1,4.6-31.7,5.6v-180c16.6-1.6,33.4-6.1,50-10c19.3-4.4,29,5.7,29,25v28.8c0,14.9-8.1,22.3-14,26.1
				c5,1,13.6,6,13.6,19.5v61.2c0,7.8,1.4,11,2.6,13.1L829.1,908.4L829.1,908.4z"/>
		</g>
	</g>
</g>
</svg>
