<?xml version="1.0" encoding="utf-8"?>
<!-- Generator: Adobe Illustrator 27.4.1, SVG Export Plug-In . SVG Version: 6.00 Build 0)  -->
<svg version="1.1" id="Camada_1" xmlns="http://www.w3.org/2000/svg" xmlns:xlink="http://www.w3.org/1999/xlink" x="0px" y="0px"
	 viewBox="0 0 500 500" style="enable-background:new 0 0 500 500;" xml:space="preserve">
<style type="text/css">
	.st0{fill:#E64E18;}
</style>
<g>
	<g id="a">
		<g transform="translate(-1785.25 -75)">
			<path class="st0" d="M1853.4,575c-37.4,0-67.6-30.2-67.6-67.6s30.2-67.6,67.6-67.6s67.6,30.2,67.6,67.6l0,0
				C1921.1,544.8,1890.8,575,1853.4,575L1853.4,575z M2015.1,575c-1.4-126-103.5-228.1-229.5-229.5V245.2
				c181.6,1.5,328.4,148.4,329.8,329.8H2015.1z M2184.8,575c-0.4-106.6-42-207-117.5-282.4c-75.5-75.4-175.4-117-281.7-117.5V75
				c275.6,1,498.9,224.4,499.4,500H2184.8z"/>
		</g>
	</g>
</g>
</svg>
