<?xml version="1.0" encoding="utf-8"?>
<!-- Generator: Adobe Illustrator 27.2.0, SVG Export Plug-In . SVG Version: 6.00 Build 0)  -->
<svg version="1.1" id="Camada_1" xmlns="http://www.w3.org/2000/svg" xmlns:xlink="http://www.w3.org/1999/xlink" x="0px" y="0px"
	 viewBox="0 0 512 512" style="enable-background:new 0 0 512 512;" xml:space="preserve">
<style type="text/css">
	.st0{fill:#FF3300;}
</style>
<path class="st0" d="M94.3,256.2l4.5,50.4l-4.5,52.9c-0.2,1.9-1.7,3.4-3.4,3.4s-3.3-1.5-3.3-3.4l-4.3-52.9l4.3-50.4
	c0-1.7,1.5-3.3,3.3-3.3C92.6,252.9,94.1,254.5,94.3,256.2z M110.9,220.8c-2.2,0-3.6,1.7-3.9,3.9l-3.9,81.9l3.9,52.9
	c0.2,2.2,1.7,3.9,3.9,3.9c1.9,0,3.6-1.7,3.6-3.9l4.5-52.9l-4.5-81.9C114.6,222.6,112.9,220.8,110.9,220.8z M130.7,202.2
	c-2.4,0-4.1,1.7-4.3,4.1L123,307l3.4,52.6c0.2,2.4,1.9,4.1,4.3,4.1c2.2,0,4.1-1.7,4.1-4.1l4.1-52.6l-4.1-100.8
	C134.8,203.9,132.9,202.2,130.7,202.2L130.7,202.2z M13.6,277c-1.1,0-1.7,0.9-1.9,1.9L8,306.6l3.6,27.1c0.2,1.1,0.9,1.9,1.9,1.9
	s1.7-0.9,1.9-1.9l4.3-27.1L15.5,279C15.3,277.9,14.7,277,13.6,277L13.6,277z M31.9,260.1c-1.1,0-1.9,0.9-1.9,1.9l-5,44.6l5,43.5
	c0,1.3,0.9,2.2,1.9,2.2c1.1,0,1.9-0.9,2.2-1.9l5.6-43.7L34,262C33.8,260.9,33,260.1,31.9,260.1z M51.5,251.2c-1.3,0-2.4,1.1-2.6,2.6
	l-4.5,52.8l4.5,51c0.2,1.3,1.3,2.4,2.6,2.4c1.3,0,2.4-1.1,2.4-2.4l5.3-51l-5.3-52.8C53.9,252.3,52.8,251.2,51.5,251.2L51.5,251.2z
	 M71.1,249.5c-1.5,0-2.8,1.1-2.8,2.8l-4.5,54.3l4.5,52.6c0,1.7,1.3,2.8,2.8,2.8c1.5,0,2.8-1.1,3-2.8l5-52.6l-5-54.3
	C73.9,250.6,72.6,249.5,71.1,249.5L71.1,249.5z M258.2,163.6c-0.9-0.6-2.2-1.1-3.3-1.1c-1.7,0-3.3,0.6-4.3,1.5
	c-1.5,1.3-2.4,3.3-2.6,5.2v0.6l-2.6,137l1.3,25.2l1.3,24.6c0.2,3.6,3.3,6.7,6.9,6.7s6.7-3,6.7-6.7l3-49.8l-3-137.6
	C261.4,166.8,260.1,164.7,258.2,163.6L258.2,163.6z M237.5,175.4c-1.1-0.6-2.2-1.1-3.4-1.1c-1.2,0-2.4,0.5-3.4,1.1
	c-1.7,1.1-2.8,3-2.8,5.2l-0.2,1.3l-2.2,124.6c0,0,0,0.2,2.4,50.8v0.2c0,1.3,0.5,2.6,1.3,3.6c1.3,1.5,3,2.4,5,2.4
	c1.7,0,3.3-0.9,4.3-1.9c1.3-1.1,1.9-2.6,1.9-4.3l0.2-5.2l2.4-45.4l-2.6-126.2C240.3,178.4,239.2,176.5,237.5,175.4L237.5,175.4z
	 M151.2,192.9c-2.4,0-4.5,2.2-4.5,4.7l-3.4,109l3.4,52.1c0.2,2.6,2.2,4.5,4.5,4.5c2.6,0,4.5-1.9,4.7-4.5l3.9-52.1l-3.9-109
	C155.7,195,153.8,192.9,151.2,192.9L151.2,192.9z M443.2,241.5c-8.4,0-16.4,1.7-23.7,4.7c-5-54.9-51-98-107.2-98
	c-13.8,0-27.1,2.6-39,7.3c-4.7,1.7-6,3.4-6,7.1v193.5c0,3.9,3,6.7,6.7,7.1h169.2c33.6,0,60.9-27.1,60.9-60.7
	C504.1,268.9,476.7,241.5,443.2,241.5L443.2,241.5z M213.2,194.8c-3.3,0-5.8,2.6-6,6l-2.6,106l2.6,50.8c0.2,3.3,2.8,5.8,6,5.8
	c3.3,0,5.8-2.6,5.8-5.8l3-50.8l-3-106C218.8,197.4,216.4,194.8,213.2,194.8L213.2,194.8z M171.6,188.8c-2.6,0-5,2.4-5,5.2l-3,112.6
	l3,51.9c0.2,2.8,2.4,5,5,5c2.8,0,5-2.2,5.2-5l3.4-51.9L176.8,194C176.6,191.2,174.4,188.8,171.6,188.8z M192.3,191.4
	c-3,0-5.3,2.4-5.3,5.3l-3,109.8l3,51.5c0.2,3,2.4,5.3,5.3,5.3s5.3-2.4,5.3-5.3l3.3-51.5l-3.3-109.8
	C197.7,193.7,195.3,191.4,192.3,191.4L192.3,191.4z"/>
</svg>
