<?xml version="1.0" encoding="utf-8"?>
<!-- Generator: Adobe Illustrator 27.4.1, SVG Export Plug-In . SVG Version: 6.00 Build 0)  -->
<svg version="1.1" id="Camada_1" xmlns="http://www.w3.org/2000/svg" xmlns:xlink="http://www.w3.org/1999/xlink" x="0px" y="0px"
	 viewBox="0 0 500 500" style="enable-background:new 0 0 500 500;" xml:space="preserve">
<style type="text/css">
	.st0{fill:#DE2414;}
</style>
<g>
	<g id="a">
		<g transform="translate(-27 -167.272)">
			<path class="st0" d="M114,417.5l4.5,50.8l-4.5,53.3c-0.1,1.8-1.6,3.3-3.4,3.4c-1.8-0.1-3.3-1.6-3.3-3.4l-4.3-53.3l4.3-50.8
				c0.1-1.8,1.5-3.2,3.3-3.3C112.3,414.3,113.8,415.8,114,417.5z M130.7,381.9c-2.2,0-3.6,1.7-3.9,3.9l-3.9,82.5l3.9,53.3
				c0,2.1,1.8,3.9,3.9,3.9c2.1-0.1,3.7-1.8,3.6-3.9l4.5-53.3l-4.5-82.5C134.4,383.7,132.8,382,130.7,381.9L130.7,381.9L130.7,381.9z
				 M150.6,363.2c-2.3,0-4.2,1.8-4.3,4.1l-3.4,101.4l3.4,53c0.1,2.3,2,4.1,4.3,4.1c2.2,0,4.1-1.8,4.1-4v-0.1l4.1-53l-4.1-101.6
				C154.8,364.9,152.9,363.1,150.6,363.2L150.6,363.2z M32.6,438.4c-1.1,0-1.7,0.9-1.9,1.9L27,468.3l3.6,27.3c0.1,1,0.9,1.8,1.9,1.9
				c1-0.1,1.8-0.9,1.9-1.9l4.3-27.3l-4.2-27.8C34.4,439.3,33.8,438.4,32.6,438.4L32.6,438.4z M51.1,421.4c-1,0-1.9,0.9-1.9,1.9
				l-5,44.9l5,43.8c-0.1,1.1,0.8,2.1,1.9,2.2l0,0c1.1-0.1,2-0.9,2.2-1.9l5.6-44l-5.7-45C53.1,422.3,52.2,421.5,51.1,421.4
				L51.1,421.4z M70.8,412.4c-1.4,0.1-2.5,1.2-2.6,2.6l-4.5,53.2l4.5,51.4c0.2,1.3,1.3,2.3,2.6,2.4c1.3,0,2.4-1.1,2.4-2.4l5.3-51.4
				l-5.3-53.2C73.4,413.7,72.2,412.5,70.8,412.4L70.8,412.4z M90.6,410.7c-1.5,0-2.8,1.2-2.8,2.7v0.1l-4.5,54.7l4.5,53
				c0,1.5,1.2,2.8,2.7,2.8h0.1c1.6,0,2.9-1.2,3-2.8l5-53l-5-54.7C93.5,412,92.2,410.8,90.6,410.7z M279,324.3c-1-0.7-2.1-1-3.3-1.1
				c-1.6,0-3.1,0.5-4.3,1.5c-1.5,1.4-2.4,3.2-2.6,5.2v0.6l-2.6,138l1.3,25.4l1.3,24.8c0.2,3.7,3.2,6.7,7,6.8c3.7,0,6.8-3,6.8-6.8
				l3-50.2l-3-138.7C282.3,327.6,281,325.5,279,324.3L279,324.3z M258.2,336.2c-1-0.6-2.2-1-3.4-1.1c-1.2,0.1-2.4,0.4-3.4,1.1
				c-1.8,1.1-2.8,3.1-2.8,5.2l-0.2,1.3l-2.2,125.6c0,0,0,0.2,2.4,51.2v0.2c0,1.3,0.5,2.6,1.3,3.6c1.2,1.5,3.1,2.4,5,2.4
				c1.6-0.1,3.2-0.7,4.3-1.9c1.3-1.1,2-2.7,1.9-4.3l0.2-5.2l2.4-45.7l-2.6-127.2C261.1,339.2,260,337.3,258.2,336.2L258.2,336.2z
				 M171.3,353.8c-2.5,0.1-4.5,2.2-4.5,4.7l-3.4,109.8l3.4,52.5c0,2.5,2.1,4.6,4.6,4.6s4.6-2.1,4.6-4.6l3.9-52.5L176,358.5
				C175.9,355.9,173.8,353.8,171.3,353.8z M465.4,402.8c-8.2,0-16.3,1.6-23.9,4.7c-5-55.8-51.9-98.6-108-98.8
				c-13.4,0-26.8,2.4-39.3,7.4c-4.7,1.7-6,3.4-6,7.2v195c0,3.8,3,6.9,6.8,7.2h170.5c33.9,0.1,61.4-27.2,61.6-61.1
				c0.1-33.9-27.2-61.4-61.1-61.6C465.7,402.8,465.6,402.8,465.4,402.8L465.4,402.8z M233.8,355.7c-3.3,0-6,2.7-6,6l-2.6,106.8
				l2.6,51.2c0.1,3.2,2.8,5.8,6,5.8c3.2,0,5.8-2.5,5.8-5.7v-0.1l3-51.2l-3-106.8C239.4,358.3,237,355.7,233.8,355.7z M191.9,349.7
				c-2.8,0.1-5,2.4-5,5.2l-3,113.5l3,52.3c0,2.8,2.3,5.1,5.1,5.1s5.1-2.3,5.1-5.1l3.4-52.3l-3.4-113.5
				C196.9,352,194.7,349.8,191.9,349.7L191.9,349.7z M212.7,352.3c-2.9,0-5.3,2.3-5.3,5.2c0,0,0,0,0,0.1l-3,110.6l3,51.9
				c0.1,2.9,2.4,5.2,5.3,5.3c2.9,0,5.3-2.4,5.3-5.3l3.3-51.9l-3.3-110.6c0.1-2.8-2.2-5.2-5-5.3C212.9,352.3,212.8,352.3,212.7,352.3
				L212.7,352.3z"/>
		</g>
	</g>
</g>
</svg>
