<svg xmlns="http://www.w3.org/2000/svg" xmlns:xlink="http://www.w3.org/1999/xlink" width="496" height="215.46" viewBox="0 0 496 215.46"><defs><style>.a{clip-path:url(#b);}.b{fill:#de2414;}.c{fill:#fff;}</style><clipPath id="b"><rect width="496" height="215.46"/></clipPath></defs><g id="a" class="a"><rect class="c" width="496" height="215.46"/><g transform="translate(-27 -167.272)"><path class="b" d="M113.283,275.25l4.5,50.39-4.5,52.889a3.651,3.651,0,0,1-3.4,3.4,3.417,3.417,0,0,1-3.3-3.4l-4.3-52.889,4.3-50.39a3.4,3.4,0,0,1,3.3-3.3A3.727,3.727,0,0,1,113.283,275.25Zm16.6-35.393c-2.2,0-3.6,1.7-3.9,3.9l-3.9,81.884,3.9,52.889a3.969,3.969,0,0,0,3.9,3.9,3.787,3.787,0,0,0,3.6-3.9l4.5-52.889-4.5-81.884A3.72,3.72,0,0,0,129.879,239.857Zm19.8-18.6a4.224,4.224,0,0,0-4.3,4.1l-3.4,100.68,3.4,52.589a4.224,4.224,0,0,0,4.3,4.1,4.053,4.053,0,0,0,4.1-4.1l4.1-52.589-4.1-100.78a4.031,4.031,0,0,0-4.1-4ZM32.6,296.046c-1.1,0-1.7.9-1.9,1.9L27,325.64l3.6,27.094a2.039,2.039,0,0,0,1.9,1.9,2.127,2.127,0,0,0,1.9-1.9l4.3-27.094-4.2-27.6c-.2-1.1-.8-2-1.9-2Zm18.3-16.9a1.9,1.9,0,0,0-1.9,1.9L44,325.64l5,43.491a2.045,2.045,0,0,0,1.9,2.2,2.441,2.441,0,0,0,2.2-1.9l5.6-43.691-5.7-44.691A2.149,2.149,0,0,0,50.9,279.149Zm19.6-8.9a2.789,2.789,0,0,0-2.6,2.6l-4.5,52.79,4.5,50.99a2.77,2.77,0,0,0,2.6,2.4,2.433,2.433,0,0,0,2.4-2.4l5.3-50.99-5.3-52.79a2.482,2.482,0,0,0-2.4-2.6Zm19.6-1.7a2.733,2.733,0,0,0-2.8,2.8l-4.5,54.289,4.5,52.589a2.733,2.733,0,0,0,2.8,2.8,3.032,3.032,0,0,0,3-2.8l5-52.589-5-54.289a3.032,3.032,0,0,0-3-2.8ZM277.15,182.669a6.5,6.5,0,0,0-3.3-1.1,6.579,6.579,0,0,0-4.3,1.5,8.135,8.135,0,0,0-2.6,5.2v.6l-2.6,136.973,1.3,25.2,1.3,24.6a7.153,7.153,0,0,0,6.9,6.7,6.763,6.763,0,0,0,6.7-6.7l3-49.79-3-137.573a7.116,7.116,0,0,0-3.4-5.6Zm-20.7,11.8a7.185,7.185,0,0,0-3.4-1.1,6.849,6.849,0,0,0-3.4,1.1,6.136,6.136,0,0,0-2.8,5.2l-.2,1.3-2.2,124.575s0,.2,2.4,50.79v.2a5.881,5.881,0,0,0,1.3,3.6,6.5,6.5,0,0,0,5,2.4,6.367,6.367,0,0,0,4.3-1.9,5.416,5.416,0,0,0,1.9-4.3l.2-5.2,2.4-45.391-2.6-126.175a6.44,6.44,0,0,0-2.9-5.1Zm-86.283,17.5a4.723,4.723,0,0,0-4.5,4.7l-3.4,108.978,3.4,52.089a4.6,4.6,0,0,0,9.2,0l3.9-52.089-3.9-108.978a4.826,4.826,0,0,0-4.7-4.7Zm291.941,48.59a62.219,62.219,0,0,0-23.7,4.7,107.729,107.729,0,0,0-107.178-97.98,106.468,106.468,0,0,0-38.992,7.3c-4.7,1.7-6,3.4-6,7.1V375.13a7.19,7.19,0,0,0,6.7,7.1H462.112a60.838,60.838,0,1,0,0-121.675ZM232.159,213.862a6.081,6.081,0,0,0-6,6l-2.6,105.979,2.6,50.789a6.041,6.041,0,0,0,6,5.8,5.739,5.739,0,0,0,5.8-5.8l3-50.789-3-105.979c-.2-3.4-2.6-6-5.8-6Zm-41.592-6a5.259,5.259,0,0,0-5,5.2l-3,112.578,3,51.889a5.1,5.1,0,0,0,10.2,0l3.4-51.889-3.4-112.578A5.435,5.435,0,0,0,190.567,207.864Zm20.7,2.6a5.27,5.27,0,0,0-5.3,5.3l-3,109.778,3,51.489a5.4,5.4,0,0,0,5.3,5.3,5.334,5.334,0,0,0,5.3-5.3l3.3-51.489-3.3-109.778a5.15,5.15,0,0,0-5.3-5.3Z"/></g></g></svg>