<?xml version="1.0" encoding="utf-8"?>
<!-- Generator: Adobe Illustrator 27.4.1, SVG Export Plug-In . SVG Version: 6.00 Build 0)  -->
<svg version="1.1" id="Camada_1" xmlns="http://www.w3.org/2000/svg" xmlns:xlink="http://www.w3.org/1999/xlink" x="0px" y="0px"
	 viewBox="0 0 496 496" style="enable-background:new 0 0 496 496;" xml:space="preserve">
<style type="text/css">
	.st0{fill:#459F41;}
</style>
<g>
	<g id="a">
		<g transform="translate(-1167 -597)">
			<path class="st0" d="M1415,597c-136.9,0-248,111.1-248,248s111.1,248,248,248s248-111.1,248-248S1551.9,597,1415,597z
				 M1515.7,961.9c-4.2,0-6.8-1.3-10.7-3.6c-62.4-37.6-135-39.2-206.7-24.5c-3.9,1-9,2.6-11.9,2.6c-8.6,0.1-15.7-6.7-15.8-15.3
				c0-0.2,0-0.3,0-0.5c0-10.3,6.1-15.2,13.6-16.8c81.9-18.1,165.6-16.5,237,26.2c6.1,3.9,9.7,7.4,9.7,16.5
				c0.2,8.3-6.5,15.2-14.8,15.4C1516,961.9,1515.8,961.9,1515.7,961.9L1515.7,961.9z M1542.6,896.3c-5.2,0-8.7-2.3-12.3-4.2
				c-62.5-37-155.7-51.9-238.6-29.4c-4.8,1.3-7.4,2.6-11.9,2.6c-10.7,0-19.4-8.7-19.4-19.4c0-10.7,5.2-17.8,15.5-20.7
				c27.8-7.8,56.2-13.6,97.8-13.6c64.9,0,127.6,16.1,177,45.5c8.1,4.8,11.3,11,11.3,19.7c0.1,10.7-8.6,19.4-19.3,19.5
				C1542.7,896.3,1542.6,896.3,1542.6,896.3L1542.6,896.3z M1573.6,820.1c-5.2,0-8.4-1.3-12.9-3.9c-71.2-42.5-198.5-52.7-280.9-29.7
				c-3.6,1-8.1,2.6-12.9,2.6c-13.2,0-23.3-10.3-23.3-23.6c0-13.6,8.4-21.3,17.4-23.9c35.2-10.3,74.6-15.2,117.5-15.2
				c73,0,149.5,15.2,205.4,47.8c7.8,4.5,12.9,10.7,12.9,22.6c0.1,12.8-10.2,23.2-23,23.3C1573.7,820.1,1573.7,820.1,1573.6,820.1
				L1573.6,820.1z"/>
		</g>
	</g>
</g>
</svg>
