<svg xmlns="http://www.w3.org/2000/svg" xmlns:xlink="http://www.w3.org/1999/xlink" width="496" height="218.25" viewBox="0 0 496 218.25"><defs><style>.a{clip-path:url(#b);}.b{fill:#161615;}.c{fill:#fff;}</style><clipPath id="b"><rect width="496" height="218.25"/></clipPath></defs><g id="a" class="a"><rect class="c" width="496" height="218.25"/><g transform="translate(-27 -1305.877)"><path class="b" d="M123.71,1407.062v9.92a1.988,1.988,0,0,1-1.982,1.982h-12.4a.938.938,0,0,0-.993.993v52.565a1.992,1.992,0,0,1-1.982,1.987h-9.92a1.989,1.989,0,0,1-1.982-1.987v-52.565a.937.937,0,0,0-.994-.993H81.06a1.992,1.992,0,0,1-1.987-1.982v-9.92a1.992,1.992,0,0,1,1.987-1.982h40.668a1.988,1.988,0,0,1,1.982,1.982m54.561-1.982H168.255a1.993,1.993,0,0,0-1.992,1.982v46.614c0,4.364-3.569,7.937-9.621,7.937-5.849,0-9.418-3.573-9.418-7.937v-46.614a1.988,1.988,0,0,0-1.982-1.982H135.226a1.989,1.989,0,0,0-1.987,1.982v46.614c0,12,9.915,21.918,23.4,21.918,13.691,0,23.611-9.915,23.611-21.918v-46.614a1.988,1.988,0,0,0-1.982-1.982m55.945,0H224.3a1.992,1.992,0,0,0-1.987,1.982v37.292c0,.6-.69.8-.888.2l-13.589-37.692a2.44,2.44,0,0,0-2.479-1.785h-11.8a1.989,1.989,0,0,0-1.986,1.982v65.46a1.993,1.993,0,0,0,1.986,1.987h9.915a1.989,1.989,0,0,0,1.982-1.987V1438.2c0-.6.7-.79.9-.2l13.489,34.813a2.566,2.566,0,0,0,2.676,1.688h11.7a1.992,1.992,0,0,0,1.982-1.987v-65.46a1.988,1.988,0,0,0-1.982-1.982m51.389,55.545H262.1a.939.939,0,0,1-.993-.993v-11.9a.937.937,0,0,1,.993-.994h22.314a1.988,1.988,0,0,0,1.986-1.982v-9.919a1.986,1.986,0,0,0-1.986-1.982H262.1a.939.939,0,0,1-.993-.994v-11.9a.936.936,0,0,1,.993-.993H285.2a1.992,1.992,0,0,0,1.987-1.982v-9.92a1.992,1.992,0,0,0-1.987-1.982h-36a1.988,1.988,0,0,0-1.982,1.982v65.46a1.992,1.992,0,0,0,1.982,1.987h36.405a2,2,0,0,0,1.982-1.987v-9.914a1.988,1.988,0,0,0-1.982-1.983M523,1313.318v153.759a7.437,7.437,0,0,1-7.441,7.442H344.439v42.162a7.445,7.445,0,0,1-7.437,7.442H34.436A7.442,7.442,0,0,1,27,1516.681V1362.917a7.434,7.434,0,0,1,7.436-7.436H329.561v-42.163a7.439,7.439,0,0,1,7.441-7.441H515.559a7.436,7.436,0,0,1,7.441,7.441m-193.439,57.04H43.117a1.244,1.244,0,0,0-1.244,1.244V1508a1.246,1.246,0,0,0,1.244,1.24h285.2a1.243,1.243,0,0,0,1.244-1.24Zm88.777,43.142a1.992,1.992,0,0,0-1.987-1.982h-8.429a.935.935,0,0,1-.989-.994v-40.668a.938.938,0,0,1,.989-.993h7.441a1.988,1.988,0,0,0,1.982-1.981v-9.42a1.988,1.988,0,0,0-1.982-1.981H384.615a1.986,1.986,0,0,0-1.983,1.981v9.42a1.985,1.985,0,0,0,1.983,1.981h7.441a.938.938,0,0,1,.988.993v40.668a.935.935,0,0,1-.988.994h-8.43a1.989,1.989,0,0,0-1.987,1.982v9.423a1.989,1.989,0,0,0,1.987,1.982h32.725a1.992,1.992,0,0,0,1.987-1.982Zm55.646-56.038a1.985,1.985,0,0,0-1.982-1.981h-9.919a1.985,1.985,0,0,0-1.982,1.981v37.289c0,.6-.7.8-.893.2l-13.589-37.688a2.436,2.436,0,0,0-2.479-1.784H431.335a1.988,1.988,0,0,0-1.982,1.981v65.461a1.991,1.991,0,0,0,1.982,1.982h9.919a1.988,1.988,0,0,0,1.982-1.982v-34.317c0-.6.7-.795.9-.2l13.484,34.818a2.575,2.575,0,0,0,2.681,1.683H472a1.988,1.988,0,0,0,1.982-1.982Z"/></g></g></svg>