<?xml version="1.0" encoding="utf-8"?>
<!-- Generator: Adobe Illustrator 27.4.1, SVG Export Plug-In . SVG Version: 6.00 Build 0)  -->
<svg version="1.1" id="Camada_1" xmlns="http://www.w3.org/2000/svg" xmlns:xlink="http://www.w3.org/1999/xlink" x="0px" y="0px"
	 viewBox="0 0 500 500" style="enable-background:new 0 0 500 500;" xml:space="preserve">
<style type="text/css">
	.st0{fill:#161615;}
</style>
<g>
	<g id="a">
		<g transform="translate(-27 -1305.877)">
			<path class="st0" d="M124.5,1547.9v10c0,1.1-0.9,2-2,2H110c-0.5,0-1,0.4-1,0.9v0.1v53c0,1.1-0.9,2-2,2H97c-1.1,0-2-0.9-2-2v-53
				c0-0.5-0.4-1-0.9-1h-0.1H81.5c-1.1,0-2-0.9-2-2v-10c0-1.1,0.9-2,2-2h41C123.6,1545.9,124.5,1546.8,124.5,1547.9 M179.5,1545.9
				h-10.1c-1.1,0-2,0.9-2,2v47c0,4.4-3.6,8-9.7,8c-5.8,0-9.5-3.6-9.5-8v-47c0-1.1-0.9-2-2-2h-10.1c-1.1,0-2,0.9-2,2v47
				c0,12.1,10,22.1,23.6,22.1c13.8,0,23.8-10,23.8-22.1v-47C181.4,1546.8,180.6,1545.9,179.5,1545.9 M235.9,1545.9h-10
				c-1.1,0-2,0.9-2,2v37.6c0,0.6-0.7,0.8-0.9,0.2l-13.7-38c-0.3-1.1-1.3-1.8-2.5-1.8h-11.9c-1.1,0-2,0.9-2,2v66c0,1.1,0.9,2,2,2h10
				c1.1,0,2-0.9,2-2v-34.6c0-0.6,0.7-0.8,0.9-0.2l13.6,35.1c0.4,1.1,1.5,1.8,2.7,1.7h11.8c1.1,0,2-0.9,2-2v-66
				C237.9,1546.8,237,1545.9,235.9,1545.9 M287.7,1601.8H264c-0.5,0-1-0.4-1-0.9v-0.1v-12c0-0.5,0.4-1,0.9-1h0.1h22.5
				c1.1,0,2-0.9,2-2v-10c0-1.1-0.9-2-2-2H264c-0.5,0-1-0.4-1-0.9v-0.1v-11.9c0-0.5,0.4-1,0.9-1h0.1h23.3c1.1,0,2-0.9,2-2v-10
				c0-1.1-0.9-2-2-2H251c-1.1,0-2,0.9-2,2v66c0,1.1,0.9,2,2,2h36.7c1.1,0,2-0.9,2-2v-10C289.7,1602.8,288.8,1601.8,287.7,1601.8
				 M527,1453.4v155c0,4.1-3.3,7.5-7.5,7.5l0,0H347v42.5c0,4.1-3.3,7.5-7.5,7.5h-305c-4.1,0-7.5-3.3-7.5-7.5v-155
				c0-4.1,3.3-7.5,7.5-7.5l0,0h297.5v-42.5c0-4.1,3.3-7.5,7.5-7.5l0,0h180C523.7,1445.9,527,1449.2,527,1453.4L527,1453.4
				 M332,1510.9H43.2c-0.7,0-1.2,0.6-1.2,1.2l0,0v137.5c0,0.7,0.6,1.2,1.2,1.2h287.5c0.7,0,1.2-0.6,1.2-1.2v-138.7H332z
				 M421.5,1554.4c0-1.1-0.9-2-2-2H411c-0.5,0-1-0.4-1-0.9v-0.1v-41c0-0.5,0.4-1,0.9-1h0.1h7.5c1.1,0,2-0.9,2-2v-9.5
				c0-1.1-0.9-2-2-2h-30.9c-1.1,0-2,0.9-2,2v9.5c0,1.1,0.9,2,2,2h7.5c0.5,0,1,0.4,1,0.9v0.1v41c0,0.5-0.4,1-0.9,1h-0.1h-8.5
				c-1.1,0-2,0.9-2,2v9.5c0,1.1,0.9,2,2,2h33c1.1,0,2-0.9,2-2V1554.4z M477.6,1497.9c0-1.1-0.9-2-2-2h-10c-1.1,0-2,0.9-2,2v37.6
				c0,0.6-0.7,0.8-0.9,0.2l-13.7-38c-0.3-1.1-1.3-1.8-2.5-1.8h-11.9c-1.1,0-2,0.9-2,2v66c0,1.1,0.9,2,2,2h10c1.1,0,2-0.9,2-2v-34.6
				c0-0.6,0.7-0.8,0.9-0.2l13.6,35.1c0.4,1.1,1.5,1.8,2.7,1.7h11.8c1.1,0,2-0.9,2-2V1497.9z"/>
		</g>
	</g>
</g>
</svg>
