<?xml version="1.0" encoding="utf-8"?>
<!-- Generator: Adobe Illustrator 27.4.1, SVG Export Plug-In . SVG Version: 6.00 Build 0)  -->
<svg version="1.1" id="Camada_1" xmlns="http://www.w3.org/2000/svg" xmlns:xlink="http://www.w3.org/1999/xlink" x="0px" y="0px"
	 viewBox="0 0 500 500" style="enable-background:new 0 0 500 500;" xml:space="preserve">
<style type="text/css">
	.st0{fill:#DB0617;}
	.st1{fill:#FFFFFF;}
</style>
<g>
	<g id="a">
		<g transform="translate(-597 -1241.682)">
			<path class="st0" d="M1085.9,1371.6c-5.7-21.6-22.6-38.4-44.2-44.2c-28.9-11.2-309.2-16.6-390.5,0.3
				c-21.6,5.7-38.4,22.6-44.2,44.2c-13.1,57.3-14,181.2,0.3,239.7c5.8,21.6,22.6,38.4,44.2,44.2c57.3,13.2,329.7,15,390.5,0
				c21.6-5.7,38.4-22.6,44.2-44.2C1100.1,1549.2,1101.1,1433,1085.9,1371.6z"/>
			<path class="st1" d="M929,1491.6l-130.6-74.9v149.8L929,1491.6z"/>
		</g>
	</g>
</g>
</svg>
