<?xml version="1.0" encoding="UTF-8"?>
<svg id="Camada_1" data-name="Camada 1" xmlns="http://www.w3.org/2000/svg" version="1.1" viewBox="0 0 24.4 24">
  <defs>
    <style>
      .cls-1 {
        fill: red;
        stroke-width: 0px;
      }
    </style>
  </defs>
  <path class="cls-1" d="M12.2,0C5.5,0,0,5.4,0,12s5.5,12,12.2,12,12.2-5.4,12.2-12S18.9,0,12.2,0ZM12.2,19.8c-4.4,0-7.9-3.5-7.9-7.8s3.5-7.8,7.9-7.8,7.9,3.5,7.9,7.8-3.5,7.8-7.9,7.8Z"/>
  <path class="cls-1" d="M12.2,5.4c-3.7,0-6.7,3-6.7,6.6s3,6.6,6.7,6.6,6.7-3,6.7-6.6-3-6.6-6.7-6.6ZM9.7,15.5v-7.1l6.3,3.5-6.3,3.5Z"/>
</svg>