<svg xmlns="http://www.w3.org/2000/svg" xmlns:xlink="http://www.w3.org/1999/xlink" width="496" height="346.64" viewBox="0 0 496 346.64"><defs><style>.a{clip-path:url(#b);}.b{fill:#db0617;}.c{fill:#fff;}</style><clipPath id="b"><rect width="496" height="346.64"/></clipPath></defs><g id="a" class="a"><rect class="c" width="496" height="346.64"/><g transform="translate(-597 -1241.682)"><path class="b" d="M1081.994,1295.886a62.07,62.07,0,0,0-43.812-43.812c-28.7-11.08-306.685-16.509-387.324.317a62.071,62.071,0,0,0-43.812,43.812c-12.953,56.829-13.938,179.693.317,237.792a62.073,62.073,0,0,0,43.812,43.812c56.829,13.08,327,14.921,387.324,0a62.07,62.07,0,0,0,43.812-43.812C1096.122,1472.086,1097.106,1356.842,1081.994,1295.886Z"/><path class="c" d="M926.429,1414.94,796.9,1340.65v148.58Z"/></g></g></svg>