<?xml version="1.0" encoding="UTF-8"?>
<svg id="Camada_2" xmlns="http://www.w3.org/2000/svg" viewBox="0 0 403.79 403.79">
    <defs>
        <style>.cls-1{fill:#fff;}.cls-2{fill:#cd5a9d;}.cls-3{fill:#cc5a9d;}</style>
    </defs>
    <g>
        <path class="cls-1"
            d="m404.11,189.15v25.45c-6.28,101.81-87.71,183.23-189.52,189.51h-25.43C87.37,397.8,5.95,316.39-.32,214.64v-25.45C5.97,87.39,87.39,5.98,189.2-.32h25.43c101.75,6.27,183.18,87.69,189.48,189.47Z" />
        <path class="cls-3"
            d="m178.66.61c-3.26.37-6.5.82-9.71,1.35h0c-.12.02-.24.04-.36.06h0c-.09.02-.18.03-.27.05,0,0,0,0,0,0-.03,0-.06,0-.08.01,0,0,0,0,0,0-.09.02-.18.03-.27.05h0s-.06.01-.09.02h0c-.06.01-.12.02-.18.03,0,0,0,0-.01,0-.03,0-.05,0-.08.01,0,0,0,0,0,0-.09.02-.18.03-.27.05h-.01s-.06.01-.08.02h0c-.06.01-.12.02-.18.03,0,0,0,0,0,0-.03,0-.05,0-.08.01,0,0,0,0-.01,0-.06.01-.12.02-.18.03h0s-.06.01-.09.02c0,0,0,0-.01,0-.03,0-.05,0-.08.01,0,0,0,0-.01,0-.06.01-.12.02-.18.03h0s-.05.01-.08.02h-.01c-.09.02-.18.03-.27.05,0,0,0,0-.01,0-.03,0-.05,0-.08.01,0,0,0,0,0,0-.09.02-.18.03-.27.05h-.01s-.06.01-.09.02h0c-.06.01-.12.02-.18.03,0,0,0,0-.01,0-.03,0-.05,0-.08.01,0,0,0,0-.01,0-.06.01-.12.02-.18.03h0s-.06.01-.08.02h-.01s-.05.01-.08.02h0c-.06.01-.12.02-.18.03h0s-.06.01-.08.02c0,0,0,0,0,0-.09.02-.18.03-.27.05,0,0,0,0-.01,0-.03,0-.05,0-.08.01h0c-.06.01-.12.02-.18.04h0s-.05.01-.08.02c0,0,0,0-.01,0-.03,0-.06.01-.08.02h0s-.06.01-.09.02c0,0,0,0,0,0-.03,0-.06.01-.09.02,0,0,0,0,0,0-.03,0-.05.01-.08.02,0,0,0,0-.01,0-.06.01-.12.02-.18.03h0s-.06.01-.09.02h0s-.06.01-.09.02h0c-.06.01-.12.02-.18.03,0,0,0,0-.01,0-.03,0-.05.01-.08.02,0,0,0,0,0,0-.09.02-.18.03-.27.05h-.01c-.09.02-.18.04-.27.05h0s-.05.01-.08.02c0,0,0,0-.01,0-.09.02-.18.04-.27.05h0s-.06.01-.08.02h0c-.06.01-.12.03-.18.04h0s-.06.01-.09.02h0c-.09.02-.18.04-.27.06,0,0,0,0,0,0-.03,0-.06.01-.09.02h0c-.09.02-.18.04-.27.06h0c-.09.02-.18.04-.27.06,0,0,0,0,0,0-.03,0-.06.01-.08.02,0,0,0,0,0,0-.09.02-.18.04-.27.06h0c-.09.02-.18.04-.27.06h0s-.06.01-.09.02h0c-.09.02-.18.04-.27.06h0c-.12.03-.24.05-.36.08h0c-.42.09-.85.18-1.27.28h0c-1.03.23-2.06.46-3.08.7l1.15,4.87c7.55-1.79,15.31-3.14,23.04-4.02l-.57-4.97h0Zm-35.22,7.24c-2.46.74-4.89,1.52-7.31,2.35,0,0,0,0,0,0-.02,0-.04.01-.06.02,0,0,0,0-.01,0-.06.02-.12.04-.19.06,0,0,0,0-.01,0-.02,0-.04.01-.05.02,0,0-.01,0-.02,0-.02,0-.04.01-.05.02,0,0,0,0,0,0-.04.01-.07.03-.11.04,0,0-.02,0-.02,0-.02,0-.03.01-.05.02-.01,0-.02,0-.03.01-.02,0-.03,0-.04.02-.01,0-.02,0-.03.01-.02,0-.05.02-.07.03-.01,0-.03,0-.04.01-.02,0-.02,0-.04.01-.01,0-.03,0-.04.01-.01,0-.03,0-.04.01-.01,0-.03.01-.04.02-.01,0-.02,0-.03.01-.02,0-.05.02-.07.03-.01,0-.02,0-.03.01-.02,0-.03.01-.05.02-.01,0-.02,0-.03.01-.02,0-.03.01-.05.02-.01,0-.02,0-.03.01-.02,0-.05.02-.08.03-.01,0-.01,0-.02,0-.02,0-.04.01-.06.02-.01,0-.02,0-.03.01-.02,0-.04.01-.06.02,0,0-.01,0-.02,0-.03,0-.05.02-.08.03h0s-.05.02-.08.03c0,0,0,0-.01,0-.02,0-.05.02-.07.03,0,0,0,0-.01,0-.06.02-.11.04-.17.06t-.01,0s-.05.02-.08.03c0,0,0,0,0,0-.09.03-.17.06-.26.09h0c-4.36,1.56-8.65,3.26-12.86,5.09l2,4.58c7.13-3.11,14.52-5.82,21.96-8.06l-1.44-4.79h0Zm-33.37,13.39c-1.97,1-3.92,2.04-5.85,3.1h0c-.08.05-.16.09-.24.14,0,0,0,0,0,0-.08.05-.15.09-.24.13,0,0,0,0-.01,0-.06.03-.12.07-.17.1,0,0,0,0,0,0-.02,0-.04.02-.05.03,0,0-.01,0-.02,0-.02.01-.03.02-.05.03,0,0,0,0,0,0-.04.02-.07.04-.11.06,0,0-.01,0-.02,0-.02,0-.03.02-.05.03,0,0-.02.01-.03.01-.02,0-.03.02-.04.02,0,0-.02,0-.03.01-.03.02-.05.03-.08.05,0,0-.02,0-.03.01-.02,0-.03.01-.04.02-.01,0-.02.01-.03.02-.02,0-.03.01-.04.02-.01,0-.02.01-.03.02-.02.01-.04.02-.06.04-.01,0-.02.01-.04.02-.02,0-.03.01-.04.02-.01,0-.02.01-.03.02-.01,0-.03.02-.04.02-.01,0-.02.01-.04.02-.02,0-.03.02-.05.03-.02,0-.03.02-.05.03-.02,0-.02.01-.03.02-.01,0-.03.01-.04.02-.01,0-.03.01-.04.02-.01,0-.03.02-.04.03-.01,0-.02,0-.03.01-.02.01-.04.03-.07.04-.01,0-.02.01-.03.02-.01,0-.03.02-.04.02-.01,0-.02.01-.03.02-.01,0-.03.02-.04.02-.01,0-.02.01-.03.02-.02.01-.04.02-.06.04-.01,0-.02.01-.03.02-.01,0-.03.02-.04.02-.01,0-.02.01-.03.02-.02,0-.03.02-.05.03-.01,0-.01,0-.02.01-.02.01-.05.03-.07.04-.01,0-.02,0-.03.02-.02,0-.03.02-.05.03-.01,0-.02.01-.03.02-.02,0-.03.02-.05.03-.01,0-.01,0-.02.01-.02.01-.05.03-.07.04-.01,0-.01,0-.02.01-.02.01-.04.02-.05.03-.01,0-.02,0-.03.01-.02.01-.04.02-.06.03,0,0,0,0-.01,0-.03.01-.05.03-.07.04,0,0,0,0-.01,0-.02.01-.04.02-.06.03-.01,0,0,0-.02.01-.02.01-.04.02-.06.03,0,0-.01,0-.02,0-.02.01-.05.03-.07.04,0,0,0,0-.01,0-.02.01-.04.02-.06.04-.01,0-.01,0-.02.01-.02.01-.04.02-.06.03h-.01s-.05.04-.07.05c0,0,0,0-.01,0-.02.01-.04.02-.06.03-.01,0-.01,0-.02.01-.02.01-.04.02-.06.04h-.01s-.05.04-.08.05c0,0,0,0,0,0-.02.01-.05.03-.07.04,0,0-.01,0-.02,0-.02.01-.05.03-.07.04h0c-.05.03-.1.06-.15.09,0,0,0,0-.01,0-.02.01-.04.03-.07.04h-.01c-.05.04-.1.07-.15.1,0,0,0,0-.01,0-.02.01-.05.03-.07.04h0c-.05.03-.1.06-.16.09,0,0,0,0-.01,0-.02.01-.05.03-.07.04h0c-.05.03-.1.07-.15.1,0,0,0,0-.01,0-.02.01-.05.03-.07.04h0c-.05.03-.11.06-.16.09,0,0,0,0,0,0-.02.01-.05.03-.07.04h0c-.05.03-.11.07-.16.1,0,0,0,0,0,0-.03.02-.05.03-.08.05h0c-.05.03-.11.06-.16.1h0s-.05.03-.08.05h0c-3.17,1.88-6.29,3.84-9.34,5.89l2.78,4.16c6.47-4.33,13.26-8.31,20.18-11.83l-2.27-4.46h0Zm-30.47,19.09c-1.08.82-2.16,1.66-3.23,2.5,0,0,0,0,0,0-.07.06-.14.11-.22.17,0,0,0,0,0,0-.06.04-.1.08-.16.12,0,0,0,0,0,0-.01.01-.03.03-.05.04,0,0,0,0-.01.01-.01.01-.03.03-.05.04,0,0,0,0-.01,0-.03.02-.06.04-.08.07,0,0-.01.01-.02.02-.01.01-.03.02-.04.03,0,0-.02.01-.02.02-.01.01-.02.02-.04.03,0,0-.02.01-.03.02-.02.01-.05.04-.06.05,0,0-.02.02-.03.02-.01.01-.02.02-.03.03,0,0-.02.02-.03.02-.01.01-.02.02-.03.03-.01.01-.03.02-.04.03,0,0-.03.02-.04.03-.02.01-.03.02-.05.04,0,0-.02.01-.03.02-.01.01-.03.02-.04.03,0,0-.02.02-.03.02-.02.01-.03.03-.05.04,0,0-.02.01-.03.02-.02.01-.03.03-.05.04,0,0-.02.01-.02.02-.01.01-.03.02-.04.03,0,0-.02.01-.02.02-.02.02-.04.03-.06.05,0,0,0,0,0,0-.02.02-.04.03-.06.05,0,0-.02.01-.02.02-.02.01-.03.03-.05.04,0,0-.01.01-.02.01-.02.02-.04.04-.07.05h0s-.04.04-.07.05c0,0,0,0-.01.01-.02.02-.04.03-.06.05,0,0,0,0-.01.01-.05.04-.09.07-.14.11,0,0,0,0,0,0-.02.02-.04.03-.06.05h0s-.09.08-.14.12c0,0,0,0,0,0-.02.02-.04.04-.07.05h0s-.09.08-.14.12c0,0,0,0,0,0-3.54,2.88-6.98,5.88-10.31,8.99h0c-.14.13-.27.26-.41.38,0,0,0,0,0,0-.07.06-.13.13-.2.19,0,0,0,0,0,0-.02.02-.04.04-.07.06h0s-.09.09-.13.13c0,0,0,0,0,0-.02.02-.04.04-.06.06h0s-.09.09-.13.13c0,0,0,0,0,0-.02.02-.04.04-.07.06h0s-.09.09-.13.13c0,0,0,0,0,0-.07.06-.13.13-.2.19h0s-.04.04-.07.06h0s-.09.09-.13.13c0,0,0,0,0,0-.07.06-.13.13-.2.19h0c-.07.06-.13.13-.2.19,0,0,0,0,0,0-.07.06-.13.13-.2.19h0s-.04.04-.07.07c0,0,0,0,0,0l3.47,3.6c5.6-5.39,11.59-10.51,17.78-15.21l-3.02-3.99h0Zm-26.63,24.16c-4.22,4.58-8.24,9.34-12.03,14.29h0c-.04.06-.08.11-.13.17,0,0,0,0,0,0-.01.02-.03.03-.04.05,0,0,0,0,0,0-.06.07-.11.14-.17.22,0,0,0,0,0,0-.06.07-.11.15-.17.22h0c-.04.06-.08.11-.13.17,0,0,0,0,0,0-.01.02-.03.03-.04.05,0,0,0,0,0,0-.04.06-.08.11-.12.16,0,0,0,0,0,0-.01.02-.03.03-.04.05,0,0,0,0,0,0-.04.06-.08.11-.12.16,0,0,0,0,0,0-.01.02-.03.03-.04.05,0,0,0,0,0,0-.04.06-.08.1-.12.16,0,0,0,0,0,0-.01.02-.02.03-.04.05,0,0,0,0,0,0-.04.06-.08.1-.12.16,0,0,0,0,0,0-.01.02-.03.03-.04.05,0,0,0,0,0,0-.04.06-.08.1-.12.16,0,0,0,0,0,0-.01.02-.03.03-.04.05,0,0,0,0,0,0-.04.06-.08.11-.12.16,0,0,0,0,0,0-.01.02-.03.03-.04.05,0,0,0,0,0,0-.04.06-.08.1-.12.16,0,0,0,0,0,0-.01.02-.03.03-.04.05,0,0,0,0,0,0-.04.06-.08.1-.12.16,0,0,0,0,0,0-.01.02-.02.03-.04.05,0,0,0,0,0,0-.04.06-.08.1-.12.16,0,0,0,0,0,0-.01.02-.02.03-.04.05,0,0,0,0,0,0-.04.06-.08.11-.12.16,0,0,0,0,0,0-.01.02-.03.04-.04.05,0,0,0,0,0,0-.04.06-.08.1-.12.16,0,0,0,0,0,0-.01.02-.02.03-.04.05,0,0,0,0,0,0-.04.06-.07.1-.12.16,0,0,0,0,0,0-.01.02-.02.03-.04.05,0,0,0,0,0,0-.04.06-.07.1-.12.16,0,0,0,0,0,.01-.01.02-.02.03-.04.05,0,0,0,0,0,0-.04.06-.08.11-.12.16,0,0,0,0,0,0-.01.02-.03.04-.04.06,0,0,0,0,0,0-.05.07-.1.13-.15.2l4.05,2.94c4.56-6.29,9.55-12.38,14.83-18.1l-3.67-3.39h0Zm-21.96,28.47c-.89,1.39-1.76,2.79-2.62,4.21h0s-.03.05-.05.08c0,0,0,0,0,0-.03.05-.06.1-.09.15,0,0,0,0,0,.01-.01.02-.03.04-.04.06,0,0,0,0,0,.01-.01.02-.03.05-.04.07h0s-.03.05-.04.08c0,0,0,.01-.01.02-.01.02-.02.04-.03.06,0,.01,0,.01-.01.02-.01.02-.02.04-.04.06,0,0,0,0,0,.01-.01.02-.03.05-.04.07,0,.01,0,.01-.01.02,0,.02-.02.03-.03.05,0,.01-.01.02-.02.03,0,.02-.02.03-.03.05,0,.01-.01.02-.02.03-.01.02-.03.04-.04.07,0,.01-.01.02-.02.03,0,.01-.02.03-.02.04,0,.01-.02.03-.02.04,0,.01-.01.02-.02.04,0,.01-.01.02-.02.03-.01.02-.02.04-.04.06,0,.02-.02.03-.03.04,0,0-.01.02-.02.03,0,.01-.02.03-.02.04,0,.01-.01.02-.02.03-.03.05-.05.09-.08.14,0,0,0,.02-.01.02,0,.02-.02.03-.03.04,0,0,0,.02-.01.02-.03.05-.06.1-.09.15,0,0,0,.01-.01.02,0,.02-.02.03-.03.04,0,0,0,.02-.01.02-.03.05-.06.11-.09.16,0,0,0,0,0,.01-.01.02-.02.03-.03.05,0,0,0,.01,0,.02-.03.06-.07.11-.1.17,0,0,0,0,0,0-.01.02-.02.03-.03.05,0,0,0,.01,0,.02-.04.08-.09.15-.13.23,0,0,0,0,0,.01-.05.08-.09.15-.14.23,0,0,0,0,0,0-.05.08-.09.16-.14.24,0,0,0,0,0,0-.05.08-.09.16-.14.24,0,0,0,0,0,0-.19.33-.38.65-.56.98h0c-.67,1.17-1.32,2.34-1.96,3.52,0,0,0,0,0,0-.05.08-.09.16-.13.24,0,0,0,0,0,0-.01.02-.02.04-.03.06,0,0,0,0,0,0-.03.06-.06.12-.09.17,0,0,0,.01,0,.02-.01.02-.02.03-.03.05,0,0,0,0,0,.01-.03.05-.06.12-.09.17,0,0,0,0,0,.01-.01.02-.02.03-.03.05,0,0,0,0,0,.01-.03.06-.06.11-.09.17,0,0,0,0,0,.01-.01.02-.02.03-.03.05,0,0,0,.01-.01.02-.03.05-.06.11-.08.16,0,0,0,.02-.01.02,0,.01-.02.03-.02.05,0,0-.01.02-.02.03,0,.02-.01.03-.02.04-.01.02-.02.04-.03.06,0,.01-.01.03-.02.04,0,.01-.01.02-.02.03,0,.01-.02.03-.02.04,0,.01-.01.02-.02.03,0,.02-.01.03-.02.04-.01.02-.02.04-.03.06,0,.01-.01.03-.02.04,0,.01-.01.02-.02.03,0,.01-.02.03-.02.04,0,.01-.01.02-.02.03,0,.02-.01.02-.02.04-.01.02-.02.04-.04.07,0,.01-.01.02-.02.03,0,.01-.01.03-.02.04,0,.01-.01.02-.02.03,0,.01-.01.03-.02.04,0,.01-.01.02-.02.03-.01.02-.02.05-.04.07,0,.01,0,.01-.01.03,0,.02-.02.03-.03.05,0,.01-.01.02-.02.03,0,.02-.02.03-.02.05,0,0-.01.02-.01.03-.01.02-.03.05-.04.07,0,0,0,0,0,.01-.01.02-.02.04-.03.06,0,0-.01.02-.01.02,0,.02-.02.04-.03.05,0,0,0,.02-.01.02-.01.03-.03.05-.04.07h0s-.03.05-.04.07c0,0,0,.01-.01.02-.01.02-.02.04-.03.06,0,0,0,.01,0,.02-.03.05-.05.1-.08.15,0,0,0,.01,0,.02-.01.02-.02.04-.03.06,0,0,0,0,0,.01-.03.05-.05.1-.08.16,0,0,0,0,0,.01-.01.02-.02.05-.04.07,0,0,0,0,0,0-.03.05-.06.11-.08.16h0s-.03.06-.04.08c0,0,0,0,0,0-.92,1.78-1.82,3.57-2.69,5.37l4.5,2.17c3.38-7,7.21-13.87,11.4-20.43l-4.21-2.69h0Zm-16.58,31.9c-.35.86-.7,1.72-1.04,2.59h0s-.02.06-.03.09h0s-.02.06-.03.09c0,0,0,0,0,0-.01.03-.02.05-.03.08,0,0,0,.01,0,.02,0,.02-.02.05-.03.07,0,0,0,0,0,.01-.02.05-.04.11-.06.16,0,0,0,.01,0,.02,0,.02-.02.04-.02.06,0,0,0,.02,0,.02,0,.02-.02.04-.03.07,0,0,0,0,0,.01,0,.03-.02.05-.03.08,0,.01,0,.02-.01.03,0,.02-.01.03-.02.05,0,.01,0,.02-.01.03,0,.02-.01.03-.02.05,0,.01,0,.02-.01.03,0,.02-.02.05-.03.07,0,.01,0,.02-.01.04,0,.01-.01.03-.02.04,0,.01-.01.03-.01.04,0,.01,0,.03-.01.04,0,.02,0,.02-.02.04,0,.01,0,.02-.01.04,0,.02-.02.05-.03.07,0,.01,0,.02-.01.04,0,.01-.01.03-.02.04,0,0,0,.02-.01.03,0,.02-.01.03-.02.05,0,0,0,.01,0,.02-.01.03-.03.07-.04.1,0,0,0,.02,0,.02,0,.02-.01.03-.02.05,0,0,0,.02,0,.03,0,.02-.01.03-.02.05,0,0,0,.01,0,.02-.02.06-.05.12-.07.18,0,0,0,.01,0,.02,0,.02-.01.03-.02.06,0,0,0,.01,0,.02-.02.06-.05.12-.07.19,0,0,0,0,0,0,0,.02-.02.04-.02.06,0,0,0,0,0,0-.03.09-.07.17-.1.26,0,0,0,0,0,0-2.17,5.72-4.09,11.57-5.74,17.53l4.82,1.34c2.08-7.49,4.63-14.93,7.59-22.12l-4.62-1.9h0Zm-10.65,34.34c-.45,2.09-.86,4.19-1.25,6.3h0c-.02.09-.03.18-.05.27,0,0,0,0,0,0,0,.03,0,.06-.02.08h0c-.01.07-.02.13-.03.19h0s0,.06-.01.08c0,0,0,.01,0,.02,0,.02,0,.05-.01.07h0c-.01.07-.02.13-.03.18,0,0,0,.02,0,.02,0,.02,0,.04-.01.06,0,0,0,.02,0,.03,0,.02,0,.05-.01.07,0,0,0,0,0,.01,0,.03,0,.06-.01.08,0,.01,0,.01,0,.02,0,.02,0,.04-.01.06,0,.01,0,.02,0,.03,0,.02,0,.04,0,.06,0,0,0,.02,0,.03,0,.03,0,.05-.01.08h0s0,.06-.01.09c0,0,0,.03,0,.03,0,.02,0,.03,0,.05,0,.01,0,.02,0,.04,0,.02,0,.03,0,.05,0,.01,0,.03,0,.04,0,.02,0,.05-.01.08,0,.01,0,.02,0,.04,0,.02,0,.03,0,.05,0,.01,0,.03,0,.04,0,.01,0,.03,0,.04,0,.01,0,.03,0,.04,0,.01,0,.03,0,.04,0,.02,0,.05-.01.08,0,.01,0,.02,0,.04,0,.02,0,.03,0,.05,0,.01,0,.02,0,.04,0,.01,0,.04,0,.05,0,.01,0,.02,0,.03,0,.02,0,.03,0,.05,0,0,0,.02,0,.03,0,.04-.01.06-.02.1,0,.01,0,.02,0,.03,0,.02,0,.03,0,.05,0,.01,0,.02,0,.03,0,.02,0,.03,0,.05,0,.01,0,.02,0,.03-.01.06-.02.12-.03.18,0,0,0,.02,0,.02,0,.02,0,.04,0,.05,0,0,0,.02,0,.02,0,.02,0,.04,0,.06,0,0,0,0,0,.01,0,.06-.02.14-.03.2,0,0,0,.01,0,.02,0,.02,0,.04,0,.06,0,0,0,.01,0,.02-.01.07-.02.14-.03.2,0,0,0,0,0,0,0,.02,0,.04-.01.06,0,0,0,.01,0,.02,0,.02,0,.04-.01.06,0,0,0,0,0,0-.01.07-.02.14-.03.21,0,0,0,0,0,0,0,.02,0,.05-.01.07,0,0,0,0,0,0-.02.1-.03.18-.04.28,0,0,0,0,0,0,0,.02,0,.04-.01.07,0,0,0,0,0,0-.01.07-.02.14-.03.22,0,0,0,0,0,0,0,.02,0,.05-.01.07,0,0,0,0,0,0-.02.1-.03.19-.04.28,0,0,0,0,0,0,0,.02,0,.05-.01.07,0,0,0,0,0,0-.03.22-.07.43-.1.65h0c-.01.1-.03.19-.04.29,0,0,0,0,0,0,0,.02,0,.05-.01.07,0,0,0,0,0,0-.01.1-.03.19-.04.29,0,0,0,0,0,0-.01.1-.03.19-.04.29,0,0,0,0,0,0,0,.02,0,.05-.01.07,0,0,0,0,0,0-.01.1-.03.19-.04.29h0c-.02.12-.03.24-.05.36,0,0,0,0,0,0-.01.1-.03.19-.04.28,0,0,0,0,0,0,0,.02,0,.04,0,.07,0,0,0,0,0,0-.01.1-.03.18-.04.28,0,0,0,0,0,.01,0,.02,0,.04,0,.07,0,0,0,0,0,0-.01.07-.02.13-.03.21,0,0,0,0,0,0,0,.02,0,.04,0,.06,0,0,0,.01,0,.02-.01.09-.03.18-.04.27,0,0,0,.01,0,.02,0,.02,0,.03,0,.06,0,0,0,.01,0,.02,0,.06-.02.13-.03.19,0,0,0,.02,0,.03,0,.02,0,.03,0,.05,0,.01,0,.02,0,.03,0,.02,0,.03,0,.05,0,0,0,.02,0,.03,0,.04-.01.08-.02.11,0,0,0,0,0,.01,0,.02,0,.03,0,.05,0,.01,0,.02,0,.04,0,.01,0,.03,0,.05,0,.01,0,.03,0,.04,0,.02,0,.03,0,.04,0,.01,0,.03,0,.04,0,.02,0,.04,0,.07,0,.02,0,.03,0,.05,0,.02,0,.02,0,.04,0,.01,0,.03,0,.04,0,.01,0,.03,0,.04,0,.01,0,.03,0,.04,0,.01,0,.03,0,.04,0,.03,0,.05,0,.08,0,.01,0,.03,0,.04,0,.02,0,.03,0,.05,0,.01,0,.03,0,.04,0,.02,0,.03,0,.05,0,.01,0,.02,0,.04,0,.02,0,.04,0,.06,0,0,0,.02,0,.02,0,.03,0,.05-.01.08,0,.01,0,.02,0,.03,0,.02,0,.04,0,.05,0,.01,0,.02,0,.03,0,.02,0,.04,0,.06,0,0,0,.02,0,.03,0,.03,0,.06-.01.09h0s0,.06-.01.09c0,0,0,.02,0,.02,0,.02,0,.05,0,.07,0,0,0,.01,0,.02,0,.03,0,.05,0,.08,0,0,0,0,0,0,0,.03,0,.06-.01.09,0,0,0,0,0,.01,0,.03,0,.05,0,.08,0,0,0,.01,0,.02,0,.02,0,.05,0,.07h0c0,.07-.01.13-.02.2h0s0,.06-.01.09c0,0,0,0,0,.02-.01.09-.02.18-.03.27h0c-.23,1.9-.44,3.81-.61,5.73l4.98.46c.72-7.76,1.91-15.54,3.54-23.12l-4.89-1.05h0Zm.89,35.69H-.32v19.76H-.32s0,.04,0,.07c0,.01,0,.02,0,.03,0,.01,0,.02,0,.04,0,.01,0,.03,0,.04,0,0,0,.02,0,.03,0,.02,0,.03,0,.05,0,0,0,.02,0,.02,0,.02,0,.03,0,.05,0,0,0,.01,0,.02,0,.02,0,.04,0,.05,0,0,0,0,0,.01.03.55.07,1.1.11,1.65h0s0,.04,0,.06h0s0,.05,0,.07h0c0,.11.02.22.02.33h0s0,.04,0,.06c0,0,0,.01,0,.02,0,.01,0,.03,0,.04,0,.01,0,.01,0,.03,0,.01,0,.03,0,.04,0,.01,0,.02,0,.03,0,.01,0,.03,0,.04,0,.01,0,.02,0,.03,0,.01,0,.03,0,.04,0,.01,0,.03,0,.04,0,0,0,.02,0,.03,0,.02,0,.03,0,.05,0,0,0,.01,0,.02,0,.02,0,.05,0,.07,0,0,0,0,0,0,0,.02,0,.04,0,.07,0,0,0,0,0,.01,0,.02,0,.04,0,.06,0,0,0,0,0,.01,0,.02,0,.04,0,.06,0,0,0,0,0,.01,0,.02,0,.04,0,.06,0,0,0,0,0,0,.02.3.05.58.07.88l4.98-.41c-.11-1.32-.21-2.65-.29-3.97v-19.6h0Zm1.59,35.21l-4.95.7c.23,1.64.49,3.28.76,4.91,0,0,0,0,0,0,0,.02,0,.04.01.06,0,0,0,.01,0,.02.01.08.03.19.05.27,0,0,0,.01,0,.02,0,.02,0,.04.01.06,0,0,0,0,0,.02.01.06.02.13.03.19,0,0,0,.02,0,.03,0,.02,0,.04,0,.05,0,0,0,.02,0,.03,0,.02,0,.04,0,.05,0,0,0,.01,0,.02,0,.04.01.07.02.1,0,.01,0,.02,0,.03,0,.02,0,.03,0,.05,0,.01,0,.02,0,.03,0,.01,0,.04,0,.05,0,.01,0,.02,0,.04,0,.02,0,.03,0,.05,0,.02,0,.05.01.07,0,.01,0,.03,0,.04,0,.01,0,.03,0,.04,0,.01,0,.03,0,.04,0,.01,0,.03,0,.04,0,.02,0,.02,0,.04,0,.02,0,.04.01.06,0,.01,0,.02,0,.04,0,.02,0,.04.01.06,0,0,0,.03,0,.04,0,.02,0,.03,0,.05,0,.01,0,.02,0,.03,0,.02,0,.04,0,.05,0,.01,0,.02,0,.03,0,.03,0,.05.01.08,0,.01,0,.02,0,.03,0,.02,0,.04.01.06,0,.01,0,.02,0,.03,0,.02,0,.04.01.06,0,0,0,.02,0,.02,0,.03.01.06.02.09h0s0,.06.01.09c0,0,0,.01,0,.02,0,.02,0,.05.01.07,0,0,0,.01,0,.02,0,.03,0,.05.01.08,0,0,0,0,0,0,0,.03.01.06.02.09,0,0,0,.01,0,.02,0,.02,0,.05.01.07,0,0,0,.01,0,.02,0,.02,0,.05.01.07,0,0,0,0,0,.01.01.06.02.12.03.17,0,0,0,.01,0,.02,0,.02,0,.05.01.07,0,0,0,.01,0,.02,0,.03,0,.05.02.08,0,0,0,0,0,0,0,.03.01.06.02.09h0s0,.06.01.09c0,0,0,.01,0,.02,0,.02,0,.05.01.07,0,0,0,0,0,.01.01.06.02.12.03.18,0,0,0,0,0,0,0,.03,0,.05.01.08,0,0,0,0,0,.01.01.06.02.12.03.18h0s.01.06.02.09c0,0,0,0,0,.02,0,.02,0,.05.01.08h0c.01.07.02.13.03.19,0,0,0,0,0,0,0,.03.01.06.02.08,0,0,0,0,0,0,.02.09.03.18.05.27h0c.02.1.03.19.05.28h0s.01.06.02.09c0,0,0,0,0,0,.02.09.04.18.05.27h0c.02.1.04.19.05.28,0,0,0,0,0,0,0,.03.01.06.02.09,0,0,0,0,0,0,.02.09.04.18.05.27h0c.02.1.04.19.05.28,0,0,0,0,0,0,0,.03.01.05.02.08,0,0,0,0,0,.01.02.09.04.18.05.27h0s.01.06.02.09h0c.01.06.02.12.04.18,0,0,0,0,0,0,0,.03.01.06.02.08,0,0,0,0,0,0,.02.09.04.18.05.27h0c.02.1.04.19.05.28,0,0,0,0,0,0,0,.03.01.05.02.08,0,0,0,0,0,0,.01.06.02.12.04.18h0s.01.06.02.09h0s.01.06.02.09h0c.01.07.02.12.04.18,0,0,0,0,0,.01,0,.03.01.05.02.08,0,0,0,0,0,0,.01.06.03.12.04.18h0s.01.06.02.08c0,0,0,.01,0,.02,0,.03.01.05.02.08h0c.01.07.03.13.04.18,0,0,0,0,0,.01,0,.02.01.05.02.08,0,0,0,0,0,.01.01.06.02.12.04.18h0s.01.06.02.09c0,0,0,0,0,.02,0,.03.01.05.02.08h0c.01.07.03.13.04.18,0,0,0,0,0,.01,0,.03.01.05.02.08,0,0,0,0,0,.01.01.06.03.12.04.18h0s.01.06.02.09c0,0,0,.01,0,.02,0,.03.01.05.02.08h0s.01.07.02.1c0,0,0,0,0,0,0,.03.01.05.02.08,0,0,0,.01,0,.02,0,.02.01.05.02.07,0,0,0,.01,0,.02.01.06.03.11.04.17,0,0,0,0,0,.01,0,.02.01.05.02.07h0s.01.07.02.09h0c.01.06.03.12.04.18,0,0,0,.01,0,.02,0,.02.01.05.02.07,0,0,0,.01,0,.02.01.06.03.12.04.17h0s.01.06.02.08c0,0,0,.01,0,.02,0,.03.01.05.02.08h0s.01.07.02.1c0,0,0,0,0,0,0,.03.01.05.02.08,0,0,0,.01,0,.02,0,.02.01.05.02.07,0,0,0,.01,0,.02.01.06.03.11.04.17,0,0,0,0,0,.01,0,.02.01.05.02.07,0,0,0,.01,0,.02,0,.02.01.05.02.07,0,0,0,0,0,.01,0,.03.01.06.02.09,0,0,0,0,0,0,0,.03.01.05.02.08,0,0,0,.02,0,.02,0,.02.01.04.02.07,0,0,0,.01,0,.02.01.06.03.11.04.17,0,0,0,0,0,.02,0,.02.01.05.02.07,0,0,0,.02,0,.02,0,.02.01.05.02.07h0s.01.07.02.1c0,0,0,0,0,0,0,.03.01.05.02.08,0,0,0,.01,0,.02,0,.02.01.05.02.07,0,0,0,.01,0,.02.01.06.03.11.04.17,0,0,0,.02,0,.02,0,.02,0,.04.01.06,0,0,0,.02,0,.02,0,.02.01.05.02.07,0,0,0,0,0,0,0,.03.01.06.02.09,0,0,0,0,0,0,0,.03.01.05.02.08,0,0,0,.01,0,.02,0,.02.01.05.02.07,0,0,0,0,0,.01.01.06.03.11.04.17,0,0,0,0,0,.01,0,.02.01.05.02.07,0,0,0,.01,0,.02,0,.03.01.05.02.08h0c.01.06.03.12.04.18,0,0,0,0,0,0,0,.03.01.05.02.08,0,0,0,0,0,0,.01.06.03.12.04.18h0s.01.06.02.09c0,0,0,0,0,.01,0,.03.01.06.02.08h0c.01.06.03.12.04.18,0,0,0,0,0,0,0,.03.01.06.02.08h0c.01.06.03.12.04.18h0s.01.06.02.09h0c.02.09.04.18.07.27h0c.29,1.18.59,2.35.9,3.52l4.83-1.29c-2-7.5-3.57-15.21-4.67-22.92h0Zm8.02,34.13l-4.75,1.57c.92,2.77,1.9,5.52,2.93,8.24h0c.03.09.06.17.1.26,0,0,0,.01,0,.02,0,.02.02.05.03.07h0c.02.07.04.12.06.17,0,0,0,.01,0,.02,0,.02.02.04.02.06v.02c.03.05.05.11.07.16,0,0,0,.02,0,.02,0,.02.02.04.02.06,0,0,0,.02,0,.02,0,.02.02.05.03.07t0,.01s.02.05.03.08c0,0,0,.02.01.03,0,.02.01.03.02.05,0,.01,0,.02.01.03,0,.02.01.04.02.05,0,.01,0,.01,0,.02,0,.02.02.05.03.07,0,.02,0,.02.01.04,0,.01.01.03.02.04,0,.01.01.03.01.04,0,.01.01.03.02.04,0,.01.01.03.02.04,0,.02.02.05.03.07,0,.02.01.03.02.04,0,.01,0,.02.01.03,0,.01.01.04.02.05,0,.01,0,.02.01.03,0,.02.01.03.02.04,0,0,0,.02,0,.03.01.03.02.06.04.09,0,0,0,.02.01.03,0,.02.01.03.02.05,0,0,0,.02,0,.02,0,.02.01.04.02.05,0,0,0,0,0,0,.02.04.03.08.05.12,0,0,0,0,0,.01,0,.02.01.03.02.06,0,0,0,.01,0,.02,0,.02.02.04.02.06,0,0,0,0,0,0,.03.07.05.12.08.19,0,0,0,0,0,.01,0,.02.02.04.02.06,0,0,0,0,0,0,1.54,3.89,3.2,7.71,4.97,11.47l4.52-2.13c-3.31-7.04-6.23-14.35-8.68-21.72h0Zm13.97,32.16l-4.39,2.39h0s.03.05.04.08c0,0,0,0,0,.01.01.02.03.05.04.08h0c.03.05.06.11.09.16h0c.04.09.09.17.13.25h0c.04.09.09.17.13.25h0c.04.09.09.17.13.25h0c.04.08.09.17.13.25h0c1.66,2.99,3.39,5.93,5.19,8.82,0,0,0,0,0,0,.02.03.03.05.05.08h0c.03.05.07.11.1.16,0,0,0,0,0,0,.05.08.1.16.15.24h0s.03.05.05.08h0c.03.06.07.11.1.16h0s.03.05.05.08h0c.03.05.07.11.1.16h0s.03.05.05.08h0c.08.13.17.27.25.4h0s.03.05.05.08c0,0,0,0,0,0,.03.05.07.1.1.15h0s.03.05.05.08c0,0,0,0,0,0,.03.05.07.1.1.16h0s.03.05.05.08c0,0,0,0,0,0,.03.05.06.1.1.15h0s.03.05.05.08c0,0,0,0,0,0,.03.05.07.1.1.15h0s.03.05.04.07c0,0,0,0,0,.01.03.05.06.1.1.15h0s.03.05.04.08c0,0,0,0,0,.01.02.02.03.05.05.07h0s.03.05.05.08h0s.03.05.04.07c0,0,0,0,0,.01.03.05.06.1.1.15h0s.03.05.04.08c0,0,0,0,0,0,.02.02.03.05.05.07h0s.03.05.05.08h0s.03.05.04.07c0,0,0,.01.01.02.01.02.03.05.04.07,0,0,0,0,0,0,.02.02.03.05.05.08h0s.03.05.04.07c0,0,0,0,0,.01.01.02.03.05.04.07,0,0,0,0,0,0,.02.02.03.05.05.07h0s.03.05.04.07c0,0,0,.01,0,.01.02.02.03.05.05.07h0s.03.05.05.08h0s.03.05.04.07c0,0,0,0,0,.01.01.02.03.05.05.07h0s.03.06.05.08h0s.03.05.04.07c0,0,0,.01.01.02.01.02.03.04.04.07h0s.03.06.05.08h0s.03.05.04.07h0s.03.06.04.08c0,0,0,0,0,.01.02.02.03.05.05.07,0,0,0,0,0,0,.01.02.03.04.04.06,0,0,0,0,.01.02.01.02.03.04.04.07h0s.03.06.05.08h0s.03.05.04.07h0s.03.05.04.08h0s.03.06.05.08c0,0,0,0,0,.01.01.02.03.04.04.06,0,0,0,.01.01.02.01.02.02.04.04.05,0,0,0,.01.01.02.02.02.03.05.05.07h0s.03.05.04.07c0,0,0,.01.01.02.01.02.03.04.04.06,0,0,0,.01.01.02.02.02.03.05.05.07,0,0,0,0,0,.01.01.02.03.04.04.06,0,0,0,.01.01.02.01.02.02.04.04.06,0,0,0,.01.01.02.02.02.03.05.05.07,0,0,0,0,0,0,.01.02.03.04.04.06,0,0,0,.01.01.02.01.02.03.04.04.06,0,0,0,0,0,.01.02.02.03.05.05.07,0,0,0,0,0,0,.01.02.03.04.04.06,0,0,0,.01.01.02.01.02.02.04.04.05,0,0,0,.01.01.02.02.02.03.05.05.07,0,0,0,0,0,.01.01.02.03.04.04.06,0,0,0,.01.01.02.01.02.02.03.03.05,0,0,.01.02.02.02.02.02.03.05.05.07,0,0,0,0,0,.01.01.02.03.04.04.06,0,0,.01.02.01.02.01.02.02.04.04.05,0,0,0,.01.01.02.02.02.03.05.05.07,0,0,0,0,0,0,.01.02.03.04.04.06,0,0,0,.01.01.02.01.02.02.04.04.05,0,0,0,.01.01.02.02.02.03.05.05.07,0,0,0,0,0,0,.01.02.03.04.04.06,0,0,0,.01.02.02.01.02.02.03.03.05,0,0,.01.02.01.02.02.02.03.05.05.07,0,0,0,0,0,.01.01.02.03.04.04.06,0,0,.01.02.02.02.01.02.02.03.03.05,0,0,.01.02.02.02.02.02.03.05.05.07,0,0,0,0,0,0,.01.02.03.04.04.06,0,0,.01.02.02.02.01.02.02.03.03.05,0,0,.01.02.02.02.01.02.03.04.04.06,0,0,0,.01.01.02.01.02.03.04.04.06,0,0,.01.02.02.02.01.02.02.03.03.05,0,0,.01.02.02.02.02.02.03.04.05.07,0,0,0,0,0,.01.01.02.03.04.04.06,0,0,.01.02.02.03.01.02.02.03.03.05,0,0,.01.02.02.02.02.02.03.04.05.07h0s.03.05.05.07c0,0,.01.02.01.02.01.02.02.03.03.05,0,0,.01.02.02.02.01.02.03.04.04.06h0s.03.05.05.07c0,0,.01.02.01.02.01.02.02.03.04.05,0,0,.01.02.01.02.02.02.03.04.04.06h0s.03.05.05.08c0,0,0,.01.01.02.01.02.02.03.04.05,0,0,.01.02.02.02.01.02.03.04.04.06,0,0,.01.02.01.02.01.02.03.04.04.06,0,0,.01.02.02.03.01.02.02.03.03.05,0,0,.01.02.02.02.01.02.03.04.04.06,0,0,0,0,.01.01.02.02.03.04.05.07,0,0,.01.02.02.02.01.02.02.03.03.05,0,0,.01.02.02.03.01.02.02.03.04.05,0,0,.01.02.01.02.01.02.03.04.04.06,0,0,.01.02.02.03.01.01.02.03.03.04,0,0,.01.02.02.03.01.01.02.03.03.04.01.01.01.02.02.03.01.02.03.04.04.06,0,0,.01.02.02.02.01.02.02.03.03.04,0,0,.01.02.02.03.01.02.02.03.03.05,0,0,0,.01.02.02.01.02.03.04.04.06,0,0,.01.02.02.03,0,.01.02.03.03.04,0,0,.01.02.02.03.01.02.02.03.03.05,0,0,0,.01.02.02.01.02.03.04.05.06,0,0,.01.02.02.03,0,.01.02.02.03.04,0,0,0,.01.01.02l4.08-2.9c-4.51-6.34-8.68-13.02-12.4-19.84h0Zm19.45,29.18l-3.9,3.13c1.46,1.82,2.95,3.61,4.47,5.38,0,0,0,0,0,0,.06.07.12.14.18.21,0,0,0,0,0,0,.06.07.12.14.18.2,0,0,0,0,.01.01.02.02.02.03.04.04,0,0,0,0,0,.01.04.04.08.1.12.14,0,0,.01.01.02.02.01.01.03.03.04.04,0,0,0,0,.01.01.02.03.05.06.07.08,0,0,0,0,.01.01.01.01.02.02.03.04,0,0,.02.02.02.03.01.01.02.02.03.04,0,0,.01.01.02.02.02.03.04.04.06.07,0,0,.01.01.02.02.01.01.02.02.03.04,0,0,.02.02.02.03.01.01.02.02.03.03,0,0,.02.02.02.03.01.01.03.04.04.05.01.01.02.03.03.04.01.01.01.02.03.03.01.01.02.02.03.04,0,0,.02.02.02.03.01.01.02.03.03.04.01.01.02.03.04.04.01.01.02.03.04.04.01.01.01.02.03.03,0,.01.02.02.03.03,0,0,.02.02.03.03.01.01.02.03.03.04.01.01.02.02.03.03.01.02.03.03.04.05,0,0,.01.02.02.02.01.01.02.03.04.04,0,0,.01.02.02.02.01.02.03.03.04.04,0,0,.01.02.02.02.02.02.03.04.05.06,0,0,.02.02.02.02.01.01.03.03.04.04,0,0,.01.02.02.02.02.02.03.04.05.06,0,0,0,0,0,0,.02.02.04.04.06.06,0,0,.01.01.02.02.01.02.03.03.04.05,0,0,.01.01.02.02.04.04.08.08.11.13,0,0,0,.01.01.02.02.02.03.03.05.05,0,0,0,.01.01.01.04.04.08.09.12.13,0,0,0,0,0,.01.02.02.03.04.05.06,0,0,0,0,0,.01.04.04.08.09.12.13,0,0,0,0,0,0,.02.02.04.04.05.06,0,0,0,0,0,0,.04.04.08.09.12.13,0,0,0,0,0,0,.02.02.04.04.06.07h0s.08.09.12.14h0s.04.05.06.07h0s.08.1.12.14h0s.04.05.06.07h0s.08.09.12.14c0,0,0,0,0,0,.02.02.04.05.06.07h0c1.93,2.13,3.9,4.23,5.91,6.27,0,0,0,0,0,0,.04.04.09.09.13.13h0s.04.04.06.06c0,0,0,0,0,0,.04.04.08.09.13.13,0,0,0,0,0,0,.02.02.04.04.05.05,0,0,0,0,.01.01.04.04.08.08.12.12,0,0,0,0,.01.01.02.02.03.03.05.05,0,0,0,0,.01.01.02.02.04.04.06.06h0s.04.04.06.06c0,0,.01.01.01.01.02.02.03.03.05.05,0,0,.01.01.02.02.02.02.04.04.06.06h0s.04.04.06.06c0,0,.02.02.02.02.01.01.03.03.04.04,0,0,.02.02.02.02.02.02.03.03.05.05,0,0,0,0,.01.01.02.02.04.04.05.05,0,0,.02.02.02.02l.04.04s.02.02.02.02c.01.01.03.03.04.04,0,0,.02.02.03.03.01.01.03.03.04.04,0,0,.02.02.03.03.01,0,.02.02.03.03.01.01.02.02.03.03,0,0,.02.02.03.03.02.02.04.04.06.06,0,0,.01.01.02.02.01.01.02.02.03.03,0,0,.01.01.02.02.01.01.02.02.04.03,0,0,.01.01.02.02.02.02.05.05.07.07,0,0,0,0,.01.01.01.01.03.03.04.04,0,0,0,0,.01.01.01.01.03.03.04.04,0,0,0,0,0,0,.03.03.06.06.09.09,0,0,0,0,0,0,.02.02.03.03.05.05,0,0,0,0,0,0,.19.19.37.37.56.56l3.5-3.57c-5.55-5.45-10.83-11.29-15.7-17.35h0Zm24.29,25.3l-3.29,3.77c5.49,4.79,11.24,9.29,17.23,13.47,0,0,0,0,0,0,.02.01.03.02.05.04,0,0,0,0,0,0,.03.02.07.05.11.07,0,0,0,0,0,0,.01.01.03.02.05.03,0,0,.01,0,.02.01.01.01.03.02.05.03,0,0,.01,0,.02.01.03.02.06.04.09.06,0,0,.01,0,.02.01.01.01.03.02.04.03,0,0,.01,0,.02.01.01.01.03.02.05.03,0,0,.01,0,.02.01.02.02.05.03.07.05.01,0,.02.01.03.02.01.01.02.02.04.03.01,0,.02.02.03.02,0,0,.02.02.03.02.01,0,.03.02.04.03.02.01.03.02.05.03.01.01.03.02.04.03.01,0,.02.01.03.02.01,0,.03.02.04.03,0,0,.02.01.03.02.02.01.04.03.05.04,0,0,.01,0,.02.01.02.01.04.03.06.04,0,0,.02.01.02.02.02.01.03.02.05.03,0,0,.02.01.02.01.05.03.09.06.14.1,0,0,.01,0,.02.01.02.01.04.03.06.04,0,0,.01,0,.02.01.05.03.1.07.15.1,0,0,0,0,0,0,.02.02.04.03.07.05,0,0,0,0,0,0,.02.02.05.03.07.05l2.82-4.13c-6.42-4.38-12.64-9.2-18.51-14.32h0Zm28.36,20.63l-2.57,4.29c2.64,1.58,5.31,3.1,8.03,4.57h0s.04.02.06.03c0,0,0,0,0,0,.06.03.11.06.18.1,0,0,0,0,0,0,.02,0,.04.02.05.03,0,0,.01,0,.02,0,.02,0,.03.02.05.03,0,0,.01,0,.02,0,.03.02.06.03.09.05,0,0,.02,0,.03.01.02,0,.02.01.04.02.01,0,.02.01.03.02.01,0,.03.02.04.02.01,0,.02.01.04.02.02.01.04.02.06.03.01,0,.03.02.04.02.02,0,.02.01.04.02.01,0,.03.01.04.02.01,0,.02.01.03.02.02,0,.03.02.05.02.01,0,.02,0,.03.01.02.01.05.03.07.04.01,0,.02,0,.03.01.02,0,.03.02.05.03.01,0,.02.01.03.02.02,0,.04.02.05.03,0,0,.01,0,.02.01.02.01.05.03.07.04.01,0,0,0,.02.01.02.01.04.02.06.03.01,0,0,0,.02,0,.02.01.04.02.07.04,0,0,0,0,0,0,.03.01.05.03.08.04h0s.05.03.07.04h.01s.05.03.08.05h0s.05.03.08.04h0s.05.03.08.04h0c.08.05.16.09.24.13h0c3.65,1.92,7.37,3.72,11.15,5.42l2.05-4.56c-7.09-3.18-14.07-6.82-20.74-10.82h0Zm31.55,15.29l-1.77,4.68c1.13.43,2.27.85,3.41,1.26,0,0,0,0,0,0,.03,0,.05.02.08.03h0c.06.02.11.04.17.06,0,0,0,0,.01,0,.02,0,.05.02.07.03,0,0,.01,0,.02,0,.02,0,.05.02.07.03,0,0,0,0,0,0,.03,0,.05.02.08.03,0,0,.01,0,.02,0,.02,0,.04.01.06.02.01,0,.02,0,.03,0,.02,0,.04.01.05.02.01,0,.01,0,.03,0,.03,0,.05.02.08.03.01,0,.02,0,.03,0,.02,0,.03.01.05.02.01,0,.02,0,.03.01.01,0,.03.01.04.02.02,0,.02,0,.04.01.02,0,.03.01.05.02.02,0,.04.01.06.02.01,0,.03,0,.04.01.02,0,.03,0,.04.02.01,0,.02,0,.03.01.02,0,.03.01.05.02,0,0,.02,0,.03,0,.03.01.07.02.1.04,0,0,0,0,.01,0,.02,0,.04.01.05.02,0,0,.01,0,.02,0,.02,0,.03.01.06.02,0,0,0,0,.01,0,.06.02.13.05.19.07,0,0,0,0,0,0,.02,0,.04.02.07.02,0,0,0,0,0,0,4.36,1.51,8.77,2.88,13.26,4.1,0,0,0,0,0,0,.09.03.18.05.27.07,0,0,0,0,.01,0,.02,0,.04.01.06.02,0,0,0,0,0,0,.06.02.13.03.19.05,0,0,0,0,.01,0,.02,0,.04,0,.06.02,0,0,.01,0,.02,0,.06.02.13.03.19.05,0,0,0,0,.01,0,.02,0,.04.01.06.02,0,0,.02,0,.02,0,.02,0,.04.01.06.01,0,0,0,0,.01,0,.03,0,.09.02.12.03,0,0,0,0,.01,0,.02,0,.03,0,.05.01.01,0,.02,0,.03,0,.02,0,.03,0,.05.01,0,0,.02,0,.03,0,.04.01.07.02.11.03,0,0,0,0,0,0,.02,0,.03,0,.05.01,0,0,.02,0,.03,0,.01,0,.04.01.05.01,0,0,.02,0,.03,0,.02,0,.03,0,.05.01,0,0,.01,0,.02,0,.03,0,.07.02.09.02.01,0,.03,0,.04,0,.01,0,.03,0,.04.01.01,0,.02,0,.03,0,.02,0,.03,0,.05.01.01,0,.02,0,.03,0,.02,0,.05.01.08.02.01,0,.03,0,.04.01.02,0,.03,0,.04.01.01,0,.03,0,.04,0,.01,0,.03,0,.04.01.01,0,.03,0,.04.01.02,0,.04,0,.05.01.02,0,.04.01.06.02.01,0,.02,0,.03,0,.02,0,.03,0,.05.01.01,0,.03,0,.04,0,.02,0,.03,0,.05.01.01,0,.02,0,.03,0,.03,0,.05.01.08.02.01,0,.02,0,.03,0,.02,0,.03,0,.05.01.01,0,.02,0,.03,0,.02,0,.03,0,.05.01.01,0,.02,0,.03,0,.03,0,.05.01.08.02,0,0,.01,0,.02,0,.02,0,.04.01.06.02.01,0,.02,0,.03,0,.02,0,.04,0,.05.01,0,0,.02,0,.03,0,.03,0,.05.01.07.02,0,0,0,0,0,0,.03,0,.06.01.08.02,0,0,.02,0,.02,0,.02,0,.04.01.06.02.01,0,.01,0,.03,0,.03,0,.05.01.08.02,0,0,0,0,0,0,.03,0,.06.01.09.02,0,0,0,0,.01,0,.02,0,.05.01.07.02.01,0,0,0,.02,0,.02,0,.04.01.07.02,0,0,.01,0,.02,0,.03,0,.06.01.08.02h0s.05.01.08.02h.02s.05.02.07.02h.02c.06.02.11.03.17.05,0,0,.01,0,.02,0,.02,0,.05.01.07.02,0,0,.01,0,.02,0,.03,0,.05.01.08.02,0,0,0,0,0,0,.03,0,.06.01.09.02h0s1.2-4.85,1.2-4.85c-7.55-1.87-15.06-4.21-22.33-6.96h0Zm33.77,9.43l-.91,4.92c1.84.34,3.69.66,5.54.95,0,0,0,0,.01,0,.1.02.18.03.28.04,0,0,0,0,0,0,.02,0,.04,0,.07.01,0,0,0,0,0,0,.09.01.19.03.28.04,0,0,.01,0,.02,0,.02,0,.04,0,.06,0,0,0,.01,0,.02,0,.06,0,.13.02.2.03,0,0,0,0,.01,0,.02,0,.04,0,.06,0,0,0,.01,0,.02,0,.02,0,.04,0,.06,0,0,0,.01,0,.02,0,.06,0,.12.02.18.03,0,0,.02,0,.03,0,.02,0,.03,0,.05,0,0,0,.02,0,.03,0,.02,0,.03,0,.05,0,0,0,.02,0,.03,0,.04,0,.07,0,.1.02,0,0,.01,0,.02,0,.02,0,.03,0,.05,0,.01,0,.02,0,.03,0,.01,0,.03,0,.05,0,.01,0,.03,0,.04,0,.02,0,.03,0,.05,0,.01,0,.03,0,.04,0,.02,0,.05,0,.07.01.01,0,.03,0,.04,0,.02,0,.02,0,.04,0,.01,0,.03,0,.04,0,.01,0,.03,0,.04,0,.02,0,.03,0,.05,0,.01,0,.03,0,.04,0,.03,0,.05,0,.08.01.01,0,.02,0,.03,0,.02,0,.04,0,.06,0,.01,0,.02,0,.03,0,.02,0,.03,0,.05,0,.01,0,.02,0,.03,0,.02,0,.04,0,.05,0,.01,0,.02,0,.03,0,.03,0,.05,0,.08.01.01,0,.02,0,.03,0,.02,0,.04,0,.06,0,.01,0,.02,0,.03,0,.02,0,.04,0,.05,0,0,0,.02,0,.03,0,.02,0,.05,0,.07.01,0,0,0,0,.01,0,.03,0,.06,0,.08.01,0,0,.02,0,.03,0,.02,0,.04,0,.06,0,.01,0,.02,0,.03,0,.02,0,.04,0,.06,0,.01,0,.01,0,.03,0,.03,0,.06,0,.08.01,0,0,.01,0,.02,0,.02,0,.04,0,.07,0,0,0,.02,0,.03,0,.02,0,.04,0,.06,0,0,0,.02,0,.03,0,.02,0,.05,0,.07.01,0,0,0,0,.01,0,.03,0,.06,0,.09.01,0,0,0,0,.01,0,.02,0,.05,0,.07.01,0,0,.01,0,.02,0,.02,0,.05,0,.07,0,0,0,.01,0,.02,0,.06,0,.12.02.17.02h.01s.05,0,.07.01h.02s.05,0,.08.01h0c.06,0,.12.02.18.03,0,0,0,0,.01,0,.03,0,.05,0,.08.01,0,0,0,0,.01,0,.09.01.18.02.27.04,0,0,0,0,.01,0,.03,0,.05,0,.08.01,0,0,0,0,.01,0,.09.01.18.02.27.04h0s.06,0,.09.01h0c.06,0,.12.02.19.02h0s.06,0,.09.01h.01c.09.01.18.02.27.04h0s.06,0,.09.01c0,0,0,0,0,0,.09.01.18.02.28.03h0s.06,0,.09.01h0c.09.01.18.02.28.03h0c3.88.48,7.79.85,11.73,1.1l.32-4.99c-7.78-.5-15.59-1.47-23.22-2.89h0Zm58.3,2.08c-3.16.35-6.38.63-9.56.83h-13.85v5h14.01s.05,0,.08,0c.02,0,.04,0,.07,0,0,0,0,0,0,0,.02,0,.05,0,.06,0,0,0,0,0,.01,0,.02,0,.04,0,.06,0,0,0,0,0,.01,0,.02,0,.04,0,.07,0,0,0,0,0,0,0,.02,0,.04,0,.07,0,0,0,0,0,0,0,.02,0,.05,0,.07,0,0,0,0,0,0,0,.02,0,.04,0,.07,0,0,0,0,0,0,0,.02,0,.05,0,.07,0,0,0,0,0,0,0,.02,0,.05,0,.07,0,0,0,0,0,0,0,.89-.06,1.78-.12,2.67-.19,0,0,0,0,.01,0,.02,0,.04,0,.06,0,0,0,.01,0,.02,0,.02,0,.03,0,.05,0,0,0,.02,0,.03,0,.02,0,.03,0,.05,0,0,0,.02,0,.03,0,.01,0,.03,0,.04,0,.01,0,.02,0,.03,0,.01,0,.03,0,.04,0,.01,0,.02,0,.03,0,.01,0,.03,0,.04,0,.01,0,.03,0,.04,0,.01,0,.02,0,.04,0,.01,0,.03,0,.04,0,.01,0,.02,0,.03,0,.02,0,.03,0,.05,0,0,0,.02,0,.03,0,.02,0,.04,0,.06,0,0,0,0,0,.02,0,.02,0,.04,0,.07,0,0,0,0,0,.01,0,.02,0,.05,0,.07,0h0c1.89-.16,3.78-.34,5.66-.55l-.55-4.97h0Zm34.37-6.96c-7.45,2.21-15.11,4-22.78,5.32l.85,4.93c1.49-.26,2.97-.53,4.45-.82h0s.06-.01.09-.02h0c.06-.01.12-.02.18-.04,0,0,0,0,0,0,.03,0,.05-.01.08-.02,0,0,0,0,.01,0,.06-.01.12-.02.18-.03h0s.05-.01.08-.02h.02s.05-.01.07-.02h.02s.06-.01.09-.02h0s.06-.01.08-.02c0,0,.01,0,.02,0,.02,0,.04,0,.07-.01,0,0,.02,0,.02,0,.02,0,.05,0,.07-.01,0,0,0,0,.01,0,.03,0,.06-.01.08-.02,0,0,.02,0,.02,0,.02,0,.04,0,.06-.01.01,0,.02,0,.03,0,.02,0,.04,0,.06-.01.01,0,.02,0,.03,0,.03,0,.05-.01.08-.02.01,0,.01,0,.03,0,.02,0,.04,0,.06-.01.01,0,.02,0,.03,0,.02,0,.04,0,.05-.01,0,0,.03,0,.03,0,.02,0,.05-.01.08-.02h0s.05-.01.08-.02c.01,0,.02,0,.03,0,.02,0,.03,0,.05-.01h.04s.03-.01.05-.02c.01,0,.02,0,.04,0,.03,0,.05-.01.08-.02.01,0,.03,0,.04,0,.01,0,.03,0,.04,0,.01,0,.03,0,.04,0,.01,0,.03,0,.04,0,.02,0,.02,0,.04,0,.02,0,.03,0,.05,0,.02,0,.05,0,.07-.01.01,0,.03,0,.04,0,.02,0,.03,0,.04,0,.01,0,.02,0,.04,0,.01,0,.03,0,.05,0,.01,0,.02,0,.04,0,.02,0,.06-.01.09-.02,0,0,.02,0,.03,0,.02,0,.03,0,.05-.01.01,0,.02,0,.03,0,.01,0,.04,0,.05,0,.01,0,.02,0,.03,0,.02,0,.03,0,.05-.01,0,0,0,0,0,0,.04,0,.08-.02.12-.03,0,0,.01,0,.02,0,.02,0,.04,0,.05-.01,0,0,.02,0,.03,0,.02,0,.04,0,.05-.01,0,0,0,0,.01,0,.04,0,.09-.02.13-.03h0s.04,0,.05-.01c0,0,.02,0,.03,0,.02,0,.04,0,.05-.01,0,0,.01,0,.02,0,.06-.01.13-.03.19-.04,0,0,.01,0,.02,0,.02,0,.03,0,.06-.01,0,0,.01,0,.02,0,.02,0,.04,0,.06-.01,0,0,0,0,.01,0,.04,0,.08-.02.13-.03,0,0,0,0,0,0,.02,0,.04,0,.06-.01,0,0,.01,0,.02,0,.02,0,.03,0,.06-.01,0,0,.01,0,.02,0,.07-.01.13-.03.2-.04,0,0,0,0,0,0,.02,0,.04,0,.06-.01,0,0,0,0,.01,0,.07-.02.13-.03.2-.04,0,0,0,0,0,0,.02,0,.04,0,.06-.01,0,0,0,0,.01,0,.02,0,.04,0,.07-.01,0,0,0,0,0,0,.07-.02.13-.03.2-.04,0,0,0,0,.01,0,.02,0,.04,0,.06-.01,0,0,0,0,.01,0,.09-.02.18-.04.27-.06,0,0,0,0,0,0,.02,0,.04,0,.07-.01,0,0,0,0,0,0,.07-.02.13-.03.2-.05,0,0,0,0,0,0,.02,0,.04,0,.06-.01,0,0,0,0,0,0,.07-.02.13-.03.21-.05,0,0,0,0,0,0,.02,0,.04,0,.06-.01,0,0,0,0,.01,0,.09-.02.18-.04.27-.06,0,0,.01,0,.02,0,.02,0,.04,0,.06-.01,0,0,0,0,.01,0,.07-.02.13-.03.2-.05,0,0,0,0,0,0,.02,0,.04,0,.06-.01,0,0,0,0,.01,0,.09-.02.18-.04.27-.06,0,0,0,0,.01,0,.02,0,.04,0,.06-.01,0,0,0,0,0,0,.07-.02.14-.03.21-.05,0,0,0,0,0,0,.02,0,.04-.01.07-.02,0,0,0,0,0,0,.09-.02.18-.04.27-.06,0,0,0,0,.01,0,.09-.02.18-.04.27-.06,0,0,0,0,0,0,.02,0,.04,0,.06-.02,0,0,0,0,0,0,.07-.02.13-.03.2-.05,0,0,0,0,0,0,.02,0,.04,0,.06-.01,0,0,.01,0,.02,0,.02,0,.04,0,.06-.01,0,0,0,0,.01,0,.06-.02.13-.03.19-.05,0,0,.01,0,.02,0,.02,0,.03,0,.06-.01,0,0,.01,0,.02,0,.06-.01.13-.03.19-.04,0,0,.01,0,.01,0,.02,0,.03,0,.06-.01,0,0,.01,0,.02,0,.02,0,.04,0,.06-.01,0,0,0,0,0,0,.04,0,.08-.02.12-.03,0,0,.01,0,.02,0,.02,0,.03,0,.05-.01,0,0,.02,0,.03,0,.02,0,.03,0,.05-.01,0,0,.02,0,.02,0,.06-.01.12-.03.18-.04,0,0,.02,0,.02,0,.02,0,.04,0,.05-.01,0,0,.02,0,.02,0,.02,0,.04,0,.06-.01,0,0,0,0,0,0,.04-.01.07-.02.11-.03,0,0,.02,0,.03,0,.02,0,.03,0,.05-.01,0,0,.02,0,.03,0,.02,0,.04,0,.05-.01,0,0,.01,0,.02,0,.06-.01.12-.03.18-.04,0,0,.02,0,.02,0,.02,0,.04,0,.05-.01,0,0,.02,0,.02,0,.02,0,.04,0,.05-.01,0,0,0,0,0,0,.04-.01.07-.02.11-.03,0,0,.02,0,.03,0,.02,0,.03,0,.05-.01.01,0,.02,0,.03,0,.02,0,.03,0,.05-.01.01,0,.02,0,.03,0,.02,0,.05-.01.07-.02.01,0,.03,0,.04-.01.02,0,.03,0,.04-.01.01,0,.03,0,.04,0,.01,0,.03,0,.04-.01.01,0,.03,0,.04-.01.01,0,.02,0,.04,0,.03,0,.05-.01.07-.02.01,0,.03,0,.04,0,.01,0,.03,0,.04-.01.01,0,.03,0,.04-.01.01,0,.03,0,.04-.01.01,0,.03,0,.04,0,.02,0,.03,0,.05-.01.02,0,.03,0,.05-.01.02,0,.04,0,.05-.01.02,0,.02,0,.04,0,.01,0,.03,0,.04-.01.01,0,.03,0,.04,0,.02,0,.03,0,.05-.01.01,0,.02,0,.03,0,.02,0,.05-.01.07-.02.01,0,.02,0,.04,0,.02,0,.03,0,.05-.01.01,0,.03,0,.04,0,.02,0,.03,0,.05-.01.02,0,.02,0,.04,0,.02,0,.04-.01.06-.02.01,0,.02,0,.04,0,.02,0,.04-.01.06-.02,0,0,.03,0,.03,0,.02,0,.03,0,.05-.01.01,0,.02,0,.03,0,.02,0,.04,0,.06-.01.01,0,.01,0,.03,0,.03,0,.05-.01.08-.02.01,0,.01,0,.03,0,.02,0,.04,0,.06-.01.01,0,.02,0,.03,0,.02,0,.04,0,.06-.01.01,0,.02,0,.03,0,.03,0,.05-.01.08-.02,0,0,.01,0,.02,0,.02,0,.04-.01.06-.02,0,0,.02,0,.03,0,.02,0,.04,0,.05-.01,0,0,.02,0,.03,0,.02,0,.04-.01.07-.02,0,0,.01,0,.02,0,.03,0,.05-.01.08-.02,0,0,.02,0,.02,0,.02,0,.04-.01.06-.02.01,0,.01,0,.03,0,.02,0,.04-.01.06-.02.01,0,0,0,.02,0,.03,0,.06-.01.08-.02,0,0,0,0,0,0,.02,0,.05-.01.07-.02,0,0,.02,0,.03,0,.02,0,.04-.01.06-.02,0,0,.02,0,.02,0,.06-.01.11-.03.17-.04,0,0,.01,0,.02,0,.02,0,.04-.01.07-.02,0,0,.02,0,.02,0,.02,0,.05-.01.07-.02h0s.06-.02.09-.03c0,0,0,0,0,0,.02,0,.05-.01.07-.02,0,0,.01,0,.02,0,.02,0,.04-.01.07-.02,0,0,.01,0,.02,0,.06-.02.11-.03.17-.05,0,0,0,0,.01,0,.03,0,.05-.01.08-.02,0,0,0,0,.01,0,.06-.02.12-.03.18-.05h0s.05-.02.08-.02h.01s.05-.02.08-.02h0c.06-.02.12-.03.18-.05,0,0,0,0,0,0,.03,0,.05-.01.08-.02,0,0,0,0,0,0,.09-.02.18-.05.27-.07h0c1.29-.36,2.57-.72,3.85-1.1l-1.43-4.79h0Zm32.58-12.96c-6.94,3.51-14.17,6.63-21.47,9.29l1.71,4.7c1.8-.65,3.59-1.33,5.37-2.04h0c.09-.03.17-.07.26-.1,0,0,0,0,0,0,.03-.01.05-.02.08-.03h0c.06-.02.11-.05.17-.07,0,0,0,0,0,0,.03-.01.05-.02.08-.03,0,0,0,0,0,0,.06-.02.11-.04.17-.07,0,0,0,0,0,0,.03-.01.05-.02.08-.03,0,0,0,0,0,0,.06-.02.11-.04.17-.07,0,0,0,0,.01,0,.02,0,.05-.02.07-.03,0,0,0,0,.02,0,.05-.02.11-.04.16-.07h.01s.05-.02.07-.03c0,0,.01,0,.02,0,.03-.01.05-.02.07-.03,0,0,0,0,0,0,.03-.01.05-.02.08-.03h.01s.04-.02.06-.03c.01,0,.02,0,.03-.01.02,0,.04-.02.06-.02.01,0,0,0,.02,0,.03-.01.05-.02.08-.03,0,0,.01,0,.02,0,.02,0,.04-.02.06-.03.01,0,.01,0,.02-.01.02,0,.04-.02.06-.02,0,0,.02,0,.02,0,.03-.01.05-.02.08-.03,0,0,.01,0,.02,0,.02,0,.04-.02.06-.02.01,0,.02,0,.03-.01.02,0,.03-.01.05-.02,0,0,.02,0,.03-.01.02,0,.04-.02.07-.03.01,0,.02,0,.03-.01.02,0,.04-.02.06-.02,0,0,.02,0,.03-.01.02,0,.03-.01.05-.02.01,0,.02,0,.03-.01.02,0,.04-.02.06-.02.01,0,.02,0,.03-.01.02,0,.04-.02.06-.03.01,0,.02,0,.03-.01.01,0,.03-.01.04-.02.01,0,.02,0,.03-.01.02,0,.03-.01.05-.02.02,0,.02,0,.04-.02.02,0,.04-.02.06-.03.02,0,.02,0,.04-.02.01,0,.03-.01.04-.02.01,0,.03-.01.04-.02.01,0,.02-.01.04-.02.02,0,.04-.02.05-.02.02,0,.04-.02.05-.02.02,0,.02,0,.04-.02.01,0,.03-.01.04-.02.01,0,.03-.01.04-.02.01,0,.03-.01.04-.02.01,0,.03-.01.04-.02.02,0,.05-.02.07-.03.01,0,.03-.01.04-.02.01,0,.02-.01.04-.02.01,0,.03-.01.04-.02.01,0,.02-.01.04-.02.02,0,.02-.01.04-.02.01,0,.02,0,.03-.01.03-.01.05-.02.08-.03,0,0,.02,0,.03-.01.02,0,.03-.01.04-.02.01,0,.02,0,.03-.01.02,0,.03-.01.04-.02,0,0,.02,0,.03-.01.03-.01.06-.02.09-.04,0,0,.02,0,.03-.01.02,0,.03-.01.05-.02,0,0,.02,0,.03-.01.02,0,.03-.01.05-.02,0,0,.01,0,.02,0,.03-.01.07-.03.1-.04,0,0,.01,0,.02,0,.02,0,.03-.01.05-.02,0,0,.02,0,.02,0,.02,0,.03-.01.05-.02,0,0,.01,0,.02,0,.04-.02.07-.03.11-.05,0,0,0,0,0,0,.02,0,.04-.01.05-.02,0,0,.02,0,.02-.01.02,0,.03-.01.05-.02,0,0,.01,0,.02,0,.05-.02.12-.05.17-.07,0,0,.01,0,.02,0,.02,0,.03-.01.05-.02,0,0,.01,0,.02,0,.05-.02.12-.05.18-.08h.01s.04-.02.06-.03c0,0,0,0,.01,0,.06-.03.12-.05.18-.08,0,0,0,0,.01,0,.02,0,.03-.01.06-.02,0,0,.01,0,.02,0,.06-.03.12-.05.18-.08,0,0,0,0,0,0,.02,0,.04-.02.06-.03,0,0,0,0,0,0,.07-.03.13-.05.19-.08,0,0,0,0,0,0,.02,0,.04-.02.06-.03,0,0,0,0,0,0,.02,0,.04-.02.06-.03,0,0,0,0,0,0,.07-.03.12-.05.19-.08,0,0,0,0,.01,0,.02,0,.04-.02.06-.03,0,0,0,0,0,0,.07-.03.12-.05.19-.08,0,0,0,0,0,0,.02,0,.04-.02.06-.03,0,0,0,0,.01,0,.07-.03.12-.05.19-.08,0,0,0,0,0,0,.02,0,.04-.02.06-.03,0,0,0,0,0,0,.07-.03.13-.06.19-.08h0s.04-.02.06-.03c0,0,0,0,0,0,.09-.04.17-.07.25-.11,0,0,0,0,0,0,.09-.04.17-.07.25-.11,0,0,0,0,0,0,.09-.04.17-.08.26-.11,0,0,0,0,0,0,.09-.04.17-.08.26-.12h0c2.86-1.28,5.69-2.63,8.48-4.04l-2.26-4.46h0Zm29.77-18.53c-6.22,4.68-12.77,9.04-19.49,12.95l2.52,4.32c.38-.22.76-.44,1.13-.67h0c.08-.05.16-.1.24-.14h0c.08-.05.16-.1.24-.14h0c.24-.14.48-.29.73-.43h0c.08-.05.16-.1.24-.14h0c.08-.05.16-.1.24-.15h0c.08-.05.16-.1.24-.15h0c5.84-3.54,11.48-7.36,16.91-11.45l-3.01-3.99h0Zm26.04-23.49c-5.29,5.7-10.98,11.14-16.9,16.18l3.24,3.81c.49-.42.98-.84,1.47-1.26h0s.03-.03.05-.05c0,0,0,0,0,0,.12-.11.24-.21.37-.32,0,0,0,0,0,0,.02-.02.03-.03.05-.04,0,0,0,0,0,0,.05-.05.1-.09.15-.13,0,0,0,0,0,0,.02-.02.03-.03.05-.04,0,0,0,0,0,0,.05-.04.1-.09.15-.13,0,0,0,0,.01-.01.02-.02.03-.02.05-.04,0,0,0,0,0,0,.04-.04.1-.09.14-.13,0,0,0,0,.01,0,.02-.02.03-.02.05-.04,0,0,0,0,0,0,.03-.03.07-.06.1-.08,0,0,0,0,0,0,.01-.01.03-.03.04-.04,0,0,.01,0,.02-.01.02-.02.03-.02.04-.04,0,0,0,0,.01-.01.03-.03.06-.06.09-.08,0,0,0,0,0,0,.01-.01.03-.03.04-.04,0,0,.01-.01.02-.02.01-.01.03-.02.04-.04,0,0,.01-.01.02-.02.03-.02.05-.04.07-.07,0,0,.01-.01.02-.02.01-.01.03-.02.04-.03,0,0,.01-.01.02-.02.01-.01.02-.02.04-.03,0,0,.01-.01.02-.02.03-.02.05-.04.08-.07,0,0,.01,0,.01-.01.01-.01.03-.03.04-.04,0,0,.01,0,.02-.01.01-.01.03-.03.04-.04,0,0,0,0,.01-.01.03-.02.06-.05.08-.07,0,0,0,0,.01-.01.01-.01.03-.02.04-.04,0,0,.01-.01.02-.02.01-.01.03-.03.04-.04,0,0,0,0,.01-.01.03-.02.06-.05.08-.07,0,0,0,0,.01-.01.01-.01.03-.02.04-.04,0,0,.01-.01.02-.02.01-.01.03-.02.04-.03,0,0,.01-.01.02-.02.03-.02.05-.04.08-.07,0,0,.01,0,.02-.01.01-.01.03-.03.04-.04,0,0,.01-.01.02-.02.01-.01.03-.02.04-.04,0,0,.01,0,.02-.01.03-.02.05-.05.08-.07,0,0,.01,0,.02-.01.01-.01.03-.02.04-.04,0,0,.01-.01.02-.02.01-.01.03-.03.04-.04,0,0,0,0,.01-.01.03-.02.05-.05.08-.07,0,0,0,0,.01-.01.01-.01.03-.03.04-.04,0,0,.01-.01.02-.02.01-.01.03-.03.04-.04,0,0,0,0,.01,0,.03-.02.06-.05.09-.08,0,0,0,0,.01,0,.01-.01.03-.03.04-.04,0,0,.01-.01.02-.02.01-.01.03-.02.04-.04,0,0,.01-.01.02-.02.03-.02.04-.04.07-.06,0,0,.01-.01.02-.02.01-.01.02-.02.04-.03,0,0,.01-.01.02-.02.01-.01.03-.02.04-.03,0,0,.01-.01.02-.02.03-.02.05-.04.07-.07,0,0,.01-.01.02-.02.01-.01.03-.02.04-.04,0,0,.01-.01.02-.02.01-.01.03-.02.04-.04,0,0,.01,0,.02-.01.02-.02.05-.04.07-.06,0,0,.02-.02.03-.02.01-.01.02-.02.03-.03,0,0,.02-.01.02-.02.01-.01.02-.02.04-.03,0,0,.02-.01.02-.02.02-.02.05-.04.06-.06,0,0,.02-.02.03-.02.01-.01.02-.02.03-.03,0,0,.02-.02.03-.02.01-.01.02-.02.03-.03,0,0,.02-.02.03-.03.02-.02.04-.04.06-.05,0,0,.02-.02.03-.03.01-.01.02-.02.03-.03,0,0,.02-.02.03-.02.01-.01.02-.02.03-.03,0,0,.02-.02.03-.02.02-.02.04-.04.06-.06,0,0,.02-.02.03-.02.01-.01.02-.02.04-.03,0,0,.01-.01.02-.02.01-.01.03-.02.04-.04,0,0,.01,0,.02-.01.03-.02.05-.04.07-.07,0,0,.02-.01.02-.02.01-.01.02-.02.04-.03,0,0,.01-.01.02-.02.01-.01.03-.02.04-.04,0,0,0,0,0,0,.03-.02.06-.05.08-.08,0,0,.01-.01.02-.02.01-.01.03-.02.04-.04,0,0,.01-.01.02-.02.01-.01.03-.03.04-.04,0,0,0,0,0,0,.03-.02.05-.05.08-.07,0,0,.01-.01.02-.02.01-.01.03-.02.04-.04,0,0,.01-.01.02-.02.01-.01.03-.03.04-.04,0,0,0,0,0,0,.03-.03.05-.05.08-.08,0,0,.01-.01.02-.02.02-.02.02-.02.04-.04,0,0,0,0,.01-.01.04-.04.09-.08.13-.12,0,0,.01-.01.02-.02.01-.01.03-.03.04-.04,0,0,.01-.01.02-.02.01-.01.03-.03.04-.04,0,0,0,0,0,0,.03-.03.06-.05.09-.08,0,0,.01-.01.02-.02.01-.01.02-.02.04-.04,0,0,.01-.01.02-.02.01-.01.03-.02.04-.04,0,0,0,0,0,0,.03-.02.05-.05.08-.07,0,0,.01-.01.02-.02.01-.01.03-.02.04-.04,0,0,.01-.01.02-.02.01-.01.03-.02.04-.04,0,0,0,0,0,0,.03-.03.05-.05.08-.08,0,0,.01-.01.02-.02.01-.01.03-.02.04-.04,0,0,.01-.01.02-.02.04-.04.09-.08.13-.12,0,0,0,0,.02-.01.02-.02.02-.02.04-.04,0,0,0,0,.01-.01.04-.04.1-.09.14-.13,0,0,0,0,.01-.01.02-.02.02-.02.04-.04,0,0,0,0,.01-.01.04-.04.09-.08.13-.12,0,0,.01-.01.02-.02.02-.02.02-.02.04-.04,0,0,0,0,.01-.01.04-.04.09-.09.13-.13,0,0,0,0,.01-.01.02-.02.03-.02.04-.04,0,0,0,0,.01-.01.04-.04.09-.09.14-.13,0,0,0,0,.01-.01.02-.02.02-.02.04-.04,0,0,0,0,.01-.01.04-.04.09-.09.14-.13,0,0,0,0,.01-.01.02-.02.03-.02.04-.04,0,0,0,0,.01-.01.04-.04.09-.09.14-.13,0,0,0,0,.01-.01.02-.02.03-.03.04-.04,0,0,0,0,.01,0,.04-.04.1-.09.14-.13,0,0,0,0,0,0,.02-.02.03-.03.04-.04,0,0,0,0,0,0,.05-.04.09-.09.14-.13,0,0,0,0,.01-.01.02-.02.03-.03.04-.04,0,0,0,0,0,0,.05-.04.09-.09.14-.13,0,0,0,0,.01,0,.02-.02.03-.03.04-.04,0,0,0,0,0,0,.05-.04.09-.09.14-.13,0,0,0,0,.01-.01.02-.02.03-.03.04-.04,0,0,0,0,0,0,.05-.05.09-.09.14-.14,0,0,0,0,0,0,.02-.02.03-.03.05-.05,0,0,0,0,0,0,.05-.05.09-.09.14-.14,0,0,0,0,0,0,.02-.02.03-.03.04-.04,0,0,0,0,0,0,.05-.04.09-.09.14-.14,0,0,0,0,.01-.01.02-.02.03-.03.04-.04,0,0,0,0,0,0,.05-.04.09-.09.14-.14,0,0,0,0,.01-.01.02-.02.03-.03.04-.04,0,0,0,0,0,0,.05-.05.09-.09.14-.14,0,0,0,0,0,0,.02-.02.03-.03.05-.04,0,0,0,0,0,0,.05-.05.09-.09.14-.14,0,0,0,0,.01-.01.02-.02.03-.03.04-.04,0,0,0,0,0,0,.05-.05.09-.09.14-.14,0,0,0,0,0,0,.02-.02.03-.03.05-.05h0s.1-.1.14-.14c0,0,0,0,.01-.01.02-.02.03-.03.04-.04,0,0,0,0,0,0,.05-.05.1-.1.14-.14,0,0,0,0,.01-.01.02-.02.03-.03.04-.04,0,0,0,0,0,0,.05-.05.09-.09.14-.14,0,0,.01-.01.02-.02.01-.01.03-.03.04-.04,0,0,0,0,0,0,.04-.04.09-.09.14-.14,0,0,0,0,.01-.01.02-.02.03-.03.04-.04,0,0,0,0,0,0,.04-.04.09-.09.13-.13,0,0,.01-.01.01-.01.01-.01.03-.03.04-.04,0,0,0,0,0,0,.05-.05.1-.1.14-.14,0,0,0,0,.01-.01.02-.02.03-.03.04-.04,0,0,0,0,0,0,.05-.05.1-.1.14-.14,0,0,0,0,.01-.01.01-.01.03-.03.04-.04,0,0,0,0,0,0,.05-.05.09-.09.14-.14,0,0,0,0,0,0,.06-.06.12-.13.19-.19,0,0,0,0,.01-.01.07-.07.12-.12.19-.19,0,0,0,0,0,0,.07-.07.12-.12.19-.19,0,0,0,0,0,0,.07-.07.12-.12.19-.19,0,0,0,0,.01-.01.05-.05.09-.09.14-.14,0,0,0,0,0,0,.01-.01.03-.03.04-.04,0,0,0,0,.01-.01.04-.04.09-.09.13-.14,0,0,0,0,0,0,.01-.01.03-.03.04-.04,0,0,.01-.01.02-.02.01-.01.03-.03.04-.04,0,0,0,0,0,0,.03-.03.06-.06.09-.1,0,0,0,0,0,0,.01-.01.03-.03.04-.04,0,0,.01-.01.02-.02.01-.01.03-.03.04-.04,0,0,0,0,0,0,.03-.03.06-.06.09-.1,0,0,0,0,0,0,.02-.02.03-.03.04-.04,0,0,0,0,.01-.01.04-.04.09-.09.13-.13,0,0,0,0,.01-.01.01-.01.02-.02.04-.04,0,0,.01-.01.02-.02.01-.01.02-.02.04-.04,0,0,0-.01.02-.02.02-.03.04-.04.07-.07,0,0,.01-.01.02-.02.01-.01.02-.02.03-.04,0,0,.01-.02.02-.02.01-.01.02-.02.03-.04,0,0,0,0,.01-.01.02-.03.05-.05.07-.07,0,0,.01-.01.02-.02.01-.01.02-.02.03-.03,0,0,.02-.02.03-.03.01-.01.02-.02.03-.03,0,0,.01-.02.02-.02.02-.02.04-.04.06-.06,0,0,.01-.02.02-.02.01-.01.02-.02.03-.03,0,0,.02-.02.03-.03.01-.01.02-.02.03-.03,0,0,.02-.02.03-.03.02-.02.04-.04.06-.06,0,0,.02-.02.03-.03,0,0,.02-.02.03-.03,0,0,.02-.02.03-.03.01-.01.02-.02.03-.03.01-.01.02-.02.03-.04.01-.01.03-.03.04-.04,0-.01.02-.02.03-.03,0,0,.02-.02.03-.03.01-.01.02-.02.03-.03,0,0,.02-.02.03-.03.02-.02.03-.03.05-.05,0,0,.02-.02.03-.03.01-.01.02-.02.03-.03,0,0,.02-.02.02-.03.01-.01.02-.03.04-.04,0,0,.01-.01.02-.02.02-.02.04-.04.05-.06,0,0,0,0,.02-.02.01-.01.03-.03.04-.04,0,0,.02-.02.02-.03.01-.01.02-.03.04-.04,0,0,.01-.01.02-.02.02-.02.04-.04.05-.06,0,0,0,0,.02-.02.01-.01.03-.03.04-.04,0,0,.01-.01.02-.02.01-.01.03-.03.04-.04,0,0,.01-.01.02-.02.02-.02.04-.04.06-.06,0,0,0,0,.02-.02.01-.01.03-.03.04-.04,0,0,.01-.01.02-.02.01-.01.03-.03.04-.04,0,0,0-.01.02-.02.02-.02.04-.04.06-.06,0,0,0-.01.02-.02.01-.01.03-.03.04-.04,0,0,.01-.01.02-.02.02-.02.03-.03.05-.05,0,0,0,0,.01-.01.02-.02.04-.04.06-.06,0,0,0,0,0,0,.02-.02.03-.03.05-.05,0,0,0-.01.02-.02.02-.02.03-.03.05-.05h0s.04-.05.06-.07c0,0,0,0,0,0,.02-.02.04-.04.05-.06h.01s.04-.05.05-.07h0s.04-.05.06-.07h0s.04-.04.06-.06h.01s.04-.05.06-.07h0s.04-.05.06-.07h0s.04-.04.06-.07h0s.04-.05.06-.07h0s.08-.09.12-.13h0s-3.66-3.41-3.66-3.41h0Zm21.5-27.7c-4.2,6.54-8.84,12.89-13.79,18.9l3.86,3.18c2.26-2.74,4.45-5.55,6.57-8.41h0c.05-.08.11-.15.16-.22h0s.03-.05.05-.08h0c.04-.05.07-.1.11-.15,0,0,0-.01.01-.02.01-.02.03-.04.04-.06h0s.03-.06.05-.08c0,0,0,0,0,0,.01-.02.03-.04.04-.06,0,0,0-.01.01-.02.01-.02.02-.03.04-.05,0,0,0-.01.01-.02.02-.02.03-.04.05-.07,0,0,0-.01.01-.02.01-.02.02-.03.04-.05,0,0,.01-.02.02-.03.01-.01.02-.03.03-.04,0,0,.01-.01.02-.02.01-.02.03-.04.04-.06,0,0,.02-.02.02-.03,0-.01.02-.03.03-.04,0,0,.02-.02.02-.03,0-.01.02-.02.02-.03.01-.01.01-.02.02-.03.01-.01.02-.03.03-.04.01-.01.03-.04.04-.05,0,0,.01-.02.02-.03,0,0,.02-.03.03-.04,0,0,.01-.02.02-.03.01-.01.02-.02.03-.04,0,0,0-.01.01-.02.02-.03.04-.05.06-.08,0,0,0-.01.01-.02.01-.02.02-.03.03-.05,0,0,0,0,.01-.01.03-.05.08-.11.11-.15,0,0,0,0,0-.01.01-.02.02-.03.04-.05,0,0,0,0,0-.01.04-.05.08-.11.12-.16h0s.03-.04.04-.06h0c2.09-2.91,4.11-5.87,6.05-8.89l-4.21-2.7h0Zm16.26-31.06c-2.98,7.18-6.42,14.25-10.23,21.04l4.36,2.45c.61-1.08,1.21-2.18,1.8-3.27h0c.09-.16.18-.33.26-.49,0,0,0,0,0,0,.03-.05.06-.11.09-.16h0s.03-.05.04-.08h0c.04-.09.08-.17.13-.25h0c.04-.09.08-.17.13-.25h0s.03-.06.04-.08h0c.03-.06.06-.11.08-.16,0,0,0,0,0-.01.01-.02.02-.04.04-.07h0s.03-.06.04-.09c0,0,0,0,0,0,.01-.02.02-.05.04-.07,0,0,0-.01,0-.02.01-.02.02-.04.03-.06,0,0,0-.01,0-.02.01-.03.03-.05.04-.08h0s.02-.05.04-.07c0,0,.01-.02.01-.03,0-.02.02-.03.03-.05,0,0,0-.02.01-.02.01-.02.02-.05.04-.07h0s.02-.06.04-.08c0,0,0-.02.01-.02,0-.02.02-.04.03-.05,0,0,0-.02.01-.02.01-.02.02-.04.03-.07,0,0,0,0,0,0,.01-.02.03-.05.04-.07,0,0,.01-.02.01-.03,0-.02.02-.03.03-.05,0-.01,0-.02.01-.03,0-.02.02-.04.03-.06,0,0,0-.02.01-.02.01-.02.02-.05.04-.07,0-.01,0-.02.01-.03,0-.02.02-.03.02-.05,0-.01,0-.02.01-.03,0-.02.02-.04.03-.05,0,0,0-.02.01-.02.01-.02.02-.05.04-.07,0-.01,0-.02.01-.03,0-.02.02-.03.02-.05,0-.01,0-.02.01-.03,0-.02.02-.03.03-.05,0-.01,0-.01.01-.02.01-.02.02-.05.04-.07,0-.01,0-.01.01-.02,0-.02.02-.03.03-.05,0-.01.01-.02.02-.03,0-.02.02-.03.03-.05,0-.01,0-.01.01-.03.01-.02.02-.05.04-.07,0-.01,0-.02.01-.03,0-.02.02-.03.02-.05,0-.01.01-.02.02-.03,0-.01.02-.03.02-.04,0-.01.01-.02.02-.03.01-.02.02-.04.03-.07,0-.01.01-.02.02-.03,0-.01.01-.03.02-.04,0-.01.01-.02.02-.03,0-.01.01-.03.02-.04,0-.01.01-.02.02-.03,0-.02.02-.03.02-.05,0-.02.02-.04.03-.05,0-.01.01-.03.02-.04,0-.01.01-.03.02-.04,0-.01.01-.03.02-.04,0-.02.01-.02.02-.04,0-.01.02-.03.02-.04.01-.02.02-.04.03-.06,0-.01.01-.02.02-.04,0-.02.01-.02.02-.04,0-.01.01-.02.02-.04,0-.02.01-.02.02-.04,0-.01.01-.02.02-.03.01-.02.03-.05.04-.07,0-.01.01-.02.02-.03,0-.02.01-.03.02-.04,0,0,.01-.02.02-.03,0-.02.01-.03.02-.05,0,0,0-.02.01-.02.01-.03.03-.05.04-.08,0-.01.01-.02.02-.03,0-.02.01-.03.02-.04,0-.01.01-.02.02-.03,0-.02.01-.02.02-.04,0-.01.01-.02.02-.03.02-.03.02-.05.04-.08,0,0,0-.02.01-.03,0-.02.01-.03.02-.04,0-.01.01-.02.02-.03,0-.01.02-.03.02-.04,0-.01,0-.02.01-.03.02-.03.03-.05.04-.09,0,0,0-.01,0-.02,0-.02.01-.03.02-.04,0-.01.01-.02.02-.03,0-.01.01-.03.02-.04,0-.01.01-.02.02-.03.03-.05.05-.1.07-.15,0,0,0-.02.01-.03,0-.01.02-.04.02-.05,0,0,0-.02.01-.02.03-.05.05-.1.08-.16,0,0,0-.02.01-.03,0-.02.02-.03.02-.05,0,0,0-.01.01-.02.03-.05.05-.11.08-.16,0,0,0-.02.01-.02,0-.02.02-.03.02-.05,0,0,0-.01.01-.02.03-.05.05-.11.08-.16,0,0,0-.01.01-.02,0-.02.02-.03.02-.05,0,0,0-.01.01-.02,0-.02.02-.04.03-.05,0,0,0,0,0,0,.02-.04.04-.07.06-.12,0,0,0,0,0,0,.01-.02.02-.03.03-.05,0,0,0,0,0-.01.01-.02.02-.03.03-.06,0,0,0,0,0,0,.02-.04.04-.07.05-.11,0,0,0-.01,0-.02,0-.02.02-.03.02-.05,0,0,0-.01.01-.02,0-.02.02-.04.03-.05,0,0,0,0,0-.01.02-.04.04-.07.05-.11,0,0,0,0,0,0,0-.02.02-.04.03-.05,0,0,0-.01,0-.02.01-.02.02-.03.03-.05,0,0,0,0,0,0,.03-.06.06-.12.08-.17,0,0,0-.01,0-.02.01-.02.02-.03.03-.05,0,0,0,0,0-.01.03-.05.06-.12.08-.17,0,0,0,0,0-.01.01-.02.02-.03.03-.05,0,0,0,0,0-.01.03-.06.06-.12.08-.17,0,0,0,0,0-.01.01-.02.02-.04.03-.06,0,0,0,0,0,0,.03-.06.06-.11.09-.18,0,0,0,0,0-.01.01-.02.02-.03.03-.06,0,0,0,0,0-.01.03-.05.06-.12.08-.17,0,0,0,0,0-.01.01-.02.02-.03.03-.05,0,0,0-.01,0-.02.03-.06.06-.12.09-.18,0,0,0,0,0,0,.01-.02.02-.03.03-.06,0,0,0,0,0-.01.03-.06.06-.12.09-.18,0,0,0,0,0,0,.01-.02.02-.03.03-.06,0,0,0-.01,0-.02,0-.02.02-.04.03-.05,0,0,0,0,0,0,.03-.06.06-.12.09-.18,0,0,0-.01,0-.02.01-.02.02-.03.03-.05,0,0,0,0,0-.01.02-.04.04-.08.05-.11,0,0,0,0,0,0,0-.02.02-.04.02-.05,0,0,0-.01,0-.02,0-.02.02-.04.03-.05,0,0,0,0,0,0,.03-.06.05-.12.08-.18,0,0,0-.01,0-.02.01-.02.02-.03.03-.05,0,0,0,0,0-.01.03-.05.06-.12.08-.17,0,0,0,0,0-.01.01-.02.02-.03.03-.06,0,0,0,0,0-.01.03-.05.06-.12.08-.17,0,0,0-.01,0-.02.01-.02.01-.03.02-.05,0,0,0-.01,0-.02.02-.05.05-.11.08-.17,0,0,0-.01,0-.02,0-.02.02-.03.03-.05,0,0,0,0,0-.01.02-.05.06-.12.08-.17,0,0,0-.01,0-.02,0-.02.02-.03.02-.05,0,0,0-.01.01-.02,0-.02.02-.03.02-.05,0,0,0,0,0-.01.01-.03.03-.07.05-.1,0,0,0-.01,0-.02,0-.02.02-.03.02-.05,0,0,0-.02.01-.02,0-.02.02-.03.02-.05,0,0,0,0,0-.01.01-.03.03-.07.05-.11,0,0,0,0,0-.01,0-.02.02-.04.02-.05,0,0,0-.02.01-.02,0-.02.01-.03.02-.05,0,0,0-.02.01-.02.01-.03.03-.07.05-.1,0,0,0,0,0-.01,0-.02.02-.04.02-.05,0,0,0-.01,0-.02,0-.02.02-.04.02-.05,0,0,0-.01,0-.02.02-.05.05-.12.08-.17,0,0,0-.01,0-.02,0-.02.02-.03.02-.05,0,0,0-.01,0-.02.02-.05.05-.12.08-.17,0,0,0-.01,0-.02,0-.02.01-.03.02-.05,0,0,0-.01,0-.02.02-.05.05-.11.08-.17,0,0,0-.01,0-.02,0-.02.01-.03.02-.05,0,0,0-.02.01-.02.02-.05.05-.12.08-.17,0,0,0,0,0-.01,0-.02.01-.03.02-.05,0,0,0-.01,0-.02.02-.05.05-.12.08-.17,0,0,0-.01,0-.02,0-.02.02-.03.02-.05,0,0,0-.02.01-.02.02-.05.05-.11.07-.17,0,0,0-.01,0-.02,0-.02.02-.03.02-.05,0,0,0-.02.01-.03,0-.02.01-.03.02-.05,0,0,0,0,0,0,.02-.04.03-.07.05-.11,0,0,0-.01,0-.02,0-.02.01-.03.02-.05,0,0,0-.02.01-.03,0-.02.01-.03.02-.05,0,0,0-.01,0-.02.01-.03.03-.06.04-.1,0,0,0-.01,0-.02,0-.02.01-.03.02-.05,0,0,0-.02.01-.03,0-.02.01-.03.02-.05,0,0,0-.01,0-.02.01-.03.03-.06.04-.09,0,0,0-.01,0-.02,0-.02.01-.03.02-.05,0,0,0-.02.01-.03,0-.02.01-.03.02-.05,0,0,0-.01,0-.02.01-.03.03-.07.04-.1,0,0,0-.01,0-.02,0-.02.01-.03.02-.05,0,0,0-.02.01-.03,0-.02.01-.03.02-.04,0,0,0-.02.01-.03.01-.03.03-.06.04-.1,0,0,0,0,0-.01,0-.02.01-.03.02-.04,0-.01,0-.02.01-.03,0-.02.01-.03.02-.04,0,0,0-.02.01-.03.01-.03.03-.06.04-.1,0,0,0,0,0-.01,0-.02.01-.03.02-.04,0-.01,0-.02.01-.03,0-.01.01-.03.02-.04,0,0,0-.02.01-.03,0-.02.02-.04.03-.06,0-.02.02-.03.02-.05,0-.02.01-.02.02-.04,0-.01.01-.02.02-.04,0-.01.01-.03.02-.04,0-.01,0-.02.01-.03,0-.02.01-.03.02-.04,0-.01.01-.02.02-.04.01-.03.02-.04.03-.07,0-.01,0-.02.01-.03,0-.01.01-.03.02-.04,0,0,0-.02.01-.03,0-.02.01-.03.02-.05,0-.01.01-.02.02-.04,0-.02.02-.05.03-.07,0-.01.01-.03.02-.04,0-.01.01-.03.02-.04,0-.01.01-.03.02-.04,0-.02,0-.02.02-.04,0-.01.01-.03.02-.04,0-.02.02-.04.03-.06,0-.01.01-.03.02-.04,0-.01.01-.03.02-.04,0-.01.01-.02.02-.04,0-.02.01-.02.02-.04,0-.01.01-.03.02-.04,0-.02.02-.04.03-.06,0-.01.01-.03.02-.04,0-.02,0-.02.02-.04,0-.01.01-.02.02-.04,0-.02,0-.02.02-.04,0-.01.01-.03.02-.04,0-.02.02-.04.02-.06,0-.01.01-.03.02-.05,0-.02,0-.02.02-.04,0-.01.01-.03.02-.04,0-.01.01-.03.02-.04,0-.01.01-.03.02-.04,0-.02.02-.04.02-.05,0-.02.01-.03.02-.05,0-.02,0-.02.02-.04,0-.01.01-.03.02-.04,0-.01.01-.03.02-.04,0-.01.01-.02.02-.04,0-.02.02-.04.03-.07,0-.01.01-.03.02-.04,0-.02,0-.02.02-.04,0-.01.01-.02.02-.04,0-.01.01-.03.02-.04,0-.01.01-.03.02-.04,0-.01,0-.02.01-.03,0-.02.02-.05.03-.07,0-.01.01-.02.01-.04,0-.01.01-.03.02-.04,0-.01.01-.03.02-.04,0-.01.01-.03.02-.04,0-.01.01-.03.02-.04,0-.02.02-.05.03-.07,0-.01,0-.02.01-.03,0-.01.01-.03.02-.04,0-.01.01-.03.02-.04,0-.01.01-.03.02-.04,0-.01.01-.02.01-.03,0-.02.02-.05.03-.07,0-.01,0-.02.01-.03,0-.02.01-.03.02-.05,0-.01,0-.02.01-.03,0-.01.01-.03.02-.04,0-.01.01-.03.02-.04,0-.02.02-.05.03-.07,0-.01,0-.02.01-.03,0-.02.01-.03.02-.05,0-.01.01-.02.01-.04,0-.01.01-.03.02-.04,0-.02,0-.02.01-.04,0-.02.02-.04.03-.06,0,0,0,0,0-.01l-4.62-1.92h0Zm10.48-33.45c-1.65,7.6-3.78,15.18-6.32,22.52l4.72,1.64c.49-1.41.96-2.82,1.42-4.24h0s.02-.06.03-.09h0c.03-.09.05-.18.08-.26h0s.02-.07.02-.09h0c.02-.06.04-.12.05-.18,0,0,0,0,0-.01,0-.02.01-.05.02-.07,0,0,0-.01,0-.02.02-.06.04-.11.05-.17,0,0,0-.01,0-.02,0-.02.01-.05.02-.07,0,0,0-.01,0-.02,0-.03.02-.05.02-.08,0,0,0,0,0,0,0-.03.02-.06.03-.08h0s.01-.06.02-.08c0-.01,0-.01,0-.02,0-.02.01-.04.02-.06,0,0,0-.01,0-.02,0-.03.02-.05.03-.08,0,0,0-.01,0-.02,0-.02.01-.04.02-.07,0,0,0-.02,0-.03,0-.02.01-.04.02-.06,0,0,0-.02,0-.03,0-.02.01-.05.02-.07,0,0,0,0,0-.01,0-.03.02-.05.02-.08,0,0,0-.02,0-.03,0-.02.01-.04.02-.06,0-.01,0-.02,0-.03,0-.02.01-.04.02-.06,0-.01,0-.01,0-.02,0-.03.02-.05.02-.08,0-.01,0-.02,0-.03,0-.02.01-.03.02-.05,0-.01,0-.02.01-.03,0-.02.01-.03.02-.05,0-.01,0-.02,0-.03,0-.03.02-.05.02-.08,0,0,0-.01,0-.02,0-.02.01-.04.02-.06,0-.01,0-.02.01-.03,0-.02,0-.03.01-.05,0-.01,0-.02.01-.04,0-.02.01-.04.02-.06,0,0,0-.02,0-.03,0-.02.01-.05.02-.07,0-.01,0-.02.01-.04,0-.02,0-.03.01-.05,0-.01,0-.03.01-.04,0-.01,0-.03.01-.04,0-.01,0-.02.01-.04,0-.02.01-.05.02-.07,0-.01,0-.02.01-.03,0-.01,0-.03.01-.05,0-.01,0-.03.01-.04,0-.01,0-.03.01-.05,0-.01,0-.02.01-.03,0-.02.01-.04.02-.06,0-.02,0-.03.01-.05,0-.02,0-.03.01-.05,0-.01,0-.02.01-.04,0-.01,0-.03.01-.04,0-.01,0-.02.01-.04,0-.02.01-.04.02-.05,0-.02,0-.02.01-.04,0-.02.01-.04.02-.06,0-.02,0-.02.01-.04,0-.01,0-.03.01-.04,0-.01,0-.03.01-.04,0-.01,0-.03.01-.04,0-.01,0-.03.01-.04,0-.02.01-.05.02-.07,0-.01,0-.03.01-.04,0-.01,0-.03.01-.04,0-.01,0-.03.01-.04,0-.01,0-.03.01-.04,0-.02,0-.02.01-.04,0-.01,0-.02.01-.04,0-.02.02-.06.02-.08,0-.01,0-.02,0-.03,0-.02,0-.03.01-.04,0-.01,0-.02.01-.03,0-.02,0-.03.01-.05,0,0,0-.02,0-.03,0-.03.02-.06.02-.08,0-.01,0-.02,0-.03,0-.02,0-.03.01-.04,0-.01,0-.03.01-.04,0-.01,0-.03.01-.04,0-.01,0-.02,0-.03.02-.06.03-.1.05-.16,0-.01,0-.02.01-.04,0-.01.01-.03.01-.05,0-.01,0-.02,0-.03,0-.02,0-.03.01-.05,0,0,0-.02,0-.03,0-.03.02-.06.03-.09,0-.01,0-.02,0-.03,0-.02,0-.03.01-.05,0-.01,0-.02,0-.03,0-.02,0-.03.01-.05,0-.01,0-.02,0-.03.01-.03.02-.06.03-.09,0,0,0-.02,0-.02,0-.02,0-.03.01-.05,0-.01,0-.02,0-.03,0-.01.01-.03.01-.05,0-.01,0-.02,0-.03,0-.02,0-.03.01-.05,0-.02.01-.05.02-.07,0-.02,0-.03.01-.05,0-.01,0-.02,0-.03,0-.02,0-.03.01-.05,0-.01,0-.02,0-.03,0-.02,0-.03.01-.05,0,0,0-.02,0-.03,0-.03.02-.05.03-.09,0-.01,0-.02,0-.03,0-.02,0-.03.01-.05,0-.01,0-.02,0-.03,0-.02,0-.03.01-.05,0-.01,0-.02,0-.03,0-.02.01-.05.02-.07,0-.01,0-.03.01-.04,0-.02,0-.03.01-.05,0-.01,0-.02,0-.03,0-.01.01-.04.01-.05,0,0,0-.02,0-.03,0-.02,0-.03.01-.05,0,0,0-.02,0-.02,0-.03.02-.06.03-.09,0-.01,0-.02.01-.04,0-.01,0-.03.01-.04,0-.01,0-.02.01-.04,0-.02,0-.03.01-.04,0-.01,0-.03.01-.04,0-.02.02-.05.02-.08,0-.01,0-.02,0-.03,0-.02,0-.03.01-.04,0-.01,0-.02,0-.03,0-.01,0-.03.01-.05,0-.01,0-.02,0-.03,0-.03.02-.06.03-.09,0,0,0-.01,0-.02,0-.02,0-.03.01-.05,0-.01,0-.02,0-.03,0-.01,0-.03.01-.04,0-.01,0-.03.01-.04,0-.02,0-.02.01-.04,0-.02.01-.04.02-.06,0-.02.01-.04.02-.05,0-.01,0-.03.01-.04,0-.01,0-.03.01-.04,0-.01,0-.03.01-.04,0-.02,0-.02.01-.04,0-.02,0-.03.01-.05,0-.01,0-.03.01-.04,0-.02.01-.04.02-.06,0-.01,0-.02,0-.03,0-.02,0-.03.01-.05,0-.01,0-.03.01-.04,0-.02,0-.03.01-.05,0-.01,0-.02,0-.03,0-.02.01-.05.02-.08,0-.01,0-.02,0-.03,0-.02,0-.03.01-.05,0-.01,0-.02.01-.04,0-.02,0-.03.01-.04,0-.01,0-.03.01-.04,0-.02.01-.04.02-.07,0-.01,0-.03.01-.04,0-.02,0-.03.01-.05,0-.01,0-.03.01-.04,0-.01,0-.03.01-.04,0-.02,0-.02.01-.04,0-.01,0-.03.01-.04,0-.02.01-.04.02-.06,0-.02,0-.03.01-.05,0-.02,0-.02,0-.04,0-.02,0-.03.01-.05,0-.01,0-.03.01-.04,0-.02,0-.03.01-.05,0-.01,0-.02,0-.03,0-.03.01-.05.02-.08,0-.01,0-.02,0-.03,0-.02,0-.03.01-.05,0-.01,0-.02,0-.03,0-.02,0-.03.01-.05,0-.01,0-.02,0-.03,0-.03.01-.05.02-.08,0,0,0-.02,0-.02,0-.02.01-.04.02-.06,0-.01,0-.02,0-.03,0-.02,0-.03.01-.05,0,0,0-.03,0-.03,0-.02.01-.05.02-.07,0,0,0,0,0,0,0-.03.01-.05.02-.08,0,0,0-.02,0-.03,0-.02,0-.04.01-.06,0-.01,0-.02,0-.03,0-.02.01-.04.02-.06,0,0,0-.01,0-.02,0-.03.01-.05.02-.08,0-.01,0-.01,0-.02,0-.02.01-.04.02-.06,0-.01,0-.02,0-.03,0-.02.01-.04.02-.06,0,0,0-.02,0-.02,0-.03.01-.06.02-.08,0,0,0,0,0,0,0-.03.01-.05.02-.08,0,0,0-.02,0-.02,0-.02.01-.04.02-.06,0,0,0-.02,0-.02,0-.03.01-.05.02-.08h0s.01-.06.02-.09c0,0,0-.01,0-.02,0-.02.01-.04.02-.07,0,0,0-.02,0-.02,0-.02.01-.05.02-.07,0,0,0,0,0-.01,0-.03.01-.06.02-.09t0-.01s.01-.05.02-.07c0,0,0,0,0-.02,0-.02.01-.05.02-.07h0c.01-.07.03-.13.04-.18,0,0,0,0,0-.02,0-.02.01-.05.02-.08,0,0,0,0,0-.01.02-.06.03-.12.04-.17h0s.01-.06.02-.08c0,0,0-.01,0-.02,0-.03.01-.05.02-.08h0s.02-.06.02-.09h0s.01-.06.02-.09c0,0,0,0,0-.01,0-.03.01-.05.02-.08h0c.02-.07.03-.13.04-.19,0,0,0,0,0,0,0-.03.01-.05.02-.08,0,0,0,0,0,0,.02-.09.05-.18.07-.27h0c.02-.09.05-.18.07-.27h0s.01-.06.02-.09h0c.01-.06.03-.12.04-.18,0,0,0,0,0,0,0-.03.01-.06.02-.08,0,0,0,0,0,0,.02-.09.04-.18.07-.27h0c.02-.09.04-.19.07-.28h0c.05-.21.1-.43.16-.64h0c.07-.31.15-.61.22-.92h0c.29-1.22.57-2.45.84-3.68h0s-4.89-1.06-4.89-1.06h0Zm9.12-34.62h-5v4.94c-.38,6.07-1.04,12.19-1.98,18.17l4.94.77c.95-6.08,1.62-12.25,2.02-18.49h0s0-.05,0-.07c0-.07,0-.15.01-.22h0v-5.1h0Zm-1.57-35.92l-4.95.69c.69,4.96,1.2,10.02,1.52,15.03v8.19h5v-8.35h0s0-.04,0-.07c0,0,0-.01,0-.02,0-.01,0-.04,0-.05,0,0,0-.02,0-.03,0-.01,0-.03,0-.04,0,0,0-.02,0-.03,0-.01,0-.03,0-.04,0-.01,0-.02,0-.03,0-.02,0-.04,0-.06,0,0,0-.02,0-.03,0-.01,0-.03,0-.04,0-.01,0-.02,0-.03,0-.01,0-.02,0-.04,0-.01,0-.02,0-.04,0-.01,0-.02,0-.03,0-.01,0-.03,0-.04,0,0,0-.02,0-.03,0-.03,0-.06,0-.09,0,0,0,0,0-.01,0-.01,0-.03,0-.04,0,0,0-.02,0-.03,0-.01,0-.03,0-.04,0-.01,0-.01,0-.03,0-.01,0-.03,0-.04,0,0,0-.01,0-.02,0-.02,0-.03,0-.05h0c0-.07,0-.13-.01-.18h0s0-.04,0-.06h0s0-.05,0-.07h0c0-.1-.01-.21-.02-.31h0c-.33-4.71-.82-9.36-1.46-13.97h0Zm-8.13-35.02l-4.75,1.56c2.43,7.38,4.43,14.99,5.96,22.62l4.9-.98c-.76-3.8-1.63-7.56-2.6-11.28h0c-.03-.12-.06-.24-.09-.36,0,0,0,0,0,0-.02-.09-.05-.18-.07-.27h0c-.02-.09-.05-.18-.07-.27,0,0,0,0,0,0,0-.03-.02-.06-.02-.09h0c-.02-.06-.03-.12-.05-.18h0s-.01-.06-.02-.09c0,0,0,0,0,0-.02-.06-.03-.12-.05-.18h0s-.01-.06-.02-.08c0,0,0,0,0-.01,0-.03-.01-.05-.02-.08h0c-.02-.07-.03-.12-.05-.18t0-.01s-.01-.05-.02-.07c0,0,0-.01,0-.02-.02-.06-.03-.11-.05-.17h0s-.01-.06-.02-.08c0,0,0-.01,0-.02,0-.02-.01-.05-.02-.08h0c-.02-.07-.03-.12-.05-.18,0,0,0-.01,0-.02,0-.02-.01-.05-.02-.07,0,0,0,0,0-.01-.02-.06-.03-.11-.05-.17,0,0,0-.01,0-.02,0-.02-.01-.05-.02-.07,0,0,0-.01,0-.02-.02-.06-.03-.11-.05-.17,0,0,0-.01,0-.02,0-.02-.01-.05-.02-.07,0-.01,0,0,0-.02,0-.02-.01-.04-.02-.07v-.02s-.02-.05-.03-.08c0,0,0-.01,0-.02,0-.02-.01-.04-.02-.06,0-.01,0-.02,0-.03,0-.02-.01-.04-.02-.05,0,0,0-.02,0-.03,0-.02-.01-.05-.02-.07,0,0,0,0,0-.02,0-.03-.01-.05-.02-.08,0,0,0-.02,0-.03,0-.02-.01-.04-.02-.05,0-.01,0-.02,0-.03,0-.02-.01-.04-.02-.06,0,0,0-.02,0-.02,0-.03-.01-.05-.02-.08,0-.01,0-.01,0-.02,0-.02-.01-.04-.02-.06,0-.01,0-.02,0-.03,0-.02-.01-.04-.02-.05,0-.01,0-.02,0-.03,0-.03-.01-.05-.02-.08,0,0,0-.02,0-.02,0-.02-.01-.04-.02-.06,0-.01,0-.02,0-.03,0-.02,0-.03-.01-.05,0-.01,0-.02,0-.03,0-.02,0-.03-.01-.05,0-.02,0-.03-.01-.05,0-.02-.01-.04-.02-.06,0-.01,0-.02,0-.03,0-.02,0-.03-.01-.05,0-.01,0-.03-.01-.04,0-.01,0-.03-.01-.04,0-.01,0-.02-.01-.04,0-.02-.01-.05-.02-.07,0-.01,0-.03-.01-.04,0-.01,0-.03-.01-.04,0-.01,0-.03-.01-.04,0-.01,0-.03-.01-.04,0-.02,0-.02-.01-.04,0-.02-.01-.04-.02-.05,0-.02,0-.03-.01-.05,0-.02,0-.03-.01-.05,0-.02,0-.02-.01-.04,0-.01,0-.03-.01-.04,0-.01,0-.03-.01-.04,0-.01,0-.02-.01-.04,0-.02-.02-.06-.02-.08,0-.01,0-.02,0-.03,0-.02,0-.03-.01-.05,0-.01,0-.02,0-.03,0-.01-.01-.04-.01-.05,0-.01,0-.02,0-.03,0-.02,0-.03-.01-.05,0,0,0-.01,0-.02-.01-.03-.02-.06-.03-.1,0,0,0-.02,0-.03,0-.02,0-.03-.01-.05,0,0,0-.02,0-.03,0-.02-.01-.04-.02-.05,0,0,0,0,0-.01-.01-.04-.02-.08-.03-.12,0,0,0,0,0,0,0-.02-.01-.04-.02-.06,0,0,0-.02,0-.02,0-.02-.01-.04-.02-.05,0,0,0-.01,0-.02-.02-.06-.04-.13-.05-.18,0,0,0-.01,0-.02,0-.02-.01-.03-.02-.06,0,0,0-.01,0-.02-.02-.06-.04-.13-.06-.19,0,0,0,0,0,0,0-.02-.01-.04-.02-.06,0,0,0-.01,0-.02,0-.02-.01-.04-.02-.06,0,0,0,0,0,0-.02-.07-.04-.13-.06-.19,0,0,0,0,0,0,0-.02-.01-.04-.02-.06,0,0,0,0,0,0-.02-.07-.04-.13-.06-.2,0,0,0,0,0,0,0-.02-.01-.04-.02-.06,0,0,0,0,0-.01-.03-.09-.05-.17-.08-.27,0,0,0,0,0,0-.44-1.44-.89-2.88-1.36-4.31h0Zm-14.23-33.02l-4.4,2.38c3.7,6.84,7.03,13.97,9.89,21.2l4.65-1.84s0,0,0-.01c0-.02-.02-.04-.03-.07,0,0,0,0,0-.01-.01-.03-.02-.05-.03-.08,0,0,0,0,0,0,0-.02-.02-.05-.03-.07,0,0,0-.01,0-.02,0-.02-.02-.05-.03-.07h0s-.02-.07-.03-.09h0s-.02-.05-.03-.08c0,0,0-.01,0-.02,0-.02-.02-.05-.03-.07h0s-.02-.07-.03-.1h0s-.02-.05-.03-.08c0,0,0-.01,0-.02,0-.02-.02-.05-.03-.07,0,0,0,0,0-.01-.02-.06-.04-.11-.07-.17,0,0,0,0,0-.01,0-.02-.02-.05-.03-.07,0,0,0,0,0-.01-.02-.06-.04-.11-.07-.17,0,0,0,0,0,0,0-.02-.02-.05-.03-.07,0,0,0,0,0-.01-.02-.06-.04-.11-.07-.17h0s-.02-.06-.03-.08c0,0,0,0,0-.01-.02-.06-.05-.11-.07-.17h0s-.02-.06-.03-.08c0,0,0,0,0-.01-.01-.03-.02-.05-.03-.08,0,0,0,0,0,0-.01-.03-.02-.06-.03-.09h0s-.02-.06-.03-.08h0s-.02-.07-.03-.09h0s-.02-.06-.04-.09h0s-.02-.05-.03-.08c0,0,0,0,0-.01-.01-.03-.02-.05-.03-.08h0c-.02-.06-.05-.12-.07-.17,0,0,0-.01,0-.02,0-.02-.02-.04-.03-.07,0,0,0-.01,0-.02-.02-.05-.04-.11-.07-.16,0,0,0,0,0-.01,0-.02-.02-.05-.03-.07t0-.01c-.02-.05-.05-.11-.07-.17,0,0,0,0,0-.01,0-.02-.02-.05-.03-.07,0,0,0,0,0-.01-.02-.05-.05-.11-.07-.16,0,0,0,0,0-.01-.01-.02-.02-.05-.03-.07,0,0,0,0,0-.01-.02-.06-.05-.11-.07-.17h0s-.02-.06-.03-.08c0,0,0,0,0-.01-.02-.05-.05-.11-.07-.16h0s-.02-.06-.03-.08c0,0,0,0,0-.01-.01-.02-.02-.05-.03-.08,0,0,0,0,0,0-.01-.03-.02-.06-.03-.08h0s-.02-.06-.03-.08h0s-.02-.07-.03-.09h0s-.02-.06-.04-.09h0s-.02-.06-.03-.08h0s-.02-.06-.03-.09h0c-.02-.06-.05-.12-.07-.17,0,0,0,0,0-.02-.01-.02-.02-.05-.03-.07h0c-.02-.06-.05-.12-.07-.17,0,0,0,0,0,0-.01-.03-.02-.05-.03-.08h0c-.02-.06-.05-.12-.07-.17,0,0,0,0,0,0-.01-.02-.02-.05-.03-.07,0,0,0,0,0,0-.02-.06-.05-.11-.07-.17h0s-.02-.06-.03-.08c0,0,0,0,0,0-.02-.06-.05-.11-.07-.17h0s-.02-.06-.03-.08c0,0,0,0,0,0-.04-.08-.07-.17-.11-.25h0c-.04-.09-.07-.18-.11-.26h0s-.02-.06-.04-.09h0c-.02-.06-.05-.11-.07-.17h0s-.02-.06-.03-.09h0c-.02-.06-.05-.11-.07-.17,0,0,0,0,0,0-.01-.03-.02-.05-.03-.08h0c-.02-.06-.05-.12-.07-.17,0,0,0,0,0-.01-.01-.03-.02-.05-.03-.08h0c-.02-.06-.05-.12-.08-.17h0s-.02-.06-.04-.08h0c-.03-.06-.05-.12-.08-.17h0s-.03-.06-.04-.08c0,0,0,0,0,0-.03-.06-.05-.11-.08-.17h0s-.02-.06-.04-.08c0,0,0,0,0,0-.02-.06-.05-.11-.08-.17h0s-.02-.06-.04-.08h0c-.04-.09-.08-.17-.11-.26h0c-.04-.09-.08-.17-.11-.26h0c-.04-.09-.08-.17-.12-.26h0c-.28-.63-.57-1.25-.86-1.87h0c-1.69-3.63-3.49-7.19-5.38-10.69h0Zm-19.85-29.97l-3.91,3.12c4.85,6.08,9.39,12.51,13.49,19.11l4.25-2.64c-1.4-2.25-2.83-4.47-4.31-6.66,0,0,0,0,0,0-.05-.08-.1-.15-.16-.23,0,0,0,0,0,0-.05-.08-.1-.15-.15-.23,0,0,0,0,0,0-.01-.02-.02-.03-.04-.05,0,0,0,0,0,0-.04-.06-.07-.11-.11-.17,0,0,0,0,0,0-.05-.08-.1-.15-.16-.23,0,0,0,0,0,0-.05-.08-.1-.15-.16-.23,0,0,0,0,0,0-.01-.02-.02-.04-.04-.05,0,0,0,0,0,0-.04-.06-.08-.11-.12-.17,0,0,0,0,0,0-.01-.02-.02-.03-.04-.05,0,0,0,0,0,0-.04-.06-.07-.11-.11-.16,0,0,0,0,0,0-.01-.02-.02-.03-.04-.05,0,0,0,0,0,0-.04-.06-.07-.11-.11-.16,0,0,0,0,0-.01-.01-.02-.02-.03-.04-.05,0,0,0,0,0,0-.04-.06-.07-.1-.11-.16,0,0,0,0,0,0-.01-.02-.02-.03-.04-.05,0,0,0,0,0,0-.04-.06-.07-.11-.11-.16,0,0,0,0,0-.01-.01-.02-.02-.03-.03-.05,0,0,0,0,0-.01-.04-.05-.07-.1-.11-.16,0,0,0,0,0-.01-.01-.02-.02-.03-.04-.05,0,0,0,0,0,0-.04-.06-.07-.11-.11-.16,0,0,0,0,0,0-.01-.02-.02-.03-.04-.05,0,0,0,0,0,0-.04-.06-.08-.11-.12-.17,0,0,0,0,0,0-.05-.08-.11-.15-.16-.23,0,0,0,0,0,0-.11-.15-.21-.3-.32-.46,0,0,0,0,0,0-.01-.02-.03-.04-.04-.06h0c-.09-.13-.19-.27-.28-.4,0,0,0,0,0,0-.01-.02-.03-.04-.04-.06,0,0,0,0,0,0-.04-.06-.08-.11-.12-.17h0c-.38-.53-.77-1.07-1.15-1.6h0c-.88-1.21-1.78-2.41-2.69-3.6,0,0,0,0,0,0-.01-.02-.03-.03-.04-.05,0,0,0,0,0,0-.04-.06-.08-.1-.12-.16,0,0,0,0,0,0-.01-.02-.03-.04-.04-.05,0,0,0,0,0,0-.04-.06-.08-.11-.13-.16,0,0,0,0,0,0-.01-.02-.03-.03-.04-.05,0,0,0,0,0,0-.04-.06-.08-.11-.12-.16,0,0,0,0,0,0-.01-.02-.03-.03-.04-.05,0,0,0,0,0,0-.04-.06-.08-.1-.12-.16,0,0,0,0,0,0-.01-.02-.02-.03-.04-.05,0,0,0,0,0,0-.04-.06-.08-.1-.12-.16,0,0,0,0,0,0-.01-.02-.02-.03-.04-.05,0,0,0,0,0,0-.04-.06-.08-.1-.12-.15,0,0,0,0,0,0-.01-.02-.02-.03-.04-.05,0,0,0,0-.01-.01-.04-.05-.08-.1-.12-.15,0,0,0,0,0-.01-.01-.02-.02-.03-.04-.05,0,0,0-.01-.01-.01-.04-.05-.08-.1-.11-.14,0,0,0-.01-.01-.02-.01-.01-.02-.03-.03-.04,0,0-.01-.02-.02-.02-.04-.05-.07-.09-.11-.14,0,0-.01-.01-.02-.02,0,0-.02-.03-.03-.04,0,0-.01-.01-.02-.02-.04-.05-.07-.09-.11-.14,0,0-.01-.01-.02-.02,0,0-.02-.03-.03-.04,0,0-.01-.02-.02-.02-.04-.05-.07-.09-.11-.13,0,0-.01-.02-.02-.02,0,0-.02-.03-.03-.04,0,0-.02-.02-.02-.03-.01-.01-.02-.02-.03-.03-.02-.02-.03-.04-.04-.06,0,0-.02-.02-.03-.03,0-.01-.02-.02-.03-.03,0,0-.02-.02-.02-.03,0-.01-.02-.02-.03-.04,0,0-.02-.02-.02-.03-.02-.02-.03-.04-.05-.06,0,0-.02-.02-.02-.03,0-.01-.02-.02-.03-.03,0,0-.02-.02-.02-.03-.01-.01-.02-.03-.03-.04,0,0-.01-.02-.02-.03-.02-.02-.03-.04-.05-.06,0,0-.01-.01-.02-.02-.01-.01-.02-.03-.03-.04,0,0-.01-.01-.02-.02-.01-.02-.02-.03-.04-.05,0,0,0-.01-.02-.02-.02-.02-.03-.04-.05-.06,0,0,0-.01-.02-.02-.01-.02-.02-.03-.04-.05,0,0,0,0-.01-.01h0Zm-24.82-26.01l-3.3,3.76c5.84,5.13,11.44,10.66,16.65,16.44l3.72-3.34c-3.93-4.37-8.05-8.56-12.34-12.58,0,0,0,0,0,0-.04-.04-.09-.08-.13-.12,0,0,0,0,0,0-.02-.02-.04-.04-.06-.06,0,0,0,0,0,0-.04-.04-.09-.08-.13-.12,0,0,0,0,0,0-.02-.02-.04-.03-.05-.05,0,0,0,0-.01-.01-.04-.04-.08-.08-.13-.12,0,0-.01,0-.01-.01-.02-.02-.03-.03-.05-.05,0,0,0,0-.01-.01-.02-.02-.04-.04-.06-.06h0s-.04-.04-.06-.06c0,0-.01,0-.01-.01-.02-.01-.03-.03-.05-.04,0,0-.01-.01-.02-.02-.02-.02-.04-.04-.06-.06,0,0,0,0,0,0-.02-.02-.04-.03-.06-.05,0,0-.02-.01-.02-.02-.01-.01-.03-.03-.04-.04,0,0-.02-.01-.02-.02-.02-.02-.04-.04-.06-.05,0,0-.01-.01-.02-.01-.02-.01-.03-.03-.05-.05,0,0-.01-.01-.02-.02-.01-.01-.03-.02-.04-.04,0,0-.02-.01-.02-.02-.02-.01-.03-.03-.05-.04-.01-.01-.02-.02-.03-.03-.01-.01-.02-.02-.03-.03,0,0-.02-.02-.03-.03,0,0-.02-.02-.03-.02-.01-.01-.02-.02-.03-.03-.01-.01-.02-.02-.03-.03-.02-.02-.03-.03-.05-.04-.01-.01-.02-.02-.03-.03,0,0-.02-.02-.03-.03,0,0-.02-.02-.03-.02-.01-.01-.02-.02-.04-.03,0,0-.01-.01-.02-.02-.03-.02-.04-.04-.07-.06,0,0-.01-.01-.02-.02-.01-.01-.03-.02-.04-.04,0,0-.01-.01-.02-.02-.04-.04-.1-.09-.14-.13,0,0,0,0,0,0-.02-.02-.03-.03-.05-.04,0,0,0,0,0,0-.89-.81-1.79-1.61-2.69-2.41h0Zm-29.01-21.24l-2.58,4.28c6.65,4.02,13.14,8.48,19.28,13.26l3.07-3.95s-.02-.01-.02-.02c0,0-.01,0-.02-.01-.05-.04-.1-.08-.15-.11,0,0,0,0-.01-.01-.02-.01-.03-.02-.05-.03,0,0-.01,0-.02-.01-.05-.04-.1-.08-.15-.11,0,0,0,0-.01-.01-.01-.01-.03-.02-.04-.03,0,0-.01,0-.02-.01-.05-.04-.1-.08-.15-.12,0,0,0,0,0,0-.02-.01-.03-.02-.05-.04,0,0,0,0-.01-.01-.05-.04-.1-.08-.15-.12,0,0,0,0,0,0-.02-.01-.03-.02-.05-.04,0,0,0,0-.01,0-.05-.04-.11-.08-.16-.12,0,0,0,0,0,0-.02-.01-.03-.03-.05-.04,0,0,0,0,0,0-.06-.04-.1-.08-.16-.12,0,0,0,0,0,0-.02-.01-.03-.02-.05-.04,0,0,0,0-.01,0-.07-.06-.14-.11-.21-.16,0,0,0,0,0,0-.07-.06-.14-.11-.22-.17,0,0,0,0,0,0-.15-.11-.3-.23-.45-.34,0,0,0,0,0,0-1.79-1.36-3.61-2.68-5.45-3.98,0,0,0,0,0,0-.31-.22-.61-.43-.92-.64,0,0,0,0,0,0-.08-.05-.15-.11-.23-.16h0c-.54-.38-1.08-.75-1.62-1.11,0,0,0,0,0,0-.08-.05-.15-.1-.23-.16,0,0,0,0,0,0-.16-.11-.31-.21-.46-.31,0,0,0,0,0,0-.08-.05-.15-.1-.23-.16,0,0,0,0,0,0-.08-.05-.15-.1-.23-.16,0,0,0,0,0,0-.08-.05-.15-.1-.23-.16,0,0,0,0,0,0-.08-.05-.15-.1-.23-.16,0,0,0,0,0,0-.08-.05-.15-.1-.23-.15,0,0,0,0,0,0-.08-.05-.15-.1-.23-.15,0,0,0,0,0,0-.08-.05-.15-.1-.23-.15,0,0,0,0,0,0-.08-.05-.15-.1-.23-.15,0,0,0,0,0,0-.08-.05-.15-.1-.23-.15,0,0,0,0,0,0-.31-.21-.63-.41-.94-.61h0c-1.82-1.18-3.66-2.33-5.52-3.46h0Zm-32.31-15.77l-1.78,4.67c7.26,2.77,14.43,6.01,21.32,9.63l2.33-4.43s-.02-.01-.04-.02c0,0,0,0,0,0-5.53-2.91-11.22-5.56-17.04-7.96h0c-.18-.07-.35-.14-.53-.22h0c-.09-.04-.17-.07-.26-.11,0,0,0,0,0,0-.09-.04-.17-.07-.26-.1,0,0,0,0-.01,0-.09-.04-.17-.07-.26-.1,0,0,0,0,0,0-.02,0-.04-.02-.06-.03,0,0,0,0,0,0-.07-.03-.13-.05-.19-.08,0,0,0,0,0,0-.18-.07-.35-.14-.53-.21h0s-.04-.02-.06-.03c0,0,0,0,0,0-.09-.04-.17-.07-.26-.1,0,0,0,0,0,0-.09-.04-.17-.07-.26-.1,0,0,0,0,0,0-.09-.03-.17-.07-.26-.1,0,0,0,0,0,0-.09-.03-.17-.07-.26-.1,0,0,0,0,0,0-.09-.03-.17-.07-.26-.1h0c-.11-.04-.22-.09-.33-.13,0,0,0,0,0,0-.09-.03-.17-.07-.26-.1,0,0,0,0,0,0-.09-.03-.17-.07-.26-.1,0,0,0,0,0,0-.09-.03-.18-.07-.26-.1,0,0,0,0,0,0-.04-.02-.09-.03-.13-.05h0Zm-34.6-9.77l-.92,4.91c7.64,1.44,15.28,3.35,22.69,5.68l1.5-4.77c-6.43-2.03-13.01-3.74-19.7-5.12h0c-.1-.02-.19-.04-.28-.06,0,0,0,0,0,0-.02,0-.04,0-.07-.01,0,0,0,0,0,0-.07-.01-.13-.03-.2-.04,0,0-.01,0-.02,0-.02,0-.03,0-.06-.01,0,0-.01,0-.02,0-.02,0-.04,0-.06-.01,0,0,0,0,0,0-.04,0-.08-.02-.12-.02-.01,0-.02,0-.03,0-.02,0-.03,0-.05,0-.01,0-.02,0-.04,0-.02,0-.03,0-.05,0-.01,0-.03,0-.04,0-.02,0-.04,0-.06-.01-.02,0-.04,0-.05-.01-.02,0-.02,0-.04,0-.01,0-.03,0-.04,0-.01,0-.03,0-.04,0-.01,0-.03,0-.04,0-.01,0-.03,0-.04,0-.03,0-.05-.01-.08-.02-.01,0-.02,0-.03,0-.02,0-.03,0-.05-.01-.01,0-.02,0-.03,0-.02,0-.04,0-.05-.01,0,0-.02,0-.03,0-.03,0-.06-.01-.08-.02h0s-.05-.01-.08-.02c0,0-.02,0-.02,0-.02,0-.04,0-.06-.01,0,0-.02,0-.02,0-.03,0-.05-.01-.08-.02,0,0,0,0,0,0-.03,0-.06-.01-.09-.02h-.01s-.05-.01-.07-.02c0,0,0,0-.01,0-.03,0-.06-.01-.08-.02h0c-.06-.01-.12-.02-.18-.04,0,0,0,0,0,0-.37-.07-.74-.14-1.11-.21h0Zm-24.97-3.1h-24v5h23.85c4.21.26,8.46.67,12.64,1.2l.63-4.96c-1.13-.14-2.27-.28-3.41-.4,0,0,0,0-.01,0-.02,0-.04,0-.07,0,0,0,0,0,0,0-.04,0-.08,0-.12-.01,0,0-.01,0-.02,0-.02,0-.04,0-.06,0,0,0-.02,0-.03,0-.06,0-.12-.01-.18-.02-.01,0-.02,0-.03,0-.01,0-.04,0-.05,0-.01,0-.03,0-.04,0-.03,0-.05,0-.08,0-.02,0-.03,0-.05,0-.02,0-.03,0-.04,0-.02,0-.03,0-.05,0-.02,0-.02,0-.04,0-.02,0-.05,0-.07,0-.02,0-.03,0-.05,0-.02,0-.03,0-.05,0-.01,0-.03,0-.04,0-.02,0-.04,0-.06,0-.01,0-.02,0-.03,0-.03,0-.06,0-.08,0-.01,0-.02,0-.03,0-.02,0-.04,0-.06,0-.01,0-.02,0-.03,0-.02,0-.05,0-.07,0-.01,0-.02,0-.03,0-.02,0-.05,0-.07,0-.01,0-.02,0-.03,0-.02,0-.04,0-.06,0-.01,0-.02,0-.03,0-.03,0-.06,0-.09,0-.01,0-.01,0-.03,0-.02,0-.04,0-.07,0-.01,0-.02,0-.03,0-.03,0-.06,0-.09,0h0s-.06,0-.09,0c0,0-.02,0-.03,0-.02,0-.05,0-.07,0,0,0-.02,0-.02,0-.03,0-.06,0-.09,0,0,0,0,0-.01,0-.03,0-.05,0-.08,0-.01,0,0,0-.02,0-.03,0-.06,0-.09,0,0,0,0,0,0,0-.03,0-.06,0-.1,0,0,0,0,0-.01,0-.03,0-.05,0-.08,0,0,0-.01,0-.02,0-.03,0-.06,0-.09,0h0s-.06,0-.09,0c0,0-.02,0-.02,0-.03,0-.05,0-.08,0,0,0,0,0-.01,0-.03,0-.06,0-.09,0h-.01s-.05,0-.08,0c0,0-.01,0-.02,0-.06,0-.13-.01-.19-.02,0,0-.01,0-.02,0-.03,0-.05,0-.08,0h-.01s-.06,0-.1-.01h0s-.06,0-.09,0c0,0,0,0-.02,0-.06,0-.13-.01-.19-.02,0,0-.01,0-.02,0-.03,0-.06,0-.08,0,0,0,0,0-.01,0-.06,0-.13-.01-.19-.02,0,0-.01,0-.02,0-.03,0-.06,0-.09,0,0,0,0,0,0,0-.03,0-.06,0-.1,0h-.01s-.06,0-.08,0c0,0-.01,0-.02,0-.06,0-.13-.01-.19-.02,0,0-.01,0-.02,0-.03,0-.06,0-.08,0h0s-.07,0-.1,0h0s-.06,0-.09,0c0,0-.01,0-.02,0-.03,0-.06,0-.09,0h0s-.06,0-.1,0c0,0-.01,0-.02,0-.03,0-.05,0-.08,0,0,0-.01,0-.02,0-.03,0-.06,0-.09,0,0,0,0,0-.01,0-.03,0-.05,0-.08,0t-.02,0s-.06,0-.08,0c0,0,0,0,0,0-.03,0-.06,0-.09,0,0,0-.02,0-.02,0-.02,0-.05,0-.07,0,0,0-.02,0-.02,0-.03,0-.06,0-.09,0,0,0,0,0,0,0-.03,0-.06,0-.08,0-.01,0-.01,0-.03,0-.02,0-.05,0-.07,0-.01,0,0,0-.02,0-.03,0-.06,0-.09,0,0,0-.02,0-.02,0-.02,0-.05,0-.07,0-.01,0-.02,0-.03,0-.03,0-.06,0-.09,0h0s-.06,0-.09,0c0,0-.02,0-.03,0-.02,0-.05,0-.07,0,0,0-.02,0-.02,0-.03,0-.06,0-.09,0-.01,0-.01,0-.02,0-.02,0-.05,0-.07,0-.01,0-.02,0-.03,0-.03,0-.05,0-.08,0,0,0,0,0-.01,0-.03,0-.06,0-.09,0,0,0-.02,0-.03,0-.02,0-.05,0-.07,0,0,0-.02,0-.03,0-.03,0-.06,0-.09,0,0,0,0,0,0,0-.03,0-.05,0-.08,0-.01,0-.02,0-.03,0-.02,0-.05,0-.07,0,0,0-.02,0-.02,0-.03,0-.06,0-.09,0,0,0-.02,0-.03,0-.02,0-.04,0-.06,0,0,0-.02,0-.03,0-.03,0-.06,0-.08,0,0,0-.02,0-.02,0-.02,0-.05,0-.07,0-.01,0-.02,0-.03,0-.02,0-.04,0-.06,0-.01,0-.02,0-.03,0-.03,0-.06,0-.09,0-.01,0-.02,0-.03,0-.02,0-.04,0-.06,0-.01,0-.02,0-.03,0-.02,0-.05,0-.07,0,0,0,0,0-.02,0-.03,0-.06,0-.09,0,0,0-.02,0-.03,0-.02,0-.05,0-.07,0,0,0-.02,0-.03,0-.03,0-.06,0-.09,0-.01,0-.01,0-.03,0-.02,0-.04,0-.07,0-.01,0-.02,0-.03,0-.02,0-.05,0-.07,0,0,0-.02,0-.03,0-.03,0-.06,0-.09,0,0,0-.03,0-.03,0-.02,0-.04,0-.06,0,0,0-.02,0-.03,0-.03,0-.06,0-.09,0,0,0-.01,0-.02,0-.02,0-.05,0-.07,0-.01,0-.02,0-.03,0-.02,0-.04,0-.07,0-.01,0-.01,0-.02,0-.03,0-.06,0-.09,0-.01,0-.01,0-.03,0-.02,0-.05,0-.07,0,0,0-.02,0-.03,0-.03,0-.06,0-.09,0h0Z" />
    </g>
    <rect class="cls-2" x="126.9" y="126.89" width="150" height="150" rx="75" ry="75" />
</svg>