<?xml version="1.0" encoding="utf-8"?>
<!-- Generator: Adobe Illustrator 27.4.0, SVG Export Plug-In . SVG Version: 6.00 Build 0)  -->
<svg version="1.1" id="Camada_1" xmlns="http://www.w3.org/2000/svg" xmlns:xlink="http://www.w3.org/1999/xlink" x="0px" y="0px"
	 viewBox="0 0 98 81" style="enable-background:new 0 0 98 81;" xml:space="preserve">
<g>
	<path d="M17,0.5c-0.1,0-0.3,0-0.4,0.1l-16,16l-0.1,0.1l0,0l0,0l0,0l0,0l0,0c0,0.1,0,0.1,0,0.2c0,0,0,0,0,0.1l0,0l0,0v0.1l0,0
		c0,0,0,0.1,0.1,0.1l16,18c0.2,0.2,0.5,0.2,0.7,0s0.2-0.5,0-0.7l-15.2-17c73.8,0.4,94,41,94.4,62.5c0,0.3,0.3,0.5,0.5,0.5
		c0.3,0,0.5-0.2,0.5-0.5C97.2,58.1,76.8,16.9,2.2,16.5L17.3,1.3c0.2-0.2,0.2-0.5,0-0.7C17.3,0.5,17.2,0.5,17,0.5z"/>
</g>
</svg>
