<svg xmlns="http://www.w3.org/2000/svg" width="106" height="30" viewBox="0 0 106 30">
  <g id="Grupo_1" data-name="Grupo 1" transform="translate(-166 -480)">
    <g id="cc-nc" transform="translate(242 480)">
      <path id="Caminho_7" data-name="Caminho 7" d="M14.973,0a14.489,14.489,0,0,1,10.66,4.339A14.448,14.448,0,0,1,30,15a14.14,14.14,0,0,1-4.287,10.527A14.816,14.816,0,0,1,14.973,30,14.416,14.416,0,0,1,4.42,25.554,14.407,14.407,0,0,1,0,15,14.7,14.7,0,0,1,4.42,4.34,14.36,14.36,0,0,1,14.973,0ZM3.375,10.956A11.8,11.8,0,0,0,2.7,15a11.788,11.788,0,0,0,3.642,8.624,11.95,11.95,0,0,0,8.679,3.617,11.928,11.928,0,0,0,8.733-3.67,10.97,10.97,0,0,0,2.061-2.626l-5.651-2.518a3.866,3.866,0,0,1-1.433,2.317,4.927,4.927,0,0,1-2.693,1.031v2.3H14.3v-2.3a6.95,6.95,0,0,1-4.554-1.794l2.063-2.089a4.791,4.791,0,0,0,3.348,1.366,2.42,2.42,0,0,0,1.326-.349,1.257,1.257,0,0,0,.55-1.151,1.148,1.148,0,0,0-.4-.911l-1.447-.617-1.767-.8-2.384-1.044L3.375,10.956ZM15.027,2.678A11.639,11.639,0,0,0,6.375,6.294,14.344,14.344,0,0,0,4.715,8.3l5.732,2.571a3.513,3.513,0,0,1,1.42-1.888A4.723,4.723,0,0,1,14.3,8.2v-2.3h1.741V8.2A6.625,6.625,0,0,1,19.8,9.589L17.84,11.6a4.429,4.429,0,0,0-2.572-.884,2.821,2.821,0,0,0-1.245.267.937.937,0,0,0-.55.911.645.645,0,0,0,.134.375l1.9.858,1.313.59,2.41,1.07,7.687,3.429A13.877,13.877,0,0,0,27.294,15,11.747,11.747,0,0,0,23.706,6.3a11.729,11.729,0,0,0-8.68-3.616Z"/>
    </g>
    <g id="cc-by" transform="translate(204 480)">
      <path id="Caminho_4" data-name="Caminho 4" d="M14.973,0a14.487,14.487,0,0,1,10.66,4.34A14.5,14.5,0,0,1,30,15a14.14,14.14,0,0,1-4.287,10.526A14.811,14.811,0,0,1,14.973,30,14.52,14.52,0,0,1,4.42,25.58,14.438,14.438,0,0,1,0,15,14.7,14.7,0,0,1,4.42,4.34,14.36,14.36,0,0,1,14.973,0Zm.054,2.706A11.679,11.679,0,0,0,6.375,6.3,12.069,12.069,0,0,0,2.7,15a11.788,11.788,0,0,0,3.642,8.624,11.849,11.849,0,0,0,8.679,3.642,12.036,12.036,0,0,0,8.732-3.67A11.419,11.419,0,0,0,27.294,15a11.859,11.859,0,0,0-3.589-8.7,11.822,11.822,0,0,0-8.678-3.588Zm4.018,8.57V17.41H17.33V24.7H12.67V17.41H10.956V11.276a.958.958,0,0,1,.964-.964h6.161a.945.945,0,0,1,.67.28.912.912,0,0,1,.294.684ZM12.91,7.42A1.859,1.859,0,0,1,15,5.3,1.858,1.858,0,0,1,17.09,7.42,1.848,1.848,0,0,1,15,9.51,1.848,1.848,0,0,1,12.91,7.42Z"/>
    </g>
    <g id="cc-logo" transform="translate(166 480)">
      <path id="Caminho_3" data-name="Caminho 3" d="M14.972,0A14.64,14.64,0,0,1,25.687,4.393,14.426,14.426,0,0,1,28.9,9.228,15.245,15.245,0,0,1,30,15a15.315,15.315,0,0,1-1.085,5.772,13.77,13.77,0,0,1-3.2,4.754,15.417,15.417,0,0,1-4.983,3.322A14.932,14.932,0,0,1,14.973,30a14.573,14.573,0,0,1-5.692-1.14,15.087,15.087,0,0,1-4.875-3.293,14.946,14.946,0,0,1-3.281-4.862A14.983,14.983,0,0,1,1.138,9.281,15.062,15.062,0,0,1,4.446,4.366,14.179,14.179,0,0,1,14.972,0Zm.055,2.706A11.621,11.621,0,0,0,6.375,6.3a12.9,12.9,0,0,0-2.72,4.031,11.907,11.907,0,0,0,0,9.321,12.71,12.71,0,0,0,6.71,6.671,12.177,12.177,0,0,0,9.337-.013,12.954,12.954,0,0,0,4.084-2.7A11.526,11.526,0,0,0,27.294,15a12.332,12.332,0,0,0-.91-4.713,11.994,11.994,0,0,0-2.651-3.965,11.875,11.875,0,0,0-8.706-3.616Zm-.188,9.8-2.01,1.045a2.064,2.064,0,0,0-.79-.937,1.777,1.777,0,0,0-.87-.268q-2.01,0-2.01,2.652a3.29,3.29,0,0,0,.509,1.928,1.719,1.719,0,0,0,1.5.724,1.881,1.881,0,0,0,1.85-1.286l1.847.937a4.416,4.416,0,0,1-3.937,2.358,4.378,4.378,0,0,1-3.242-1.233A4.633,4.633,0,0,1,6.454,15,4.625,4.625,0,0,1,7.7,11.6a4.239,4.239,0,0,1,3.147-1.26,4.206,4.206,0,0,1,3.992,2.17Zm8.652,0-1.983,1.045a2.064,2.064,0,0,0-.79-.937,1.824,1.824,0,0,0-.9-.268q-2.01,0-2.01,2.652a3.283,3.283,0,0,0,.51,1.928,1.714,1.714,0,0,0,1.5.724,1.878,1.878,0,0,0,1.847-1.286l1.875.937a4.606,4.606,0,0,1-1.66,1.728,4.326,4.326,0,0,1-2.277.63,4.362,4.362,0,0,1-3.253-1.233A4.655,4.655,0,0,1,15.133,15a4.621,4.621,0,0,1,1.246-3.4,4.239,4.239,0,0,1,3.147-1.26,4.146,4.146,0,0,1,3.965,2.17Z"/>
    </g>
  </g>
</svg>