<svg xmlns="http://www.w3.org/2000/svg" version="1.1" xmlns:xlink="http://www.w3.org/1999/xlink" xmlns:svgjs="http://svgjs.com/svgjs" width="500" height="500" preserveAspectRatio="none" viewBox="0 0 500 500">
    <g mask="url(&quot;#SvgjsMask1001&quot;)" fill="none">
        <rect width="500" height="500" x="0" y="0" fill="#0e2a47"></rect>
        <path d="M383.853,365.496C410.274,366.22,434.131,350.319,447.261,327.38C460.304,304.593,462.169,275.821,447.732,253.89C434.406,233.647,408.085,230.637,383.853,231.06C360.593,231.466,335.985,236.285,323.726,256.057C310.915,276.72,314.481,302.756,326.188,324.064C338.403,346.297,358.495,364.801,383.853,365.496" fill="rgba(28, 83, 142, 0.4)" class="triangle-float1"></path>
        <path d="M562.209,342.187C606.656,341.203,646.012,318.236,670.723,281.278C699.067,238.887,721.447,185.565,696.767,140.941C671.575,95.391,614.204,82.635,562.209,85.074C514.817,87.297,471.745,111.615,447.87,152.614C423.835,193.888,420.378,245.373,445.046,286.272C469,325.988,515.839,343.213,562.209,342.187" fill="rgba(28, 83, 142, 0.4)" class="triangle-float3"></path>
        <path d="M433.092,415.113C462.784,415.364,498.578,419.875,513.535,394.224C528.539,368.493,507.543,339.187,492.281,313.608C477.589,288.985,461.763,259.733,433.092,259.404C404.107,259.072,386.145,287.205,371.504,312.223C356.646,337.61,339.867,367.642,354.975,392.881C369.878,417.778,404.076,414.867,433.092,415.113" fill="rgba(28, 83, 142, 0.4)" class="triangle-float3"></path>
        <path d="M192.447,490.059C241.176,489.831,280.075,453.425,303.296,410.584C325.321,369.95,328.711,321.282,305.634,281.236C282.526,241.136,238.714,217.057,192.447,218.225C148.061,219.345,111.088,248.344,88.74,286.71C66.219,325.373,59.46,371.768,79.788,411.628C102.069,455.317,143.406,490.288,192.447,490.059" fill="rgba(28, 83, 142, 0.4)" class="triangle-float2"></path>
        <path d="M68.637,459.726C108.124,459.127,151.406,451.029,170.315,416.358C188.716,382.618,169.544,343.768,149.887,310.745C130.85,278.764,105.855,245.562,68.637,245.546C31.4,245.53,6.795,278.97,-12.734,310.675C-33.694,344.704,-57.679,384.448,-38.528,419.527C-18.934,455.419,27.75,460.346,68.637,459.726" fill="rgba(28, 83, 142, 0.4)" class="triangle-float2"></path>
        <path d="M61.145,369.041C83.743,370.136,107.473,362.95,119.116,343.551C131.039,323.686,127.999,298.192,115.298,278.816C103.72,261.153,82.26,254.702,61.145,255.111C40.855,255.504,20.797,263.354,10.504,280.844C0.076,298.563,1.911,320.54,12.149,338.37C22.432,356.28,40.517,368.042,61.145,369.041" fill="rgba(28, 83, 142, 0.4)" class="triangle-float2"></path>
        <path d="M119.01,168.633C150.673,166.934,172.589,140.222,187.582,112.282C201.582,86.193,208.4,55.272,193.601,29.628C178.798,3.977,148.583,-8.141,119.01,-6.539C92.04,-5.078,71.95,14.379,57.215,37.016C40.465,62.75,23.336,92.602,36.385,120.396C50.912,151.337,84.878,170.465,119.01,168.633" fill="rgba(28, 83, 142, 0.4)" class="triangle-float2"></path>
        <path d="M423.341,273.932C446.353,272.873,464.084,256.792,476.438,237.349C490.057,215.915,501.727,190.669,490.816,167.738C478.618,142.102,451.667,123.864,423.341,125.763C397.236,127.513,382.211,152.754,369.907,175.844C358.583,197.094,349.532,221.513,361.051,242.658C372.964,264.526,398.465,275.076,423.341,273.932" fill="rgba(28, 83, 142, 0.4)" class="triangle-float2"></path>
        <path d="M95.307,461.481C130.696,459.373,163.31,444.712,183.156,415.336C206.021,381.491,223.159,337.964,202.596,302.673C182.118,267.528,135.975,265.375,95.307,264.567C52.526,263.718,4.076,262.635,-19.624,298.261C-45.136,336.612,-39.269,389.342,-12.75,427.003C10.581,460.136,54.856,463.89,95.307,461.481" fill="rgba(28, 83, 142, 0.4)" class="triangle-float3"></path>
        <path d="M139.739,629.083C184.354,626.307,214.45,588.395,236.118,549.296C256.93,511.741,270.882,467.506,250.105,429.932C228.792,391.388,183.767,373.822,139.739,374.996C97.797,376.115,61.671,400.178,39.12,435.559C14.427,474.301,-1.112,521.974,20.081,562.736C42.63,606.106,90.951,632.118,139.739,629.083" fill="rgba(28, 83, 142, 0.4)" class="triangle-float1"></path>
        <path d="M303.72,187.22C327.303,186.492,349.267,175.02,361.168,154.647C373.174,134.094,373.475,108.692,361.667,88.024C349.766,67.194,327.707,54.459,303.72,54.093C279.065,53.717,255.514,65.185,242.627,86.207C229.138,108.211,226.423,136.31,239.78,158.395C252.747,179.836,278.675,187.993,303.72,187.22" fill="rgba(28, 83, 142, 0.4)" class="triangle-float1"></path>
        <path d="M210.329,293.342C238.556,295.744,265.177,278.945,279.442,254.47C293.808,229.822,295.772,198.068,279.527,174.616C264.878,153.468,236.019,153.337,210.329,154.692C187.688,155.887,164.001,161.641,152.72,181.307C141.481,200.899,148.644,224.131,158.973,244.218C170.584,266.798,185.03,291.189,210.329,293.342" fill="rgba(28, 83, 142, 0.4)" class="triangle-float2"></path>
    </g>
    <defs>
        <mask id="SvgjsMask1001">
            <rect width="500" height="500" fill="#ffffff"></rect>
        </mask>
        <style>
            @keyframes float1 {
                0%{transform: translate(0, 0)}
                50%{transform: translate(-10px, 0)}
                100%{transform: translate(0, 0)}
            }

            .triangle-float1 {
                animation: float1 5s infinite;
            }

            @keyframes float2 {
                0%{transform: translate(0, 0)}
                50%{transform: translate(-5px, -5px)}
                100%{transform: translate(0, 0)}
            }

            .triangle-float2 {
                animation: float2 4s infinite;
            }

            @keyframes float3 {
                0%{transform: translate(0, 0)}
                50%{transform: translate(0, -10px)}
                100%{transform: translate(0, 0)}
            }

            .triangle-float3 {
                animation: float3 6s infinite;
            }
        </style>
    </defs>
</svg>