<?xml version="1.0" encoding="UTF-8"?>
<svg id="logo" xmlns="http://www.w3.org/2000/svg" version="1.1" viewBox="0 0 300 299.8">
  <defs>
    <style>
      .cls-1 {
        fill: #005757;
        stroke-width: 0px;
      }
    </style>
  </defs>
  <circle class="cls-1" cx="149.8" cy="151" r="54.5"/>
  <path class="cls-1" d="M149.9-.1h0c-5,0-9,4-9,9s4,9,9,9h0c5,0,9-4,9-9S154.9,0,149.9-.1Z"/>
  <path class="cls-1" d="M117.2,3.7c-.7,0-1.4,0-2.1.2h0c-4.8,1.2-7.8,6-6.7,10.9,1,4.1,4.7,6.9,8.8,6.9s1.4,0,2.1-.2h0c4.8-1.2,7.8-6,6.7-10.9-1-4.1-4.7-6.9-8.8-6.9Z"/>
  <path class="cls-1" d="M94.3,20c-1.6-3.1-4.8-5-8-5s-2.8.3-4.1,1h0c-4.4,2.3-6.2,7.7-3.9,12.1,1.6,3.1,4.8,5,8,5s2.8-.3,4.1-1h0c4.4-2.3,6.2-7.7,4-12.1h0Z"/>
  <path class="cls-1" d="M64.7,49.1c3.8-3.2,4.3-8.9,1.1-12.7-1.8-2.1-4.3-3.2-6.9-3.2s-4.1.7-5.8,2.1h0c-3.8,3.2-4.3,8.9-1.1,12.7,1.8,2.1,4.3,3.2,6.9,3.2s4.1-.7,5.8-2.1h0Z"/>
  <path class="cls-1" d="M30.9,73.6c1.6,1.2,3.5,1.8,5.4,1.8,2.8,0,5.5-1.3,7.3-3.7h0c3-4,2.1-9.7-1.9-12.7-1.6-1.2-3.5-1.8-5.4-1.8-2.7,0-5.5,1.3-7.2,3.6h0c-2.9,4.1-2.1,9.7,1.9,12.7h0Z"/>
  <path class="cls-1" d="M16.4,103.2c1.2.5,2.3.7,3.5.7,3.5,0,6.8-2.1,8.3-5.5h0c2-4.6-.2-9.9-4.8-11.9-1.2-.5-2.4-.7-3.5-.7-3.5,0-6.8,2.1-8.3,5.5h0c-2,4.6.2,9.9,4.8,11.8h0Z"/>
  <path class="cls-1" d="M9.2,135.5c.5,0,1,.1,1.5.1,4.3,0,8.1-3.1,8.9-7.5h0c.8-5-2.5-9.6-7.4-10.4-.5,0-1,0-1.5,0-4.3,0-8.1,3.1-8.9,7.5h0c-.8,4.9,2.5,9.6,7.4,10.4Z"/>
  <path class="cls-1" d="M9.6,168.5c5-.3,8.7-4.6,8.4-9.6h0c-.3-4.8-4.3-8.5-9-8.5h-.6c-5,.3-8.7,4.6-8.4,9.6h0c.3,4.8,4.3,8.4,9,8.4s.4,0,.6,0h0Z"/>
  <path class="cls-1" d="M23.6,189.3h0c-1.2-3.9-4.8-6.4-8.6-6.4s-1.8.1-2.7.4c-4.7,1.5-7.4,6.5-6,11.3h0c1.2,3.9,4.8,6.4,8.6,6.4s1.8-.1,2.7-.4c4.8-1.5,7.4-6.5,6-11.3Z"/>
  <path class="cls-1" d="M36,217.4c-1.7-2.9-4.7-4.4-7.8-4.4s-3.1.4-4.6,1.3c-4.3,2.5-5.7,8-3.2,12.3h0c1.7,2.9,4.7,4.5,7.7,4.5s3.1-.4,4.6-1.3c4.3-2.5,5.7-8.1,3.2-12.4h.1Z"/>
  <path class="cls-1" d="M54.6,242c-1.8-1.8-4.1-2.8-6.5-2.8s-4.5.8-6.2,2.5c-3.6,3.5-3.7,9.2-.2,12.8h0c1.8,1.8,4.1,2.7,6.5,2.7s4.5-.8,6.2-2.5c3.6-3.5,3.7-9.2.2-12.8h0Z"/>
  <path class="cls-1" d="M78.5,261.6h0c-1.5-1-3.2-1.5-4.9-1.5-3,0-5.9,1.5-7.6,4.1-2.7,4.2-1.5,9.8,2.7,12.5h0c1.5,1,3.2,1.4,4.8,1.4,3,0,5.9-1.5,7.6-4.1,2.7-4.2,1.5-9.8-2.7-12.5h0Z"/>
  <path class="cls-1" d="M106.2,275.2h0c-1-.4-2-.5-3-.5-3.7,0-7.2,2.3-8.5,6-1.6,4.7.8,9.9,5.5,11.5h0c1,.3,2,.5,2.9.5,3.7,0,7.2-2.3,8.5-6,1.6-4.7-.8-9.9-5.5-11.5h0Z"/>
  <path class="cls-1" d="M136.2,281.9h-.9c-4.6,0-8.5,3.5-9,8.1-.5,5,3.1,9.4,8,9.9h.9c4.6,0,8.5-3.5,9-8.1.5-5-3.1-9.4-8-9.9Z"/>
  <path class="cls-1" d="M168.3,281.4h-1.2c-4.9.6-8.4,5.2-7.8,10.1.6,4.5,4.5,7.9,8.9,7.9s.8,0,1.2,0h0c4.9-.7,8.4-5.2,7.7-10.1-.6-4.5-4.5-7.9-8.9-7.9h.1Z"/>
  <path class="cls-1" d="M200.2,273.4c-1.1,0-2.2.2-3.2.6h0c-4.7,1.8-7,7-5.2,11.7,1.4,3.6,4.8,5.8,8.4,5.8s2.2-.2,3.2-.6h0c4.6-1.8,7-7,5.2-11.6-1.4-3.6-4.8-5.8-8.4-5.8h0Z"/>
  <path class="cls-1" d="M229.3,258.1c-1.7,0-3.5.5-5.1,1.6h0c-4.1,2.8-5.2,8.4-2.4,12.6,1.7,2.6,4.6,3.9,7.5,3.9s3.5-.5,5-1.5h0c4.1-2.8,5.2-8.4,2.4-12.5-1.7-2.6-4.6-3.9-7.5-3.9v-.2Z"/>
  <path class="cls-1" d="M254.2,236.5c-2.4,0-4.9,1-6.7,2.9h0c-3.4,3.7-3.1,9.4.6,12.8,1.7,1.6,3.9,2.4,6.1,2.4s4.8-1,6.6-2.9h0c3.4-3.7,3.1-9.4-.6-12.7-1.7-1.6-3.9-2.4-6.1-2.4h0Z"/>
  <path class="cls-1" d="M277.8,210.9c-1.4-.8-2.9-1.1-4.4-1.1-3.2,0-6.2,1.7-7.9,4.6h0c-2.4,4.4-.8,9.9,3.5,12.3,1.4.8,2.9,1.1,4.4,1.1,3.2,0,6.2-1.7,7.9-4.6h0c2.4-4.4.8-9.8-3.5-12.3Z"/>
  <path class="cls-1" d="M288.3,179.6c-.8-.2-1.6-.3-2.4-.3-3.9,0-7.6,2.6-8.7,6.6h0c-1.3,4.8,1.5,9.8,6.3,11.2.8.2,1.6.3,2.4.3,3.9,0,7.6-2.6,8.7-6.6h0c1.3-4.8-1.5-9.7-6.3-11.1h0Z"/>
  <path class="cls-1" d="M291.3,146.7h-.3c-4.8,0-8.8,3.8-9,8.7h0c-.2,5,3.7,9.2,8.7,9.4h.4c4.8,0,8.8-3.8,9-8.6h0c.2-5.1-3.7-9.2-8.7-9.4h-.1Z"/>
  <path class="cls-1" d="M279.6,124.6h0c.8,4.4,4.6,7.3,8.8,7.3s1.2,0,1.7-.2c4.9-1,8.1-5.7,7.1-10.6h0c-.9-4.3-4.6-7.3-8.8-7.3s-1.2,0-1.7.2c-4.9,1-8.1,5.7-7.1,10.6Z"/>
  <path class="cls-1" d="M270.2,95.3h0c1.5,3.4,4.8,5.3,8.2,5.3s2.5-.3,3.7-.8c4.5-2.1,6.5-7.4,4.5-11.9h0c-1.5-3.4-4.8-5.3-8.2-5.3s-2.5.3-3.7.8c-4.5,2.1-6.5,7.4-4.4,12h-.1Z"/>
  <path class="cls-1" d="M254.2,68.9c1.8,2.3,4.4,3.5,7.1,3.5s3.9-.6,5.5-1.9c3.9-3.1,4.6-8.7,1.6-12.7h0c-1.8-2.3-4.4-3.5-7.1-3.5s-3.9.6-5.5,1.9c-3.9,3.1-4.6,8.7-1.6,12.7h0Z"/>
  <path class="cls-1" d="M243.8,32.9h0c-1.7-1.3-3.6-1.9-5.6-1.9s-5.3,1.2-7,3.4c-3.1,3.9-2.5,9.6,1.4,12.7h0c1.7,1.4,3.7,2,5.6,2s5.3-1.2,7-3.4c3.1-3.9,2.5-9.5-1.4-12.7h0Z"/>
  <path class="cls-1" d="M214.1,14.3h0c-1.2-.6-2.5-.8-3.8-.8-3.4,0-6.6,1.9-8.2,5.2-2.1,4.5-.2,9.9,4.3,12h0c1.2.6,2.6.9,3.8.9,3.4,0,6.6-1.9,8.2-5.2,2.1-4.5.2-9.9-4.3-12h0Z"/>
  <path class="cls-1" d="M180.9,3.1h0c-.6,0-1.2-.2-1.8-.2-4.2,0-7.9,2.9-8.8,7.2-1,4.9,2.1,9.7,7,10.7h0c.6.1,1.2.2,1.9.2,4.2,0,7.9-2.9,8.8-7.2,1-4.9-2.1-9.6-6.9-10.7h-.2Z"/>
</svg>