<?xml version="1.0" encoding="UTF-8"?><svg id="b" xmlns="http://www.w3.org/2000/svg" viewBox="0 0 292.5 295.49"><defs><style>.d{fill:#005757;stroke-width:0px;}</style></defs><g id="c"><circle class="d" cx="146.61" cy="147.75" r="55.55"/><rect class="d" x="0" y="111.35" width="23.12" height="23.12" rx="11.56" ry="11.56" transform="translate(21.52 -.14) rotate(10)"/><rect class="d" x=".69" y="158.88" width="23.12" height="23.12" rx="11.56" ry="11.56" transform="translate(-29.41 4.72) rotate(-10)"/><rect class="d" x="16.58" y="203.59" width="23.12" height="23.12" rx="11.56" ry="11.56" transform="translate(-103.8 42.89) rotate(-30)"/><rect class="d" x="88.73" y="8.04" width="23.12" height="23.12" rx="11.56" ry="11.56" transform="translate(116.16 120.54) rotate(-110)"/><rect class="d" x="48.06" y="31.52" width="23.12" height="23.12" rx="11.56" ry="11.56" transform="translate(64.95 116.44) rotate(-130)"/><rect class="d" x="269.38" y="158.87" width="23.12" height="23.12" rx="11.56" ry="11.56" transform="translate(528.02 387.06) rotate(-170)"/><rect class="d" x="269.03" y="111.56" width="23.12" height="23.12" rx="11.56" ry="11.56" transform="translate(578.3 195.64) rotate(170)"/><rect class="d" x="135.05" y="0" width="23.12" height="23.12" rx="11.56" ry="11.56" transform="translate(158.17 -135.05) rotate(90)"/><rect class="d" x="181.9" y="8.28" width="23.12" height="23.12" rx="11.56" ry="11.56" transform="translate(278.26 -155.17) rotate(110)"/><rect class="d" x="252.59" y="67.32" width="23.12" height="23.12" rx="11.56" ry="11.56" transform="translate(532.34 15.13) rotate(150)"/><rect class="d" x="222.14" y="31.5" width="23.12" height="23.12" rx="11.56" ry="11.56" transform="translate(416.9 -108.29) rotate(130)"/><rect class="d" x="17.56" y="67.35" width="23.12" height="23.12" rx="11.56" ry="11.56" transform="translate(14.88 161.81) rotate(-150)"/><rect class="d" x="181.96" y="264.06" width="23.12" height="23.12" rx="11.56" ry="11.56" transform="translate(386.33 -.49) rotate(70)"/><rect class="d" x="223.07" y="240.09" width="23.12" height="23.12" rx="11.56" ry="11.56" transform="translate(276.59 -89.85) rotate(50)"/><rect class="d" x="135.05" y="272.37" width="23.12" height="23.12" rx="11.56" ry="11.56" transform="translate(-137.33 430.54) rotate(-90)"/><rect class="d" x="88.66" y="264.32" width="23.12" height="23.12" rx="11.56" ry="11.56" transform="translate(-193.3 275.7) rotate(-70)"/><rect class="d" x="47" y="240.12" width="23.12" height="23.12" rx="11.56" ry="11.56" transform="translate(-171.88 134.76) rotate(-50)"/><rect class="d" x="253.41" y="203.52" width="23.12" height="23.12" rx="11.56" ry="11.56" transform="translate(143.04 -103.67) rotate(30)"/></g></svg>