<?xml version="1.0" encoding="utf-8"?>
<!-- Generator: Adobe Illustrator 27.5.0, SVG Export Plug-In . SVG Version: 6.00 Build 0)  -->
<svg version="1.1" id="logo" xmlns="http://www.w3.org/2000/svg" xmlns:xlink="http://www.w3.org/1999/xlink" x="0px" y="0px"
	 viewBox="0 0 300 299.8" style="enable-background:new 0 0 300 299.8;" xml:space="preserve">
<style type="text/css">
	.st0{fill:#005757;}
</style>
<circle class="st0" cx="150" cy="150" r="62.1"/>
<path class="st0" d="M141.3,299.8c-6.8-0.4-13.6-1.2-20.2-2.5l3.1-15.8c5.9,1.1,12,1.9,18,2.3L141.3,299.8L141.3,299.8z
	 M161.7,299.6l-1.2-16c6-0.5,12.1-1.4,18-2.6l3.4,15.7C175.2,298.1,168.4,299.1,161.7,299.6L161.7,299.6z M101.5,292
	c-6.4-2.2-12.7-4.8-18.8-7.9l7.2-14.4c5.4,2.7,11,5.1,16.8,7L101.5,292L101.5,292z M201.4,291l-5.5-15.1c5.7-2.1,11.3-4.5,16.6-7.4
	l7.5,14.2C214,285.9,207.7,288.7,201.4,291L201.4,291z M65.2,273.8c-5.6-3.8-10.9-8.1-16-12.6L60,249.2c4.5,4.1,9.3,7.9,14.2,11.3
	L65.2,273.8z M237.3,272.1l-9.4-13.1c4.9-3.5,9.6-7.4,14-11.5l11,11.7C248,263.8,242.8,268.1,237.3,272.1z M35.1,246.5
	c-4.4-5.2-8.4-10.7-12-16.4l13.6-8.6c3.2,5.1,6.8,10,10.7,14.7C47.4,236.1,35.1,246.5,35.1,246.5z M266.8,244.2l-12.5-10.1
	c3.8-4.7,7.3-9.7,10.4-14.9l13.7,8.3C274.9,233.3,271,238.9,266.8,244.2z M13.4,212.2c-2.8-6.2-5.2-12.6-7.2-19.1l15.4-4.6
	c1.7,5.8,3.9,11.5,6.4,17C28,205.5,13.4,212.2,13.4,212.2z M287.8,209.4l-14.8-6.4c2.4-5.6,4.4-11.3,6-17.1l15.5,4.3
	C292.7,196.8,290.5,203.2,287.8,209.4L287.8,209.4z M1.8,173.3c-1-6.7-1.6-13.5-1.8-20.3l16.1-0.3c0.1,6.1,0.6,12.2,1.6,18.1
	L1.8,173.3L1.8,173.3z M298.6,170.3l-15.9-2.1c0.8-6,1.2-12.1,1.2-18.1c0-1.8,0-3.6-0.1-5.4l16-0.6c0.1,2,0.1,4.1,0.1,6.1
	C300,156.8,299.5,163.6,298.6,170.3L298.6,170.3z M16.9,134.6l-16-1.8c0.8-6.7,2-13.5,3.7-20l15.6,4
	C18.7,122.5,17.6,128.5,16.9,134.6z M281.9,126.5c-1-5.9-2.5-11.9-4.4-17.6l15.3-4.9c2.1,6.4,3.7,13.1,4.9,19.7L281.9,126.5
	L281.9,126.5z M25.9,99.4L11,93.4c2.6-6.3,5.6-12.4,9-18.3l13.9,8C30.9,88.4,28.2,93.8,25.9,99.4z M270.8,92
	c-2.6-5.4-5.6-10.8-9-15.8l13.4-8.9c3.7,5.7,7.1,11.6,10,17.7L270.8,92z M44,68l-12.7-9.8C35.5,52.8,40,47.7,44.9,43l11.3,11.5
	C51.8,58.7,47.7,63.3,44,68z M250.8,61.8c-4-4.6-8.3-8.9-12.9-12.8l10.6-12.1c5.1,4.4,9.9,9.3,14.4,14.4L250.8,61.8L250.8,61.8z
	 M69.9,42.6l-9.6-12.9c5.4-4,11.2-7.8,17.1-11l7.8,14.1C79.9,35.7,74.7,39,69.9,42.6z M223.4,38c-5.1-3.3-10.4-6.3-15.8-8.9
	l6.9-14.5c6.1,2.9,12.1,6.3,17.7,10L223.4,38L223.4,38z M101.6,25.1l-5.8-15c6.3-2.5,12.8-4.5,19.4-6l3.7,15.6
	C113.1,21.1,107.2,22.9,101.6,25.1L101.6,25.1z M190.7,22.4c-5.8-1.8-11.7-3.3-17.6-4.3l2.8-15.8c6.7,1.2,13.3,2.8,19.8,4.9
	L190.7,22.4z M136.8,16.7l-1.6-16c6.7-0.6,13.6-0.9,20.3-0.6l-0.6,16C149,15.9,142.9,16.1,136.8,16.7L136.8,16.7z"/>
</svg>
