<?xml version="1.0" encoding="UTF-8"?>
<svg id="logo" xmlns="http://www.w3.org/2000/svg" version="1.1" viewBox="0 0 300 299.8">
  <defs>
    <style>
      .cls-1 {
        fill: #005757;
        stroke-width: 0px;
      }
    </style>
  </defs>
  <g id="icone">
    <circle class="cls-1" cx="149.9" cy="150.5" r="54.4"/>
    <path class="cls-1" d="M141.3,300.7c-6.8-.5-13.6-1.2-20.2-2.5l3.1-15.8c5.9,1.1,12,1.9,18.1,2.3l-.9,16.1h0v-.2ZM161.7,300.5l-1.2-16.1c6-.5,12-1.4,18.1-2.6l3.4,15.8c-6.6,1.4-13.4,2.5-20.2,2.9h0ZM101.3,292.9c-6.5-2.2-12.8-4.8-18.8-7.9l7.3-14.4c5.4,2.8,11.1,5.1,16.8,7.1l-5.3,15.3h0v-.2ZM201.4,291.8l-5.6-15.1c5.7-2,11.3-4.6,16.7-7.4l7.6,14.2c-6,3.2-12.2,6-18.7,8.3h0ZM65,274.5c-5.6-3.9-11-8-15.9-12.7l10.8-11.9c4.5,4,9.3,7.9,14.2,11.3l-9.1,13.3h0ZM237.4,272.8l-9.4-13.1c4.9-3.6,9.6-7.4,14.1-11.6l11.1,11.7c-4.9,4.6-10.2,9-15.8,13ZM34.8,247.2c-4.3-5.3-8.3-10.7-12-16.5l13.6-8.7c3.2,5.1,6.8,10,10.8,14.7l-12.4,10.3v.2ZM267,244.9l-12.5-10c3.9-4.8,7.3-9.7,10.5-15l13.7,8.3c-3.6,5.9-7.4,11.4-11.7,16.7h0ZM13.1,212.9c-2.8-6.2-5.3-12.7-7.1-19.2l15.4-4.6c1.7,5.9,3.9,11.6,6.3,17l-14.7,6.6v.2ZM288,210.1l-14.8-6.3c2.5-5.6,4.5-11.3,6-17.1l15.4,4.3c-1.9,6.5-4.2,13-6.8,19.3h0l.2-.2ZM1.3,173.8c-1.1-6.6-1.7-13.4-1.7-20.2l16.1-.3c0,6,.6,12.2,1.5,18.1l-15.9,2.5h0ZM299,170.9l-15.9-2.2c.8-6,1.2-12,1.2-18.2s0-3.6,0-5.4l16.1-.6v6c0,6.8-.5,13.6-1.4,20.4h0ZM16.6,135.1l-16.1-1.9c.8-6.8,2-13.4,3.7-20.1l15.6,4c-1.5,5.9-2.6,11.9-3.2,17.9ZM282.2,127c-1.1-6-2.5-11.9-4.3-17.6l15.3-4.9c2,6.5,3.7,13.1,4.9,19.8l-15.9,2.8h0ZM25.6,99.8l-14.8-6c2.6-6.3,5.6-12.5,9-18.4l13.9,8c-3.1,5.3-5.7,10.8-8,16.4ZM271,92.4c-2.6-5.4-5.7-10.8-9-15.8l13.4-8.8c3.7,5.7,7.1,11.6,10,17.8l-14.5,7v-.2ZM43.8,68.3l-12.7-9.9c4.2-5.4,8.7-10.5,13.6-15.3l11.3,11.4c-4.3,4.3-8.3,8.8-12,13.6l-.2.2ZM250.9,62.1c-4-4.6-8.3-8.8-13-12.8l10.5-12.2c5.1,4.5,9.9,9.3,14.4,14.4l-12,10.7h.2ZM69.8,43l-9.6-13c5.4-4,11.1-7.7,17.1-11.1l7.7,14.1c-5.3,2.9-10.5,6.2-15.3,9.9v.2ZM223.6,38.2c-5.1-3.4-10.3-6.3-15.9-9l7-14.5c6.2,2.9,12,6.3,17.8,10l-8.8,13.4h0ZM101.4,25.4l-5.9-15c6.3-2.5,12.8-4.5,19.5-6l3.7,15.6c-5.9,1.4-11.7,3.2-17.5,5.4h.2ZM190.9,22.6c-5.7-1.9-11.7-3.2-17.6-4.3l2.8-15.9c6.6,1.2,13.3,2.8,19.8,4.8l-4.9,15.3v.2ZM136.8,16.9l-1.5-16.1c6.8-.6,13.6-.9,20.4-.6l-.6,16.1c-6-.2-12.2,0-18.2.6h0Z"/>
  </g>
</svg>