<?xml version="1.0" encoding="UTF-8"?><svg id="b" xmlns="http://www.w3.org/2000/svg" viewBox="0 0 295.5 50.66"><defs><style>.d{fill:#005757;stroke-width:0px;}</style></defs><g id="c"><path class="d" d="M61.38,36.13V12.51h15.64v4.12h-10.65v5.63h9.61v4.12h-9.61v9.76h-4.99Z"/><path class="d" d="M87,36.48c-1.79,0-3.34-.38-4.64-1.15-1.3-.76-2.31-1.83-3.02-3.21-.71-1.37-1.06-2.97-1.06-4.78s.35-3.43,1.06-4.8c.71-1.37,1.71-2.44,3.02-3.21,1.3-.76,2.85-1.15,4.64-1.15s3.34.38,4.64,1.15c1.3.77,2.31,1.83,3.02,3.21.71,1.37,1.06,2.97,1.06,4.8s-.35,3.41-1.06,4.78c-.71,1.37-1.71,2.44-3.02,3.21-1.3.77-2.85,1.15-4.64,1.15ZM87.02,32.67c.81,0,1.5-.23,2.04-.7.55-.47.96-1.1,1.24-1.91.28-.81.42-1.73.42-2.76s-.14-1.95-.42-2.76c-.28-.81-.69-1.45-1.24-1.91-.55-.47-1.23-.7-2.04-.7s-1.51.23-2.07.7c-.56.47-.98,1.11-1.26,1.91-.28.81-.42,1.73-.42,2.76s.14,1.95.42,2.76c.28.81.7,1.44,1.26,1.91.56.47,1.25.7,2.07.7Z"/><path class="d" d="M106.93,36.48c-1.81,0-3.37-.39-4.68-1.16-1.3-.77-2.3-1.85-3-3.22-.7-1.38-1.04-2.96-1.04-4.75s.35-3.41,1.06-4.78c.7-1.37,1.7-2.44,3-3.22,1.3-.77,2.84-1.16,4.64-1.16,1.55,0,2.9.28,4.06.84,1.16.56,2.08,1.35,2.76,2.36.68,1.01,1.05,2.21,1.12,3.58h-4.64c-.13-.88-.47-1.6-1.03-2.14-.56-.54-1.29-.81-2.19-.81-.76,0-1.42.21-1.99.62-.57.41-1.01,1.01-1.32,1.79-.32.78-.47,1.73-.47,2.85s.16,2.09.47,2.88c.31.79.75,1.4,1.32,1.81.57.42,1.23.62,2,.62.56,0,1.07-.12,1.52-.35.45-.23.82-.57,1.12-1.01.3-.44.49-.97.58-1.6h4.64c-.08,1.35-.44,2.54-1.1,3.57-.66,1.03-1.56,1.83-2.72,2.4-1.15.58-2.52.86-4.09.86Z"/><path class="d" d="M126.01,36.48c-1.79,0-3.34-.38-4.64-1.15-1.3-.76-2.31-1.83-3.02-3.21-.71-1.37-1.06-2.97-1.06-4.78s.35-3.43,1.06-4.8c.71-1.37,1.71-2.44,3.02-3.21,1.3-.76,2.85-1.15,4.64-1.15s3.34.38,4.64,1.15c1.3.77,2.31,1.83,3.02,3.21.71,1.37,1.06,2.97,1.06,4.8s-.35,3.41-1.06,4.78c-.71,1.37-1.71,2.44-3.02,3.21-1.3.77-2.85,1.15-4.64,1.15ZM126.03,32.67c.81,0,1.5-.23,2.04-.7.55-.47.96-1.1,1.24-1.91.28-.81.42-1.73.42-2.76s-.14-1.95-.42-2.76c-.28-.81-.69-1.45-1.24-1.91-.55-.47-1.23-.7-2.04-.7s-1.51.23-2.07.7c-.56.47-.98,1.11-1.26,1.91-.28.81-.42,1.73-.42,2.76s.14,1.95.42,2.76c.28.81.7,1.44,1.26,1.91.56.47,1.25.7,2.07.7Z"/><path class="d" d="M158.87,12.51h-6.44l-8.15,23.62h5.35l1.75-5.39h8.53l1.75,5.39h5.35l-8.14-23.62ZM152.65,26.85l2.91-8.94h.18l2.9,8.94h-5.99Z"/><path class="d" d="M176.93,36.48c-1.81,0-3.37-.39-4.68-1.16-1.3-.77-2.3-1.85-3-3.22-.7-1.38-1.04-2.96-1.04-4.75s.35-3.41,1.06-4.78c.7-1.37,1.7-2.44,3-3.22,1.3-.77,2.84-1.16,4.64-1.16,1.55,0,2.9.28,4.06.84,1.16.56,2.08,1.35,2.76,2.36.68,1.01,1.05,2.21,1.12,3.58h-4.64c-.13-.88-.47-1.6-1.03-2.14-.56-.54-1.29-.81-2.19-.81-.76,0-1.42.21-1.99.62-.57.41-1.01,1.01-1.32,1.79-.32.78-.47,1.73-.47,2.85s.16,2.09.47,2.88c.31.79.75,1.4,1.32,1.81.57.42,1.23.62,2,.62.56,0,1.07-.12,1.52-.35.45-.23.82-.57,1.12-1.01.3-.44.49-.97.58-1.6h4.64c-.08,1.35-.44,2.54-1.1,3.57-.66,1.03-1.56,1.83-2.72,2.4-1.15.58-2.52.86-4.09.86Z"/><path class="d" d="M204.2,28.53v-1.35c0-1.51-.21-2.82-.63-3.95-.42-1.13-1.02-2.06-1.77-2.81-.76-.75-1.64-1.31-2.65-1.68-1.01-.37-2.1-.56-3.27-.56-1.74,0-3.25.39-4.54,1.16-1.29.77-2.29,1.84-2.99,3.22-.71,1.37-1.06,2.97-1.06,4.8s.35,3.48,1.06,4.85c.71,1.36,1.72,2.42,3.03,3.16,1.31.74,2.88,1.11,4.7,1.11,1.46,0,2.75-.23,3.87-.68,1.12-.45,2.03-1.08,2.74-1.89.71-.81,1.18-1.76,1.41-2.86l-4.54-.3c-.17.44-.42.82-.74,1.13-.32.31-.71.54-1.17.69-.45.15-.95.23-1.5.23-.82,0-1.53-.17-2.13-.52-.6-.35-1.06-.84-1.39-1.48-.33-.64-.49-1.39-.49-2.27h0s12.07-.01,12.07-.01ZM192.64,23.74c.32-.57.77-1.03,1.34-1.37.57-.34,1.23-.51,1.98-.51s1.34.16,1.88.47c.54.31.97.74,1.28,1.29.31.54.46,1.17.46,1.88h-7.43c.03-.64.19-1.22.49-1.75Z"/><path class="d" d="M222.15,23.47l-4.5.28c-.08-.38-.24-.73-.5-1.04-.25-.31-.59-.56-1-.75-.41-.19-.9-.28-1.47-.28-.76,0-1.4.16-1.93.48-.52.32-.78.74-.78,1.27,0,.42.17.78.51,1.07.34.29.92.53,1.74.7l3.21.65c1.72.35,3.01.92,3.85,1.71.85.78,1.27,1.81,1.27,3.09,0,1.16-.34,2.18-1.02,3.06-.68.88-1.61,1.56-2.79,2.05-1.18.49-2.54.73-4.08.73-2.35,0-4.21-.49-5.6-1.47-1.39-.98-2.2-2.32-2.44-4.01l4.83-.25c.15.72.5,1.26,1.06,1.63.56.37,1.28.56,2.16.56s1.55-.17,2.08-.5c.53-.33.79-.77.8-1.3,0-.45-.2-.81-.57-1.1-.37-.29-.94-.51-1.71-.66l-3.07-.61c-1.73-.35-3.02-.95-3.86-1.8-.84-.85-1.26-1.94-1.26-3.26,0-1.14.31-2.12.93-2.94.62-.82,1.49-1.46,2.62-1.9,1.13-.45,2.45-.67,3.96-.67,2.24,0,4,.47,5.29,1.42,1.29.95,2.04,2.23,2.25,3.86Z"/><path class="d" d="M240.39,23.47l-4.5.28c-.08-.38-.24-.73-.5-1.04-.25-.31-.59-.56-1-.75-.41-.19-.9-.28-1.47-.28-.76,0-1.4.16-1.93.48-.52.32-.78.74-.78,1.27,0,.42.17.78.51,1.07.34.29.92.53,1.74.7l3.21.65c1.72.35,3.01.92,3.85,1.71.85.78,1.27,1.81,1.27,3.09,0,1.16-.34,2.18-1.02,3.06-.68.88-1.61,1.56-2.79,2.05-1.18.49-2.54.73-4.08.73-2.35,0-4.21-.49-5.6-1.47-1.39-.98-2.2-2.32-2.44-4.01l4.83-.25c.15.72.5,1.26,1.06,1.63.56.37,1.28.56,2.16.56s1.55-.17,2.08-.5c.53-.33.79-.77.8-1.3,0-.45-.2-.81-.57-1.1-.37-.29-.94-.51-1.71-.66l-3.07-.61c-1.73-.35-3.02-.95-3.86-1.8-.84-.85-1.26-1.94-1.26-3.26,0-1.14.31-2.12.93-2.94.62-.82,1.49-1.46,2.62-1.9,1.13-.45,2.45-.67,3.96-.67,2.24,0,4,.47,5.29,1.42,1.29.95,2.04,2.23,2.25,3.86Z"/><path class="d" d="M243.9,36.13v-17.72h4.91v17.72h-4.91ZM244.6,16.13l2.44-3.62h4.54l-3.52,3.62h-3.47Z"/><path class="d" d="M269.25,18.42l-6.19,17.72h-5.54l-6.19-17.72h5.19l3.68,12.68h.18l3.67-12.68h5.2Z"/><path class="d" d="M287.38,28.53v-1.35c0-1.51-.21-2.82-.63-3.95-.42-1.13-1.01-2.06-1.77-2.81-.76-.75-1.64-1.31-2.65-1.68-1.01-.37-2.1-.56-3.27-.56-1.74,0-3.25.39-4.54,1.16-1.29.77-2.29,1.84-2.99,3.22-.71,1.37-1.06,2.97-1.06,4.8s.35,3.48,1.06,4.85c.71,1.36,1.72,2.42,3.03,3.16,1.31.74,2.88,1.11,4.7,1.11,1.46,0,2.75-.23,3.87-.68,1.12-.45,2.04-1.08,2.75-1.89.71-.81,1.18-1.76,1.41-2.86l-4.54-.3c-.17.44-.42.82-.74,1.13-.32.31-.71.54-1.17.69-.45.15-.95.23-1.5.23-.82,0-1.53-.17-2.13-.52-.6-.35-1.06-.84-1.39-1.48-.33-.64-.49-1.39-.49-2.27h0s12.06-.01,12.06-.01ZM275.81,23.74c.33-.57.77-1.03,1.35-1.37.57-.34,1.23-.51,1.98-.51s1.34.16,1.88.47c.54.31.97.74,1.27,1.29.31.54.46,1.17.46,1.88h-7.43c.03-.64.19-1.22.49-1.75Z"/><path class="d" d="M295.5,12.51v23.62h-4.91V12.51h4.91Z"/><circle class="d" cx="25.14" cy="25.33" r="9.52"/><rect class="d" x="0" y="19.09" width="3.96" height="3.96" rx="1.92" ry="1.92" transform="translate(3.69 -.03) rotate(10)"/><rect class="d" x=".13" y="27.24" width="3.96" height="3.96" rx="1.92" ry="1.92" transform="translate(-5.04 .81) rotate(-10)"/><rect class="d" x="2.85" y="34.9" width="3.96" height="3.96" rx="1.92" ry="1.92" transform="translate(-17.79 7.36) rotate(-30)"/><rect class="d" x="15.22" y="1.38" width="3.96" height="3.96" rx="1.92" ry="1.92" transform="translate(19.93 20.67) rotate(-110)"/><rect class="d" x="8.25" y="5.4" width="3.96" height="3.96" rx="1.92" ry="1.92" transform="translate(11.15 19.97) rotate(-130)"/><rect class="d" x="46.19" y="27.24" width="3.96" height="3.96" rx="1.92" ry="1.92" transform="translate(90.54 66.36) rotate(-170)"/><rect class="d" x="46.13" y="19.12" width="3.96" height="3.96" rx="1.92" ry="1.92" transform="translate(99.16 33.54) rotate(170)"/><rect class="d" x="23.16" y="0" width="3.96" height="3.96" rx="1.92" ry="1.92" transform="translate(27.12 -23.16) rotate(90)"/><rect class="d" x="31.19" y="1.42" width="3.96" height="3.96" rx="1.92" ry="1.92" transform="translate(47.71 -26.61) rotate(110)"/><rect class="d" x="43.31" y="11.54" width="3.96" height="3.96" rx="1.92" ry="1.92" transform="translate(91.28 2.59) rotate(150)"/><rect class="d" x="38.09" y="5.4" width="3.96" height="3.96" rx="1.92" ry="1.92" transform="translate(71.49 -18.57) rotate(130)"/><rect class="d" x="3.02" y="11.55" width="3.96" height="3.96" rx="1.92" ry="1.92" transform="translate(2.57 27.74) rotate(-150)"/><rect class="d" x="31.2" y="45.27" width="3.96" height="3.96" rx="1.92" ry="1.92" transform="translate(66.24 -.09) rotate(70)"/><rect class="d" x="38.25" y="41.16" width="3.96" height="3.96" rx="1.92" ry="1.92" transform="translate(47.42 -15.41) rotate(50)"/><rect class="d" x="23.16" y="46.69" width="3.96" height="3.96" rx="1.92" ry="1.92" transform="translate(-23.53 73.82) rotate(-90)"/><rect class="d" x="15.21" y="45.31" width="3.96" height="3.96" rx="1.92" ry="1.92" transform="translate(-33.13 47.27) rotate(-70)"/><rect class="d" x="8.07" y="41.16" width="3.96" height="3.96" rx="1.92" ry="1.92" transform="translate(-29.46 23.11) rotate(-50)"/><rect class="d" x="43.45" y="34.89" width="3.96" height="3.96" rx="1.92" ry="1.92" transform="translate(24.52 -17.78) rotate(30)"/></g></svg>