<?xml version="1.0" encoding="UTF-8"?>
<svg id="logo" xmlns="http://www.w3.org/2000/svg" version="1.1" viewBox="0 0 1165.5 173.5">
  <defs>
    <style>
      .cls-1 {
        fill: #005757;
        stroke-width: 0px;
      }
    </style>
  </defs>
  <g id="nome">
    <polygon class="cls-1" points="212.7 136.1 235.9 136.1 235.9 97.4 274.2 97.4 274.2 78.5 235.9 78.5 235.9 58.7 278.3 58.7 278.3 39.8 212.7 39.8 212.7 136.1"/>
    <path class="cls-1" d="M336.9,67.6c-5.3-3.1-11.7-4.6-19.2-4.6s-13.8,1.5-19.2,4.6c-5.3,3.1-9.4,7.3-12.3,12.8s-4.3,11.9-4.3,19.2,1.4,13.6,4.3,19.1,7,9.8,12.3,12.8c5.3,3.1,11.7,4.6,19.2,4.6s13.8-1.5,19.2-4.6c5.3-3.1,9.4-7.3,12.3-12.8s4.3-11.9,4.3-19.1-1.4-13.7-4.3-19.2c-2.9-5.5-7-9.8-12.3-12.8h0ZM329,109.8c-1,3-2.4,5.3-4.3,6.9-1.9,1.7-4.2,2.5-6.9,2.5s-5.2-.8-7.1-2.5-3.4-4-4.4-6.9c-1-3-1.5-6.4-1.5-10.2s.5-7.4,1.5-10.3c1-3,2.5-5.3,4.4-6.9,1.9-1.7,4.3-2.5,7.1-2.5s5,.8,6.9,2.5,3.3,4,4.3,6.9c1,3,1.5,6.4,1.5,10.3s-.5,7.3-1.5,10.2Z"/>
    <path class="cls-1" d="M391.6,82.3c2-1.5,4.3-2.2,6.9-2.2s5.9,1,7.9,3.1,3.2,4.9,3.7,8.5h21.1c-.2-5.8-1.6-10.9-4.4-15.2-2.8-4.3-6.6-7.7-11.4-10-4.9-2.4-10.6-3.6-17.2-3.6s-13.8,1.5-19.1,4.6c-5.3,3.1-9.4,7.4-12.3,12.9s-4.3,11.9-4.3,19.1,1.4,13.6,4.3,19.1,7,9.8,12.3,12.9c5.3,3.1,11.7,4.6,19.2,4.6s12.4-1.2,17.2-3.6,8.6-5.8,11.3-10.2c2.7-4.4,4.1-9.5,4.4-15.3h-21.1c-.3,2.5-.9,4.6-2,6.3-1,1.7-2.4,3.1-4,3.9s-3.5,1.3-5.6,1.3-4.9-.7-6.9-2.2-3.5-3.6-4.6-6.5-1.6-6.4-1.6-10.6.5-7.7,1.6-10.5,2.6-5,4.6-6.5h0Z"/>
    <path class="cls-1" d="M495,67.6c-5.3-3.1-11.7-4.6-19.2-4.6s-13.8,1.5-19.2,4.6c-5.3,3.1-9.4,7.3-12.3,12.8s-4.3,11.9-4.3,19.2,1.4,13.6,4.3,19.1,7,9.8,12.3,12.8c5.3,3.1,11.7,4.6,19.2,4.6s13.8-1.5,19.2-4.6c5.3-3.1,9.4-7.3,12.3-12.8s4.3-11.9,4.3-19.1-1.4-13.7-4.3-19.2c-2.9-5.5-7-9.8-12.3-12.8h0ZM487.1,109.8c-1,3-2.4,5.3-4.3,6.9-1.9,1.7-4.2,2.5-6.9,2.5s-5.2-.8-7.1-2.5-3.4-4-4.4-6.9c-1-3-1.5-6.4-1.5-10.2s.5-7.4,1.5-10.3c1-3,2.5-5.3,4.4-6.9,1.9-1.7,4.3-2.5,7.1-2.5s5,.8,6.9,2.5,3.3,4,4.3,6.9c1,3,1.5,6.4,1.5,10.3s-.5,7.3-1.5,10.2Z"/>
    <path class="cls-1" d="M577.9,39.8l-32.5,96.3h25.1l6.3-20.3h33.3l6.3,20.3h25.1l-32.5-96.3h-31.1,0ZM582.2,98.3l10.7-34.1h.7l10.7,34.1h-22.2,0Z"/>
    <path class="cls-1" d="M673.6,82.3c2-1.5,4.3-2.2,6.9-2.2s5.9,1,7.9,3.1,3.2,4.9,3.7,8.5h21.1c-.2-5.8-1.6-10.9-4.4-15.2-2.8-4.3-6.6-7.7-11.4-10s-10.6-3.6-17.1-3.6-13.8,1.5-19.1,4.6-9.4,7.4-12.3,12.9c-2.9,5.5-4.3,11.9-4.3,19.1s1.4,13.6,4.3,19.1c2.9,5.5,7,9.8,12.3,12.9,5.3,3.1,11.7,4.6,19.2,4.6s12.4-1.2,17.2-3.6c4.8-2.4,8.6-5.8,11.3-10.2,2.7-4.4,4.1-9.5,4.4-15.3h-21.1c-.3,2.5-.9,4.6-2,6.3-1,1.7-2.4,3.1-4,3.9-1.6.9-3.5,1.3-5.6,1.3s-4.9-.7-6.9-2.2-3.5-3.6-4.6-6.5-1.6-6.4-1.6-10.6.5-7.7,1.6-10.5,2.6-5,4.6-6.5h-.1Z"/>
    <path class="cls-1" d="M781.8,72.4c-3-3.1-6.7-5.4-10.8-7-4.2-1.6-8.8-2.4-13.8-2.4-7.1,0-13.3,1.5-18.6,4.6s-9.3,7.3-12.2,12.8-4.3,11.9-4.3,19.2,1.4,14,4.3,19.5,7,9.7,12.4,12.6c5.4,2.9,11.8,4.4,19.2,4.4s11.6-.9,16.3-2.8c4.7-1.9,8.5-4.6,11.4-8s4.8-7.5,5.7-12.1l-20.7-.6c-.6,1.6-1.5,2.9-2.6,4-1.2,1.1-2.6,1.9-4.2,2.4-1.6.6-3.4.8-5.4.8-2.9,0-5.4-.6-7.5-1.8s-3.7-2.9-4.8-5.1-1.7-4.7-1.7-7.6v-.6h47.3v-5.6c0-5.8-.8-11-2.5-15.5s-4.1-8.3-7.1-11.4l-.4.2h0ZM744.2,91.8c0-2.3.7-4.3,1.8-6.2,1.2-1.9,2.8-3.4,4.8-4.6,2-1.1,4.3-1.7,6.8-1.7s4.7.5,6.6,1.6,3.4,2.5,4.5,4.4,1.7,4,1.7,6.4h-26.2,0Z"/>
    <path class="cls-1" d="M845.7,92.5l-13.7-2.6c-3-.6-5.1-1.4-6.2-2.4s-1.7-2.2-1.7-3.6.9-3.2,2.7-4.2,4.1-1.6,6.7-1.6,3.8.3,5.3,1,2.8,1.6,3.7,2.7c1,1.2,1.5,2.5,1.8,3.9l20.7-.6c-.6-7-3.6-12.5-9.2-16.5-5.5-4-13.1-6-22.7-6s-12,.9-16.7,2.7c-4.7,1.8-8.3,4.4-10.9,7.7-2.6,3.4-3.8,7.4-3.8,12.2s1.7,9.9,5.2,13.4,8.8,5.9,15.9,7.2l12.4,2.4c3,.6,5.1,1.3,6.5,2.3s2.1,2.3,2.1,3.9-1,3.2-2.8,4.3-4.2,1.6-7.1,1.6-5.8-.7-7.9-2c-2.1-1.4-3.3-3.3-3.8-5.9l-22.3.6c.8,7,4.2,12.6,10,16.8s13.8,6.3,23.9,6.3,12-1,16.9-3,8.8-4.8,11.7-8.4,4.3-7.8,4.3-12.7-1.8-9.3-5.2-12.5c-3.5-3.1-8.7-5.4-15.8-6.7v-.3h0Z"/>
    <path class="cls-1" d="M920.4,92.5l-13.7-2.6c-3-.6-5.1-1.4-6.2-2.4s-1.7-2.2-1.7-3.6.9-3.2,2.7-4.2,4.1-1.6,6.7-1.6,3.8.3,5.3,1,2.8,1.6,3.7,2.7c1,1.2,1.5,2.5,1.8,3.9l20.7-.6c-.6-7-3.6-12.5-9.2-16.5-5.5-4-13.1-6-22.7-6s-12,.9-16.7,2.7c-4.7,1.8-8.3,4.4-10.9,7.7-2.6,3.4-3.8,7.4-3.8,12.2s1.7,9.9,5.2,13.4,8.8,5.9,15.9,7.2l12.4,2.4c3,.6,5.1,1.3,6.5,2.3s2.1,2.3,2.1,3.9-1,3.2-2.8,4.3-4.2,1.6-7.1,1.6-5.8-.7-7.9-2c-2.1-1.4-3.3-3.3-3.8-5.9l-22.3.6c.8,7,4.2,12.6,10,16.8s13.8,6.3,23.9,6.3,12-1,16.9-3,8.8-4.8,11.7-8.4,4.3-7.8,4.3-12.7-1.8-9.3-5.2-12.5c-3.5-3.1-8.7-5.4-15.8-6.7v-.3h0Z"/>
    <polygon class="cls-1" points="956.3 39.8 956.3 54.5 967.6 54.5 973.2 39.8 956.3 39.8"/>
    <rect class="cls-1" x="953.4" y="65.2" width="22.6" height="70.9"/>
    <polygon class="cls-1" points="1021.3 114 1020.6 114 1007.5 65.2 983.8 65.2 1008 136.1 1033.9 136.1 1058.2 65.2 1034.4 65.2 1021.3 114"/>
    <path class="cls-1" d="M1121.7,72.4c-3-3.1-6.7-5.4-10.8-7-4.2-1.6-8.8-2.4-13.8-2.4-7.1,0-13.3,1.5-18.6,4.6-5.3,3.1-9.3,7.3-12.2,12.8-2.9,5.5-4.3,11.9-4.3,19.2s1.4,14,4.3,19.5,7,9.7,12.4,12.6c5.4,2.9,11.8,4.4,19.2,4.4s11.6-.9,16.3-2.8c4.7-1.9,8.5-4.6,11.4-8s4.8-7.5,5.7-12.1l-20.7-.6c-.6,1.6-1.5,2.9-2.6,4-1.2,1.1-2.6,1.9-4.2,2.4-1.6.6-3.4.8-5.4.8-2.9,0-5.4-.6-7.5-1.8s-3.7-2.9-4.8-5.1c-1.1-2.2-1.7-4.7-1.7-7.6v-.6h47.3v-5.6c0-5.8-.8-11-2.5-15.5s-4.1-8.3-7.1-11.4l-.4.2h0ZM1084.1,91.8c0-2.3.7-4.3,1.8-6.2,1.2-1.9,2.8-3.4,4.8-4.6,2-1.1,4.3-1.7,6.8-1.7s4.7.5,6.6,1.6,3.4,2.5,4.5,4.4,1.7,4,1.7,6.4h-26.2Z"/>
    <rect class="cls-1" x="1142.5" y="39.8" width="23" height="96.3"/>
  </g>
  <g id="icone">
    <ellipse class="cls-1" cx="86.6" cy="87.4" rx="31.5" ry="31.5"/>
    <path class="cls-1" d="M86.7,0s0,0,0,0h0c-2.9,0-5.2,2.3-5.2,5.2,0,2.9,2.3,5.2,5.2,5.2h0c2.9,0,5.2-2.3,5.2-5.2S89.6,0,86.7,0Z"/>
    <path class="cls-1" d="M67.8,2.2c-.4,0-.8,0-1.2.1h0s0,0,0,0c-2.8.7-4.5,3.5-3.9,6.3.6,2.4,2.7,4,5.1,4s.8,0,1.2-.1h0c2.8-.7,4.5-3.5,3.9-6.3-.6-2.4-2.7-4-5.1-4Z"/>
    <path class="cls-1" d="M54.6,11.6c-.9-1.8-2.8-2.9-4.7-2.9-.8,0-1.6.2-2.3.6,0,0,0,0,0,0,0,0,0,0,0,0-2.6,1.3-3.6,4.4-2.3,7,.9,1.8,2.8,2.9,4.7,2.9s1.6-.2,2.3-.6h0c2.6-1.3,3.6-4.5,2.3-7Z"/>
    <path class="cls-1" d="M37.4,28.5c2.2-1.9,2.5-5.2.6-7.4-1-1.2-2.5-1.9-4-1.9-1.2,0-2.4.4-3.4,1.2,0,0,0,0,0,0,0,0,0,0,0,0-2.2,1.9-2.5,5.2-.6,7.3,1,1.2,2.5,1.8,4,1.8s2.4-.4,3.4-1.2h0Z"/>
    <path class="cls-1" d="M17.9,42.6c.9.7,2,1,3.1,1,1.6,0,3.2-.7,4.2-2.1h0c1.7-2.3,1.2-5.6-1.1-7.3-.9-.7-2-1-3.1-1-1.6,0-3.2.7-4.2,2.1,0,0,0,0,0,0-1.7,2.3-1.2,5.6,1.1,7.3Z"/>
    <path class="cls-1" d="M9.5,59.8c.7.3,1.4.4,2,.4,2,0,4-1.2,4.8-3.2h0c1.1-2.7-.1-5.7-2.8-6.9-.7-.3-1.4-.4-2-.4-2,0-4,1.2-4.8,3.2,0,0,0,0,0,0-1.1,2.7.1,5.7,2.8,6.8Z"/>
    <path class="cls-1" d="M5.3,78.4c.3,0,.6,0,.9,0,2.5,0,4.7-1.8,5.1-4.4h0c.5-2.9-1.4-5.6-4.3-6-.3,0-.6,0-.9,0-2.5,0-4.7,1.8-5.1,4.3,0,0,0,0,0,0,0,0,0,0,0,0,0,0,0,0,0,0-.5,2.8,1.4,5.5,4.3,6Z"/>
    <path class="cls-1" d="M5.5,97.5c2.9-.2,5.1-2.7,4.9-5.5h0c-.2-2.8-2.5-4.9-5.2-4.9-.1,0-.2,0-.3,0-2.9.2-5.1,2.7-4.9,5.5h0s0,0,0,0c.2,2.8,2.5,4.9,5.2,4.9s.2,0,.3,0Z"/>
    <path class="cls-1" d="M13.6,109.5h0c-.7-2.3-2.8-3.7-5-3.7-.5,0-1,0-1.5.2-2.7.8-4.3,3.8-3.5,6.5,0,0,0,0,0,0,0,0,0,0,0,0,.7,2.2,2.8,3.7,5,3.7s1,0,1.5-.2c2.8-.8,4.3-3.8,3.4-6.5Z"/>
    <path class="cls-1" d="M20.8,125.8c-1-1.6-2.7-2.6-4.5-2.6-.9,0-1.8.2-2.6.7-2.5,1.5-3.3,4.7-1.8,7.1,0,0,0,0,0,0,1,1.6,2.7,2.5,4.5,2.5s1.8-.2,2.6-.7c2.5-1.5,3.3-4.7,1.8-7.1h0Z"/>
    <path class="cls-1" d="M31.6,140c-1-1.1-2.4-1.6-3.8-1.6-1.3,0-2.6.5-3.6,1.5-2.1,2-2.1,5.3-.1,7.4,0,0,0,0,0,0,0,0,0,0,0,0,1,1.1,2.4,1.6,3.7,1.6s2.6-.5,3.6-1.5c2.1-2,2.1-5.3.1-7.4h0Z"/>
    <path class="cls-1" d="M45.4,151.4h0c-.9-.6-1.9-.8-2.8-.8-1.7,0-3.4.8-4.4,2.4-1.6,2.4-.9,5.7,1.6,7.2,0,0,0,0,0,0,0,0,0,0,0,0,.9.6,1.8.8,2.8.8,1.7,0,3.4-.8,4.4-2.4,1.6-2.4.9-5.7-1.6-7.2Z"/>
    <path class="cls-1" d="M61.4,159.2h0c-.6-.2-1.2-.3-1.7-.3-2.2,0-4.2,1.3-4.9,3.5-1,2.7.5,5.7,3.2,6.7,0,0,0,0,0,0,0,0,0,0,0,0,.6.2,1.1.3,1.7.3,2.2,0,4.2-1.3,4.9-3.5,1-2.7-.5-5.7-3.2-6.7Z"/>
    <path class="cls-1" d="M78.8,163.1h0c-.2,0-.4,0-.5,0-2.6,0-4.9,2-5.2,4.7-.3,2.9,1.8,5.4,4.6,5.7,0,0,0,0,0,0,0,0,0,0,0,0,.2,0,.4,0,.5,0,2.6,0,4.9-2,5.2-4.7.3-2.9-1.8-5.4-4.7-5.7Z"/>
    <path class="cls-1" d="M97.3,162.8c-.2,0-.4,0-.7,0h0c-2.9.4-4.9,3-4.5,5.8.3,2.6,2.6,4.5,5.2,4.5s.4,0,.7,0c0,0,0,0,0,0,0,0,0,0,0,0,2.8-.4,4.8-3,4.5-5.8-.3-2.6-2.6-4.5-5.2-4.5Z"/>
    <path class="cls-1" d="M115.8,158.2c-.6,0-1.2.1-1.9.3h0c-2.7,1-4,4.1-3,6.7.8,2.1,2.8,3.4,4.9,3.4s1.2-.1,1.9-.3c0,0,0,0,0,0,0,0,0,0,0,0,2.7-1,4-4,3-6.7-.8-2.1-2.8-3.4-4.9-3.4Z"/>
    <path class="cls-1" d="M132.6,149.3c-1,0-2,.3-2.9.9h0c-2.4,1.6-3,4.9-1.4,7.3,1,1.5,2.6,2.3,4.3,2.3s2-.3,2.9-.9c0,0,0,0,0,0,0,0,0,0,0,0,2.4-1.6,3-4.9,1.4-7.2-1-1.5-2.6-2.3-4.3-2.3Z"/>
    <path class="cls-1" d="M147,136.8c-1.4,0-2.8.6-3.9,1.7h0c-1.9,2.1-1.8,5.4.3,7.4,1,.9,2.3,1.4,3.5,1.4s2.8-.6,3.8-1.7c0,0,0,0,0,0,0,0,0,0,0,0,1.9-2.1,1.8-5.4-.3-7.4-1-.9-2.3-1.4-3.5-1.4Z"/>
    <path class="cls-1" d="M160.7,122c-.8-.4-1.7-.7-2.5-.7-1.8,0-3.6,1-4.6,2.7h0c-1.4,2.5-.5,5.7,2,7.1.8.4,1.7.7,2.5.7,1.8,0,3.6-1,4.5-2.7,0,0,0,0,0,0,0,0,0,0,0,0,1.4-2.5.5-5.7-2-7.1Z"/>
    <path class="cls-1" d="M166.8,103.9c-.5-.1-.9-.2-1.4-.2-2.3,0-4.4,1.5-5,3.8h0c-.8,2.8.8,5.7,3.6,6.5.5.1.9.2,1.4.2,2.3,0,4.4-1.5,5-3.8,0,0,0,0,0,0,0,0,0,0,0,0,.8-2.8-.9-5.6-3.6-6.4Z"/>
    <path class="cls-1" d="M168.5,84.9c0,0-.1,0-.2,0-2.8,0-5.1,2.2-5.2,5h0c-.1,2.9,2.1,5.3,5,5.4,0,0,.1,0,.2,0,2.8,0,5.1-2.2,5.2-5,0,0,0,0,0,0,0-2.9-2.1-5.3-5-5.4Z"/>
    <path class="cls-1" d="M161.7,72.1h0c.5,2.5,2.7,4.2,5.1,4.2s.7,0,1,0c2.8-.6,4.7-3.3,4.1-6.1,0,0,0,0,0,0,0,0,0,0,0,0,0,0,0,0,0,0,0,0,0,0,0,0-.5-2.5-2.7-4.2-5.1-4.2-.3,0-.7,0-1,0-2.8.6-4.7,3.3-4.1,6.1Z"/>
    <path class="cls-1" d="M156.2,55.1h0c.9,1.9,2.8,3.1,4.7,3.1s1.5-.2,2.2-.5c2.6-1.2,3.8-4.3,2.6-6.9,0,0,0,0,0,0-.9-1.9-2.8-3-4.7-3-.7,0-1.5.2-2.2.5-2.6,1.2-3.8,4.3-2.6,6.9Z"/>
    <path class="cls-1" d="M147,39.9c1,1.3,2.6,2,4.1,2s2.3-.4,3.2-1.1c2.3-1.8,2.7-5,.9-7.3,0,0,0,0,0,0,0,0,0,0,0,0-1-1.3-2.6-2-4.1-2-1.1,0-2.3.4-3.2,1.1-2.3,1.8-2.7,5.1-.9,7.3h0Z"/>
    <path class="cls-1" d="M141,19.1s0,0,0,0c0,0,0,0,0,0,0,0,0,0,0,0-1-.8-2.1-1.1-3.2-1.1-1.5,0-3,.7-4.1,2-1.8,2.2-1.4,5.5.8,7.3h0c1,.8,2.1,1.2,3.3,1.2s3-.7,4.1-2c1.8-2.2,1.4-5.5-.8-7.3Z"/>
    <path class="cls-1" d="M123.8,8.3s0,0,0,0c0,0,0,0,0,0-.7-.3-1.5-.5-2.2-.5-2,0-3.8,1.1-4.7,3-1.2,2.6-.1,5.7,2.5,6.9h0c.7.4,1.5.5,2.2.5,2,0,3.8-1.1,4.7-3,1.2-2.6.1-5.7-2.5-6.9Z"/>
    <path class="cls-1" d="M104.6,1.9s0,0,0,0c0,0,0,0,0,0,0,0,0,0,0,0-.4,0-.7-.1-1.1-.1-2.4,0-4.6,1.7-5.1,4.1-.6,2.8,1.2,5.6,4,6.2h0c.4,0,.7.1,1.1.1,2.4,0,4.6-1.7,5.1-4.1.6-2.8-1.2-5.6-4-6.2Z"/>
  </g>
</svg>