<?xml version="1.0" encoding="UTF-8"?>
<svg id="logo" xmlns="http://www.w3.org/2000/svg" version="1.1" viewBox="0 0 1180.9 173.3">
  <defs>
    <style>
      .cls-1 {
        fill: none;
        stroke: #000;
        stroke-miterlimit: 10;
      }

      .cls-2 {
        display: none;
      }

      .cls-3 {
        fill: #005757;
        stroke-width: 0px;
      }
    </style>
  </defs>
  <g id="texto" class="cls-2">
    <path class="cls-3" d="M251.8,135.7h-20.4V38.2h55.9v16.9h-35.5v25.1h33v16.9h-33v38.5h0Z"/>
    <path class="cls-3" d="M372.5,98.3c0,12.4-3.3,21.9-9.8,28.7-6.5,6.7-15.4,10.1-26.6,10.1s-13.1-1.5-18.5-4.5-9.7-7.4-12.8-13.2c-3.1-5.8-4.6-12.8-4.6-21.1,0-12.4,3.2-21.9,9.7-28.5s15.3-10,26.6-10,13.2,1.5,18.6,4.5,9.6,7.4,12.7,13.1,4.6,12.7,4.6,20.9h0ZM321,98.3c0,7.4,1.2,12.9,3.6,16.7,2.4,3.8,6.4,5.7,11.8,5.7s9.3-1.9,11.7-5.7c2.4-3.8,3.6-9.4,3.6-16.7s-1.2-12.9-3.6-16.6-6.4-5.5-11.8-5.5-9.3,1.8-11.7,5.5-3.6,9.2-3.6,16.6Z"/>
    <path class="cls-3" d="M419.6,137.1c-11.1,0-19.7-3.1-25.7-9.1s-9.1-15.8-9.1-29.1,1.5-16.5,4.6-22.3c3.1-5.7,7.4-10,12.9-12.7s11.9-4.1,19-4.1,9.5.5,13.3,1.5,7.1,2.2,9.9,3.6l-6,15.7c-3.2-1.3-6.2-2.3-9-3.1-2.8-.8-5.5-1.2-8.3-1.2-10.6,0-15.8,7.5-15.8,22.5s1.4,13,4.2,16.5c2.8,3.6,6.7,5.3,11.7,5.3s8.1-.6,11.3-1.7,6.5-2.7,9.6-4.7v17.4c-3.1,2-6.3,3.4-9.8,4.3-3.4.9-7.7,1.3-12.9,1.3h0Z"/>
    <path class="cls-3" d="M527.3,98.3c0,12.4-3.3,21.9-9.8,28.7-6.5,6.7-15.4,10.1-26.6,10.1s-13.1-1.5-18.5-4.5-9.7-7.4-12.8-13.2c-3.1-5.8-4.6-12.8-4.6-21.1,0-12.4,3.2-21.9,9.7-28.5s15.3-10,26.6-10,13.2,1.5,18.6,4.5,9.6,7.4,12.7,13.1c3.1,5.7,4.6,12.7,4.6,20.9h0ZM475.8,98.3c0,7.4,1.2,12.9,3.6,16.7,2.4,3.8,6.3,5.7,11.8,5.7s9.3-1.9,11.7-5.7,3.6-9.4,3.6-16.7-1.2-12.9-3.6-16.6c-2.4-3.7-6.3-5.5-11.8-5.5s-9.3,1.8-11.7,5.5-3.6,9.2-3.6,16.6Z"/>
    <path class="cls-3" d="M640.9,135.7l-7.1-23.2h-35.5l-7.1,23.2h-22.3l34.4-97.9h25.3l34.5,97.9h-22.3,0ZM628.9,95.2l-7.1-22.7c-.5-1.6-1-3.5-1.8-5.9-.7-2.4-1.5-4.8-2.2-7.2s-1.3-4.6-1.8-6.4c-.5,1.8-1.1,4.1-1.8,6.8-.8,2.7-1.5,5.2-2.2,7.6s-1.2,4.1-1.6,5.1l-7,22.7h25.5Z"/>
    <path class="cls-3" d="M704.1,137.1c-11.1,0-19.7-3.1-25.7-9.1-6.1-6.1-9.1-15.8-9.1-29.1s1.5-16.5,4.6-22.3c3.1-5.7,7.4-10,12.9-12.7s11.9-4.1,19-4.1,9.5.5,13.3,1.5,7.1,2.2,9.9,3.6l-6,15.7c-3.2-1.3-6.2-2.3-9-3.1-2.8-.8-5.5-1.2-8.3-1.2-10.6,0-15.8,7.5-15.8,22.5s1.4,13,4.2,16.5c2.8,3.6,6.7,5.3,11.7,5.3s8.1-.6,11.3-1.7,6.5-2.7,9.6-4.7v17.4c-3.1,2-6.3,3.4-9.8,4.3-3.4.9-7.7,1.3-12.9,1.3h0Z"/>
    <path class="cls-3" d="M774.7,59.8c10.3,0,18.4,2.9,24.5,8.8s9,14.2,9,25.1v9.8h-48.1c.2,5.7,1.9,10.2,5.1,13.5,3.2,3.3,7.7,4.9,13.5,4.9s9.1-.5,13-1.4c4-1,8-2.4,12.2-4.4v15.7c-3.7,1.8-7.6,3.2-11.6,4-4,.9-8.9,1.3-14.6,1.3s-14.1-1.4-19.8-4.2-10.2-7-13.5-12.6c-3.3-5.6-4.9-12.7-4.9-21.4s1.5-15.9,4.4-21.7c3-5.8,7.1-10.2,12.4-13.1,5.3-2.9,11.4-4.4,18.4-4.4h0ZM774.9,74.3c-4,0-7.3,1.3-9.8,3.8-2.5,2.6-4,6.5-4.5,11.9h28.5c0-4.5-1.3-8.2-3.6-11.2s-5.8-4.5-10.6-4.5h0Z"/>
    <path class="cls-3" d="M876.7,113.6c0,7.6-2.7,13.4-8,17.4s-13.3,6.1-23.8,6.1-9.7-.3-13.4-1-7.5-1.8-11.2-3.4v-16.8c4,1.8,8.3,3.3,13,4.5,4.6,1.2,8.7,1.8,12.3,1.8s6.7-.6,8.5-1.8c1.7-1.2,2.6-2.7,2.6-4.6s-.3-2.4-1-3.4-2.2-2.1-4.4-3.4-5.8-2.9-10.7-4.9c-4.7-2-8.6-4-11.5-5.9-3-2-5.2-4.3-6.6-7.1-1.5-2.8-2.2-6.3-2.2-10.4,0-6.9,2.7-12.1,8.1-15.6,5.4-3.5,12.5-5.2,21.4-5.2s9.1.5,13.2,1.4c4.2.9,8.5,2.4,13,4.5l-6.2,14.6c-3.6-1.6-7.1-2.9-10.4-3.9s-6.6-1.6-10-1.6c-6,0-9,1.6-9,4.9s.4,2.2,1.2,3.2,2.3,2,4.5,3.1,5.5,2.6,9.9,4.4c4.3,1.7,8,3.5,11.1,5.4s5.5,4.2,7.2,7,2.5,6.4,2.5,10.8h0Z"/>
    <path class="cls-3" d="M944.6,113.6c0,7.6-2.7,13.4-8,17.4s-13.3,6.1-23.8,6.1-9.7-.3-13.4-1-7.5-1.8-11.2-3.4v-16.8c4,1.8,8.3,3.3,13,4.5s8.7,1.8,12.3,1.8,6.7-.6,8.5-1.8c1.7-1.2,2.6-2.7,2.6-4.6s-.3-2.4-1-3.4-2.2-2.1-4.4-3.4c-2.3-1.3-5.8-2.9-10.7-4.9-4.7-2-8.6-4-11.5-5.9-3-2-5.2-4.3-6.6-7.1-1.5-2.8-2.2-6.3-2.2-10.4,0-6.9,2.7-12.1,8.1-15.6,5.4-3.5,12.5-5.2,21.4-5.2s9.1.5,13.2,1.4c4.2.9,8.5,2.4,13,4.5l-6.2,14.6c-3.6-1.6-7.1-2.9-10.4-3.9s-6.6-1.6-10-1.6c-6,0-9,1.6-9,4.9s.4,2.2,1.2,3.2,2.3,2,4.5,3.1,5.5,2.6,9.9,4.4c4.3,1.7,8,3.5,11.1,5.4s5.5,4.2,7.2,7,2.5,6.4,2.5,10.8h0Z"/>
    <path class="cls-3" d="M996.4,32.2v1.4c-1.3,1.3-2.9,2.8-5,4.6s-4.3,3.7-6.7,5.7-4.7,3.9-7.1,5.6c-2.3,1.8-4.3,3.2-6,4.4h-13.4v-1.8c1.4-1.7,3.1-3.7,5.1-6,1.9-2.3,3.8-4.7,5.7-7.2s3.5-4.7,4.8-6.7h22.6ZM980.4,136h-20.2V62h20.2v74Z"/>
    <path class="cls-3" d="M1019.9,135.7l-28.4-74.6h21.3l14.3,42.5c.8,2.6,1.5,5.2,1.9,7.9.4,2.7.8,5.2,1,7.4h.6c.3-4.9,1.3-10,3-15.3l14.3-42.5h21.3l-28.4,74.6h-20.9Z"/>
    <path class="cls-3" d="M1110.5,59.8c10.3,0,18.4,2.9,24.4,8.8s9,14.2,9,25.1v9.8h-48.1c.2,5.7,1.9,10.2,5.1,13.5,3.2,3.3,7.7,4.9,13.4,4.9s9.1-.5,13-1.4c4-1,8-2.4,12.2-4.4v15.7c-3.7,1.8-7.6,3.2-11.6,4-4,.9-8.9,1.3-14.6,1.3s-14.1-1.4-19.8-4.2c-5.7-2.8-10.2-7-13.5-12.6-3.3-5.6-4.9-12.7-4.9-21.4s1.5-15.9,4.4-21.7c3-5.8,7.1-10.2,12.4-13.1s11.4-4.4,18.4-4.4h.2ZM1110.7,74.3c-4,0-7.3,1.3-9.8,3.8-2.6,2.6-4.1,6.5-4.5,11.9h28.5c0-4.5-1.3-8.2-3.6-11.2-2.3-3-5.8-4.5-10.6-4.5h0Z"/>
    <path class="cls-3" d="M1180.9,135.7h-20.3V31.9h20.3v103.8h0Z"/>
  </g>
  <g id="icone">
    <circle class="cls-3" cx="102.1" cy="86.8" r="31.4"/>
    <path class="cls-3" d="M97.2,173.4c-3.9-.3-7.8-.7-11.7-1.4l1.8-9.1c3.4.6,7,1.1,10.4,1.3l-.5,9.3h0ZM108.9,173.3l-.7-9.3c3.5-.3,7-.8,10.4-1.5l2,9.1c-3.8.8-7.8,1.4-11.7,1.7h0ZM74.1,169c-3.7-1.2-7.4-2.8-10.9-4.5l4.2-8.3c3.1,1.6,6.4,2.9,9.7,4.1l-3,8.8h0ZM131.8,168.3l-3.2-8.7c3.3-1.2,6.5-2.7,9.6-4.3l4.4,8.2c-3.5,1.9-7,3.5-10.8,4.8h0ZM53.1,158.4c-3.2-2.2-6.3-4.6-9.2-7.3l6.2-6.9c2.6,2.3,5.3,4.5,8.2,6.5l-5.3,7.7h0ZM152.6,157.4l-5.4-7.6c2.9-2,5.5-4.3,8.1-6.7l6.4,6.8c-2.9,2.7-5.9,5.2-9.1,7.5ZM35.7,142.6c-2.5-3-4.8-6.1-7-9.5l7.8-5c1.9,2.9,3.9,5.8,6.2,8.5l-7.1,6h0ZM169.7,141.2l-7.2-5.8c2.2-2.8,4.2-5.6,6.1-8.6l7.9,4.8c-2,3.4-4.3,6.6-6.8,9.6h0ZM23.2,122.8c-1.6-3.6-3-7.3-4.1-11.1l8.9-2.7c1,3.4,2.2,6.7,3.7,9.8l-8.5,3.8h0ZM181.8,121.2l-8.6-3.7c1.4-3.2,2.6-6.5,3.5-9.9l8.9,2.5c-1.1,3.7-2.4,7.5-3.9,11.1h0ZM16.4,100.2c-.6-3.8-1-7.8-1-11.7l9.3-.2c0,3.5.4,7,.9,10.4l-9.2,1.4h0ZM188.1,98.5l-9.2-1.2c.4-3.5.7-7,.7-10.5s0-2,0-3.1l9.3-.4v3.5c0,3.9-.3,7.8-.8,11.8h0ZM25.2,77.9l-9.3-1.1c.4-3.9,1.2-7.8,2.1-11.6l9,2.3c-.9,3.4-1.5,6.9-1.9,10.3ZM178.4,73.2c-.6-3.5-1.4-6.9-2.5-10.2l8.8-2.9c1.2,3.7,2.1,7.6,2.9,11.4l-9.2,1.6h0ZM30.4,57.6l-8.6-3.5c1.5-3.7,3.2-7.2,5.2-10.6l8,4.6c-1.8,3-3.3,6.2-4.6,9.4ZM172,53.3c-1.5-3.1-3.3-6.2-5.2-9.1l7.8-5.1c2.1,3.3,4.1,6.7,5.8,10.2l-8.4,4h0ZM40.9,39.4l-7.3-5.7c2.4-3.1,5-6.1,7.8-8.8l6.5,6.6c-2.5,2.5-4.8,5.1-7,7.8h0ZM160.4,35.8c-2.3-2.7-4.8-5.1-7.5-7.4l6.1-7c2.9,2.6,5.7,5.3,8.3,8.3l-7,6.1h0ZM55.9,24.8l-5.5-7.5c3.1-2.3,6.4-4.5,9.9-6.4l4.5,8.1c-3,1.7-6.1,3.6-8.8,5.7h0ZM144.7,22c-2.9-2-6-3.7-9.2-5.2l4-8.4c3.6,1.7,7,3.7,10.2,5.8l-5.1,7.8h0ZM74.2,14.6l-3.4-8.6c3.7-1.4,7.4-2.6,11.2-3.5l2.1,9c-3.4.8-6.8,1.9-10.1,3.1h0ZM125.8,13c-3.3-1.1-6.8-1.9-10.2-2.5l1.6-9.2c3.8.7,7.7,1.6,11.4,2.8l-2.9,8.8h0ZM94.6,9.7l-.9-9.3c3.9-.4,7.8-.5,11.8-.4l-.4,9.3c-3.5,0-7,0-10.5.4h0Z"/>
  </g>
  <polygon class="cls-3" points="228.1 136 251.3 136 251.3 97.3 289.6 97.3 289.6 78.4 251.3 78.4 251.3 58.6 293.7 58.6 293.7 39.7 228.1 39.7 228.1 136"/>
  <path class="cls-3" d="M352.3,67.5c-5.3-3.1-11.7-4.6-19.2-4.6s-13.8,1.5-19.2,4.6c-5.3,3.1-9.4,7.3-12.3,12.8s-4.3,11.9-4.3,19.2,1.4,13.6,4.3,19.1c2.9,5.5,7,9.8,12.3,12.8,5.3,3.1,11.7,4.6,19.2,4.6s13.8-1.5,19.2-4.6c5.3-3.1,9.4-7.3,12.3-12.8s4.3-11.9,4.3-19.1-1.4-13.7-4.3-19.2c-2.9-5.5-7-9.8-12.3-12.8ZM344.4,109.7c-1,3-2.4,5.3-4.3,6.9-1.9,1.7-4.2,2.5-6.9,2.5s-5.2-.8-7.1-2.5-3.4-4-4.4-6.9c-1-3-1.5-6.4-1.5-10.2s.5-7.4,1.5-10.3c1-3,2.5-5.3,4.4-6.9,1.9-1.7,4.3-2.5,7.1-2.5s5,.8,6.9,2.5,3.3,4,4.3,6.9c1,3,1.5,6.4,1.5,10.3s-.5,7.3-1.5,10.2Z"/>
  <path class="cls-3" d="M407,82.2c2-1.5,4.3-2.2,6.9-2.2s5.9,1,7.9,3.1,3.2,4.9,3.7,8.5h21.1c-.2-5.8-1.6-10.9-4.4-15.2-2.8-4.3-6.6-7.7-11.4-10-4.9-2.4-10.6-3.6-17.2-3.6s-13.8,1.5-19.1,4.6c-5.3,3.1-9.4,7.4-12.3,12.9s-4.3,11.9-4.3,19.1,1.4,13.6,4.3,19.1,7,9.8,12.3,12.9c5.3,3.1,11.7,4.6,19.2,4.6s12.4-1.2,17.2-3.6,8.6-5.8,11.3-10.2c2.7-4.4,4.1-9.5,4.4-15.3h-21.1c-.3,2.5-.9,4.6-2,6.3-1,1.7-2.4,3.1-4,3.9-1.6.8-3.5,1.3-5.6,1.3s-4.9-.7-6.9-2.2-3.5-3.6-4.6-6.5-1.6-6.4-1.6-10.6.5-7.7,1.6-10.5,2.6-5,4.6-6.5h0Z"/>
  <path class="cls-3" d="M510.4,67.5c-5.3-3.1-11.7-4.6-19.2-4.6s-13.8,1.5-19.2,4.6c-5.3,3.1-9.4,7.3-12.3,12.8s-4.3,11.9-4.3,19.2,1.4,13.6,4.3,19.1c2.9,5.5,7,9.8,12.3,12.8,5.3,3.1,11.7,4.6,19.2,4.6s13.8-1.5,19.2-4.6c5.3-3.1,9.4-7.3,12.3-12.8,2.9-5.5,4.3-11.9,4.3-19.1s-1.4-13.7-4.3-19.2c-2.9-5.5-7-9.8-12.3-12.8ZM502.5,109.7c-1,3-2.4,5.3-4.3,6.9-1.9,1.7-4.2,2.5-6.9,2.5s-5.2-.8-7.1-2.5-3.4-4-4.4-6.9c-1-3-1.5-6.4-1.5-10.2s.5-7.4,1.5-10.3c1-3,2.5-5.3,4.4-6.9,1.9-1.7,4.3-2.5,7.1-2.5s5,.8,6.9,2.5c1.9,1.7,3.3,4,4.3,6.9,1,3,1.5,6.4,1.5,10.3s-.5,7.3-1.5,10.2Z"/>
  <path class="cls-3" d="M593.3,39.7l-32.5,96.3h25.1l6.3-20.3h33.3l6.3,20.3h25.1l-32.5-96.3h-31.1ZM597.6,98.2l10.7-34.1h.7l10.7,34.1h-22.2.1Z"/>
  <path class="cls-3" d="M689,82.2c2-1.5,4.3-2.2,6.9-2.2s5.9,1,7.9,3.1,3.2,4.9,3.7,8.5h21.1c-.2-5.8-1.6-10.9-4.4-15.2-2.8-4.3-6.6-7.7-11.4-10s-10.6-3.6-17.1-3.6-13.8,1.5-19.1,4.6-9.4,7.4-12.3,12.9c-2.9,5.5-4.3,11.9-4.3,19.1s1.4,13.6,4.3,19.1c2.9,5.5,7,9.8,12.3,12.9,5.3,3.1,11.7,4.6,19.2,4.6s12.4-1.2,17.2-3.6c4.8-2.4,8.6-5.8,11.3-10.2,2.7-4.4,4.1-9.5,4.4-15.3h-21.1c-.3,2.5-.9,4.6-2,6.3-1,1.7-2.4,3.1-4,3.9-1.6.9-3.5,1.3-5.6,1.3s-4.9-.7-6.9-2.2-3.5-3.6-4.6-6.5-1.6-6.4-1.6-10.6.5-7.7,1.6-10.5,2.6-5,4.6-6.5h-.1Z"/>
  <path class="cls-3" d="M797.2,72.3c-3-3.1-6.7-5.4-10.8-7-4.2-1.6-8.8-2.4-13.8-2.4-7.1,0-13.3,1.5-18.6,4.6s-9.3,7.3-12.2,12.8-4.3,11.9-4.3,19.2,1.4,14,4.3,19.5,7,9.7,12.4,12.6c5.4,2.9,11.8,4.4,19.2,4.4s11.6-.9,16.3-2.8c4.7-1.9,8.5-4.6,11.4-8s4.8-7.5,5.7-12.1l-20.7-.6c-.6,1.6-1.5,2.9-2.6,4-1.2,1.1-2.6,1.9-4.2,2.4-1.6.6-3.4.8-5.4.8-2.9,0-5.4-.6-7.5-1.8s-3.7-2.9-4.8-5.1-1.7-4.7-1.7-7.6v-.6h47.3v-5.6c0-5.8-.8-11-2.5-15.5s-4.1-8.3-7.1-11.4l-.4.2ZM759.6,91.7c0-2.3.7-4.3,1.8-6.2,1.2-1.9,2.8-3.4,4.8-4.6,2-1.1,4.3-1.7,6.8-1.7s4.7.5,6.6,1.6,3.4,2.5,4.5,4.4,1.7,4,1.7,6.4h-26.2,0Z"/>
  <path class="cls-3" d="M861.1,92.4l-13.7-2.6c-3-.6-5.1-1.4-6.2-2.4s-1.7-2.2-1.7-3.6.9-3.2,2.7-4.2,4.1-1.6,6.7-1.6,3.8.3,5.3,1,2.8,1.6,3.7,2.7c1,1.2,1.5,2.5,1.8,3.9l20.7-.6c-.6-7-3.6-12.5-9.2-16.5-5.5-4-13.1-6-22.7-6s-12,.9-16.7,2.7c-4.7,1.8-8.3,4.4-10.9,7.7-2.6,3.4-3.8,7.4-3.8,12.2s1.7,9.9,5.2,13.4,8.8,5.9,15.9,7.2l12.4,2.4c3,.6,5.1,1.3,6.5,2.3s2.1,2.3,2.1,3.9-1,3.2-2.8,4.3-4.2,1.6-7.1,1.6-5.8-.7-7.9-2c-2.1-1.4-3.3-3.3-3.8-5.9l-22.3.6c.8,7,4.2,12.6,10,16.8s13.8,6.3,23.9,6.3,12-1,16.9-3,8.8-4.8,11.7-8.4,4.3-7.8,4.3-12.7-1.8-9.3-5.2-12.5c-3.5-3.1-8.7-5.4-15.8-6.7v-.3Z"/>
  <path class="cls-3" d="M935.8,92.4l-13.7-2.6c-3-.6-5.1-1.4-6.2-2.4s-1.7-2.2-1.7-3.6.9-3.2,2.7-4.2,4.1-1.6,6.7-1.6,3.8.3,5.3,1,2.8,1.6,3.7,2.7c1,1.2,1.5,2.5,1.8,3.9l20.7-.6c-.6-7-3.6-12.5-9.2-16.5-5.5-4-13.1-6-22.7-6s-12,.9-16.7,2.7c-4.7,1.8-8.3,4.4-10.9,7.7-2.6,3.4-3.8,7.4-3.8,12.2s1.7,9.9,5.2,13.4,8.8,5.9,15.9,7.2l12.4,2.4c3,.6,5.1,1.3,6.5,2.3s2.1,2.3,2.1,3.9-1,3.2-2.8,4.3-4.2,1.6-7.1,1.6-5.8-.7-7.9-2c-2.1-1.4-3.3-3.3-3.8-5.9l-22.3.6c.8,7,4.2,12.6,10,16.8s13.8,6.3,23.9,6.3,12-1,16.9-3,8.8-4.8,11.7-8.4,4.3-7.8,4.3-12.7-1.8-9.3-5.2-12.5c-3.5-3.1-8.7-5.4-15.8-6.7v-.3Z"/>
  <polygon class="cls-3" points="971.7 39.7 971.7 54.4 983 54.4 988.6 39.7 971.7 39.7"/>
  <rect class="cls-3" x="968.8" y="65.1" width="22.6" height="70.9"/>
  <polygon class="cls-3" points="1036.7 113.9 1036 113.9 1022.9 65.1 999.2 65.1 1023.4 136 1049.3 136 1073.6 65.1 1049.8 65.1 1036.7 113.9"/>
  <path class="cls-3" d="M1137.1,72.3c-3-3.1-6.7-5.4-10.8-7-4.2-1.6-8.8-2.4-13.8-2.4-7.1,0-13.3,1.5-18.6,4.6-5.3,3.1-9.3,7.3-12.2,12.8-2.9,5.5-4.3,11.9-4.3,19.2s1.4,14,4.3,19.5,7,9.7,12.4,12.6c5.4,2.9,11.8,4.4,19.2,4.4s11.6-.9,16.3-2.8c4.7-1.9,8.5-4.6,11.4-8s4.8-7.5,5.7-12.1l-20.7-.6c-.6,1.6-1.5,2.9-2.6,4-1.2,1.1-2.6,1.9-4.2,2.4-1.6.6-3.4.8-5.4.8-2.9,0-5.4-.6-7.5-1.8s-3.7-2.9-4.8-5.1c-1.1-2.2-1.7-4.7-1.7-7.6v-.6h47.3v-5.6c0-5.8-.8-11-2.5-15.5s-4.1-8.3-7.1-11.4l-.4.2ZM1099.5,91.7c0-2.3.7-4.3,1.8-6.2,1.2-1.9,2.8-3.4,4.8-4.6,2-1.1,4.3-1.7,6.8-1.7s4.7.5,6.6,1.6,3.4,2.5,4.5,4.4,1.7,4,1.7,6.4h-26.2Z"/>
  <rect class="cls-3" x="1157.9" y="39.7" width="23" height="96.3"/>
  <g class="cls-2">
    <g>
      <line class="cls-1" y1="59" x2="1180.9" y2="59"/>
      <line class="cls-1" y1="78.2" x2="1180.9" y2="78.2"/>
      <line class="cls-1" y1="39.7" x2="1180.9" y2="39.7"/>
      <line class="cls-1" y1="97.5" x2="1180.9" y2="97.5"/>
      <line class="cls-1" y1="116.7" x2="1180.9" y2="116.7"/>
      <line class="cls-1" y1="136" x2="1180.9" y2="136"/>
    </g>
    <g>
      <line class="cls-1" y1="155.3" x2="1180.9" y2="155.3"/>
      <line class="cls-1" y1="174.5" x2="1180.9" y2="174.5"/>
      <line class="cls-1" y1="136" x2="1180.9" y2="136"/>
    </g>
    <g>
      <line class="cls-1" y1="20.4" x2="1180.9" y2="20.4"/>
      <line class="cls-1" y1="39.7" x2="1180.9" y2="39.7"/>
      <line class="cls-1" y1="1.2" x2="1180.9" y2="1.2"/>
    </g>
    <g>
      <line class="cls-1" x1="208.8" y1="173.3" x2="208.8"/>
      <line class="cls-1" x1="228.1" y1="173.3" x2="228.1"/>
      <line class="cls-1" x1="189.6" y1="173.3" x2="189.6"/>
    </g>
  </g>
</svg>