<svg xmlns="http://www.w3.org/2000/svg" width="313" height="315" viewBox="0 0 313 315">
  <g transform="translate(-61 -315)">
		<path d="M19.614,5.351a2,2,0,0,1,3.772,0l3.031,8.6a2,2,0,0,0,1.835,1.334l9.1.233A2,2,0,0,1,38.522,19.1L31.286,24.66a2,2,0,0,0-.7,2.154L33.18,35.57a2,2,0,0,1-3.053,2.214l-7.49-5.168a2,2,0,0,0-2.272,0l-7.49,5.168A2,2,0,0,1,9.82,35.57l2.593-8.755a2,2,0,0,0-.7-2.154L4.478,19.1a2,2,0,0,1,1.167-3.585l9.1-.233a2,2,0,0,0,1.835-1.334Z" transform="translate(196 315)" fill="#0092ff"/>
		<path d="M19.614,5.351a2,2,0,0,1,3.772,0l3.031,8.6a2,2,0,0,0,1.835,1.334l9.1.233A2,2,0,0,1,38.522,19.1L31.286,24.66a2,2,0,0,0-.7,2.154L33.18,35.57a2,2,0,0,1-3.053,2.214l-7.49-5.168a2,2,0,0,0-2.272,0l-7.49,5.168A2,2,0,0,1,9.82,35.57l2.593-8.755a2,2,0,0,0-.7-2.154L4.478,19.1a2,2,0,0,1,1.167-3.585l9.1-.233a2,2,0,0,0,1.835-1.334Z" transform="translate(126 332)" fill="#0092ff"/>
		<path d="M19.614,5.351a2,2,0,0,1,3.772,0l3.031,8.6a2,2,0,0,0,1.835,1.334l9.1.233A2,2,0,0,1,38.522,19.1L31.286,24.66a2,2,0,0,0-.7,2.154L33.18,35.57a2,2,0,0,1-3.053,2.214l-7.49-5.168a2,2,0,0,0-2.272,0l-7.49,5.168A2,2,0,0,1,9.82,35.57l2.593-8.755a2,2,0,0,0-.7-2.154L4.478,19.1a2,2,0,0,1,1.167-3.585l9.1-.233a2,2,0,0,0,1.835-1.334Z" transform="translate(76 382)" fill="#0092ff"/>
		<path d="M19.614,5.351a2,2,0,0,1,3.772,0l3.031,8.6a2,2,0,0,0,1.835,1.334l9.1.233A2,2,0,0,1,38.522,19.1L31.286,24.66a2,2,0,0,0-.7,2.154L33.18,35.57a2,2,0,0,1-3.053,2.214l-7.49-5.168a2,2,0,0,0-2.272,0l-7.49,5.168A2,2,0,0,1,9.82,35.57l2.593-8.755a2,2,0,0,0-.7-2.154L4.478,19.1a2,2,0,0,1,1.167-3.585l9.1-.233a2,2,0,0,0,1.835-1.334Z" transform="translate(61 452)" fill="#0092ff"/>
		<path d="M19.614,5.351a2,2,0,0,1,3.772,0l3.031,8.6a2,2,0,0,0,1.835,1.334l9.1.233A2,2,0,0,1,38.522,19.1L31.286,24.66a2,2,0,0,0-.7,2.154L33.18,35.57a2,2,0,0,1-3.053,2.214l-7.49-5.168a2,2,0,0,0-2.272,0l-7.49,5.168A2,2,0,0,1,9.82,35.57l2.593-8.755a2,2,0,0,0-.7-2.154L4.478,19.1a2,2,0,0,1,1.167-3.585l9.1-.233a2,2,0,0,0,1.835-1.334Z" transform="translate(76 522)" fill="#0092ff"/>
		<path d="M19.614,5.351a2,2,0,0,1,3.772,0l3.031,8.6a2,2,0,0,0,1.835,1.334l9.1.233A2,2,0,0,1,38.522,19.1L31.286,24.66a2,2,0,0,0-.7,2.154L33.18,35.57a2,2,0,0,1-3.053,2.214l-7.49-5.168a2,2,0,0,0-2.272,0l-7.49,5.168A2,2,0,0,1,9.82,35.57l2.593-8.755a2,2,0,0,0-.7-2.154L4.478,19.1a2,2,0,0,1,1.167-3.585l9.1-.233a2,2,0,0,0,1.835-1.334Z" transform="translate(126 572)" fill="#0092ff"/>
		<path d="M19.614,5.351a2,2,0,0,1,3.772,0l3.031,8.6a2,2,0,0,0,1.835,1.334l9.1.233A2,2,0,0,1,38.522,19.1L31.286,24.66a2,2,0,0,0-.7,2.154L33.18,35.57a2,2,0,0,1-3.053,2.214l-7.49-5.168a2,2,0,0,0-2.272,0l-7.49,5.168A2,2,0,0,1,9.82,35.57l2.593-8.755a2,2,0,0,0-.7-2.154L4.478,19.1a2,2,0,0,1,1.167-3.585l9.1-.233a2,2,0,0,0,1.835-1.334Z" transform="translate(196 589)" fill="#0092ff"/>
		<path d="M19.614,5.351a2,2,0,0,1,3.772,0l3.031,8.6a2,2,0,0,0,1.835,1.334l9.1.233A2,2,0,0,1,38.522,19.1L31.286,24.66a2,2,0,0,0-.7,2.154L33.18,35.57a2,2,0,0,1-3.053,2.214l-7.49-5.168a2,2,0,0,0-2.272,0l-7.49,5.168A2,2,0,0,1,9.82,35.57l2.593-8.755a2,2,0,0,0-.7-2.154L4.478,19.1a2,2,0,0,1,1.167-3.585l9.1-.233a2,2,0,0,0,1.835-1.334Z" transform="translate(266 572)" fill="#0092ff"/>
		<path d="M19.614,5.351a2,2,0,0,1,3.772,0l3.031,8.6a2,2,0,0,0,1.835,1.334l9.1.233A2,2,0,0,1,38.522,19.1L31.286,24.66a2,2,0,0,0-.7,2.154L33.18,35.57a2,2,0,0,1-3.053,2.214l-7.49-5.168a2,2,0,0,0-2.272,0l-7.49,5.168A2,2,0,0,1,9.82,35.57l2.593-8.755a2,2,0,0,0-.7-2.154L4.478,19.1a2,2,0,0,1,1.167-3.585l9.1-.233a2,2,0,0,0,1.835-1.334Z" transform="translate(316 522)" fill="#0092ff"/>
		<path d="M19.614,5.351a2,2,0,0,1,3.772,0l3.031,8.6a2,2,0,0,0,1.835,1.334l9.1.233A2,2,0,0,1,38.522,19.1L31.286,24.66a2,2,0,0,0-.7,2.154L33.18,35.57a2,2,0,0,1-3.053,2.214l-7.49-5.168a2,2,0,0,0-2.272,0l-7.49,5.168A2,2,0,0,1,9.82,35.57l2.593-8.755a2,2,0,0,0-.7-2.154L4.478,19.1a2,2,0,0,1,1.167-3.585l9.1-.233a2,2,0,0,0,1.835-1.334Z" transform="translate(331 452)" fill="#0092ff"/>
		<path d="M19.614,5.351a2,2,0,0,1,3.772,0l3.031,8.6a2,2,0,0,0,1.835,1.334l9.1.233A2,2,0,0,1,38.522,19.1L31.286,24.66a2,2,0,0,0-.7,2.154L33.18,35.57a2,2,0,0,1-3.053,2.214l-7.49-5.168a2,2,0,0,0-2.272,0l-7.49,5.168A2,2,0,0,1,9.82,35.57l2.593-8.755a2,2,0,0,0-.7-2.154L4.478,19.1a2,2,0,0,1,1.167-3.585l9.1-.233a2,2,0,0,0,1.835-1.334Z" transform="translate(316 382)" fill="#0092ff"/>
		<path d="M19.614,5.351a2,2,0,0,1,3.772,0l3.031,8.6a2,2,0,0,0,1.835,1.334l9.1.233A2,2,0,0,1,38.522,19.1L31.286,24.66a2,2,0,0,0-.7,2.154L33.18,35.57a2,2,0,0,1-3.053,2.214l-7.49-5.168a2,2,0,0,0-2.272,0l-7.49,5.168A2,2,0,0,1,9.82,35.57l2.593-8.755a2,2,0,0,0-.7-2.154L4.478,19.1a2,2,0,0,1,1.167-3.585l9.1-.233a2,2,0,0,0,1.835-1.334Z" transform="translate(266 332)" fill="#0092ff"/>
    	<path d="M63.272,0c-6.138,0-16.4,2.3-26.048,4.865C27.35,7.471,17.4,10.555,11.542,12.423A13.462,13.462,0,0,0,2.254,23.387c-5.3,38.894,7,67.719,21.929,86.788a103.873,103.873,0,0,0,22.391,21.31,63.4,63.4,0,0,0,9.323,5.43A19.212,19.212,0,0,0,63.272,139a19.255,19.255,0,0,0,7.375-2.085,62.6,62.6,0,0,0,9.323-5.43,103.873,103.873,0,0,0,22.391-21.31c14.928-19.069,27.231-47.894,21.929-86.788A13.462,13.462,0,0,0,115,12.414Q102.256,8.336,89.32,4.856C79.668,2.311,69.41,0,63.272,0M82.363,44.706a4.53,4.53,0,0,1,6.3,0,4.277,4.277,0,0,1,0,6.151L61.973,76.919a4.524,4.524,0,0,1-6.3,0L42.331,63.888a4.277,4.277,0,0,1,0-6.151,4.53,4.53,0,0,1,6.3,0L58.824,67.7Z" transform="translate(154.228 402.5)" fill="#0092ff" fill-rule="evenodd"/>
  </g>
</svg>
